<svg xmlns="http://www.w3.org/2000/svg" width="153" height="144" viewBox="0 0 153 144">
  <path d="M68.19,30.08a8.47,8.47,0,0,1,.73-3.6,8.09,8.09,0,0,1,1.88-2.6,7.83,7.83,0,0,1,2.6-1.58,8.69,8.69,0,0,1,3-.53,9.21,9.21,0,0,1,3,.53,8.24,8.24,0,0,1,2.7,1.55,8,8,0,0,1,2,2.6,8.38,8.38,0,0,1,.76,3.63,7.69,7.69,0,0,1-1.65,5.2,8.47,8.47,0,0,1-4,2.64l7.52,33.22,10.41-29a7.71,7.71,0,0,1-4-2.87,8,8,0,0,1-1.51-4.84,8.38,8.38,0,0,1,.75-3.63,8.26,8.26,0,0,1,2-2.64A8.37,8.37,0,0,1,97,26.58a8.94,8.94,0,0,1,3-.52,9.2,9.2,0,0,1,3,.52,7.73,7.73,0,0,1,4.62,4.22,8.68,8.68,0,0,1,.72,3.63,8.34,8.34,0,0,1-.49,2.83,7.77,7.77,0,0,1-1.42,2.47,8.3,8.3,0,0,1-2.24,1.85,7.81,7.81,0,0,1-3,1l2.76,29.87L118,51.1a7.8,7.8,0,0,1-3-3,8.42,8.42,0,0,1-1.12-4.31,8,8,0,0,1,.76-3.6,8.24,8.24,0,0,1,1.94-2.6,8,8,0,0,1,2.7-1.58,9.31,9.31,0,0,1,3-.53,9,9,0,0,1,3,.53,7.67,7.67,0,0,1,2.63,1.58,8.09,8.09,0,0,1,1.88,2.6,8.33,8.33,0,0,1,.73,3.6,8.68,8.68,0,0,1-.56,3.06,8.32,8.32,0,0,1-1.62,2.64,7.43,7.43,0,0,1-2.57,1.81,8.5,8.5,0,0,1-3.43.66h-1.12l-5.47,36v31.71Q106.17,121,96,121.6t-19.61.63q-9.69,0-19.71-.63t-19.51-1.94V88L31.81,52H30.69a8.5,8.5,0,0,1-3.43-.66,7.43,7.43,0,0,1-2.57-1.81,8.32,8.32,0,0,1-1.62-2.64,8.68,8.68,0,0,1-.56-3.06,8.33,8.33,0,0,1,.73-3.6,8.09,8.09,0,0,1,1.88-2.6A7.67,7.67,0,0,1,27.75,36a9,9,0,0,1,3-.53,9.31,9.31,0,0,1,3,.53,8,8,0,0,1,2.7,1.58,8.24,8.24,0,0,1,1.94,2.6,8,8,0,0,1,.76,3.6,8.42,8.42,0,0,1-1.12,4.31,7.8,7.8,0,0,1-3,3L49,72.4l2.76-29.87a7.81,7.81,0,0,1-3-1,8.3,8.3,0,0,1-2.24-1.85,7.77,7.77,0,0,1-1.42-2.47,8.34,8.34,0,0,1-.49-2.83,8.68,8.68,0,0,1,.72-3.63,7.73,7.73,0,0,1,4.62-4.22,9.2,9.2,0,0,1,3-.52,9,9,0,0,1,3,.52,8.35,8.35,0,0,1,2.74,1.58,8.26,8.26,0,0,1,2,2.64,8.38,8.38,0,0,1,.75,3.63,8,8,0,0,1-1.51,4.84,7.71,7.71,0,0,1-4,2.87l10.41,29L73.8,37.92a8.47,8.47,0,0,1-4-2.64A7.69,7.69,0,0,1,68.19,30.08ZM26.4,42.47a3.62,3.62,0,1,0,1.06-2.57A3.47,3.47,0,0,0,26.4,42.47ZM41.3,84c.44,0,1-.08,1.78-.1s1.56-.06,2.44-.1L37.41,62.71Zm35.07,6.26c-2.68,0-5.62,0-8.8.16s-6.37.27-9.56.47-6.24.45-9.16.75-5.44.66-7.55,1.06q3.36.33,8,.59c3.07.18,6.23.32,9.46.43s6.4.19,9.52.23,5.87.07,8.24.07,5,0,8-.07,6.07-.12,9.23-.23,6.26-.23,9.29-.36,5.78-.31,8.24-.53q-3-.52-7.35-1c-2.87-.31-5.91-.58-9.09-.82s-6.4-.43-9.63-.56S79.05,90.26,76.37,90.26Zm0,10.48c-2.68,0-5.62.06-8.8.17s-6.37.26-9.56.46-6.24.45-9.16.75-5.44.66-7.55,1.06q3.36.33,8,.59c3.07.18,6.23.32,9.46.43s6.4.19,9.52.23,5.87.07,8.24.07,5,0,8-.07,6.07-.12,9.23-.23,6.26-.23,9.29-.36,5.78-.31,8.24-.53q-3-.53-7.35-1c-2.87-.31-5.91-.58-9.09-.82s-6.4-.43-9.63-.56S79.05,100.74,76.37,100.74Zm0,10.94c-2.68,0-5.62.06-8.8.17s-6.37.26-9.56.46-6.24.45-9.16.76-5.44.66-7.55,1.05q3.36.33,8,.59c3.07.18,6.23.32,9.46.43s6.4.19,9.52.23,5.87.07,8.24.07,5,0,8-.07,6.07-.12,9.23-.23,6.26-.23,9.29-.36,5.78-.31,8.24-.53q-3-.52-7.35-1c-2.87-.3-5.91-.58-9.09-.82s-6.4-.43-9.63-.56S79.05,111.68,76.37,111.68ZM48.48,33.11a3.63,3.63,0,1,0,6.2-2.57,3.65,3.65,0,0,0-5.14,0A3.51,3.51,0,0,0,48.48,33.11Zm3.76,50.36c1-.09,2.06-.14,3.13-.17l3.33-.09L55,53.28ZM76.5,45.11,68,83c1.45-.05,2.9-.08,4.35-.1l4.15,0ZM72.08,28.76a3.63,3.63,0,1,0,6.2-2.57,3.65,3.65,0,0,0-5.14,0A3.51,3.51,0,0,0,72.08,28.76ZM97.79,53.21,87.84,83l1.58,0,1.85.07,1.74.06c.55,0,1,0,1.35,0Zm-2.31-20.1a3.63,3.63,0,1,0,6.2-2.57,3.65,3.65,0,0,0-5.14,0A3.51,3.51,0,0,0,95.48,33.11Zm20.11,29.6-12.66,21c.62,0,1.35.06,2.21.06s1.73,0,2.61.07Zm2.11-20.24a3.59,3.59,0,0,0,3.62,3.62A3.54,3.54,0,0,0,123.9,45a3.64,3.64,0,1,0-6.2-2.57Z"/>
</svg>
