<svg xmlns="http://www.w3.org/2000/svg" width="153" height="144" viewBox="0 0 153 144">
  <g>
    <path d="M68.19434,30.07617a8.38965,8.38965,0,0,1,.72509-3.59253,8.17042,8.17042,0,0,1,1.87867-2.60376,7.75062,7.75062,0,0,1,2.60376-1.582,8.61749,8.61749,0,0,1,2.9663-.52734,9.17918,9.17918,0,0,1,3.03223.52734A8.25832,8.25832,0,0,1,82.103,23.84692a7.86018,7.86018,0,0,1,1.94458,2.60376,8.29243,8.29243,0,0,1,.758,3.62549,7.70925,7.70925,0,0,1-1.648,5.20752,8.5186,8.5186,0,0,1-3.95507,2.63672l7.51465,33.22266,10.415-29.00391a7.72726,7.72726,0,0,1-4.021-2.86743,7.9963,7.9963,0,0,1-1.51612-4.845,8.2924,8.2924,0,0,1,.75806-3.62549,8.00477,8.00477,0,0,1,1.97754-2.63672,8.40829,8.40829,0,0,1,2.70264-1.582,8.89552,8.89552,0,0,1,2.99926-.52734,9.17918,9.17918,0,0,1,3.03223.52734,7.96623,7.96623,0,0,1,2.70264,1.582,7.84462,7.84462,0,0,1,1.91162,2.63672,8.61311,8.61311,0,0,1,.7251,3.62549,8.36813,8.36813,0,0,1-.49439,2.83447,7.88244,7.88244,0,0,1-1.41723,2.47192,8.39323,8.39323,0,0,1-2.24122,1.84571,7.73055,7.73055,0,0,1-2.9663.95581l2.76855,29.86084L117.9624,51.104a7.79785,7.79785,0,0,1-3.03222-2.99926,8.49146,8.49146,0,0,1-1.12061-4.31763,8.07827,8.07827,0,0,1,.75806-3.59253,8.33826,8.33826,0,0,1,1.94458-2.60376,7.96609,7.96609,0,0,1,2.70263-1.582,9.17926,9.17926,0,0,1,3.03223-.52734,8.89558,8.89558,0,0,1,2.99927.52734,7.68123,7.68123,0,0,1,2.63672,1.582,8.17055,8.17055,0,0,1,1.87866,2.60376,8.38944,8.38944,0,0,1,.7251,3.59253,8.60359,8.60359,0,0,1-.56031,3.06518,8.125,8.125,0,0,1-1.615,2.63672,7.46714,7.46714,0,0,1-2.5708,1.81275,8.516,8.516,0,0,1-3.42773.65918h-1.12061l-5.47119,35.99121v31.70654q-9.55811,1.31836-19.74243,1.94458t-19.6106.62622q-9.68994,0-19.70947-.62622T37.147,119.65869V87.95215L31.80762,51.96094H30.687a8.516,8.516,0,0,1-3.42773-.65918,7.46714,7.46714,0,0,1-2.5708-1.81275,8.125,8.125,0,0,1-1.615-2.63672,8.60359,8.60359,0,0,1-.56031-3.06518,8.38944,8.38944,0,0,1,.7251-3.59253,8.17055,8.17055,0,0,1,1.87866-2.60376,7.68123,7.68123,0,0,1,2.63672-1.582,8.89558,8.89558,0,0,1,2.99927-.52734,9.17926,9.17926,0,0,1,3.03223.52734,7.96609,7.96609,0,0,1,2.70263,1.582,8.33826,8.33826,0,0,1,1.94458,2.60376,8.07827,8.07827,0,0,1,.75806,3.59253,8.49146,8.49146,0,0,1-1.12061,4.31763A7.79785,7.79785,0,0,1,35.0376,51.104L48.94629,72.39551l2.76855-29.86084a7.73055,7.73055,0,0,1-2.9663-.95581,8.39323,8.39323,0,0,1-2.24122-1.84571,7.88244,7.88244,0,0,1-1.41723-2.47192,8.36813,8.36813,0,0,1-.49439-2.83447,8.61311,8.61311,0,0,1,.7251-3.62549,7.84462,7.84462,0,0,1,1.91162-2.63672,7.96623,7.96623,0,0,1,2.70264-1.582,9.17918,9.17918,0,0,1,3.03223-.52734,8.99752,8.99752,0,0,1,2.9663.52734,8.32871,8.32871,0,0,1,2.7356,1.582,8.00477,8.00477,0,0,1,1.97754,2.63672,8.2924,8.2924,0,0,1,.75806,3.62549,7.9963,7.9963,0,0,1-1.51612,4.845,7.72726,7.72726,0,0,1-4.021,2.86743l10.415,29.00391,7.51465-33.22266a8.5186,8.5186,0,0,1-3.95507-2.63672A7.70925,7.70925,0,0,1,68.19434,30.07617Z"/>
    <path d="M26.40234,42.46875A3.60122,3.60122,0,1,0,27.457,39.898,3.4983,3.4983,0,0,0,26.40234,42.46875Z" style="fill: #fff"/>
    <path d="M41.2998,83.99707q.65919-.06592,1.77979-.09888t2.439-.09887L37.41064,62.70557Z" style="fill: #fff"/>
    <path d="M76.36816,90.25928q-4.021,0-8.8.16479T58.01,90.8855q-4.77906.29663-9.1626.75805T41.2998,92.69824q3.36183.32959,7.97608.59326t9.45923.42847q4.845.16479,9.52514.23071T76.5,94.0166q3.55958,0,8.042-.06592T93.77051,93.72q4.74609-.16479,9.29443-.36255t8.23975-.52734q-3.03223-.52734-7.34986-.98877t-9.09668-.824q-4.779-.36255-9.624-.5603T76.36816,90.25928Z" style="fill: #fff"/>
    <path d="M76.36816,100.74023q-4.021,0-8.8.1648t-9.55811.46143q-4.77906.29662-9.1626.758T41.2998,103.1792q3.36183.32959,7.97608.59326t9.45923.42847q4.845.16479,9.52514.23071t8.23975.06592q3.55958,0,8.042-.06592t9.22852-.23071q4.74609-.16481,9.29443-.36255t8.23975-.52734q-3.03223-.52736-7.34986-.98877t-9.09668-.824q-4.779-.36255-9.624-.5603T76.36816,100.74023Z" style="fill: #fff"/>
    <path d="M76.36816,111.68262q-4.021,0-8.8.16479t-9.55811.46143q-4.77906.29663-9.1626.758t-7.54761,1.05469q3.36183.32959,7.97608.59326t9.45923.42847q4.845.16479,9.52514.23071t8.23975.06592q3.55958,0,8.042-.06592t9.22852-.23071q4.74609-.16479,9.29443-.36255t8.23975-.52734q-3.03223-.52734-7.34986-.98877t-9.09668-.824q-4.779-.36255-9.624-.5603T76.36816,111.68262Z" style="fill: #fff"/>
    <path d="M48.48486,33.1084a3.60122,3.60122,0,1,0,1.05469-2.5708A3.49832,3.49832,0,0,0,48.48486,33.1084Z" style="fill: #fff"/>
    <path d="M52.24219,83.46973q1.51611-.13183,3.1311-.1648t3.32886-.09888L55.01074,53.2793Z" style="fill: #fff"/>
    <path d="M76.5,45.10547,67.99658,83.0083q2.1753-.06591,4.35059-.09888t4.15283-.033Z" style="fill: #fff"/>
    <path d="M72.0835,28.75781a3.6012,3.6012,0,1,0,1.05468-2.5708A3.49829,3.49829,0,0,0,72.0835,28.75781Z" style="fill: #fff"/>
    <path d="M97.7915,53.21338,87.83789,83.0083q.65917,0,1.582.033l1.8457.06592q.92286.033,1.74683.06592t1.35132.03295Z" style="fill: #fff"/>
    <path d="M95.48438,33.1084a3.6012,3.6012,0,1,0,1.05468-2.5708A3.49831,3.49831,0,0,0,95.48438,33.1084Z" style="fill: #fff"/>
    <path d="M115.58936,62.70557,102.93311,83.66748q.92284.06592,2.20825.06592t2.60376.06592Z" style="fill: #fff"/>
    <path d="M117.69873,42.46875a3.60122,3.60122,0,1,0,1.05469-2.5708A3.49826,3.49826,0,0,0,117.69873,42.46875Z" style="fill: #fff"/>
  </g>
</svg>
