<svg xmlns="http://www.w3.org/2000/svg" width="1152" height="1152" viewBox="0 0 1152 1152">
  <g>
    <rect x="1008" width="144" height="144" style="fill: #bfbfbf"/>
    <rect x="1008" y="288" width="144" height="144" style="fill: #bfbfbf"/>
    <rect x="1008" y="576" width="144" height="144" style="fill: #bfbfbf"/>
    <rect x="1008" y="864" width="144" height="144" style="fill: #bfbfbf"/>
    <rect x="864" y="144" width="144" height="144" style="fill: #bfbfbf"/>
    <rect x="864" y="432" width="144" height="144" style="fill: #bfbfbf"/>
    <rect x="864" y="720" width="144" height="144" style="fill: #bfbfbf"/>
    <rect x="864" y="1008" width="144" height="144" style="fill: #bfbfbf"/>
    <rect x="720" width="144" height="144" style="fill: #bfbfbf"/>
    <rect x="720" y="288" width="144" height="144" style="fill: #bfbfbf"/>
    <rect x="720" y="576" width="144" height="144" style="fill: #bfbfbf"/>
    <rect x="720" y="864" width="144" height="144" style="fill: #bfbfbf"/>
    <rect x="576" y="144" width="144" height="144" style="fill: #bfbfbf"/>
    <rect x="576" y="432" width="144" height="144" style="fill: #bfbfbf"/>
    <rect x="576" y="720" width="144" height="144" style="fill: #bfbfbf"/>
    <rect x="576" y="1008" width="144" height="144" style="fill: #bfbfbf"/>
    <rect x="432" width="144" height="144" style="fill: #bfbfbf"/>
    <rect x="432" y="288" width="144" height="144" style="fill: #bfbfbf"/>
    <rect x="432" y="576" width="144" height="144" style="fill: #bfbfbf"/>
    <rect x="432" y="864" width="144" height="144" style="fill: #bfbfbf"/>
    <rect x="288" y="144" width="144" height="144" style="fill: #bfbfbf"/>
    <rect x="288" y="432" width="144" height="144" style="fill: #bfbfbf"/>
    <rect x="288" y="720" width="144" height="144" style="fill: #bfbfbf"/>
    <rect x="288" y="1008" width="144" height="144" style="fill: #bfbfbf"/>
    <rect x="144" width="144" height="144" style="fill: #bfbfbf"/>
    <rect x="144" y="288" width="144" height="144" style="fill: #bfbfbf"/>
    <rect x="144" y="576" width="144" height="144" style="fill: #bfbfbf"/>
    <rect x="144" y="864" width="144" height="144" style="fill: #bfbfbf"/>
    <rect y="144" width="144" height="144" style="fill: #bfbfbf"/>
    <rect y="432" width="144" height="144" style="fill: #bfbfbf"/>
    <rect y="720" width="144" height="144" style="fill: #bfbfbf"/>
    <rect y="1008" width="144" height="144" style="fill: #bfbfbf"/>
  </g>
  <g>
    <g>
      <path d="M153.48,418.42a3,3,0,0,0-2.58,1.35,6.59,6.59,0,0,0-.92,3.73q0,5,3.76,4.95a7.7,7.7,0,0,0,2.2-.32,21.27,21.27,0,0,0,2.15-.76v3.92a11.94,11.94,0,0,1-4.86.94,7.67,7.67,0,0,1-5.94-2.25c-1.38-1.5-2.07-3.66-2.07-6.5a10.4,10.4,0,0,1,1-4.68,7.18,7.18,0,0,1,2.88-3.09,8.66,8.66,0,0,1,4.43-1.09,12.13,12.13,0,0,1,5.31,1.21l-1.42,3.64a18.7,18.7,0,0,0-1.9-.75A6.71,6.71,0,0,0,153.48,418.42Z" style="fill: #fff"/>
      <path d="M172.72,432H160.29V429l4.18-4.23c1.2-1.25,2-2.1,2.35-2.56a5.42,5.42,0,0,0,.76-1.18,2.41,2.41,0,0,0,.22-1,1.34,1.34,0,0,0-.43-1.05,1.77,1.77,0,0,0-1.22-.39,3.43,3.43,0,0,0-1.64.46,12.25,12.25,0,0,0-1.87,1.37l-2.54-3a13.56,13.56,0,0,1,2.23-1.69,7.87,7.87,0,0,1,2-.78,9.7,9.7,0,0,1,2.39-.27,7.19,7.19,0,0,1,3,.59,4.58,4.58,0,0,1,2,1.67,4.28,4.28,0,0,1,.72,2.43,6.49,6.49,0,0,1-.25,1.86,6.69,6.69,0,0,1-.78,1.68,11.72,11.72,0,0,1-1.4,1.74q-.87.92-3.72,3.47v.12h6.48Z" style="fill: #fff"/>
    </g>
    <g>
      <path d="M441.48,418.42a3,3,0,0,0-2.58,1.35,6.59,6.59,0,0,0-.92,3.73q0,5,3.76,4.95a7.7,7.7,0,0,0,2.2-.32,21.27,21.27,0,0,0,2.15-.76v3.92a11.94,11.94,0,0,1-4.86.94,7.67,7.67,0,0,1-5.94-2.25c-1.38-1.5-2.07-3.66-2.07-6.5a10.4,10.4,0,0,1,1-4.68,7.18,7.18,0,0,1,2.88-3.09,8.66,8.66,0,0,1,4.43-1.09,12.13,12.13,0,0,1,5.31,1.21l-1.42,3.64a18.7,18.7,0,0,0-1.9-.75A6.71,6.71,0,0,0,441.48,418.42Z" style="fill: #fff"/>
      <path d="M461.27,428.68h-1.88V432h-4.57v-3.32H448v-3.39l7.13-10.42h4.28v10.36h1.88Zm-6.45-3.45v-2c0-.37,0-.88,0-1.51s.05-1,.06-1h-.13a10.84,10.84,0,0,1-.9,1.69l-1.9,2.83Z" style="fill: #fff"/>
    </g>
    <g>
      <path d="M729.48,418.42a3,3,0,0,0-2.58,1.35,6.59,6.59,0,0,0-.92,3.73q0,5,3.76,4.95a7.7,7.7,0,0,0,2.2-.32,21.27,21.27,0,0,0,2.15-.76v3.92a11.94,11.94,0,0,1-4.86.94,7.67,7.67,0,0,1-5.94-2.25c-1.38-1.5-2.07-3.66-2.07-6.5a10.4,10.4,0,0,1,1-4.68,7.18,7.18,0,0,1,2.88-3.09,8.66,8.66,0,0,1,4.43-1.09,12.13,12.13,0,0,1,5.31,1.21l-1.42,3.64a18.7,18.7,0,0,0-1.9-.75A6.71,6.71,0,0,0,729.48,418.42Z" style="fill: #fff"/>
      <path d="M736.39,424.76a14,14,0,0,1,1-5.81,6.75,6.75,0,0,1,3-3.27,10.42,10.42,0,0,1,4.93-1.06,18,18,0,0,1,2.44.2v3.62a13.5,13.5,0,0,0-2.54-.22,5.05,5.05,0,0,0-3.46,1,4.56,4.56,0,0,0-1.24,3.33h.14a3.55,3.55,0,0,1,3.38-2,4.42,4.42,0,0,1,3.55,1.47,7.15,7.15,0,0,1-.34,8.56,6.8,6.8,0,0,1-9.19-.33A8.1,8.1,0,0,1,736.39,424.76Zm6.36,3.81A1.5,1.5,0,0,0,744,428a2.75,2.75,0,0,0,.46-1.78c0-1.39-.54-2.08-1.62-2.08a1.67,1.67,0,0,0-1.29.54A1.86,1.86,0,0,0,741,426a3.28,3.28,0,0,0,.48,1.85A1.46,1.46,0,0,0,742.75,428.57Z" style="fill: #fff"/>
    </g>
    <g>
      <path d="M1017.48,418.42a3,3,0,0,0-2.58,1.35,6.59,6.59,0,0,0-.92,3.73q0,5,3.76,4.95a7.7,7.7,0,0,0,2.2-.32,21.27,21.27,0,0,0,2.15-.76v3.92a11.94,11.94,0,0,1-4.86.94,7.67,7.67,0,0,1-5.94-2.25c-1.38-1.5-2.07-3.66-2.07-6.5a10.4,10.4,0,0,1,1-4.68,7.18,7.18,0,0,1,2.88-3.09,8.66,8.66,0,0,1,4.43-1.09,12.13,12.13,0,0,1,5.31,1.21l-1.42,3.64a18.7,18.7,0,0,0-1.9-.75A6.71,6.71,0,0,0,1017.48,418.42Z" style="fill: #fff"/>
      <path d="M1030.65,414.62a7.08,7.08,0,0,1,4.22,1.09,3.6,3.6,0,0,1,1.5,3.09,4.11,4.11,0,0,1-.71,2.39,5.8,5.8,0,0,1-2.24,1.79,8.45,8.45,0,0,1,2.68,2.15,3.83,3.83,0,0,1,.78,2.31,4.2,4.2,0,0,1-1.66,3.54,9.26,9.26,0,0,1-9.24,0,4.17,4.17,0,0,1-1.61-3.52,4.39,4.39,0,0,1,.72-2.54,6.13,6.13,0,0,1,2.4-1.9,6.44,6.44,0,0,1-2-2,4.36,4.36,0,0,1-.62-2.3,3.55,3.55,0,0,1,1.53-3.06A7.19,7.19,0,0,1,1030.65,414.62Zm-2,12.68a1.48,1.48,0,0,0,.52,1.17,2.14,2.14,0,0,0,1.43.44c1.37,0,2.06-.51,2.06-1.52a1.79,1.79,0,0,0-.45-1.13,6.27,6.27,0,0,0-1.61-1.24,4.8,4.8,0,0,0-1.5,1.1A1.86,1.86,0,0,0,1028.61,427.3Zm2-9.34a1.51,1.51,0,0,0-1,.35,1.12,1.12,0,0,0-.41.89c0,.68.46,1.27,1.37,1.78a3.94,3.94,0,0,0,1.14-.87,1.48,1.48,0,0,0,.3-.91,1.1,1.1,0,0,0-.41-.9A1.46,1.46,0,0,0,1030.63,418Z" style="fill: #fff"/>
    </g>
    <g>
      <path d="M9.48,418.42a3,3,0,0,0-2.58,1.35A6.59,6.59,0,0,0,6,423.5q0,5,3.76,4.95a7.7,7.7,0,0,0,2.2-.32,21.27,21.27,0,0,0,2.15-.76v3.92a11.94,11.94,0,0,1-4.86.94A7.67,7.67,0,0,1,3.29,430c-1.38-1.5-2.07-3.66-2.07-6.5a10.4,10.4,0,0,1,1-4.68,7.18,7.18,0,0,1,2.88-3.09,8.66,8.66,0,0,1,4.43-1.09,12.13,12.13,0,0,1,5.31,1.21l-1.42,3.64a18.7,18.7,0,0,0-1.9-.75A6.71,6.71,0,0,0,9.48,418.42Z" style="fill: #bfbfbf"/>
      <path d="M26.61,432h-4.7v-9.07c0-1.1,0-2.11.07-3a9.83,9.83,0,0,1-1.07,1.1L19,422.61l-2.4-2.95,5.88-4.79h4.17Z" style="fill: #bfbfbf"/>
    </g>
    <g>
      <path d="M297.48,418.42a3,3,0,0,0-2.58,1.35,6.59,6.59,0,0,0-.92,3.73q0,5,3.76,4.95a7.7,7.7,0,0,0,2.2-.32,21.27,21.27,0,0,0,2.15-.76v3.92a11.94,11.94,0,0,1-4.86.94,7.67,7.67,0,0,1-5.94-2.25c-1.38-1.5-2.07-3.66-2.07-6.5a10.4,10.4,0,0,1,1-4.68,7.18,7.18,0,0,1,2.88-3.09,8.66,8.66,0,0,1,4.43-1.09,12.13,12.13,0,0,1,5.31,1.21l-1.42,3.64a18.7,18.7,0,0,0-1.9-.75A6.71,6.71,0,0,0,297.48,418.42Z" style="fill: #bfbfbf"/>
      <path d="M316.15,418.58a4.13,4.13,0,0,1-1,2.74,5.61,5.61,0,0,1-2.82,1.66v.07q4.29.54,4.29,4.05a4.38,4.38,0,0,1-1.89,3.76,8.77,8.77,0,0,1-5.26,1.37,15.78,15.78,0,0,1-2.56-.19,14.34,14.34,0,0,1-2.55-.73v-3.85a9.7,9.7,0,0,0,2.3.85,9,9,0,0,0,2.15.28,4.37,4.37,0,0,0,2.22-.43,1.46,1.46,0,0,0,.69-1.34,1.5,1.5,0,0,0-.36-1.08,2.29,2.29,0,0,0-1.17-.58,9.32,9.32,0,0,0-2.11-.19h-1.06v-3.48h1.08c2.35,0,3.53-.6,3.53-1.81a1.08,1.08,0,0,0-.52-1,2.61,2.61,0,0,0-1.4-.33,6.34,6.34,0,0,0-3.4,1.1l-1.92-3.09A9.23,9.23,0,0,1,307.2,415a12,12,0,0,1,3.26-.4,7.16,7.16,0,0,1,4.18,1.06A3.36,3.36,0,0,1,316.15,418.58Z" style="fill: #bfbfbf"/>
    </g>
    <g>
      <path d="M585.48,418.42a3,3,0,0,0-2.58,1.35,6.59,6.59,0,0,0-.92,3.73q0,5,3.76,4.95a7.7,7.7,0,0,0,2.2-.32,21.27,21.27,0,0,0,2.15-.76v3.92a11.94,11.94,0,0,1-4.86.94,7.67,7.67,0,0,1-5.94-2.25c-1.38-1.5-2.07-3.66-2.07-6.5a10.4,10.4,0,0,1,1-4.68,7.18,7.18,0,0,1,2.88-3.09,8.66,8.66,0,0,1,4.43-1.09,12.13,12.13,0,0,1,5.31,1.21l-1.42,3.64a18.7,18.7,0,0,0-1.9-.75A6.71,6.71,0,0,0,585.48,418.42Z" style="fill: #bfbfbf"/>
      <path d="M599.36,420.77a5.2,5.2,0,0,1,2.66.69,4.74,4.74,0,0,1,1.85,1.94,6.1,6.1,0,0,1,.67,2.89,5.59,5.59,0,0,1-1.73,4.41,7.73,7.73,0,0,1-5.24,1.53,11.11,11.11,0,0,1-4.89-.92v-3.8a12.9,12.9,0,0,0,2.3.78,9.87,9.87,0,0,0,2.21.3,3.09,3.09,0,0,0,2-.55,1.92,1.92,0,0,0,.69-1.61,1.86,1.86,0,0,0-.7-1.53,3.42,3.42,0,0,0-2.14-.55,7.46,7.46,0,0,0-2.35.41l-1.7-.85.64-9h9.78v3.85h-5.84l-.21,2.26a11.41,11.41,0,0,1,1.3-.19Z" style="fill: #bfbfbf"/>
    </g>
    <g>
      <path d="M873.48,418.42a3,3,0,0,0-2.58,1.35,6.59,6.59,0,0,0-.92,3.73q0,5,3.76,4.95a7.7,7.7,0,0,0,2.2-.32,21.27,21.27,0,0,0,2.15-.76v3.92a11.94,11.94,0,0,1-4.86.94,7.67,7.67,0,0,1-5.94-2.25c-1.38-1.5-2.07-3.66-2.07-6.5a10.4,10.4,0,0,1,1-4.68,7.18,7.18,0,0,1,2.88-3.09,8.66,8.66,0,0,1,4.43-1.09,12.13,12.13,0,0,1,5.31,1.21l-1.42,3.64a18.7,18.7,0,0,0-1.9-.75A6.71,6.71,0,0,0,873.48,418.42Z" style="fill: #bfbfbf"/>
      <path d="M882,432l5.89-13.28h-7.42v-3.83h12.36v2.73l-6,14.38Z" style="fill: #bfbfbf"/>
    </g>
    <g>
      <path d="M156,720H145.85V702.87H156v3.71h-5.54v2.7h5.13V713h-5.13v3.24H156Z" style="fill: #fff"/>
      <path d="M170.32,720H157.89v-3l4.18-4.23c1.2-1.25,2-2.1,2.34-2.56a5.16,5.16,0,0,0,.77-1.18,2.41,2.41,0,0,0,.22-1,1.34,1.34,0,0,0-.44-1.05,1.73,1.73,0,0,0-1.21-.39,3.43,3.43,0,0,0-1.64.46,12.25,12.25,0,0,0-1.87,1.37l-2.54-3a13.15,13.15,0,0,1,2.23-1.69,7.87,7.87,0,0,1,2-.78,9.67,9.67,0,0,1,2.38-.27,7.19,7.19,0,0,1,3,.59,4.55,4.55,0,0,1,2,1.67,4.28,4.28,0,0,1,.72,2.43,6.49,6.49,0,0,1-.25,1.86,6.69,6.69,0,0,1-.78,1.68,11.72,11.72,0,0,1-1.4,1.74q-.87.92-3.72,3.47v.12h6.48Z" style="fill: #fff"/>
    </g>
    <g>
      <path d="M444,720H433.85V702.87H444v3.71h-5.54v2.7h5.13V713h-5.13v3.24H444Z" style="fill: #fff"/>
      <path d="M458.87,716.68H457V720h-4.57v-3.32h-6.83v-3.39l7.13-10.42H457v10.36h1.89Zm-6.46-3.45v-2c0-.37,0-.88,0-1.51a7.71,7.71,0,0,1,.06-1h-.13a12.84,12.84,0,0,1-.9,1.69l-1.9,2.83Z" style="fill: #fff"/>
    </g>
    <g>
      <path d="M732,720H721.85V702.87H732v3.71h-5.54v2.7h5.13V713h-5.13v3.24H732Z" style="fill: #fff"/>
      <path d="M734,712.76a13.87,13.87,0,0,1,1-5.81,6.75,6.75,0,0,1,3-3.27,10.39,10.39,0,0,1,4.93-1.06,18.08,18.08,0,0,1,2.44.2v3.62a13.61,13.61,0,0,0-2.55-.22,5,5,0,0,0-3.45,1,4.57,4.57,0,0,0-1.25,3.33h.14a3.58,3.58,0,0,1,3.39-2,4.43,4.43,0,0,1,3.55,1.47,7.15,7.15,0,0,1-.34,8.56,6.81,6.81,0,0,1-9.2-.33A8.15,8.15,0,0,1,734,712.76Zm6.35,3.81a1.47,1.47,0,0,0,1.2-.56,2.75,2.75,0,0,0,.47-1.78c0-1.39-.54-2.08-1.62-2.08a1.67,1.67,0,0,0-1.29.54,1.82,1.82,0,0,0-.5,1.31,3.28,3.28,0,0,0,.48,1.85A1.46,1.46,0,0,0,740.34,716.57Z" style="fill: #fff"/>
    </g>
    <g>
      <path d="M1020,720h-10.17V702.87H1020v3.71h-5.54v2.7h5.13V713h-5.13v3.24H1020Z" style="fill: #fff"/>
      <path d="M1028.25,702.62a7.05,7.05,0,0,1,4.21,1.09,3.59,3.59,0,0,1,1.51,3.09,4.11,4.11,0,0,1-.71,2.39A5.8,5.8,0,0,1,1031,711a8.4,8.4,0,0,1,2.67,2.15,3.83,3.83,0,0,1,.78,2.31,4.2,4.2,0,0,1-1.65,3.54,9.28,9.28,0,0,1-9.25,0,4.16,4.16,0,0,1-1.6-3.52,4.46,4.46,0,0,1,.71-2.54,6.25,6.25,0,0,1,2.41-1.9,6.44,6.44,0,0,1-2-2,4.37,4.37,0,0,1-.63-2.3,3.53,3.53,0,0,1,1.54-3.06A7.19,7.19,0,0,1,1028.25,702.62Zm-2,12.68a1.45,1.45,0,0,0,.52,1.17,2.14,2.14,0,0,0,1.43.44c1.37,0,2.06-.51,2.06-1.52a1.79,1.79,0,0,0-.45-1.13,6.27,6.27,0,0,0-1.61-1.24,4.69,4.69,0,0,0-1.5,1.1A1.86,1.86,0,0,0,1026.21,715.3Zm2-9.34a1.51,1.51,0,0,0-1,.35,1.12,1.12,0,0,0-.41.89c0,.68.46,1.27,1.37,1.78a4.24,4.24,0,0,0,1.14-.87,1.48,1.48,0,0,0,.3-.91,1.13,1.13,0,0,0-.41-.9A1.46,1.46,0,0,0,1028.23,706Z" style="fill: #fff"/>
    </g>
    <g>
      <path d="M12,720H1.85V702.87H12v3.71H6.48v2.7h5.13V713H6.48v3.24H12Z" style="fill: #bfbfbf"/>
      <path d="M24.21,720h-4.7v-9.07c0-1.1,0-2.11.07-3A11,11,0,0,1,18.5,709l-1.94,1.6-2.4-3L20,702.87h4.17Z" style="fill: #bfbfbf"/>
    </g>
    <g>
      <path d="M300,720H289.85V702.87H300v3.71h-5.54v2.7h5.13V713h-5.13v3.24H300Z" style="fill: #bfbfbf"/>
      <path d="M313.75,706.58a4.09,4.09,0,0,1-1,2.74A5.58,5.58,0,0,1,310,711v.07q4.29.54,4.29,4.05a4.38,4.38,0,0,1-1.89,3.76,8.79,8.79,0,0,1-5.26,1.37,15.78,15.78,0,0,1-2.56-.19,14.34,14.34,0,0,1-2.55-.73v-3.85a9.79,9.79,0,0,0,2.29.85,9.14,9.14,0,0,0,2.15.28,4.32,4.32,0,0,0,2.22-.43,1.44,1.44,0,0,0,.7-1.34,1.5,1.5,0,0,0-.36-1.08,2.29,2.29,0,0,0-1.17-.58,9.38,9.38,0,0,0-2.11-.19h-1.06v-3.48h1.08c2.35,0,3.53-.6,3.53-1.81a1.1,1.1,0,0,0-.52-1,2.61,2.61,0,0,0-1.4-.33,6.34,6.34,0,0,0-3.4,1.1L302,704.36A9.23,9.23,0,0,1,304.8,703a12,12,0,0,1,3.26-.4,7.11,7.11,0,0,1,4.17,1.06A3.35,3.35,0,0,1,313.75,706.58Z" style="fill: #bfbfbf"/>
    </g>
    <g>
      <path d="M588,720H577.85V702.87H588v3.71h-5.54v2.7h5.13V713h-5.13v3.24H588Z" style="fill: #bfbfbf"/>
      <path d="M597,708.77a5.21,5.21,0,0,1,2.67.69,4.74,4.74,0,0,1,1.85,1.94,6.1,6.1,0,0,1,.66,2.89,5.55,5.55,0,0,1-1.73,4.41,7.69,7.69,0,0,1-5.23,1.53,11.19,11.19,0,0,1-4.9-.92v-3.8a13,13,0,0,0,2.31.78,9.87,9.87,0,0,0,2.21.3,3.13,3.13,0,0,0,2-.55,1.92,1.92,0,0,0,.69-1.61,1.84,1.84,0,0,0-.71-1.53,3.39,3.39,0,0,0-2.13-.55,7.41,7.41,0,0,0-2.35.41l-1.7-.85.64-9H601v3.85h-5.83l-.21,2.26a11.41,11.41,0,0,1,1.3-.19Z" style="fill: #bfbfbf"/>
    </g>
    <g>
      <path d="M876,720H865.85V702.87H876v3.71h-5.54v2.7h5.13V713h-5.13v3.24H876Z" style="fill: #bfbfbf"/>
      <path d="M879.62,720l5.88-13.28h-7.41v-3.83h12.36v2.73l-6,14.38Z" style="fill: #bfbfbf"/>
    </g>
    <g>
      <path d="M152.73,998h7.39v9.23a20.2,20.2,0,0,1-6.62,1,8,8,0,0,1-6.12-2.29,9.21,9.21,0,0,1-2.16-6.55,8.6,8.6,0,0,1,2.37-6.46,9.08,9.08,0,0,1,6.63-2.31,14.21,14.21,0,0,1,3.05.31,12.75,12.75,0,0,1,2.5.77l-1.46,3.63a9.07,9.07,0,0,0-4.07-.91,3.86,3.86,0,0,0-3.13,1.32A5.68,5.68,0,0,0,150,999.5a5.77,5.77,0,0,0,1,3.67,3.48,3.48,0,0,0,2.89,1.26,8.66,8.66,0,0,0,1.9-.2v-2.69h-3.06Z" style="fill: #fff"/>
      <path d="M174.91,1008H162.48v-3l4.18-4.23c1.2-1.25,2-2.1,2.35-2.56a5.52,5.52,0,0,0,.77-1.18,2.56,2.56,0,0,0,.21-1,1.34,1.34,0,0,0-.43-1.05,1.77,1.77,0,0,0-1.22-.39,3.39,3.39,0,0,0-1.63.46,11.34,11.34,0,0,0-1.87,1.37l-2.55-3a14,14,0,0,1,2.23-1.69,8,8,0,0,1,2-.78,9.7,9.7,0,0,1,2.39-.27,7.19,7.19,0,0,1,3,.59,4.66,4.66,0,0,1,2,1.67,4.28,4.28,0,0,1,.72,2.43,6.48,6.48,0,0,1-.26,1.86,6.06,6.06,0,0,1-.78,1.68,11.11,11.11,0,0,1-1.4,1.74q-.87.92-3.72,3.47v.12h6.48Z" style="fill: #fff"/>
    </g>
    <g>
      <path d="M440.73,998h7.39v9.23a20.2,20.2,0,0,1-6.62,1,8,8,0,0,1-6.12-2.29,9.21,9.21,0,0,1-2.16-6.55,8.6,8.6,0,0,1,2.37-6.46,9.08,9.08,0,0,1,6.63-2.31,14.21,14.21,0,0,1,3,.31,12.75,12.75,0,0,1,2.5.77l-1.46,3.63a9.07,9.07,0,0,0-4.07-.91,3.86,3.86,0,0,0-3.13,1.32A5.68,5.68,0,0,0,438,999.5a5.77,5.77,0,0,0,1,3.67,3.48,3.48,0,0,0,2.89,1.26,8.66,8.66,0,0,0,1.9-.2v-2.69h-3.06Z" style="fill: #fff"/>
      <path d="M463.46,1004.68h-1.88V1008H457v-3.32h-6.83v-3.39l7.12-10.42h4.28v10.36h1.88Zm-6.45-3.45v-2c0-.37,0-.88,0-1.51s.05-1,.06-1H457a10.84,10.84,0,0,1-.9,1.69l-1.9,2.83Z" style="fill: #fff"/>
    </g>
    <g>
      <path d="M728.73,998h7.39v9.23a20.2,20.2,0,0,1-6.62,1,8,8,0,0,1-6.12-2.29,9.21,9.21,0,0,1-2.16-6.55,8.6,8.6,0,0,1,2.37-6.46,9.08,9.08,0,0,1,6.63-2.31,14.21,14.21,0,0,1,3,.31,12.75,12.75,0,0,1,2.5.77l-1.46,3.63a9.07,9.07,0,0,0-4.07-.91,3.86,3.86,0,0,0-3.13,1.32A5.68,5.68,0,0,0,726,999.5a5.77,5.77,0,0,0,1,3.67,3.48,3.48,0,0,0,2.89,1.26,8.66,8.66,0,0,0,1.9-.2v-2.69h-3.06Z" style="fill: #fff"/>
      <path d="M738.59,1000.76a14,14,0,0,1,1-5.81,6.75,6.75,0,0,1,3-3.27,10.42,10.42,0,0,1,4.93-1.06,18,18,0,0,1,2.44.2v3.62a13.5,13.5,0,0,0-2.54-.22,5.05,5.05,0,0,0-3.46,1,4.56,4.56,0,0,0-1.24,3.33h.14a3.56,3.56,0,0,1,3.39-2,4.41,4.41,0,0,1,3.54,1.47,7.17,7.17,0,0,1-.33,8.56,6.81,6.81,0,0,1-9.2-.33A8.15,8.15,0,0,1,738.59,1000.76Zm6.35,3.81a1.5,1.5,0,0,0,1.2-.56,2.75,2.75,0,0,0,.46-1.78c0-1.39-.54-2.08-1.62-2.08a1.67,1.67,0,0,0-1.29.54,1.86,1.86,0,0,0-.5,1.31,3.28,3.28,0,0,0,.48,1.85A1.46,1.46,0,0,0,744.94,1004.57Z" style="fill: #fff"/>
    </g>
    <g>
      <path d="M1016.73,998h7.39v9.23a20.2,20.2,0,0,1-6.62,1,8,8,0,0,1-6.12-2.29,9.21,9.21,0,0,1-2.16-6.55,8.6,8.6,0,0,1,2.37-6.46,9.08,9.08,0,0,1,6.63-2.31,14.21,14.21,0,0,1,3,.31,12.75,12.75,0,0,1,2.5.77l-1.46,3.63a9.07,9.07,0,0,0-4.07-.91,3.86,3.86,0,0,0-3.13,1.32,5.68,5.68,0,0,0-1.11,3.76,5.77,5.77,0,0,0,1,3.67,3.48,3.48,0,0,0,2.89,1.26,8.66,8.66,0,0,0,1.9-.2v-2.69h-3.06Z" style="fill: #fff"/>
      <path d="M1032.84,990.62a7.08,7.08,0,0,1,4.22,1.09,3.6,3.6,0,0,1,1.5,3.09,4,4,0,0,1-.71,2.39,5.8,5.8,0,0,1-2.24,1.79,8.34,8.34,0,0,1,2.68,2.15,3.83,3.83,0,0,1,.78,2.31,4.18,4.18,0,0,1-1.66,3.54,9.26,9.26,0,0,1-9.24,0,4.17,4.17,0,0,1-1.61-3.52,4.39,4.39,0,0,1,.72-2.54,6.13,6.13,0,0,1,2.4-1.9,6.44,6.44,0,0,1-2-2,4.46,4.46,0,0,1-.62-2.3,3.55,3.55,0,0,1,1.53-3.06A7.19,7.19,0,0,1,1032.84,990.62Zm-2,12.68a1.48,1.48,0,0,0,.52,1.17,2.14,2.14,0,0,0,1.43.44c1.37,0,2.06-.51,2.06-1.52a1.79,1.79,0,0,0-.45-1.13,6.27,6.27,0,0,0-1.61-1.24,4.63,4.63,0,0,0-1.49,1.1A1.87,1.87,0,0,0,1030.8,1003.3Zm2-9.34a1.53,1.53,0,0,0-1,.35,1.12,1.12,0,0,0-.41.89c0,.68.46,1.27,1.37,1.78a3.94,3.94,0,0,0,1.14-.87,1.48,1.48,0,0,0,.3-.91,1.1,1.1,0,0,0-.41-.9A1.46,1.46,0,0,0,1032.82,994Z" style="fill: #fff"/>
    </g>
    <g>
      <path d="M8.73,998h7.39v9.23a20.2,20.2,0,0,1-6.62,1,8,8,0,0,1-6.12-2.29,9.21,9.21,0,0,1-2.16-6.55,8.6,8.6,0,0,1,2.37-6.46,9.08,9.08,0,0,1,6.63-2.31,14.21,14.21,0,0,1,3,.31,12.75,12.75,0,0,1,2.5.77l-1.46,3.63a9.07,9.07,0,0,0-4.07-.91,3.86,3.86,0,0,0-3.13,1.32A5.68,5.68,0,0,0,6,999.5a5.77,5.77,0,0,0,1,3.67,3.48,3.48,0,0,0,2.89,1.26,8.66,8.66,0,0,0,1.9-.2v-2.69H8.73Z" style="fill: #bfbfbf"/>
      <path d="M28.8,1008H24.11v-9.07c0-1.1,0-2.11.07-3A11,11,0,0,1,23.1,997l-2,1.6-2.4-3,5.88-4.79H28.8Z" style="fill: #bfbfbf"/>
    </g>
    <g>
      <path d="M296.73,998h7.39v9.23a20.2,20.2,0,0,1-6.62,1,8,8,0,0,1-6.12-2.29,9.21,9.21,0,0,1-2.16-6.55,8.6,8.6,0,0,1,2.37-6.46,9.08,9.08,0,0,1,6.63-2.31,14.21,14.21,0,0,1,3,.31,12.75,12.75,0,0,1,2.5.77l-1.46,3.63a9.07,9.07,0,0,0-4.07-.91,3.86,3.86,0,0,0-3.13,1.32A5.68,5.68,0,0,0,294,999.5a5.77,5.77,0,0,0,1,3.67,3.48,3.48,0,0,0,2.89,1.26,8.66,8.66,0,0,0,1.9-.2v-2.69h-3.06Z" style="fill: #bfbfbf"/>
      <path d="M318.34,994.58a4.08,4.08,0,0,1-1,2.74,5.61,5.61,0,0,1-2.82,1.66v.07q4.29.54,4.29,4.05a4.38,4.38,0,0,1-1.89,3.76,8.76,8.76,0,0,1-5.25,1.37,15.82,15.82,0,0,1-2.57-.19,14,14,0,0,1-2.54-.73v-3.85a9.63,9.63,0,0,0,2.29.85,9,9,0,0,0,2.15.28,4.37,4.37,0,0,0,2.22-.43,1.46,1.46,0,0,0,.7-1.34,1.5,1.5,0,0,0-.37-1.08,2.29,2.29,0,0,0-1.17-.58,9.32,9.32,0,0,0-2.11-.19h-1.05v-3.48h1.07c2.36,0,3.53-.6,3.53-1.81a1.08,1.08,0,0,0-.52-1,2.59,2.59,0,0,0-1.4-.33,6.37,6.37,0,0,0-3.4,1.1l-1.92-3.09a9.35,9.35,0,0,1,2.78-1.34,12,12,0,0,1,3.27-.4,7.15,7.15,0,0,1,4.17,1.06A3.34,3.34,0,0,1,318.34,994.58Z" style="fill: #bfbfbf"/>
    </g>
    <g>
      <path d="M584.73,998h7.39v9.23a20.2,20.2,0,0,1-6.62,1,8,8,0,0,1-6.12-2.29,9.21,9.21,0,0,1-2.16-6.55,8.6,8.6,0,0,1,2.37-6.46,9.08,9.08,0,0,1,6.63-2.31,14.21,14.21,0,0,1,3,.31,12.75,12.75,0,0,1,2.5.77l-1.46,3.63a9.07,9.07,0,0,0-4.07-.91,3.86,3.86,0,0,0-3.13,1.32A5.68,5.68,0,0,0,582,999.5a5.77,5.77,0,0,0,1,3.67,3.48,3.48,0,0,0,2.89,1.26,8.66,8.66,0,0,0,1.9-.2v-2.69h-3.06Z" style="fill: #bfbfbf"/>
      <path d="M601.55,996.77a5.2,5.2,0,0,1,2.66.69,4.68,4.68,0,0,1,1.85,1.94,6,6,0,0,1,.67,2.89,5.59,5.59,0,0,1-1.73,4.41,7.7,7.7,0,0,1-5.23,1.53,11.16,11.16,0,0,1-4.9-.92v-3.8a12.9,12.9,0,0,0,2.3.78,10,10,0,0,0,2.21.3,3.09,3.09,0,0,0,2-.55,1.92,1.92,0,0,0,.69-1.61,1.84,1.84,0,0,0-.7-1.53,3.42,3.42,0,0,0-2.14-.55,7.46,7.46,0,0,0-2.35.41l-1.7-.85.64-9h9.78v3.85h-5.84l-.21,2.26a11.41,11.41,0,0,1,1.3-.19Z" style="fill: #bfbfbf"/>
    </g>
    <g>
      <path d="M872.73,998h7.39v9.23a20.2,20.2,0,0,1-6.62,1,8,8,0,0,1-6.12-2.29,9.21,9.21,0,0,1-2.16-6.55,8.6,8.6,0,0,1,2.37-6.46,9.08,9.08,0,0,1,6.63-2.31,14.21,14.21,0,0,1,3,.31,12.75,12.75,0,0,1,2.5.77l-1.46,3.63a9.07,9.07,0,0,0-4.07-.91,3.86,3.86,0,0,0-3.13,1.32A5.68,5.68,0,0,0,870,999.5a5.77,5.77,0,0,0,1,3.67,3.48,3.48,0,0,0,2.89,1.26,8.66,8.66,0,0,0,1.9-.2v-2.69h-3.06Z" style="fill: #bfbfbf"/>
      <path d="M884.21,1008l5.89-13.28h-7.42v-3.83H895v2.73L889,1008Z" style="fill: #bfbfbf"/>
    </g>
    <g>
      <path d="M156.36,144l-.84-3.21H150l-.86,3.21H144l5.59-17.2h6.18l5.66,17.2Zm-1.8-7-.74-2.81c-.17-.63-.38-1.43-.63-2.43s-.4-1.7-.48-2.13c-.07.4-.21,1.06-.42,2s-.67,2.71-1.38,5.4Z" style="fill: #fff"/>
      <path d="M174.57,144H162.14V141l4.18-4.23c1.2-1.25,2-2.1,2.35-2.56a5.52,5.52,0,0,0,.77-1.18,2.56,2.56,0,0,0,.21-1,1.34,1.34,0,0,0-.43-1,1.77,1.77,0,0,0-1.22-.39,3.39,3.39,0,0,0-1.63.46,11.34,11.34,0,0,0-1.87,1.37l-2.55-3a14,14,0,0,1,2.23-1.69,8,8,0,0,1,2-.78,9.7,9.7,0,0,1,2.39-.27,7.19,7.19,0,0,1,3,.59,4.66,4.66,0,0,1,2,1.67,4.28,4.28,0,0,1,.72,2.43,6.48,6.48,0,0,1-.26,1.86,6.06,6.06,0,0,1-.78,1.68,11.11,11.11,0,0,1-1.4,1.74q-.87.91-3.72,3.47v.12h6.48Z" style="fill: #fff"/>
    </g>
    <g>
      <path d="M1.85,270.87h6a10.16,10.16,0,0,1,5.18,1,3.53,3.53,0,0,1,1.7,3.23,4.1,4.1,0,0,1-.74,2.46,3.31,3.31,0,0,1-2,1.32V279a3.93,3.93,0,0,1,2.31,1.41,4.23,4.23,0,0,1,.72,2.55,4.39,4.39,0,0,1-1.76,3.68A7.66,7.66,0,0,1,8.52,288H1.85Zm4.63,6.57h1.4A2.56,2.56,0,0,0,9.42,277a1.43,1.43,0,0,0,.54-1.22c0-1-.73-1.44-2.18-1.44H6.48Zm0,3.39v3.6H8.11c1.44,0,2.17-.61,2.17-1.83a1.58,1.58,0,0,0-.58-1.31A2.65,2.65,0,0,0,8,280.83Z" style="fill: #fff"/>
      <path d="M27.21,288h-4.7v-9.07c0-1.1,0-2.11.07-3A11,11,0,0,1,21.5,277l-1.94,1.6-2.4-2.95L23,270.87h4.17Z" style="fill: #fff"/>
    </g>
    <g>
      <path d="M444.36,144l-.84-3.21H438l-.86,3.21H432l5.59-17.2h6.18l5.66,17.2Zm-1.8-7-.74-2.81c-.17-.63-.38-1.43-.63-2.43s-.4-1.7-.48-2.13c-.07.4-.21,1.06-.42,2s-.67,2.71-1.38,5.4Z" style="fill: #fff"/>
      <path d="M463.12,140.68h-1.88V144h-4.57v-3.32h-6.83v-3.39L457,126.87h4.28v10.36h1.88Zm-6.45-3.45v-2c0-.37,0-.88,0-1.51s.05-1,.06-1h-.13a10.84,10.84,0,0,1-.9,1.69l-1.9,2.83Z" style="fill: #fff"/>
    </g>
    <g>
      <path d="M289.85,270.87h6a10.16,10.16,0,0,1,5.18,1,3.53,3.53,0,0,1,1.7,3.23,4.1,4.1,0,0,1-.74,2.46,3.31,3.31,0,0,1-2,1.32V279a3.93,3.93,0,0,1,2.31,1.41,4.23,4.23,0,0,1,.72,2.55,4.39,4.39,0,0,1-1.76,3.68,7.66,7.66,0,0,1-4.77,1.34h-6.67Zm4.63,6.57h1.4a2.56,2.56,0,0,0,1.54-.41,1.43,1.43,0,0,0,.54-1.22c0-1-.73-1.44-2.18-1.44h-1.3Zm0,3.39v3.6h1.63c1.44,0,2.17-.61,2.17-1.83a1.58,1.58,0,0,0-.58-1.31,2.65,2.65,0,0,0-1.68-.46Z" style="fill: #fff"/>
      <path d="M316.75,274.58a4.09,4.09,0,0,1-1,2.74A5.58,5.58,0,0,1,313,279v.07q4.29.54,4.29,4.05a4.38,4.38,0,0,1-1.89,3.76,8.79,8.79,0,0,1-5.26,1.37,15.78,15.78,0,0,1-2.56-.19,14.34,14.34,0,0,1-2.55-.73v-3.85a9.79,9.79,0,0,0,2.29.85,9.14,9.14,0,0,0,2.15.28,4.32,4.32,0,0,0,2.22-.43,1.44,1.44,0,0,0,.7-1.34,1.5,1.5,0,0,0-.36-1.08,2.29,2.29,0,0,0-1.17-.58,9.38,9.38,0,0,0-2.11-.19h-1.06v-3.48h1.08c2.35,0,3.53-.6,3.53-1.81a1.1,1.1,0,0,0-.52-1,2.61,2.61,0,0,0-1.4-.33,6.34,6.34,0,0,0-3.4,1.1L305,272.36A9.23,9.23,0,0,1,307.8,271a12,12,0,0,1,3.26-.4,7.11,7.11,0,0,1,4.17,1.06A3.35,3.35,0,0,1,316.75,274.58Z" style="fill: #fff"/>
    </g>
    <g>
      <path d="M732.36,144l-.84-3.21H726l-.86,3.21H720l5.59-17.2h6.18l5.66,17.2Zm-1.8-7-.74-2.81c-.17-.63-.38-1.43-.63-2.43s-.4-1.7-.48-2.13c-.07.4-.21,1.06-.42,2s-.67,2.71-1.38,5.4Z" style="fill: #fff"/>
      <path d="M738.25,136.76a14,14,0,0,1,1-5.81,6.79,6.79,0,0,1,3-3.27,10.42,10.42,0,0,1,4.93-1.06,18,18,0,0,1,2.44.2v3.62a13.5,13.5,0,0,0-2.54-.22,5.05,5.05,0,0,0-3.46,1,4.56,4.56,0,0,0-1.24,3.33h.14a3.56,3.56,0,0,1,3.39-2,4.41,4.41,0,0,1,3.54,1.47,7.17,7.17,0,0,1-.33,8.56,6.81,6.81,0,0,1-9.2-.33A8.15,8.15,0,0,1,738.25,136.76Zm6.35,3.81a1.5,1.5,0,0,0,1.2-.56,2.75,2.75,0,0,0,.46-1.78c0-1.39-.54-2.08-1.62-2.08a1.67,1.67,0,0,0-1.29.54,1.86,1.86,0,0,0-.5,1.31,3.28,3.28,0,0,0,.48,1.85A1.46,1.46,0,0,0,744.6,140.57Z" style="fill: #fff"/>
    </g>
    <g>
      <path d="M577.85,270.87h6a10.16,10.16,0,0,1,5.18,1,3.53,3.53,0,0,1,1.7,3.23,4.1,4.1,0,0,1-.74,2.46,3.31,3.31,0,0,1-2,1.32V279a3.93,3.93,0,0,1,2.31,1.41,4.23,4.23,0,0,1,.72,2.55,4.39,4.39,0,0,1-1.76,3.68,7.66,7.66,0,0,1-4.77,1.34h-6.67Zm4.63,6.57h1.4a2.56,2.56,0,0,0,1.54-.41,1.43,1.43,0,0,0,.54-1.22c0-1-.73-1.44-2.18-1.44h-1.3Zm0,3.39v3.6h1.63c1.44,0,2.17-.61,2.17-1.83a1.58,1.58,0,0,0-.58-1.31,2.65,2.65,0,0,0-1.68-.46Z" style="fill: #fff"/>
      <path d="M600,276.77a5.21,5.21,0,0,1,2.67.69,4.74,4.74,0,0,1,1.85,1.94,6.1,6.1,0,0,1,.66,2.89,5.55,5.55,0,0,1-1.73,4.41,7.69,7.69,0,0,1-5.23,1.53,11.19,11.19,0,0,1-4.9-.92v-3.8a13,13,0,0,0,2.31.78,9.87,9.87,0,0,0,2.21.3,3.13,3.13,0,0,0,2-.55,1.92,1.92,0,0,0,.69-1.61,1.84,1.84,0,0,0-.71-1.53,3.39,3.39,0,0,0-2.13-.55,7.41,7.41,0,0,0-2.35.41l-1.7-.85.64-9H604v3.85h-5.83l-.21,2.26a11.41,11.41,0,0,1,1.3-.19Z" style="fill: #fff"/>
    </g>
    <g>
      <path d="M1020.36,144l-.84-3.21H1014l-.86,3.21H1008l5.59-17.2h6.18l5.66,17.2Zm-1.8-7-.74-2.81c-.17-.63-.38-1.43-.63-2.43s-.4-1.7-.48-2.13c-.07.4-.21,1.06-.42,2s-.67,2.71-1.38,5.4Z" style="fill: #fff"/>
      <path d="M1032.5,126.62a7.08,7.08,0,0,1,4.22,1.09,3.6,3.6,0,0,1,1.5,3.09,4,4,0,0,1-.71,2.39,5.8,5.8,0,0,1-2.24,1.79,8.34,8.34,0,0,1,2.68,2.15,3.83,3.83,0,0,1,.78,2.31,4.18,4.18,0,0,1-1.66,3.54,9.26,9.26,0,0,1-9.24,0,4.17,4.17,0,0,1-1.61-3.52,4.39,4.39,0,0,1,.72-2.54,6.13,6.13,0,0,1,2.4-1.9,6.44,6.44,0,0,1-2-2,4.46,4.46,0,0,1-.62-2.3,3.55,3.55,0,0,1,1.53-3.06A7.21,7.21,0,0,1,1032.5,126.62Zm-2,12.68a1.48,1.48,0,0,0,.52,1.17,2.14,2.14,0,0,0,1.43.44c1.38,0,2.06-.51,2.06-1.52a1.79,1.79,0,0,0-.45-1.13,6.27,6.27,0,0,0-1.61-1.24,4.63,4.63,0,0,0-1.49,1.1A1.87,1.87,0,0,0,1030.46,139.3Zm2-9.34a1.53,1.53,0,0,0-1,.35,1.12,1.12,0,0,0-.41.89c0,.68.46,1.27,1.37,1.78a3.94,3.94,0,0,0,1.14-.87,1.49,1.49,0,0,0,.31-.91,1.11,1.11,0,0,0-.42-.9A1.46,1.46,0,0,0,1032.48,130Z" style="fill: #fff"/>
    </g>
    <g>
      <path d="M865.85,270.87h6a10.16,10.16,0,0,1,5.18,1,3.53,3.53,0,0,1,1.7,3.23,4.1,4.1,0,0,1-.74,2.46,3.31,3.31,0,0,1-2,1.32V279a3.93,3.93,0,0,1,2.31,1.41,4.23,4.23,0,0,1,.72,2.55,4.39,4.39,0,0,1-1.76,3.68,7.66,7.66,0,0,1-4.77,1.34h-6.67Zm4.63,6.57h1.4a2.56,2.56,0,0,0,1.54-.41,1.43,1.43,0,0,0,.54-1.22c0-1-.73-1.44-2.18-1.44h-1.3Zm0,3.39v3.6h1.63c1.44,0,2.17-.61,2.17-1.83a1.58,1.58,0,0,0-.58-1.31,2.65,2.65,0,0,0-1.68-.46Z" style="fill: #fff"/>
      <path d="M882.62,288l5.88-13.28h-7.41v-3.83h12.36v2.73l-6,14.38Z" style="fill: #fff"/>
    </g>
    <g>
      <path d="M12.36,144l-.84-3.21H6L5.09,144H0l5.59-17.2h6.18L17.43,144Zm-1.8-7-.74-2.81c-.17-.63-.38-1.43-.63-2.43s-.4-1.7-.48-2.13c-.07.4-.21,1.06-.42,2s-.67,2.71-1.38,5.4Z" style="fill: #bfbfbf"/>
      <path d="M28.46,144H23.77v-9.07c0-1.1,0-2.11.07-3a11,11,0,0,1-1.08,1.1l-2,1.6-2.4-3,5.88-4.79h4.17Z" style="fill: #bfbfbf"/>
    </g>
    <g>
      <path d="M1009.85,270.87h6a10.16,10.16,0,0,1,5.18,1,3.53,3.53,0,0,1,1.7,3.23,4.1,4.1,0,0,1-.74,2.46,3.31,3.31,0,0,1-2,1.32V279a3.93,3.93,0,0,1,2.31,1.41,4.23,4.23,0,0,1,.72,2.55,4.39,4.39,0,0,1-1.76,3.68,7.66,7.66,0,0,1-4.77,1.34h-6.67Zm4.63,6.57h1.4a2.56,2.56,0,0,0,1.54-.41,1.43,1.43,0,0,0,.54-1.22c0-1-.73-1.44-2.18-1.44h-1.3Zm0,3.39v3.6h1.63c1.44,0,2.17-.61,2.17-1.83a1.58,1.58,0,0,0-.58-1.31,2.65,2.65,0,0,0-1.68-.46Z" style="fill: #bfbfbf"/>
      <path d="M1031.25,270.62a7.05,7.05,0,0,1,4.21,1.09,3.59,3.59,0,0,1,1.51,3.09,4.11,4.11,0,0,1-.71,2.39A5.8,5.8,0,0,1,1034,279a8.4,8.4,0,0,1,2.67,2.15,3.83,3.83,0,0,1,.78,2.31,4.2,4.2,0,0,1-1.65,3.54,9.28,9.28,0,0,1-9.25,0,4.16,4.16,0,0,1-1.6-3.52,4.46,4.46,0,0,1,.71-2.54,6.25,6.25,0,0,1,2.41-1.9,6.44,6.44,0,0,1-2-2,4.37,4.37,0,0,1-.63-2.3,3.53,3.53,0,0,1,1.54-3.06A7.19,7.19,0,0,1,1031.25,270.62Zm-2,12.68a1.45,1.45,0,0,0,.52,1.17,2.14,2.14,0,0,0,1.43.44c1.37,0,2.06-.51,2.06-1.52a1.79,1.79,0,0,0-.45-1.13,6.27,6.27,0,0,0-1.61-1.24,4.69,4.69,0,0,0-1.5,1.1A1.86,1.86,0,0,0,1029.21,283.3Zm2-9.34a1.51,1.51,0,0,0-1,.35,1.12,1.12,0,0,0-.41.89c0,.68.46,1.27,1.37,1.78a4.24,4.24,0,0,0,1.14-.87,1.48,1.48,0,0,0,.3-.91,1.13,1.13,0,0,0-.41-.9A1.46,1.46,0,0,0,1031.23,274Z" style="fill: #bfbfbf"/>
    </g>
    <g>
      <path d="M300.36,144l-.84-3.21H294l-.86,3.21H288l5.59-17.2h6.18l5.66,17.2Zm-1.8-7-.74-2.81c-.17-.63-.38-1.43-.63-2.43s-.4-1.7-.48-2.13c-.07.4-.21,1.06-.42,2s-.67,2.71-1.38,5.4Z" style="fill: #bfbfbf"/>
      <path d="M318,130.58a4.08,4.08,0,0,1-1,2.74,5.61,5.61,0,0,1-2.82,1.66v.07q4.29.54,4.29,4a4.38,4.38,0,0,1-1.89,3.76,8.76,8.76,0,0,1-5.25,1.37,15.82,15.82,0,0,1-2.57-.19,14,14,0,0,1-2.54-.73v-3.85a9.63,9.63,0,0,0,2.29.85,9,9,0,0,0,2.15.28,4.37,4.37,0,0,0,2.22-.43,1.46,1.46,0,0,0,.7-1.34,1.5,1.5,0,0,0-.37-1.08,2.29,2.29,0,0,0-1.17-.58A9.32,9.32,0,0,0,310,137h-1v-3.48H310c2.36,0,3.53-.6,3.53-1.81a1.08,1.08,0,0,0-.52-1,2.59,2.59,0,0,0-1.4-.33,6.37,6.37,0,0,0-3.4,1.1l-1.92-3.09a9.35,9.35,0,0,1,2.78-1.34,12,12,0,0,1,3.27-.4,7.15,7.15,0,0,1,4.17,1.06A3.34,3.34,0,0,1,318,130.58Z" style="fill: #bfbfbf"/>
    </g>
    <g>
      <path d="M145.85,270.87h6a10.16,10.16,0,0,1,5.18,1,3.53,3.53,0,0,1,1.7,3.23,4.1,4.1,0,0,1-.74,2.46,3.31,3.31,0,0,1-1.95,1.32V279a3.93,3.93,0,0,1,2.31,1.41,4.23,4.23,0,0,1,.72,2.55,4.39,4.39,0,0,1-1.76,3.68,7.66,7.66,0,0,1-4.77,1.34h-6.67Zm4.63,6.57h1.4a2.56,2.56,0,0,0,1.54-.41,1.43,1.43,0,0,0,.54-1.22c0-1-.73-1.44-2.18-1.44h-1.3Zm0,3.39v3.6h1.63c1.44,0,2.17-.61,2.17-1.83a1.58,1.58,0,0,0-.58-1.31,2.65,2.65,0,0,0-1.68-.46Z" style="fill: #bfbfbf"/>
      <path d="M173.32,288H160.89V285l4.18-4.23c1.2-1.25,2-2.1,2.34-2.56a5.16,5.16,0,0,0,.77-1.18,2.41,2.41,0,0,0,.22-1,1.34,1.34,0,0,0-.44-1.05,1.73,1.73,0,0,0-1.21-.39,3.43,3.43,0,0,0-1.64.46,12.25,12.25,0,0,0-1.87,1.37l-2.54-3a13.15,13.15,0,0,1,2.23-1.69,7.87,7.87,0,0,1,2-.78,9.67,9.67,0,0,1,2.38-.27,7.19,7.19,0,0,1,3,.59,4.55,4.55,0,0,1,2,1.67,4.28,4.28,0,0,1,.72,2.43,6.49,6.49,0,0,1-.25,1.86,6.69,6.69,0,0,1-.78,1.68,11.72,11.72,0,0,1-1.4,1.74q-.87.92-3.72,3.47v.12h6.48Z" style="fill: #bfbfbf"/>
    </g>
    <g>
      <path d="M588.36,144l-.84-3.21H582l-.86,3.21H576l5.59-17.2h6.18l5.66,17.2Zm-1.8-7-.74-2.81c-.17-.63-.38-1.43-.63-2.43s-.4-1.7-.48-2.13c-.07.4-.21,1.06-.42,2s-.67,2.71-1.38,5.4Z" style="fill: #bfbfbf"/>
      <path d="M601.21,132.77a5.2,5.2,0,0,1,2.66.69,4.68,4.68,0,0,1,1.85,1.94,6,6,0,0,1,.67,2.89,5.59,5.59,0,0,1-1.73,4.41,7.7,7.7,0,0,1-5.23,1.53,11.16,11.16,0,0,1-4.9-.92v-3.8a12.9,12.9,0,0,0,2.3.78,10,10,0,0,0,2.21.3,3.09,3.09,0,0,0,2-.55,1.92,1.92,0,0,0,.69-1.61,1.84,1.84,0,0,0-.7-1.53,3.41,3.41,0,0,0-2.13-.55,7.47,7.47,0,0,0-2.36.41l-1.7-.85.64-9h9.78v3.85H599.4l-.21,2.26a11.41,11.41,0,0,1,1.3-.19Z" style="fill: #bfbfbf"/>
    </g>
    <g>
      <path d="M433.85,270.87h6a10.16,10.16,0,0,1,5.18,1,3.53,3.53,0,0,1,1.7,3.23,4.1,4.1,0,0,1-.74,2.46,3.31,3.31,0,0,1-2,1.32V279a3.93,3.93,0,0,1,2.31,1.41,4.23,4.23,0,0,1,.72,2.55,4.39,4.39,0,0,1-1.76,3.68,7.66,7.66,0,0,1-4.77,1.34h-6.67Zm4.63,6.57h1.4a2.56,2.56,0,0,0,1.54-.41,1.43,1.43,0,0,0,.54-1.22c0-1-.73-1.44-2.18-1.44h-1.3Zm0,3.39v3.6h1.63c1.44,0,2.17-.61,2.17-1.83a1.58,1.58,0,0,0-.58-1.31,2.65,2.65,0,0,0-1.68-.46Z" style="fill: #bfbfbf"/>
      <path d="M461.87,284.68H460V288h-4.57v-3.32h-6.83v-3.39l7.13-10.42H460v10.36h1.89Zm-6.46-3.45v-2c0-.37,0-.88,0-1.51a7.71,7.71,0,0,1,.06-1h-.13a12.84,12.84,0,0,1-.9,1.69l-1.9,2.83Z" style="fill: #bfbfbf"/>
    </g>
    <g>
      <path d="M876.36,144l-.84-3.21H870l-.86,3.21H864l5.59-17.2h6.18l5.66,17.2Zm-1.8-7-.74-2.81c-.17-.63-.38-1.43-.63-2.43s-.4-1.7-.48-2.13c-.07.4-.21,1.06-.42,2s-.67,2.71-1.38,5.4Z" style="fill: #bfbfbf"/>
      <path d="M883.88,144l5.88-13.28h-7.42v-3.83H894.7v2.73l-6,14.38Z" style="fill: #bfbfbf"/>
    </g>
    <g>
      <path d="M721.85,270.87h6a10.16,10.16,0,0,1,5.18,1,3.53,3.53,0,0,1,1.7,3.23,4.1,4.1,0,0,1-.74,2.46,3.31,3.31,0,0,1-2,1.32V279a3.93,3.93,0,0,1,2.31,1.41,4.23,4.23,0,0,1,.72,2.55,4.39,4.39,0,0,1-1.76,3.68,7.66,7.66,0,0,1-4.77,1.34h-6.67Zm4.63,6.57h1.4a2.56,2.56,0,0,0,1.54-.41,1.43,1.43,0,0,0,.54-1.22c0-1-.73-1.44-2.18-1.44h-1.3Zm0,3.39v3.6h1.63c1.44,0,2.17-.61,2.17-1.83a1.58,1.58,0,0,0-.58-1.31,2.65,2.65,0,0,0-1.68-.46Z" style="fill: #bfbfbf"/>
      <path d="M737,280.76a13.87,13.87,0,0,1,1-5.81,6.75,6.75,0,0,1,3-3.27,10.39,10.39,0,0,1,4.93-1.06,18.08,18.08,0,0,1,2.44.2v3.62a13.61,13.61,0,0,0-2.55-.22,5,5,0,0,0-3.45,1,4.57,4.57,0,0,0-1.25,3.33h.14a3.58,3.58,0,0,1,3.39-2,4.43,4.43,0,0,1,3.55,1.47,7.15,7.15,0,0,1-.34,8.56,6.81,6.81,0,0,1-9.2-.33A8.15,8.15,0,0,1,737,280.76Zm6.35,3.81a1.47,1.47,0,0,0,1.2-.56,2.75,2.75,0,0,0,.47-1.78c0-1.39-.54-2.08-1.62-2.08a1.67,1.67,0,0,0-1.29.54,1.82,1.82,0,0,0-.5,1.31,3.28,3.28,0,0,0,.48,1.85A1.46,1.46,0,0,0,743.34,284.57Z" style="fill: #bfbfbf"/>
    </g>
    <g>
      <path d="M16.39,567.07A8.83,8.83,0,0,1,14,573.68,9,9,0,0,1,7.39,576H1.85V558.87H7.78A8.94,8.94,0,0,1,14.15,561,7.92,7.92,0,0,1,16.39,567.07Zm-4.8.16a5.45,5.45,0,0,0-.93-3.49,3.44,3.44,0,0,0-2.83-1.13H6.48v9.59h1a3.76,3.76,0,0,0,3.1-1.22A6,6,0,0,0,11.59,567.23Z" style="fill: #fff"/>
      <path d="M28.65,576H24v-9.07c0-1.1,0-2.11.07-3A10.81,10.81,0,0,1,23,565L21,566.61l-2.4-3,5.88-4.79h4.17Z" style="fill: #fff"/>
    </g>
    <g>
      <path d="M304.39,567.07a8.83,8.83,0,0,1-2.36,6.61,9,9,0,0,1-6.64,2.32h-5.54V558.87h5.93a8.94,8.94,0,0,1,6.37,2.11A7.92,7.92,0,0,1,304.39,567.07Zm-4.8.16a5.45,5.45,0,0,0-.93-3.49,3.44,3.44,0,0,0-2.83-1.13h-1.35v9.59h1a3.76,3.76,0,0,0,3.1-1.22A6,6,0,0,0,299.59,567.23Z" style="fill: #fff"/>
      <path d="M318.19,562.58a4.09,4.09,0,0,1-1,2.74A5.53,5.53,0,0,1,314.4,567v.07q4.29.54,4.29,4.05a4.38,4.38,0,0,1-1.89,3.76,8.77,8.77,0,0,1-5.26,1.37A15.78,15.78,0,0,1,309,576a14.34,14.34,0,0,1-2.55-.73v-3.85a9.79,9.79,0,0,0,2.29.85,9.15,9.15,0,0,0,2.16.28,4.37,4.37,0,0,0,2.22-.43,1.46,1.46,0,0,0,.69-1.34,1.5,1.5,0,0,0-.36-1.08,2.29,2.29,0,0,0-1.17-.58,9.32,9.32,0,0,0-2.11-.19h-1.06v-3.48h1.08c2.35,0,3.53-.6,3.53-1.81a1.08,1.08,0,0,0-.52-1,2.61,2.61,0,0,0-1.4-.33,6.34,6.34,0,0,0-3.4,1.1l-1.92-3.09a9.23,9.23,0,0,1,2.78-1.34,12,12,0,0,1,3.26-.4,7.16,7.16,0,0,1,4.18,1.06A3.36,3.36,0,0,1,318.19,562.58Z" style="fill: #fff"/>
    </g>
    <g>
      <path d="M592.39,567.07a8.83,8.83,0,0,1-2.36,6.61,9,9,0,0,1-6.64,2.32h-5.54V558.87h5.93a8.94,8.94,0,0,1,6.37,2.11A7.92,7.92,0,0,1,592.39,567.07Zm-4.8.16a5.45,5.45,0,0,0-.93-3.49,3.44,3.44,0,0,0-2.83-1.13h-1.35v9.59h1a3.76,3.76,0,0,0,3.1-1.22A6,6,0,0,0,587.59,567.23Z" style="fill: #fff"/>
      <path d="M601.39,564.77a5.21,5.21,0,0,1,2.67.69,4.74,4.74,0,0,1,1.85,1.94,6.1,6.1,0,0,1,.66,2.89,5.58,5.58,0,0,1-1.72,4.41,7.73,7.73,0,0,1-5.24,1.53,11.19,11.19,0,0,1-4.9-.92v-3.8a13,13,0,0,0,2.31.78,9.87,9.87,0,0,0,2.21.3,3.09,3.09,0,0,0,2-.55,1.92,1.92,0,0,0,.69-1.61,1.86,1.86,0,0,0-.7-1.53,3.42,3.42,0,0,0-2.14-.55,7.46,7.46,0,0,0-2.35.41l-1.7-.85.64-9h9.78v3.85h-5.84l-.21,2.26a11.41,11.41,0,0,1,1.3-.19Z" style="fill: #fff"/>
    </g>
    <g>
      <path d="M880.39,567.07a8.83,8.83,0,0,1-2.36,6.61,9,9,0,0,1-6.64,2.32h-5.54V558.87h5.93a8.94,8.94,0,0,1,6.37,2.11A7.92,7.92,0,0,1,880.39,567.07Zm-4.8.16a5.45,5.45,0,0,0-.93-3.49,3.44,3.44,0,0,0-2.83-1.13h-1.35v9.59h1a3.76,3.76,0,0,0,3.1-1.22A6,6,0,0,0,875.59,567.23Z" style="fill: #fff"/>
      <path d="M884.06,576,890,562.72h-7.42v-3.83h12.36v2.73l-6,14.38Z" style="fill: #fff"/>
    </g>
    <g>
      <path d="M1024.39,567.07a8.83,8.83,0,0,1-2.36,6.61,9,9,0,0,1-6.64,2.32h-5.54V558.87h5.93a8.94,8.94,0,0,1,6.37,2.11A7.92,7.92,0,0,1,1024.39,567.07Zm-4.8.16a5.45,5.45,0,0,0-.93-3.49,3.44,3.44,0,0,0-2.83-1.13h-1.35v9.59h1a3.76,3.76,0,0,0,3.1-1.22A6,6,0,0,0,1019.59,567.23Z" style="fill: #bfbfbf"/>
      <path d="M1032.69,558.62a7,7,0,0,1,4.21,1.09,3.59,3.59,0,0,1,1.51,3.09,4.11,4.11,0,0,1-.71,2.39,5.8,5.8,0,0,1-2.24,1.79,8.28,8.28,0,0,1,2.67,2.15,3.83,3.83,0,0,1,.78,2.31,4.2,4.2,0,0,1-1.65,3.54,9.26,9.26,0,0,1-9.24,0,4.17,4.17,0,0,1-1.61-3.52,4.46,4.46,0,0,1,.71-2.54,6.25,6.25,0,0,1,2.41-1.9,6.44,6.44,0,0,1-2-2,4.37,4.37,0,0,1-.63-2.3,3.56,3.56,0,0,1,1.54-3.06A7.19,7.19,0,0,1,1032.69,558.62Zm-2,12.68a1.45,1.45,0,0,0,.52,1.17,2.14,2.14,0,0,0,1.43.44c1.37,0,2.06-.51,2.06-1.52a1.79,1.79,0,0,0-.45-1.13,6.27,6.27,0,0,0-1.61-1.24,4.69,4.69,0,0,0-1.5,1.1A1.86,1.86,0,0,0,1030.65,571.3Zm2-9.34a1.51,1.51,0,0,0-1,.35,1.12,1.12,0,0,0-.41.89c0,.68.46,1.27,1.37,1.78a4.08,4.08,0,0,0,1.14-.87,1.48,1.48,0,0,0,.3-.91,1.1,1.1,0,0,0-.41-.9A1.46,1.46,0,0,0,1032.67,562Z" style="fill: #bfbfbf"/>
    </g>
    <g>
      <path d="M160.39,567.07a8.83,8.83,0,0,1-2.36,6.61,9,9,0,0,1-6.64,2.32h-5.54V558.87h5.93a8.94,8.94,0,0,1,6.37,2.11A7.92,7.92,0,0,1,160.39,567.07Zm-4.8.16a5.45,5.45,0,0,0-.93-3.49,3.44,3.44,0,0,0-2.83-1.13h-1.35v9.59h1a3.76,3.76,0,0,0,3.1-1.22A6,6,0,0,0,155.59,567.23Z" style="fill: #bfbfbf"/>
      <path d="M174.76,576H162.33v-3l4.18-4.23c1.2-1.25,2-2.1,2.35-2.56a5.42,5.42,0,0,0,.76-1.18,2.41,2.41,0,0,0,.22-1,1.34,1.34,0,0,0-.43-1.05,1.77,1.77,0,0,0-1.22-.39,3.43,3.43,0,0,0-1.64.46,12.25,12.25,0,0,0-1.87,1.37l-2.54-3a13.56,13.56,0,0,1,2.23-1.69,7.87,7.87,0,0,1,2-.78,9.67,9.67,0,0,1,2.38-.27,7.27,7.27,0,0,1,3,.59,4.58,4.58,0,0,1,2,1.67,4.28,4.28,0,0,1,.72,2.43,6.49,6.49,0,0,1-.25,1.86,6.69,6.69,0,0,1-.78,1.68,11.72,11.72,0,0,1-1.4,1.74q-.87.92-3.72,3.47v.12h6.48Z" style="fill: #bfbfbf"/>
    </g>
    <g>
      <path d="M448.39,567.07a8.83,8.83,0,0,1-2.36,6.61,9,9,0,0,1-6.64,2.32h-5.54V558.87h5.93a8.94,8.94,0,0,1,6.37,2.11A7.92,7.92,0,0,1,448.39,567.07Zm-4.8.16a5.45,5.45,0,0,0-.93-3.49,3.44,3.44,0,0,0-2.83-1.13h-1.35v9.59h1a3.76,3.76,0,0,0,3.1-1.22A6,6,0,0,0,443.59,567.23Z" style="fill: #bfbfbf"/>
      <path d="M463.31,572.68h-1.88V576h-4.57v-3.32H450v-3.39l7.13-10.42h4.28v10.36h1.88Zm-6.45-3.45v-2c0-.37,0-.88,0-1.51s.05-1,.06-1h-.13a10.84,10.84,0,0,1-.9,1.69l-1.9,2.83Z" style="fill: #bfbfbf"/>
    </g>
    <g>
      <path d="M736.39,567.07a8.83,8.83,0,0,1-2.36,6.61,9,9,0,0,1-6.64,2.32h-5.54V558.87h5.93a8.94,8.94,0,0,1,6.37,2.11A7.92,7.92,0,0,1,736.39,567.07Zm-4.8.16a5.45,5.45,0,0,0-.93-3.49,3.44,3.44,0,0,0-2.83-1.13h-1.35v9.59h1a3.76,3.76,0,0,0,3.1-1.22A6,6,0,0,0,731.59,567.23Z" style="fill: #bfbfbf"/>
      <path d="M738.43,568.76a14,14,0,0,1,1-5.81,6.75,6.75,0,0,1,3-3.27,10.39,10.39,0,0,1,4.93-1.06,18,18,0,0,1,2.44.2v3.62a13.53,13.53,0,0,0-2.55-.22,5,5,0,0,0-3.45,1,4.56,4.56,0,0,0-1.24,3.33h.14a3.55,3.55,0,0,1,3.38-2,4.42,4.42,0,0,1,3.55,1.47,7.15,7.15,0,0,1-.34,8.56,5.91,5.91,0,0,1-4.45,1.63,6,6,0,0,1-4.75-2A8.15,8.15,0,0,1,738.43,568.76Zm6.36,3.81A1.5,1.5,0,0,0,746,572a2.81,2.81,0,0,0,.46-1.78c0-1.39-.54-2.08-1.62-2.08a1.67,1.67,0,0,0-1.29.54A1.86,1.86,0,0,0,743,570a3.28,3.28,0,0,0,.48,1.85A1.46,1.46,0,0,0,744.79,572.57Z" style="fill: #bfbfbf"/>
    </g>
    <g>
      <path d="M6.41,864H1.85V846.87H12v3.71H6.41v3.27h5.13v3.72H6.41Z" style="fill: #fff"/>
      <path d="M24,864h-4.7v-9.07c0-1.1,0-2.11.07-3a11,11,0,0,1-1.08,1.1l-1.95,1.6-2.4-3,5.88-4.79H24Z" style="fill: #fff"/>
    </g>
    <g>
      <path d="M294.41,864h-4.56V846.87H300v3.71h-5.57v3.27h5.13v3.72h-5.13Z" style="fill: #fff"/>
      <path d="M313.51,850.58a4.08,4.08,0,0,1-1,2.74,5.62,5.62,0,0,1-2.81,1.66v.07q4.29.54,4.29,4.05a4.39,4.39,0,0,1-1.9,3.76,8.76,8.76,0,0,1-5.25,1.37,15.69,15.69,0,0,1-2.56-.19,13.89,13.89,0,0,1-2.55-.73v-3.85a9.63,9.63,0,0,0,2.29.85,9.07,9.07,0,0,0,2.15.28,4.34,4.34,0,0,0,2.22-.43,1.68,1.68,0,0,0,.33-2.42,2.29,2.29,0,0,0-1.17-.58,9.32,9.32,0,0,0-2.11-.19h-1.05v-3.48h1.08c2.35,0,3.52-.6,3.52-1.81a1.08,1.08,0,0,0-.52-1,2.59,2.59,0,0,0-1.4-.33,6.39,6.39,0,0,0-3.4,1.1l-1.92-3.09a9.47,9.47,0,0,1,2.78-1.34,12,12,0,0,1,3.27-.4,7.15,7.15,0,0,1,4.17,1.06A3.34,3.34,0,0,1,313.51,850.58Z" style="fill: #fff"/>
    </g>
    <g>
      <path d="M582.41,864h-4.56V846.87H588v3.71h-5.57v3.27h5.13v3.72h-5.13Z" style="fill: #fff"/>
      <path d="M596.72,852.77a5.2,5.2,0,0,1,2.66.69,4.77,4.77,0,0,1,1.86,1.94,6.1,6.1,0,0,1,.66,2.89,5.59,5.59,0,0,1-1.73,4.41,7.7,7.7,0,0,1-5.23,1.53,11.16,11.16,0,0,1-4.9-.92v-3.8a13.18,13.18,0,0,0,2.3.78,10,10,0,0,0,2.21.3,3.09,3.09,0,0,0,2-.55,1.92,1.92,0,0,0,.69-1.61,1.84,1.84,0,0,0-.7-1.53,3.41,3.41,0,0,0-2.13-.55,7.52,7.52,0,0,0-2.36.41l-1.7-.85.65-9h9.77v3.85h-5.84L594.7,853a11.73,11.73,0,0,1,1.3-.19Z" style="fill: #fff"/>
    </g>
    <g>
      <path d="M870.41,864h-4.56V846.87H876v3.71h-5.57v3.27h5.13v3.72h-5.13Z" style="fill: #fff"/>
      <path d="M879.39,864l5.88-13.28h-7.42v-3.83h12.36v2.73l-6,14.38Z" style="fill: #fff"/>
    </g>
    <g>
      <path d="M1014.41,864h-4.56V846.87H1020v3.71h-5.57v3.27h5.13v3.72h-5.13Z" style="fill: #bfbfbf"/>
      <path d="M1028,846.62a7.07,7.07,0,0,1,4.21,1.09,3.6,3.6,0,0,1,1.5,3.09,4.1,4.1,0,0,1-.7,2.39,5.92,5.92,0,0,1-2.25,1.79,8.34,8.34,0,0,1,2.68,2.15,3.83,3.83,0,0,1,.78,2.31,4.2,4.2,0,0,1-1.65,3.54,9.28,9.28,0,0,1-9.25,0,4.17,4.17,0,0,1-1.61-3.52,4.39,4.39,0,0,1,.72-2.54,6.29,6.29,0,0,1,2.4-1.9,6.39,6.39,0,0,1-2-2,4.37,4.37,0,0,1-.63-2.3,3.55,3.55,0,0,1,1.53-3.06A7.23,7.23,0,0,1,1028,846.62Zm-2,12.68a1.47,1.47,0,0,0,.51,1.17,2.16,2.16,0,0,0,1.43.44c1.38,0,2.06-.51,2.06-1.52a1.79,1.79,0,0,0-.45-1.13,6.1,6.1,0,0,0-1.61-1.24,4.74,4.74,0,0,0-1.49,1.1A1.86,1.86,0,0,0,1026,859.3Zm2-9.34a1.53,1.53,0,0,0-1,.35,1.12,1.12,0,0,0-.41.89c0,.68.46,1.27,1.38,1.78a4,4,0,0,0,1.13-.87,1.43,1.43,0,0,0,.31-.91,1.13,1.13,0,0,0-.41-.9A1.49,1.49,0,0,0,1028,850Z" style="fill: #bfbfbf"/>
    </g>
    <g>
      <path d="M150.41,864h-4.56V846.87H156v3.71h-5.57v3.27h5.13v3.72h-5.13Z" style="fill: #bfbfbf"/>
      <path d="M170.09,864H157.65v-3l4.19-4.23c1.19-1.25,2-2.1,2.34-2.56A5.52,5.52,0,0,0,165,853a2.56,2.56,0,0,0,.21-1,1.34,1.34,0,0,0-.43-1.05,1.75,1.75,0,0,0-1.22-.39,3.39,3.39,0,0,0-1.63.46,11.78,11.78,0,0,0-1.87,1.37l-2.55-3a14,14,0,0,1,2.23-1.69,8,8,0,0,1,2-.78,9.76,9.76,0,0,1,2.39-.27,7.19,7.19,0,0,1,3,.59,4.61,4.61,0,0,1,2,1.67,4.28,4.28,0,0,1,.72,2.43,6.86,6.86,0,0,1-.25,1.86,6.69,6.69,0,0,1-.78,1.68,11.72,11.72,0,0,1-1.4,1.74q-.89.92-3.72,3.47v.12h6.48Z" style="fill: #bfbfbf"/>
    </g>
    <g>
      <path d="M438.41,864h-4.56V846.87H444v3.71h-5.57v3.27h5.13v3.72h-5.13Z" style="fill: #bfbfbf"/>
      <path d="M458.64,860.68h-1.89V864h-4.57v-3.32h-6.83v-3.39l7.12-10.42h4.28v10.36h1.89Zm-6.46-3.45v-2c0-.37,0-.88,0-1.51a8.72,8.72,0,0,1,.07-1h-.13a11.79,11.79,0,0,1-.91,1.69l-1.89,2.83Z" style="fill: #bfbfbf"/>
    </g>
    <g>
      <path d="M726.41,864h-4.56V846.87H732v3.71h-5.57v3.27h5.13v3.72h-5.13Z" style="fill: #bfbfbf"/>
      <path d="M733.76,856.76a14,14,0,0,1,1-5.81,6.76,6.76,0,0,1,3-3.27,10.35,10.35,0,0,1,4.92-1.06,18,18,0,0,1,2.44.2v3.62a13.5,13.5,0,0,0-2.54-.22,5.05,5.05,0,0,0-3.46,1,4.56,4.56,0,0,0-1.24,3.33h.14a3.56,3.56,0,0,1,3.39-2A4.41,4.41,0,0,1,745,854a7.17,7.17,0,0,1-.33,8.56,6.81,6.81,0,0,1-9.2-.33A8.15,8.15,0,0,1,733.76,856.76Zm6.35,3.81a1.5,1.5,0,0,0,1.2-.56,2.75,2.75,0,0,0,.46-1.78c0-1.39-.54-2.08-1.61-2.08a1.68,1.68,0,0,0-1.3.54,1.86,1.86,0,0,0-.5,1.31,3.28,3.28,0,0,0,.48,1.85A1.47,1.47,0,0,0,740.11,860.57Z" style="fill: #bfbfbf"/>
    </g>
    <g>
      <path d="M16.54,1152H11.88v-7H6.5v7H1.85v-17.13H6.5v6.35h5.38v-6.35h4.66Z" style="fill: #fff"/>
      <path d="M29.43,1152h-4.7v-9.07c0-1.1,0-2.11.07-3a11,11,0,0,1-1.08,1.1l-1.95,1.6-2.4-2.95,5.88-4.79h4.18Z" style="fill: #fff"/>
    </g>
    <g>
      <path d="M304.54,1152h-4.66v-7H294.5v7h-4.65v-17.13h4.65v6.35h5.38v-6.35h4.66Z" style="fill: #fff"/>
      <path d="M319,1138.58a4.08,4.08,0,0,1-1,2.74,5.62,5.62,0,0,1-2.81,1.66v.07c2.86.36,4.28,1.71,4.28,4a4.38,4.38,0,0,1-1.89,3.76,8.76,8.76,0,0,1-5.25,1.37,15.61,15.61,0,0,1-2.56-.19,13.89,13.89,0,0,1-2.55-.73v-3.85a9.63,9.63,0,0,0,2.29.85,9.07,9.07,0,0,0,2.15.28,4.37,4.37,0,0,0,2.22-.43,1.68,1.68,0,0,0,.33-2.42,2.29,2.29,0,0,0-1.17-.58,9.32,9.32,0,0,0-2.11-.19h-1.05v-3.48H311c2.35,0,3.52-.6,3.52-1.81a1.08,1.08,0,0,0-.52-1,2.59,2.59,0,0,0-1.4-.33,6.37,6.37,0,0,0-3.4,1.1l-1.92-3.09A9.35,9.35,0,0,1,310,1135a12,12,0,0,1,3.27-.4,7.15,7.15,0,0,1,4.17,1.06A3.34,3.34,0,0,1,319,1138.58Z" style="fill: #fff"/>
    </g>
    <g>
      <path d="M592.54,1152h-4.66v-7H582.5v7h-4.65v-17.13h4.65v6.35h5.38v-6.35h4.66Z" style="fill: #fff"/>
      <path d="M602.17,1140.77a5.2,5.2,0,0,1,2.66.69,4.77,4.77,0,0,1,1.86,1.94,6.1,6.1,0,0,1,.66,2.89,5.59,5.59,0,0,1-1.73,4.41,7.7,7.7,0,0,1-5.23,1.53,11.16,11.16,0,0,1-4.9-.92v-3.8a13.18,13.18,0,0,0,2.3.78,10,10,0,0,0,2.21.3,3.09,3.09,0,0,0,2-.55,1.92,1.92,0,0,0,.69-1.61,1.84,1.84,0,0,0-.7-1.53,3.41,3.41,0,0,0-2.13-.55,7.47,7.47,0,0,0-2.36.41l-1.7-.85.65-9h9.77v3.85h-5.84l-.21,2.26a11.73,11.73,0,0,1,1.3-.19Z" style="fill: #fff"/>
    </g>
    <g>
      <path d="M880.54,1152h-4.66v-7H870.5v7h-4.65v-17.13h4.65v6.35h5.38v-6.35h4.66Z" style="fill: #fff"/>
      <path d="M884.84,1152l5.88-13.28H883.3v-3.83h12.36v2.73l-6,14.38Z" style="fill: #fff"/>
    </g>
    <g>
      <path d="M1024.54,1152h-4.66v-7h-5.38v7h-4.65v-17.13h4.65v6.35h5.38v-6.35h4.66Z" style="fill: #bfbfbf"/>
      <path d="M1033.46,1134.62a7.08,7.08,0,0,1,4.22,1.09,3.6,3.6,0,0,1,1.5,3.09,4,4,0,0,1-.71,2.39,5.8,5.8,0,0,1-2.24,1.79,8.34,8.34,0,0,1,2.68,2.15,3.83,3.83,0,0,1,.78,2.31A4.2,4.2,0,0,1,1038,1151a9.28,9.28,0,0,1-9.25,0,4.17,4.17,0,0,1-1.61-3.52,4.39,4.39,0,0,1,.72-2.54,6.29,6.29,0,0,1,2.4-1.9,6.44,6.44,0,0,1-2-2,4.46,4.46,0,0,1-.62-2.3,3.55,3.55,0,0,1,1.53-3.06A7.21,7.21,0,0,1,1033.46,1134.62Zm-2,12.68a1.47,1.47,0,0,0,.51,1.17,2.16,2.16,0,0,0,1.43.44c1.38,0,2.06-.51,2.06-1.52a1.79,1.79,0,0,0-.45-1.13,6.27,6.27,0,0,0-1.61-1.24,4.74,4.74,0,0,0-1.49,1.1A1.86,1.86,0,0,0,1031.43,1147.3Zm2-9.34a1.53,1.53,0,0,0-1,.35,1.12,1.12,0,0,0-.41.89c0,.68.46,1.27,1.37,1.78a3.94,3.94,0,0,0,1.14-.87,1.49,1.49,0,0,0,.31-.91,1.13,1.13,0,0,0-.41-.9A1.51,1.51,0,0,0,1033.44,1138Z" style="fill: #bfbfbf"/>
    </g>
    <g>
      <path d="M160.54,1152h-4.66v-7H150.5v7h-4.65v-17.13h4.65v6.35h5.38v-6.35h4.66Z" style="fill: #bfbfbf"/>
      <path d="M175.54,1152H163.1v-3l4.19-4.23c1.19-1.25,2-2.1,2.34-2.56a5.52,5.52,0,0,0,.77-1.18,2.56,2.56,0,0,0,.21-1,1.34,1.34,0,0,0-.43-1,1.77,1.77,0,0,0-1.22-.39,3.39,3.39,0,0,0-1.63.46,11.78,11.78,0,0,0-1.87,1.37l-2.55-3a14,14,0,0,1,2.23-1.69,8,8,0,0,1,2-.78,9.76,9.76,0,0,1,2.39-.27,7.19,7.19,0,0,1,3,.59,4.61,4.61,0,0,1,2,1.67,4.28,4.28,0,0,1,.72,2.43,6.86,6.86,0,0,1-.25,1.86,6.69,6.69,0,0,1-.78,1.68,12.4,12.4,0,0,1-1.4,1.74q-.89.92-3.73,3.47v.12h6.49Z" style="fill: #bfbfbf"/>
    </g>
    <g>
      <path d="M448.54,1152h-4.66v-7H438.5v7h-4.65v-17.13h4.65v6.35h5.38v-6.35h4.66Z" style="fill: #bfbfbf"/>
      <path d="M464.09,1148.68H462.2V1152h-4.57v-3.32H450.8v-3.39l7.12-10.42h4.28v10.36h1.89Zm-6.46-3.45v-2c0-.37,0-.88,0-1.51s.05-1,.06-1h-.12a11.79,11.79,0,0,1-.91,1.69l-1.9,2.83Z" style="fill: #bfbfbf"/>
    </g>
    <g>
      <path d="M736.54,1152h-4.66v-7H726.5v7h-4.65v-17.13h4.65v6.35h5.38v-6.35h4.66Z" style="fill: #bfbfbf"/>
      <path d="M739.21,1144.76a14,14,0,0,1,1-5.81,6.76,6.76,0,0,1,3-3.27,10.35,10.35,0,0,1,4.92-1.06,18,18,0,0,1,2.44.2v3.62a13.5,13.5,0,0,0-2.54-.22,5.05,5.05,0,0,0-3.46,1,4.56,4.56,0,0,0-1.24,3.33h.14a3.56,3.56,0,0,1,3.39-2,4.41,4.41,0,0,1,3.54,1.47,7.17,7.17,0,0,1-.33,8.56,6.81,6.81,0,0,1-9.2-.33A8.15,8.15,0,0,1,739.21,1144.76Zm6.35,3.81a1.5,1.5,0,0,0,1.2-.56,2.75,2.75,0,0,0,.46-1.78c0-1.39-.54-2.08-1.61-2.08a1.68,1.68,0,0,0-1.3.54,1.86,1.86,0,0,0-.5,1.31,3.28,3.28,0,0,0,.48,1.85A1.47,1.47,0,0,0,745.56,1148.57Z" style="fill: #bfbfbf"/>
    </g>
  </g>
</svg>
