<svg xmlns="http://www.w3.org/2000/svg" width="144" height="144" viewBox="0 0 144 144">
  <path d="M50.15,122a31.2,31.2,0,0,1-1.32-4.42,30.23,30.23,0,0,1-.59-6.66,21.4,21.4,0,0,1,1.84-9,32.78,32.78,0,0,1,4.62-7.35,54.22,54.22,0,0,1,6-6.19q3.26-2.86,6-5.61a34.76,34.76,0,0,0,4.61-5.5,10.61,10.61,0,0,0,1.85-6,17.87,17.87,0,0,1-5.31,3.53,23.93,23.93,0,0,1-8.6,1.75,25.76,25.76,0,0,1-4,2.43,32.55,32.55,0,0,1-4.35,1.72,20.36,20.36,0,0,1-4.25,3.72,8.23,8.23,0,0,1-4.52,1.42,8.66,8.66,0,0,1-3.56-.73,10.75,10.75,0,0,1-3-2,12.31,12.31,0,0,1-2.3-2.9,13.47,13.47,0,0,1-1.42-3.5,7.38,7.38,0,0,1-1.09-2.6,13.27,13.27,0,0,1-.3-2.74,4.41,4.41,0,0,1,.66-2.2A13.25,13.25,0,0,1,32.75,67a14.39,14.39,0,0,1,1.91-1.85,11.87,11.87,0,0,1,1.71-1.18c1.5-2,2.82-3.7,4-5.15s2.31-2.8,3.43-4.05,2.28-2.49,3.49-3.72,2.65-2.62,4.32-4.16a4,4,0,0,1-.13-1,7.47,7.47,0,0,1,.85-3.62,10,10,0,0,1,2.15-2.74,11.62,11.62,0,0,1,2.83-1.88,20.9,20.9,0,0,1,2.93-1.12c0-.92,0-1.79-.06-2.6s-.12-1.62-.23-2.41-.24-1.62-.4-2.5S59.2,27.1,59,26l2-.86a20,20,0,0,1,2.24,1.28,24.35,24.35,0,0,1,2.54,1.95,21.66,21.66,0,0,1,2.47,2.57A22,22,0,0,1,70.32,34l.66-.13q.52-2.5.82-5.28c.2-1.84.36-3.86.5-6.06L75,22a38.2,38.2,0,0,1,2.93,3,33.64,33.64,0,0,1,2.84,3.72,38.44,38.44,0,0,1,2.53,4.52,31,31,0,0,1,2,5.31c.71.88,1.46,1.78,2.28,2.7s1.7,1.91,2.67,3l3.13,3.42Q95,49.49,97,51.8a62.37,62.37,0,0,1,5.57,7.94,79.36,79.36,0,0,1,5.34,10.68,86.18,86.18,0,0,1,4,12.23,51.72,51.72,0,0,1,1.59,12.52q0,4-.14,7.09c-.08,2-.23,4-.42,6s-.46,4-.76,6.17-.68,4.68-1.12,7.58ZM36.57,71.18a4.7,4.7,0,0,0,.59,1.71,5.05,5.05,0,0,0,1,1.25,10.24,10.24,0,0,0,3.17-1.88,19.94,19.94,0,0,1,3.16-2.2l-.07-.4ZM58.92,49.82a18.64,18.64,0,0,0,2.57-.2A15.36,15.36,0,0,0,64.25,49a16.15,16.15,0,0,0,2.61-1.12,8.1,8.1,0,0,0,2.07-1.58,20.81,20.81,0,0,1-2.8-.23A21.18,21.18,0,0,0,63,45.8q-.59,0-1.38.06a5.4,5.4,0,0,0-1.45.33,2.89,2.89,0,0,0-1.12.79,2,2,0,0,0-.46,1.39A4.2,4.2,0,0,0,58.92,49.82Zm29.66,2a83.75,83.75,0,0,1,8.3,18.36,64.58,64.58,0,0,1,2.77,19q0,3-.16,5.86t-.56,5.71q-.41,2.86-1,5.83c-.42,2-.94,4-1.55,6.2h7.58a71.79,71.79,0,0,0,1.32-8.08q.39-3.92.39-7.61a66.73,66.73,0,0,0-.72-10,69.52,69.52,0,0,0-2-8.9,63.63,63.63,0,0,0-2.77-7.71c-1-2.38-2.07-4.55-3.13-6.53A64.15,64.15,0,0,0,88.58,51.86Z"/>
</svg>
