<svg xmlns="http://www.w3.org/2000/svg" width="153" height="144" viewBox="0 0 153 144">
  <g>
    <path d="M63.69,30.08a8.47,8.47,0,0,1,.73-3.6,8.09,8.09,0,0,1,1.88-2.6,7.73,7.73,0,0,1,2.6-1.58,8.69,8.69,0,0,1,3-.53,9.21,9.21,0,0,1,3,.53,8.24,8.24,0,0,1,2.7,1.55,8,8,0,0,1,2,2.6,8.38,8.38,0,0,1,.76,3.63,7.69,7.69,0,0,1-1.65,5.2,8.47,8.47,0,0,1-4,2.64l7.52,33.22,10.41-29a7.71,7.71,0,0,1-4-2.87,8,8,0,0,1-1.52-4.84,8.41,8.41,0,0,1,.76-3.63,8.26,8.26,0,0,1,2-2.64,8.37,8.37,0,0,1,2.7-1.58,8.94,8.94,0,0,1,3-.52,9.2,9.2,0,0,1,3,.52,7.73,7.73,0,0,1,4.62,4.22,8.71,8.71,0,0,1,.72,3.63,8.34,8.34,0,0,1-.49,2.83A7.77,7.77,0,0,1,102,39.73a8.3,8.3,0,0,1-2.24,1.85,7.8,7.8,0,0,1-3,1L99.55,72.4l13.91-21.3a7.8,7.8,0,0,1-3-3,8.42,8.42,0,0,1-1.12-4.31,8.08,8.08,0,0,1,.76-3.6,8.24,8.24,0,0,1,1.94-2.6,8,8,0,0,1,2.7-1.58,9.31,9.31,0,0,1,3-.53,9,9,0,0,1,3,.53,7.76,7.76,0,0,1,2.63,1.58,8.09,8.09,0,0,1,1.88,2.6,8.51,8.51,0,0,1,.73,3.6,8.68,8.68,0,0,1-.56,3.06,8.32,8.32,0,0,1-1.62,2.64,7.43,7.43,0,0,1-2.57,1.81,8.5,8.5,0,0,1-3.43.66h-1.12l-5.47,36v31.71q-9.56,1.32-19.74,1.94t-19.61.63q-9.69,0-19.71-.63t-19.51-1.94V88L27.31,52H26.19a8.5,8.5,0,0,1-3.43-.66,7.43,7.43,0,0,1-2.57-1.81,8.32,8.32,0,0,1-1.62-2.64A8.68,8.68,0,0,1,18,43.79a8.51,8.51,0,0,1,.73-3.6,8.09,8.09,0,0,1,1.88-2.6A7.76,7.76,0,0,1,23.25,36a9,9,0,0,1,3-.53,9.31,9.31,0,0,1,3,.53A8,8,0,0,1,32,37.59a8.24,8.24,0,0,1,1.94,2.6,8.08,8.08,0,0,1,.76,3.6,8.42,8.42,0,0,1-1.12,4.31,7.8,7.8,0,0,1-3,3L44.45,72.4l2.77-29.87a7.8,7.8,0,0,1-3-1A8.3,8.3,0,0,1,42,39.73a7.77,7.77,0,0,1-1.42-2.47,8.34,8.34,0,0,1-.49-2.83,8.71,8.71,0,0,1,.72-3.63,7.73,7.73,0,0,1,4.62-4.22,9.2,9.2,0,0,1,3-.52,9,9,0,0,1,3,.52,8.35,8.35,0,0,1,2.74,1.58,8.26,8.26,0,0,1,2,2.64,8.41,8.41,0,0,1,.76,3.63,8,8,0,0,1-1.52,4.84,7.71,7.71,0,0,1-4,2.87l10.41,29L69.3,37.92a8.47,8.47,0,0,1-4-2.64A7.69,7.69,0,0,1,63.69,30.08Z"/>
    <path d="M22.36,43.79a3.59,3.59,0,0,0,1.22,3,4.28,4.28,0,0,0,5.51,0,3.58,3.58,0,0,0,1.25-2.93,3.48,3.48,0,0,0-1.25-2.9,4.4,4.4,0,0,0-5.51,0A3.52,3.52,0,0,0,22.36,43.79Z" style="fill: #fff"/>
    <path d="M36.8,84c.44,0,1-.08,1.78-.1s1.54-.06,2.37-.1,1.66-.08,2.48-.1l2.14,0-12.66-21Z" style="fill: #fff"/>
    <path d="M37.2,95.73q3.75-.2,8.14-.33c2.92-.09,5.9-.15,8.93-.2l9.06-.1,8.54,0,8.5,0,9.16.1c3.08,0,6.1.11,9.07.2s5.7.2,8.2.33V88c-2.68-.13-5.51-.27-8.5-.4s-6-.23-9-.29-6-.12-9-.17-5.77-.06-8.4-.06-5.35,0-8.27.06-5.9.1-8.94.17-6,.16-9,.29-5.79.27-8.47.4Z" style="fill: #fff"/>
    <path d="M71.87,106.08l8.57,0,9.13-.07c3.05,0,6.06-.07,9-.13s5.7-.14,8.2-.23v-5.47l-8.2-.27c-3-.08-6-.15-9-.19s-6.1-.08-9.13-.1-5.89,0-8.57,0-5.46,0-8.47,0-6,0-9.1.1-6,.11-9,.19l-8.14.27v5.47c2.5.09,5.21.16,8.14.23s5.91.11,9,.13l9.1.07Z" style="fill: #fff"/>
    <path d="M71.87,117.42q4,0,8.63-.17t9.26-.46q4.65-.3,9.07-.69t8-.92v-5c-2.5.13-5.24.24-8.2.33s-6,.17-9,.23-6.1.11-9.13.13-5.89,0-8.57,0-5.46,0-8.47,0-6-.06-9.07-.13-6-.14-9-.23-5.67-.2-8.17-.33v5q3.55.52,7.94.92t9,.69q4.65.3,9.19.46C66.4,117.36,69.23,117.42,71.87,117.42Z" style="fill: #fff"/>
    <path d="M44.51,34.43a3.53,3.53,0,0,0,1.22,2.9,4.34,4.34,0,0,0,2.8,1,4,4,0,0,0,2.71-1,3.56,3.56,0,0,0,1.18-2.86,3.74,3.74,0,0,0-1.18-3,4,4,0,0,0-2.71-1,4.38,4.38,0,0,0-2.8,1A3.7,3.7,0,0,0,44.51,34.43Z" style="fill: #fff"/>
    <path d="M47.74,83.47q3-.14,6.36-.23c2.22-.07,4.41-.14,6.56-.23L50.51,53.28Z" style="fill: #fff"/>
    <path d="M71.87,82.88l4.28,0c1.45,0,2.9.06,4.35.1L72,45.11,63.5,83c1.45,0,2.87-.08,4.28-.1Z" style="fill: #fff"/>
    <path d="M68,30.08a3.86,3.86,0,0,0,1.13,3,3.75,3.75,0,0,0,2.7,1.06,4.3,4.3,0,0,0,2.9-1,3.77,3.77,0,0,0,1.18-3,3.76,3.76,0,0,0-1.18-3,4.22,4.22,0,0,0-2.9-1.05,3.8,3.8,0,0,0-2.74,1.05A4,4,0,0,0,68,30.08Z" style="fill: #fff"/>
    <path d="M93.29,53.21,83.34,83c2.15.09,4.34.16,6.56.23s4.34.14,6.36.23Z" style="fill: #fff"/>
    <path d="M99.49,34.43a3.7,3.7,0,0,0-1.22-3,4.38,4.38,0,0,0-2.8-1,4,4,0,0,0-2.71,1,3.74,3.74,0,0,0-1.18,3,3.56,3.56,0,0,0,1.18,2.86,4,4,0,0,0,2.71,1,4.34,4.34,0,0,0,2.8-1A3.53,3.53,0,0,0,99.49,34.43Z" style="fill: #fff"/>
    <path d="M111.09,62.71l-12.66,21,2.11,0c.84,0,1.67.06,2.51.1s1.62.08,2.37.1,1.34,0,1.78.1Z" style="fill: #fff"/>
    <path d="M121.64,43.79a3.52,3.52,0,0,0-1.22-2.94,4.4,4.4,0,0,0-5.51,0,3.48,3.48,0,0,0-1.25,2.9,3.58,3.58,0,0,0,1.25,2.93,4.28,4.28,0,0,0,5.51,0A3.59,3.59,0,0,0,121.64,43.79Z" style="fill: #fff"/>
  </g>
</svg>
