<svg xmlns="http://www.w3.org/2000/svg" width="1152" height="1152" viewBox="0 0 1152 1152">
  <g>
    <rect x="1008" width="144" height="144" style="fill: #bfbfbf"/>
    <rect x="1008" y="288" width="144" height="144" style="fill: #bfbfbf"/>
    <rect x="1008" y="576" width="144" height="144" style="fill: #bfbfbf"/>
    <rect x="1008" y="864" width="144" height="144" style="fill: #bfbfbf"/>
    <rect x="864" y="144" width="144" height="144" style="fill: #bfbfbf"/>
    <rect x="864" y="432" width="144" height="144" style="fill: #bfbfbf"/>
    <rect x="864" y="720" width="144" height="144" style="fill: #bfbfbf"/>
    <rect x="864" y="1008" width="144" height="144" style="fill: #bfbfbf"/>
    <rect x="720" width="144" height="144" style="fill: #bfbfbf"/>
    <rect x="720" y="288" width="144" height="144" style="fill: #bfbfbf"/>
    <rect x="720" y="576" width="144" height="144" style="fill: #bfbfbf"/>
    <rect x="720" y="864" width="144" height="144" style="fill: #bfbfbf"/>
    <rect x="576" y="144" width="144" height="144" style="fill: #bfbfbf"/>
    <rect x="576" y="432" width="144" height="144" style="fill: #bfbfbf"/>
    <rect x="576" y="720" width="144" height="144" style="fill: #bfbfbf"/>
    <rect x="576" y="1008" width="144" height="144" style="fill: #bfbfbf"/>
    <rect x="432" width="144" height="144" style="fill: #bfbfbf"/>
    <rect x="432" y="288" width="144" height="144" style="fill: #bfbfbf"/>
    <rect x="432" y="576" width="144" height="144" style="fill: #bfbfbf"/>
    <rect x="432" y="864" width="144" height="144" style="fill: #bfbfbf"/>
    <rect x="288" y="144" width="144" height="144" style="fill: #bfbfbf"/>
    <rect x="288" y="432" width="144" height="144" style="fill: #bfbfbf"/>
    <rect x="288" y="720" width="144" height="144" style="fill: #bfbfbf"/>
    <rect x="288" y="1008" width="144" height="144" style="fill: #bfbfbf"/>
    <rect x="144" width="144" height="144" style="fill: #bfbfbf"/>
    <rect x="144" y="288" width="144" height="144" style="fill: #bfbfbf"/>
    <rect x="144" y="576" width="144" height="144" style="fill: #bfbfbf"/>
    <rect x="144" y="864" width="144" height="144" style="fill: #bfbfbf"/>
    <rect y="144" width="144" height="144" style="fill: #bfbfbf"/>
    <rect y="432" width="144" height="144" style="fill: #bfbfbf"/>
    <rect y="720" width="144" height="144" style="fill: #bfbfbf"/>
    <rect y="1008" width="144" height="144" style="fill: #bfbfbf"/>
  </g>
  <g>
    <path d="M145.85156,414.86719h5.97656a10.16468,10.16468,0,0,1,5.18555,1.03711,3.51587,3.51587,0,0,1,1.69336,3.22851,4.08275,4.08275,0,0,1-.73828,2.46094,3.29316,3.29316,0,0,1-1.94531,1.3125v.11719a3.98751,3.98751,0,0,1,2.30859,1.40625,4.24422,4.24422,0,0,1,.71485,2.55469,4.37581,4.37581,0,0,1-1.752,3.67382A7.67192,7.67192,0,0,1,152.51953,432h-6.668Zm4.62891,6.57422H151.875a2.52019,2.52019,0,0,0,1.541-.41016,1.42921,1.42921,0,0,0,.54492-1.21875q0-1.44141-2.17969-1.44141h-1.30078Zm0,3.38671v3.59766h1.62891q2.168,0,2.168-1.82812a1.57235,1.57235,0,0,0-.58007-1.3125,2.67,2.67,0,0,0-1.68165-.457Z" style="fill: #fff"/>
    <path d="M172.74609,418.582a4.08217,4.08217,0,0,1-.97265,2.73633,5.53607,5.53607,0,0,1-2.8125,1.6582v.07032q4.28906.53906,4.28906,4.05468a4.39439,4.39439,0,0,1-1.89258,3.76172,8.81918,8.81918,0,0,1-5.25586,1.3711,15.37986,15.37986,0,0,1-2.56054-.19922,13.37411,13.37411,0,0,1-2.54883-.72657v-3.84375a10.17324,10.17324,0,0,0,2.291.84961,9.40476,9.40476,0,0,0,2.15039.27539,4.39767,4.39767,0,0,0,2.22071-.42773,1.46013,1.46013,0,0,0,.69726-1.3418,1.50889,1.50889,0,0,0-.36328-1.084,2.34959,2.34959,0,0,0-1.17187-.57422,9.35954,9.35954,0,0,0-2.10938-.19336h-1.05469v-3.48047h1.07813q3.52734,0,3.52734-1.80469a1.10776,1.10776,0,0,0-.52148-1.00781,2.60719,2.60719,0,0,0-1.40039-.32812,6.40956,6.40956,0,0,0-3.39844,1.10156l-1.92188-3.09375a9.33087,9.33087,0,0,1,2.78321-1.33594,12.14049,12.14049,0,0,1,3.26367-.39844,7.19623,7.19623,0,0,1,4.17188,1.05469A3.35359,3.35359,0,0,1,172.74609,418.582Z" style="fill: #fff"/>
  </g>
  <g>
    <path d="M448.39453,423.07031a8.85023,8.85023,0,0,1-2.36133,6.60938A9.06923,9.06923,0,0,1,439.39453,432h-5.543V414.86719h5.92969a8.9456,8.9456,0,0,1,6.36914,2.10937A7.96067,7.96067,0,0,1,448.39453,423.07031Zm-4.80469.16407a5.44524,5.44524,0,0,0-.93164-3.49219,3.44551,3.44551,0,0,0-2.83008-1.13672h-1.34765v9.59765h1.03125a3.73359,3.73359,0,0,0,3.09375-1.2246A5.9162,5.9162,0,0,0,443.58984,423.23438Z" style="fill: #fff"/>
    <path d="M462.1875,418.582a4.08218,4.08218,0,0,1-.97266,2.73633,5.536,5.536,0,0,1-2.8125,1.6582v.07032q4.28907.53906,4.28907,4.05468a4.39439,4.39439,0,0,1-1.89258,3.76172,8.81918,8.81918,0,0,1-5.25586,1.3711,15.38,15.38,0,0,1-2.56055-.19922,13.37452,13.37452,0,0,1-2.54883-.72657v-3.84375a10.17332,10.17332,0,0,0,2.291.84961,9.40469,9.40469,0,0,0,2.15039.27539,4.39763,4.39763,0,0,0,2.2207-.42773,1.46011,1.46011,0,0,0,.69727-1.3418,1.50889,1.50889,0,0,0-.36328-1.084,2.34959,2.34959,0,0,0-1.17188-.57422,9.35945,9.35945,0,0,0-2.10937-.19336h-1.05469v-3.48047h1.07813q3.52734,0,3.52734-1.80469a1.10775,1.10775,0,0,0-.52149-1.00781,2.60717,2.60717,0,0,0-1.40039-.32812,6.4095,6.4095,0,0,0-3.39843,1.10156l-1.92188-3.09375a9.33082,9.33082,0,0,1,2.7832-1.33594,12.14052,12.14052,0,0,1,3.26368-.39844,7.1962,7.1962,0,0,1,4.17187,1.05469A3.3536,3.3536,0,0,1,462.1875,418.582Z" style="fill: #fff"/>
  </g>
  <g>
    <path d="M726.41016,432h-4.5586V414.86719h10.125V418.582h-5.5664v3.26953H731.543v3.71485h-5.13281Z" style="fill: #fff"/>
    <path d="M745.51172,418.582a4.08218,4.08218,0,0,1-.97266,2.73633,5.53607,5.53607,0,0,1-2.8125,1.6582v.07032q4.28907.53906,4.28906,4.05468a4.39438,4.39438,0,0,1-1.89257,3.76172,8.81918,8.81918,0,0,1-5.25586,1.3711,15.38,15.38,0,0,1-2.56055-.19922,13.37431,13.37431,0,0,1-2.54883-.72657v-3.84375a10.17314,10.17314,0,0,0,2.291.84961,9.40469,9.40469,0,0,0,2.15039.27539,4.39763,4.39763,0,0,0,2.2207-.42773,1.46011,1.46011,0,0,0,.69727-1.3418,1.50894,1.50894,0,0,0-.36328-1.084,2.34963,2.34963,0,0,0-1.17188-.57422,9.35945,9.35945,0,0,0-2.10937-.19336H736.418v-3.48047h1.07812q3.52736,0,3.52735-1.80469a1.10775,1.10775,0,0,0-.52149-1.00781,2.60717,2.60717,0,0,0-1.40039-.32812,6.40956,6.40956,0,0,0-3.39844,1.10156l-1.92187-3.09375a9.3307,9.3307,0,0,1,2.7832-1.33594,12.14049,12.14049,0,0,1,3.26367-.39844A7.19621,7.19621,0,0,1,744,415.67578,3.3536,3.3536,0,0,1,745.51172,418.582Z" style="fill: #fff"/>
  </g>
  <g>
    <path d="M1024.53516,432h-4.65235v-6.98438h-5.3789V432h-4.65235V414.86719h4.65235v6.35156h5.3789v-6.35156h4.65235Z" style="fill: #fff"/>
    <path d="M1038.96094,418.582a4.08218,4.08218,0,0,1-.97266,2.73633,5.53607,5.53607,0,0,1-2.8125,1.6582v.07032q4.28907.53906,4.28906,4.05468a4.3944,4.3944,0,0,1-1.89257,3.76172,8.8192,8.8192,0,0,1-5.25586,1.3711,15.38,15.38,0,0,1-2.56055-.19922,13.37411,13.37411,0,0,1-2.54883-.72657v-3.84375a10.17314,10.17314,0,0,0,2.291.84961,9.40469,9.40469,0,0,0,2.15039.27539,4.39763,4.39763,0,0,0,2.2207-.42773,1.46013,1.46013,0,0,0,.69727-1.3418,1.5089,1.5089,0,0,0-.36329-1.084,2.34955,2.34955,0,0,0-1.17187-.57422,9.35945,9.35945,0,0,0-2.10937-.19336h-1.05469v-3.48047h1.07812q3.52736,0,3.52735-1.80469a1.10775,1.10775,0,0,0-.52149-1.00781,2.60717,2.60717,0,0,0-1.40039-.32812,6.40956,6.40956,0,0,0-3.39844,1.10156l-1.92187-3.09375a9.3307,9.3307,0,0,1,2.7832-1.33594,12.14049,12.14049,0,0,1,3.26367-.39844,7.19621,7.19621,0,0,1,4.17188,1.05469A3.3536,3.3536,0,0,1,1038.96094,418.582Z" style="fill: #fff"/>
  </g>
  <g>
    <path d="M12.36328,432l-.84375-3.21094H5.95312L5.08594,432H0l5.58984-17.20312h6.17578L17.42578,432Zm-1.80469-7.00781-.73828-2.8125q-.2578-.9375-.62695-2.42578T8.707,417.62109q-.10546.59766-.416,1.96875t-1.377,5.40235Z" style="fill: #bfbfbf"/>
    <path d="M30,418.582a4.08218,4.08218,0,0,1-.97266,2.73633,5.536,5.536,0,0,1-2.8125,1.6582v.07032q4.28907.53906,4.28907,4.05468a4.39439,4.39439,0,0,1-1.89258,3.76172,8.81918,8.81918,0,0,1-5.25586,1.3711,15.38,15.38,0,0,1-2.56055-.19922,13.37452,13.37452,0,0,1-2.54883-.72657v-3.84375a10.17332,10.17332,0,0,0,2.291.84961,9.40469,9.40469,0,0,0,2.15039.27539,4.39763,4.39763,0,0,0,2.2207-.42773,1.46011,1.46011,0,0,0,.69727-1.3418,1.50889,1.50889,0,0,0-.36328-1.084,2.34959,2.34959,0,0,0-1.17188-.57422,9.35945,9.35945,0,0,0-2.10937-.19336H20.90625v-3.48047h1.07813q3.52734,0,3.52734-1.80469a1.10775,1.10775,0,0,0-.52149-1.00781,2.60717,2.60717,0,0,0-1.40039-.32812,6.4095,6.4095,0,0,0-3.39843,1.10156l-1.92188-3.09375a9.33082,9.33082,0,0,1,2.7832-1.33594,12.14052,12.14052,0,0,1,3.26368-.39844,7.1962,7.1962,0,0,1,4.17187,1.05469A3.3536,3.3536,0,0,1,30,418.582Z" style="fill: #bfbfbf"/>
  </g>
  <g>
    <path d="M297.48047,418.418a2.95179,2.95179,0,0,0-2.57813,1.35351,6.53638,6.53638,0,0,0-.92578,3.73243q0,4.9453,3.76172,4.94531a7.70421,7.70421,0,0,0,2.20313-.31641,22.03905,22.03905,0,0,0,2.14453-.76172v3.91407a11.86823,11.86823,0,0,1-4.85156.94922,7.67427,7.67427,0,0,1-5.94727-2.25q-2.06836-2.25-2.06836-6.50391a10.37643,10.37643,0,0,1,1.002-4.67578,7.169,7.169,0,0,1,2.88282-3.09961,8.70593,8.70593,0,0,1,4.42382-1.084,12.18679,12.18679,0,0,1,5.3086,1.207l-1.418,3.64454a15.94077,15.94077,0,0,0-1.89844-.75A6.63449,6.63449,0,0,0,297.48047,418.418Z" style="fill: #bfbfbf"/>
    <path d="M316.14844,418.582a4.08218,4.08218,0,0,1-.97266,2.73633,5.53607,5.53607,0,0,1-2.8125,1.6582v.07032q4.28907.53906,4.28906,4.05468a4.3944,4.3944,0,0,1-1.89257,3.76172,8.8192,8.8192,0,0,1-5.25586,1.3711,15.38,15.38,0,0,1-2.56055-.19922,13.37411,13.37411,0,0,1-2.54883-.72657v-3.84375a10.17314,10.17314,0,0,0,2.291.84961,9.40469,9.40469,0,0,0,2.15039.27539,4.39763,4.39763,0,0,0,2.2207-.42773,1.46013,1.46013,0,0,0,.69727-1.3418,1.5089,1.5089,0,0,0-.36329-1.084,2.34955,2.34955,0,0,0-1.17187-.57422,9.35945,9.35945,0,0,0-2.10937-.19336h-1.05469v-3.48047h1.07812q3.52736,0,3.52735-1.80469a1.10775,1.10775,0,0,0-.52149-1.00781,2.60717,2.60717,0,0,0-1.40039-.32812,6.40956,6.40956,0,0,0-3.39844,1.10156l-1.92187-3.09375a9.3307,9.3307,0,0,1,2.7832-1.33594,12.14049,12.14049,0,0,1,3.26367-.39844,7.19621,7.19621,0,0,1,4.17188,1.05469A3.3536,3.3536,0,0,1,316.14844,418.582Z" style="fill: #bfbfbf"/>
  </g>
  <g>
    <path d="M588.02344,432H577.85156V414.86719h10.17188V418.582h-5.543v2.69531h5.13281v3.71485h-5.13281v3.23437h5.543Z" style="fill: #bfbfbf"/>
    <path d="M601.74609,418.582a4.08217,4.08217,0,0,1-.97265,2.73633,5.53607,5.53607,0,0,1-2.8125,1.6582v.07032q4.28905.53906,4.28906,4.05468a4.39439,4.39439,0,0,1-1.89258,3.76172,8.81918,8.81918,0,0,1-5.25586,1.3711,15.37986,15.37986,0,0,1-2.56054-.19922,13.37411,13.37411,0,0,1-2.54883-.72657v-3.84375a10.17324,10.17324,0,0,0,2.291.84961,9.40476,9.40476,0,0,0,2.15039.27539,4.39767,4.39767,0,0,0,2.22071-.42773,1.46013,1.46013,0,0,0,.69726-1.3418,1.50889,1.50889,0,0,0-.36328-1.084,2.34959,2.34959,0,0,0-1.17187-.57422,9.35954,9.35954,0,0,0-2.10938-.19336h-1.05469v-3.48047h1.07813q3.52734,0,3.52734-1.80469a1.10776,1.10776,0,0,0-.52148-1.00781,2.60719,2.60719,0,0,0-1.40039-.32812,6.40956,6.40956,0,0,0-3.39844,1.10156l-1.92188-3.09375a9.33087,9.33087,0,0,1,2.78321-1.33594,12.14049,12.14049,0,0,1,3.26367-.39844,7.19623,7.19623,0,0,1,4.17188,1.05469A3.35359,3.35359,0,0,1,601.74609,418.582Z" style="fill: #bfbfbf"/>
  </g>
  <g>
    <path d="M872.73047,421.96875H880.125v9.23437a20.32727,20.32727,0,0,1-6.62109,1.03126,8.00173,8.00173,0,0,1-6.12305-2.29688,9.19572,9.19572,0,0,1-2.16211-6.55078,8.60429,8.60429,0,0,1,2.36719-6.457,9.10068,9.10068,0,0,1,6.63281-2.3086,14.682,14.682,0,0,1,3.05273.30469,12.89242,12.89242,0,0,1,2.502.77344l-1.46485,3.63281a9.05906,9.05906,0,0,0-4.0664-.91406,3.867,3.867,0,0,0-3.13477,1.31836A5.70365,5.70365,0,0,0,870,423.50391,5.77744,5.77744,0,0,0,871.002,427.166a3.47359,3.47359,0,0,0,2.88867,1.25976,8.47864,8.47864,0,0,0,1.89844-.19922V425.543h-3.05859Z" style="fill: #bfbfbf"/>
    <path d="M894.33984,418.582a4.08222,4.08222,0,0,1-.97265,2.73633,5.53607,5.53607,0,0,1-2.8125,1.6582v.07032q4.28905.53906,4.28906,4.05468a4.39439,4.39439,0,0,1-1.89258,3.76172,8.81918,8.81918,0,0,1-5.25586,1.3711,15.37986,15.37986,0,0,1-2.56054-.19922,13.37411,13.37411,0,0,1-2.54883-.72657v-3.84375a10.17324,10.17324,0,0,0,2.291.84961,9.40476,9.40476,0,0,0,2.15039.27539,4.39767,4.39767,0,0,0,2.22071-.42773,1.46013,1.46013,0,0,0,.69726-1.3418,1.50889,1.50889,0,0,0-.36328-1.084,2.34959,2.34959,0,0,0-1.17187-.57422,9.35954,9.35954,0,0,0-2.10938-.19336h-1.05469v-3.48047h1.07813q3.52734,0,3.52734-1.80469a1.10776,1.10776,0,0,0-.52148-1.00781,2.60722,2.60722,0,0,0-1.40039-.32812,6.40953,6.40953,0,0,0-3.39844,1.10156l-1.92187-3.09375a9.33059,9.33059,0,0,1,2.7832-1.33594,12.14049,12.14049,0,0,1,3.26367-.39844,7.19618,7.19618,0,0,1,4.17187,1.05469A3.35357,3.35357,0,0,1,894.33984,418.582Z" style="fill: #bfbfbf"/>
  </g>
  <g>
    <path d="M145.85156,702.86719h5.97656a10.16468,10.16468,0,0,1,5.18555,1.03711,3.51587,3.51587,0,0,1,1.69336,3.22851,4.08275,4.08275,0,0,1-.73828,2.46094,3.29316,3.29316,0,0,1-1.94531,1.3125v.11719a3.98751,3.98751,0,0,1,2.30859,1.40625,4.24422,4.24422,0,0,1,.71485,2.55469,4.37581,4.37581,0,0,1-1.752,3.67382A7.67192,7.67192,0,0,1,152.51953,720h-6.668Zm4.62891,6.57422H151.875a2.52019,2.52019,0,0,0,1.541-.41016,1.42921,1.42921,0,0,0,.54492-1.21875q0-1.44141-2.17969-1.44141h-1.30078Zm0,3.38671v3.59766h1.62891q2.168,0,2.168-1.82812a1.57235,1.57235,0,0,0-.58007-1.3125,2.67,2.67,0,0,0-1.68165-.457Z" style="fill: #fff"/>
    <path d="M167.95312,708.77344a5.24175,5.24175,0,0,1,2.666.68554,4.74155,4.74155,0,0,1,1.85156,1.93946,6.10774,6.10774,0,0,1,.66211,2.89453,5.5835,5.5835,0,0,1-1.72851,4.40625,7.68668,7.68668,0,0,1-5.23242,1.53516,11.20038,11.20038,0,0,1-4.89844-.92579v-3.79687a12.3299,12.3299,0,0,0,2.30273.77344,9.78228,9.78228,0,0,0,2.209.30468,3.13771,3.13771,0,0,0,1.98046-.54492,1.92727,1.92727,0,0,0,.69141-1.61133,1.83991,1.83991,0,0,0-.70312-1.53515,3.42972,3.42972,0,0,0-2.13282-.55078,7.67137,7.67137,0,0,0-2.35547.41015l-1.69921-.84375.64453-9.04687h9.77344v3.85547h-5.83594l-.21094,2.26172a10.49176,10.49176,0,0,1,1.30078-.19336Q167.625,708.77344,167.95312,708.77344Z" style="fill: #fff"/>
  </g>
  <g>
    <path d="M448.39453,711.07031a8.85023,8.85023,0,0,1-2.36133,6.60938A9.06923,9.06923,0,0,1,439.39453,720h-5.543V702.86719h5.92969a8.9456,8.9456,0,0,1,6.36914,2.10937A7.96067,7.96067,0,0,1,448.39453,711.07031Zm-4.80469.16407a5.44524,5.44524,0,0,0-.93164-3.49219,3.44551,3.44551,0,0,0-2.83008-1.13672h-1.34765v9.59765h1.03125a3.73359,3.73359,0,0,0,3.09375-1.2246A5.9162,5.9162,0,0,0,443.58984,711.23438Z" style="fill: #fff"/>
    <path d="M457.39453,708.77344a5.24175,5.24175,0,0,1,2.666.68554,4.74162,4.74162,0,0,1,1.85156,1.93946,6.10774,6.10774,0,0,1,.66211,2.89453,5.58348,5.58348,0,0,1-1.72852,4.40625,7.68665,7.68665,0,0,1-5.23242,1.53516,11.20041,11.20041,0,0,1-4.89844-.92579v-3.79687a12.33026,12.33026,0,0,0,2.30274.77344,9.78227,9.78227,0,0,0,2.209.30468,3.13774,3.13774,0,0,0,1.98047-.54492,1.92727,1.92727,0,0,0,.69141-1.61133,1.83992,1.83992,0,0,0-.70313-1.53515,3.4297,3.4297,0,0,0-2.13281-.55078,7.67132,7.67132,0,0,0-2.35547.41015l-1.69922-.84375.64453-9.04687h9.77344v3.85547h-5.83594l-.21093,2.26172a10.4915,10.4915,0,0,1,1.30078-.19336Q457.06641,708.77344,457.39453,708.77344Z" style="fill: #fff"/>
  </g>
  <g>
    <path d="M726.41016,720h-4.5586V702.86719h10.125V706.582h-5.5664v3.26953H731.543v3.71485h-5.13281Z" style="fill: #fff"/>
    <path d="M740.71875,708.77344a5.24177,5.24177,0,0,1,2.666.68554,4.74168,4.74168,0,0,1,1.85156,1.93946,6.10786,6.10786,0,0,1,.66211,2.89453,5.58348,5.58348,0,0,1-1.72852,4.40625,7.68665,7.68665,0,0,1-5.23242,1.53516,11.20041,11.20041,0,0,1-4.89844-.92579v-3.79687a12.33026,12.33026,0,0,0,2.30274.77344,9.7822,9.7822,0,0,0,2.209.30468,3.13774,3.13774,0,0,0,1.98047-.54492,1.92727,1.92727,0,0,0,.69141-1.61133,1.83992,1.83992,0,0,0-.70313-1.53515,3.4297,3.4297,0,0,0-2.13281-.55078,7.67132,7.67132,0,0,0-2.35547.41015l-1.69922-.84375.64453-9.04687H744.75v3.85547h-5.83594l-.21094,2.26172a10.49158,10.49158,0,0,1,1.30079-.19336Q740.39063,708.77344,740.71875,708.77344Z" style="fill: #fff"/>
  </g>
  <g>
    <path d="M1024.53516,720h-4.65235v-6.98438h-5.3789V720h-4.65235V702.86719h4.65235v6.35156h5.3789v-6.35156h4.65235Z" style="fill: #fff"/>
    <path d="M1034.168,708.77344a5.24171,5.24171,0,0,1,2.666.68554,4.74164,4.74164,0,0,1,1.85157,1.93946,6.10786,6.10786,0,0,1,.66211,2.89453,5.58351,5.58351,0,0,1-1.72852,4.40625,7.68665,7.68665,0,0,1-5.23242,1.53516,11.20041,11.20041,0,0,1-4.89844-.92579v-3.79687a12.33026,12.33026,0,0,0,2.30274.77344,9.78212,9.78212,0,0,0,2.209.30468,3.13774,3.13774,0,0,0,1.98047-.54492,1.92727,1.92727,0,0,0,.69141-1.61133,1.83992,1.83992,0,0,0-.70313-1.53515,3.4297,3.4297,0,0,0-2.13281-.55078,7.67132,7.67132,0,0,0-2.35547.41015l-1.69922-.84375.64453-9.04687h9.77344v3.85547h-5.83594l-.21094,2.26172a10.49176,10.49176,0,0,1,1.30078-.19336Q1033.83985,708.77344,1034.168,708.77344Z" style="fill: #fff"/>
  </g>
  <g>
    <path d="M12.36328,720l-.84375-3.21094H5.95312L5.08594,720H0l5.58984-17.20312h6.17578L17.42578,720Zm-1.80469-7.00781-.73828-2.8125q-.2578-.9375-.62695-2.42578T8.707,705.62109q-.10546.59766-.416,1.96875t-1.377,5.40235Z" style="fill: #bfbfbf"/>
    <path d="M25.207,708.77344a5.24175,5.24175,0,0,1,2.666.68554,4.74162,4.74162,0,0,1,1.85156,1.93946,6.10774,6.10774,0,0,1,.66211,2.89453,5.58348,5.58348,0,0,1-1.72852,4.40625,7.68665,7.68665,0,0,1-5.23242,1.53516,11.20041,11.20041,0,0,1-4.89844-.92579v-3.79687a12.33026,12.33026,0,0,0,2.30274.77344,9.78227,9.78227,0,0,0,2.209.30468,3.13774,3.13774,0,0,0,1.98047-.54492,1.92727,1.92727,0,0,0,.69141-1.61133,1.83992,1.83992,0,0,0-.70313-1.53515,3.4297,3.4297,0,0,0-2.13281-.55078,7.67132,7.67132,0,0,0-2.35547.41015l-1.69922-.84375.64453-9.04687h9.77344v3.85547H23.40234l-.21093,2.26172a10.4915,10.4915,0,0,1,1.30078-.19336Q24.87891,708.77344,25.207,708.77344Z" style="fill: #bfbfbf"/>
  </g>
  <g>
    <path d="M297.48047,706.418a2.95179,2.95179,0,0,0-2.57813,1.35351,6.53638,6.53638,0,0,0-.92578,3.73243q0,4.94531,3.76172,4.94531a7.70421,7.70421,0,0,0,2.20313-.31641,22.03905,22.03905,0,0,0,2.14453-.76172v3.91407a11.86823,11.86823,0,0,1-4.85156.94922,7.67427,7.67427,0,0,1-5.94727-2.25q-2.06836-2.25-2.06836-6.50391a10.37643,10.37643,0,0,1,1.002-4.67578,7.169,7.169,0,0,1,2.88282-3.09961,8.70593,8.70593,0,0,1,4.42382-1.084,12.18679,12.18679,0,0,1,5.3086,1.207l-1.418,3.64454a15.94077,15.94077,0,0,0-1.89844-.75A6.63449,6.63449,0,0,0,297.48047,706.418Z" style="fill: #bfbfbf"/>
    <path d="M311.35547,708.77344a5.24171,5.24171,0,0,1,2.666.68554,4.74164,4.74164,0,0,1,1.85157,1.93946,6.10786,6.10786,0,0,1,.66211,2.89453,5.58351,5.58351,0,0,1-1.72852,4.40625,7.68665,7.68665,0,0,1-5.23242,1.53516,11.20041,11.20041,0,0,1-4.89844-.92579v-3.79687a12.33026,12.33026,0,0,0,2.30274.77344,9.78212,9.78212,0,0,0,2.209.30468,3.13774,3.13774,0,0,0,1.98047-.54492,1.92727,1.92727,0,0,0,.69141-1.61133,1.83992,1.83992,0,0,0-.70313-1.53515,3.4297,3.4297,0,0,0-2.13281-.55078,7.67132,7.67132,0,0,0-2.35547.41015l-1.69922-.84375.64453-9.04687h9.77344v3.85547h-5.83594l-.21094,2.26172a10.49176,10.49176,0,0,1,1.30078-.19336Q311.02735,708.77344,311.35547,708.77344Z" style="fill: #bfbfbf"/>
  </g>
  <g>
    <path d="M588.02344,720H577.85156V702.86719h10.17188V706.582h-5.543v2.69531h5.13281v3.71485h-5.13281v3.23437h5.543Z" style="fill: #bfbfbf"/>
    <path d="M596.95312,708.77344a5.24175,5.24175,0,0,1,2.666.68554,4.74155,4.74155,0,0,1,1.85156,1.93946,6.10774,6.10774,0,0,1,.66211,2.89453,5.5835,5.5835,0,0,1-1.72851,4.40625,7.68668,7.68668,0,0,1-5.23242,1.53516,11.20038,11.20038,0,0,1-4.89844-.92579v-3.79687a12.3299,12.3299,0,0,0,2.30273.77344,9.78228,9.78228,0,0,0,2.209.30468,3.13771,3.13771,0,0,0,1.98046-.54492,1.92727,1.92727,0,0,0,.69141-1.61133,1.83991,1.83991,0,0,0-.70312-1.53515,3.42972,3.42972,0,0,0-2.13282-.55078,7.67137,7.67137,0,0,0-2.35547.41015l-1.69921-.84375.64453-9.04687h9.77344v3.85547h-5.83594l-.21094,2.26172a10.49176,10.49176,0,0,1,1.30078-.19336Q596.625,708.77344,596.95312,708.77344Z" style="fill: #bfbfbf"/>
  </g>
  <g>
    <path d="M872.73047,709.96875H880.125v9.23437a20.32727,20.32727,0,0,1-6.62109,1.03126,8.00173,8.00173,0,0,1-6.12305-2.29688,9.19572,9.19572,0,0,1-2.16211-6.55078,8.60429,8.60429,0,0,1,2.36719-6.457,9.10068,9.10068,0,0,1,6.63281-2.3086,14.682,14.682,0,0,1,3.05273.30469,12.89242,12.89242,0,0,1,2.502.77344l-1.46485,3.63281a9.05906,9.05906,0,0,0-4.0664-.91406,3.867,3.867,0,0,0-3.13477,1.31836A5.70365,5.70365,0,0,0,870,711.50391,5.77744,5.77744,0,0,0,871.002,715.166a3.47359,3.47359,0,0,0,2.88867,1.25976,8.47864,8.47864,0,0,0,1.89844-.19922V713.543h-3.05859Z" style="fill: #bfbfbf"/>
    <path d="M889.54688,708.77344a5.24174,5.24174,0,0,1,2.666.68554,4.74155,4.74155,0,0,1,1.85156,1.93946,6.10774,6.10774,0,0,1,.66211,2.89453,5.5835,5.5835,0,0,1-1.72851,4.40625,7.68669,7.68669,0,0,1-5.23243,1.53516,11.20033,11.20033,0,0,1-4.89843-.92579v-3.79687a12.33015,12.33015,0,0,0,2.30273.77344,9.78228,9.78228,0,0,0,2.209.30468,3.13776,3.13776,0,0,0,1.98047-.54492,1.92729,1.92729,0,0,0,.6914-1.61133,1.83991,1.83991,0,0,0-.70312-1.53515,3.42972,3.42972,0,0,0-2.13282-.55078,7.67121,7.67121,0,0,0-2.35546.41015l-1.69922-.84375.64453-9.04687h9.77343v3.85547h-5.83593l-.21094,2.26172a10.4915,10.4915,0,0,1,1.30078-.19336Q889.21874,708.77344,889.54688,708.77344Z" style="fill: #bfbfbf"/>
  </g>
  <g>
    <path d="M145.85156,990.86719h5.97656a10.16468,10.16468,0,0,1,5.18555,1.03711,3.51587,3.51587,0,0,1,1.69336,3.22851,4.08275,4.08275,0,0,1-.73828,2.46094,3.29316,3.29316,0,0,1-1.94531,1.3125v.11719a3.98751,3.98751,0,0,1,2.30859,1.40625,4.24422,4.24422,0,0,1,.71485,2.55469,4.37581,4.37581,0,0,1-1.752,3.67382A7.67192,7.67192,0,0,1,152.51953,1008h-6.668Zm4.62891,6.57422H151.875a2.52019,2.52019,0,0,0,1.541-.41016,1.42921,1.42921,0,0,0,.54492-1.21875q0-1.44141-2.17969-1.44141h-1.30078Zm0,3.38671v3.59766h1.62891q2.168,0,2.168-1.82812a1.57235,1.57235,0,0,0-.58007-1.3125,2.67,2.67,0,0,0-1.68165-.457Z" style="fill: #fff"/>
    <path d="M162.62109,1008l5.88282-13.27734h-7.418v-3.832h12.36328v2.73047L167.41406,1008Z" style="fill: #fff"/>
  </g>
  <g>
    <path d="M448.39453,999.07031a8.85023,8.85023,0,0,1-2.36133,6.60938A9.06923,9.06923,0,0,1,439.39453,1008h-5.543V990.86719h5.92969a8.9456,8.9456,0,0,1,6.36914,2.10937A7.96067,7.96067,0,0,1,448.39453,999.07031Zm-4.80469.16407a5.44524,5.44524,0,0,0-.93164-3.49219,3.44551,3.44551,0,0,0-2.83008-1.13672h-1.34765v9.59765h1.03125a3.73359,3.73359,0,0,0,3.09375-1.2246A5.9162,5.9162,0,0,0,443.58984,999.23438Z" style="fill: #fff"/>
    <path d="M452.0625,1008l5.88281-13.27734h-7.418v-3.832h12.36328v2.73047L456.85547,1008Z" style="fill: #fff"/>
  </g>
  <g>
    <path d="M726.41016,1008h-4.5586V990.86719h10.125V994.582h-5.5664v3.26953H731.543v3.71485h-5.13281Z" style="fill: #fff"/>
    <path d="M735.38672,1008l5.88281-13.27734h-7.418v-3.832h12.36328v2.73047L740.17969,1008Z" style="fill: #fff"/>
  </g>
  <g>
    <path d="M1024.53516,1008h-4.65235v-6.98438h-5.3789V1008h-4.65235V990.86719h4.65235v6.35156h5.3789v-6.35156h4.65235Z" style="fill: #fff"/>
    <path d="M1028.83594,1008l5.88281-13.27734h-7.418v-3.832h12.36328v2.73047L1033.62891,1008Z" style="fill: #fff"/>
  </g>
  <g>
    <path d="M12.36328,1008l-.84375-3.21094H5.95312L5.08594,1008H0l5.58984-17.20312h6.17578L17.42578,1008Zm-1.80469-7.00781-.73828-2.8125q-.2578-.9375-.62695-2.42578T8.707,993.62109q-.10546.59766-.416,1.96875t-1.377,5.40235Z" style="fill: #bfbfbf"/>
    <path d="M19.875,1008l5.88281-13.27734h-7.418v-3.832H30.70312v2.73047L24.668,1008Z" style="fill: #bfbfbf"/>
  </g>
  <g>
    <path d="M297.48047,994.418a2.95179,2.95179,0,0,0-2.57813,1.35351,6.53638,6.53638,0,0,0-.92578,3.73243q0,4.94531,3.76172,4.94531a7.70421,7.70421,0,0,0,2.20313-.31641,22.03905,22.03905,0,0,0,2.14453-.76172v3.91407a11.86823,11.86823,0,0,1-4.85156.94922,7.67427,7.67427,0,0,1-5.94727-2.25q-2.06836-2.25-2.06836-6.50391a10.37643,10.37643,0,0,1,1.002-4.67578,7.169,7.169,0,0,1,2.88282-3.09961,8.70593,8.70593,0,0,1,4.42382-1.084,12.18679,12.18679,0,0,1,5.3086,1.207l-1.418,3.64454a15.94077,15.94077,0,0,0-1.89844-.75A6.63449,6.63449,0,0,0,297.48047,994.418Z" style="fill: #bfbfbf"/>
    <path d="M306.02344,1008l5.88281-13.27734h-7.418v-3.832h12.36328v2.73047L310.81641,1008Z" style="fill: #bfbfbf"/>
  </g>
  <g>
    <path d="M588.02344,1008H577.85156V990.86719h10.17188V994.582h-5.543v2.69531h5.13281v3.71485h-5.13281v3.23437h5.543Z" style="fill: #bfbfbf"/>
    <path d="M591.62109,1008l5.88282-13.27734h-7.418v-3.832h12.36328v2.73047L596.41406,1008Z" style="fill: #bfbfbf"/>
  </g>
  <g>
    <path d="M872.73047,997.96875H880.125v9.23437a20.32727,20.32727,0,0,1-6.62109,1.03126,8.00173,8.00173,0,0,1-6.12305-2.29688,9.19572,9.19572,0,0,1-2.16211-6.55078,8.60429,8.60429,0,0,1,2.36719-6.457,9.10068,9.10068,0,0,1,6.63281-2.3086,14.682,14.682,0,0,1,3.05273.30469,12.89242,12.89242,0,0,1,2.502.77344l-1.46485,3.63281a9.05906,9.05906,0,0,0-4.0664-.91406,3.867,3.867,0,0,0-3.13477,1.31836A5.70365,5.70365,0,0,0,870,999.50391a5.77744,5.77744,0,0,0,1.00195,3.66211,3.47359,3.47359,0,0,0,2.88867,1.25976,8.47864,8.47864,0,0,0,1.89844-.19922V1001.543h-3.05859Z" style="fill: #bfbfbf"/>
    <path d="M884.21484,1008l5.88282-13.27734h-7.418v-3.832H895.043v2.73047L889.00781,1008Z" style="fill: #bfbfbf"/>
  </g>
  <g>
    <path d="M145.85156,126.86719h5.97656a10.16468,10.16468,0,0,1,5.18555,1.03711,3.51587,3.51587,0,0,1,1.69336,3.22851,4.08275,4.08275,0,0,1-.73828,2.46094,3.29316,3.29316,0,0,1-1.94531,1.3125v.11719a3.98751,3.98751,0,0,1,2.30859,1.40625,4.24422,4.24422,0,0,1,.71485,2.55469,4.37581,4.37581,0,0,1-1.752,3.67382A7.67192,7.67192,0,0,1,152.51953,144h-6.668Zm4.62891,6.57422H151.875a2.52019,2.52019,0,0,0,1.541-.41016,1.42921,1.42921,0,0,0,.54492-1.21875q0-1.44141-2.17969-1.44141h-1.30078Zm0,3.38671v3.59766h1.62891q2.168,0,2.168-1.82812a1.57235,1.57235,0,0,0-.58007-1.3125,2.67,2.67,0,0,0-1.68165-.457Z" style="fill: #fff"/>
    <path d="M171.21094,144h-4.69922v-9.07031q0-1.65235.07031-3.02344a10.05056,10.05056,0,0,1-1.07812,1.10156l-1.94532,1.60547-2.40234-2.95312,5.88281-4.793h4.17188Z" style="fill: #fff"/>
  </g>
  <g>
    <path d="M12.36328,288l-.84375-3.21094H5.95312L5.08594,288H0l5.58984-17.20312h6.17578L17.42578,288Zm-1.80469-7.00781-.73828-2.8125q-.2578-.9375-.62695-2.42578T8.707,273.62109q-.10546.59766-.416,1.96875t-1.377,5.40235Z" style="fill: #fff"/>
    <path d="M30.57422,288H18.14062v-3.04688l4.1836-4.23046q1.793-1.875,2.34375-2.56055a5.60874,5.60874,0,0,0,.76758-1.17773,2.53108,2.53108,0,0,0,.21679-1.03126,1.34144,1.34144,0,0,0-.43359-1.05468A1.76882,1.76882,0,0,0,24,274.51172a3.32552,3.32552,0,0,0-1.63477.46289,11.72609,11.72609,0,0,0-1.86914,1.36523l-2.543-2.97656a13.71644,13.71644,0,0,1,2.22657-1.69336,7.95178,7.95178,0,0,1,1.96289-.7793,9.69738,9.69738,0,0,1,2.38476-.26953,7.188,7.188,0,0,1,2.97071.58594,4.64871,4.64871,0,0,1,2.02734,1.66992,4.29446,4.29446,0,0,1,.7207,2.43164,6.25547,6.25547,0,0,1-1.03125,3.54493,11.62462,11.62462,0,0,1-1.40039,1.74023q-.873.91406-3.7207,3.46875v.11719h6.48047Z" style="fill: #fff"/>
  </g>
  <g>
    <path d="M448.39453,135.07031a8.85023,8.85023,0,0,1-2.36133,6.60938A9.06923,9.06923,0,0,1,439.39453,144h-5.543V126.86719h5.92969a8.9456,8.9456,0,0,1,6.36914,2.10937A7.96067,7.96067,0,0,1,448.39453,135.07031Zm-4.80469.16407a5.44524,5.44524,0,0,0-.93164-3.49219,3.44551,3.44551,0,0,0-2.83008-1.13672h-1.34765v9.59765h1.03125a3.73359,3.73359,0,0,0,3.09375-1.2246A5.9162,5.9162,0,0,0,443.58984,135.23438Z" style="fill: #fff"/>
    <path d="M460.65234,144h-4.69922v-9.07031q0-1.65235.07032-3.02344a10.0498,10.0498,0,0,1-1.07813,1.10156L453,134.61328l-2.40234-2.95312,5.88281-4.793h4.17187Z" style="fill: #fff"/>
  </g>
  <g>
    <path d="M297.48047,274.418a2.95179,2.95179,0,0,0-2.57813,1.35351,6.53638,6.53638,0,0,0-.92578,3.73243q0,4.9453,3.76172,4.94531a7.70421,7.70421,0,0,0,2.20313-.31641,22.03905,22.03905,0,0,0,2.14453-.76172v3.91407a11.86823,11.86823,0,0,1-4.85156.94922,7.67427,7.67427,0,0,1-5.94727-2.25q-2.06836-2.25-2.06836-6.50391a10.37643,10.37643,0,0,1,1.002-4.67578,7.169,7.169,0,0,1,2.88282-3.09961,8.70593,8.70593,0,0,1,4.42382-1.084,12.18679,12.18679,0,0,1,5.3086,1.207l-1.418,3.64454a15.94077,15.94077,0,0,0-1.89844-.75A6.63449,6.63449,0,0,0,297.48047,274.418Z" style="fill: #fff"/>
    <path d="M316.72266,288h-12.4336v-3.04688l4.1836-4.23046q1.793-1.875,2.34375-2.56055a5.609,5.609,0,0,0,.76757-1.17773,2.53093,2.53093,0,0,0,.2168-1.03126,1.34144,1.34144,0,0,0-.43359-1.05468,1.76884,1.76884,0,0,0-1.21875-.38672,3.32549,3.32549,0,0,0-1.63477.46289,11.72565,11.72565,0,0,0-1.86914,1.36523l-2.543-2.97656a13.71687,13.71687,0,0,1,2.22656-1.69336,7.95185,7.95185,0,0,1,1.9629-.7793,9.69738,9.69738,0,0,1,2.38476-.26953,7.18788,7.18788,0,0,1,2.9707.58594,4.64868,4.64868,0,0,1,2.02735,1.66992,4.29446,4.29446,0,0,1,.7207,2.43164,6.25547,6.25547,0,0,1-1.03125,3.54493,11.62462,11.62462,0,0,1-1.40039,1.74023q-.873.91406-3.7207,3.46875v.11719h6.48047Z" style="fill: #fff"/>
  </g>
  <g>
    <path d="M726.41016,144h-4.5586V126.86719h10.125V130.582h-5.5664v3.26953H731.543v3.71485h-5.13281Z" style="fill: #fff"/>
    <path d="M743.97656,144h-4.69922v-9.07031q0-1.65235.07032-3.02344a10.05072,10.05072,0,0,1-1.07813,1.10156l-1.94531,1.60547-2.40234-2.95312,5.88281-4.793h4.17187Z" style="fill: #fff"/>
  </g>
  <g>
    <path d="M588.02344,288H577.85156V270.86719h10.17188V274.582h-5.543v2.69531h5.13281v3.71485h-5.13281v3.23437h5.543Z" style="fill: #fff"/>
    <path d="M602.32031,288H589.88672v-3.04688l4.18359-4.23046q1.793-1.875,2.34375-2.56055a5.60874,5.60874,0,0,0,.76758-1.17773,2.53109,2.53109,0,0,0,.2168-1.03126,1.34141,1.34141,0,0,0-.4336-1.05468,1.76882,1.76882,0,0,0-1.21875-.38672,3.32545,3.32545,0,0,0-1.63476.46289,11.72565,11.72565,0,0,0-1.86914,1.36523l-2.543-2.97656a13.71644,13.71644,0,0,1,2.22656-1.69336,7.95178,7.95178,0,0,1,1.96289-.7793,9.6974,9.6974,0,0,1,2.38477-.26953,7.18791,7.18791,0,0,1,2.9707.58594,4.64865,4.64865,0,0,1,2.02734,1.66992,4.29447,4.29447,0,0,1,.72071,2.43164,6.25567,6.25567,0,0,1-1.03125,3.54493,11.62462,11.62462,0,0,1-1.40039,1.74023q-.873.91406-3.72071,3.46875v.11719h6.48047Z" style="fill: #fff"/>
  </g>
  <g>
    <path d="M1024.53516,144h-4.65235v-6.98438h-5.3789V144h-4.65235V126.86719h4.65235v6.35156h5.3789v-6.35156h4.65235Z" style="fill: #fff"/>
    <path d="M1037.42578,144h-4.69922v-9.07031q0-1.65235.07032-3.02344a10.05072,10.05072,0,0,1-1.07813,1.10156l-1.94531,1.60547-2.40235-2.95312,5.88282-4.793h4.17187Z" style="fill: #fff"/>
  </g>
  <g>
    <path d="M872.73047,277.96875H880.125v9.23437a20.32727,20.32727,0,0,1-6.62109,1.03126,8.00173,8.00173,0,0,1-6.12305-2.29688,9.19572,9.19572,0,0,1-2.16211-6.55078,8.60429,8.60429,0,0,1,2.36719-6.457,9.10068,9.10068,0,0,1,6.63281-2.3086,14.682,14.682,0,0,1,3.05273.30469,12.89242,12.89242,0,0,1,2.502.77344l-1.46485,3.63281a9.05906,9.05906,0,0,0-4.0664-.91406,3.867,3.867,0,0,0-3.13477,1.31836A5.70365,5.70365,0,0,0,870,279.50391,5.77744,5.77744,0,0,0,871.002,283.166a3.47359,3.47359,0,0,0,2.88867,1.25976,8.47864,8.47864,0,0,0,1.89844-.19922V281.543h-3.05859Z" style="fill: #fff"/>
    <path d="M894.91406,288H882.48047v-3.04688l4.18359-4.23046q1.793-1.875,2.34375-2.56055a5.60874,5.60874,0,0,0,.76758-1.17773,2.53109,2.53109,0,0,0,.2168-1.03126,1.34141,1.34141,0,0,0-.4336-1.05468,1.76882,1.76882,0,0,0-1.21875-.38672,3.32545,3.32545,0,0,0-1.63476.46289,11.72565,11.72565,0,0,0-1.86914,1.36523l-2.543-2.97656a13.71644,13.71644,0,0,1,2.22656-1.69336,7.95178,7.95178,0,0,1,1.96289-.7793,9.69746,9.69746,0,0,1,2.38477-.26953,7.18791,7.18791,0,0,1,2.9707.58594,4.64865,4.64865,0,0,1,2.02734,1.66992,4.29447,4.29447,0,0,1,.72071,2.43164,6.25567,6.25567,0,0,1-1.03125,3.54493,11.62526,11.62526,0,0,1-1.40039,1.74023q-.873.91406-3.72071,3.46875v.11719h6.48047Z" style="fill: #fff"/>
  </g>
  <g>
    <path d="M12.36328,144l-.84375-3.21094H5.95312L5.08594,144H0l5.58984-17.20312h6.17578L17.42578,144Zm-1.80469-7.00781-.73828-2.8125q-.2578-.9375-.62695-2.42578T8.707,129.62109q-.10546.59766-.416,1.96875t-1.377,5.40235Z" style="fill: #bfbfbf"/>
    <path d="M28.46484,144H23.76562v-9.07031q0-1.65235.07032-3.02344a10.0498,10.0498,0,0,1-1.07813,1.10156l-1.94531,1.60547-2.40234-2.95312,5.88281-4.793h4.17187Z" style="fill: #bfbfbf"/>
  </g>
  <g>
    <path d="M1024.53516,288h-4.65235v-6.98438h-5.3789V288h-4.65235V270.86719h4.65235v6.35156h5.3789v-6.35156h4.65235Z" style="fill: #bfbfbf"/>
    <path d="M1039.53516,288h-12.4336v-3.04688l4.1836-4.23046q1.793-1.875,2.34375-2.56055a5.609,5.609,0,0,0,.76757-1.17773,2.53093,2.53093,0,0,0,.2168-1.03126,1.34144,1.34144,0,0,0-.43359-1.05468,1.76884,1.76884,0,0,0-1.21875-.38672,3.32549,3.32549,0,0,0-1.63477.46289,11.72565,11.72565,0,0,0-1.86914,1.36523l-2.543-2.97656a13.71687,13.71687,0,0,1,2.22656-1.69336,7.95185,7.95185,0,0,1,1.9629-.7793,9.69738,9.69738,0,0,1,2.38476-.26953,7.18788,7.18788,0,0,1,2.9707.58594,4.64868,4.64868,0,0,1,2.02735,1.66992,4.29446,4.29446,0,0,1,.7207,2.43164,6.25547,6.25547,0,0,1-1.03125,3.54493,11.62462,11.62462,0,0,1-1.40039,1.74023q-.873.91406-3.7207,3.46875v.11719h6.48047Z" style="fill: #bfbfbf"/>
  </g>
  <g>
    <path d="M297.48047,130.418a2.95179,2.95179,0,0,0-2.57813,1.35351,6.53638,6.53638,0,0,0-.92578,3.73243q0,4.94531,3.76172,4.94531a7.70421,7.70421,0,0,0,2.20313-.31641,22.03905,22.03905,0,0,0,2.14453-.76172v3.91407a11.86823,11.86823,0,0,1-4.85156.94922,7.67427,7.67427,0,0,1-5.94727-2.25q-2.06836-2.25-2.06836-6.50391a10.37643,10.37643,0,0,1,1.002-4.67578,7.169,7.169,0,0,1,2.88282-3.09961,8.70593,8.70593,0,0,1,4.42382-1.084,12.18679,12.18679,0,0,1,5.3086,1.207l-1.418,3.64454a15.94077,15.94077,0,0,0-1.89844-.75A6.63449,6.63449,0,0,0,297.48047,130.418Z" style="fill: #bfbfbf"/>
    <path d="M314.61328,144h-4.69922v-9.07031q0-1.65235.07032-3.02344a10.05072,10.05072,0,0,1-1.07813,1.10156l-1.94531,1.60547-2.40235-2.95312,5.88282-4.793h4.17187Z" style="fill: #bfbfbf"/>
  </g>
  <g>
    <path d="M145.85156,270.86719h5.97656a10.16468,10.16468,0,0,1,5.18555,1.03711,3.51587,3.51587,0,0,1,1.69336,3.22851,4.08275,4.08275,0,0,1-.73828,2.46094,3.29316,3.29316,0,0,1-1.94531,1.3125v.11719a3.98751,3.98751,0,0,1,2.30859,1.40625,4.24422,4.24422,0,0,1,.71485,2.55469,4.37581,4.37581,0,0,1-1.752,3.67382A7.67192,7.67192,0,0,1,152.51953,288h-6.668Zm4.62891,6.57422H151.875a2.52019,2.52019,0,0,0,1.541-.41016,1.42921,1.42921,0,0,0,.54492-1.21875q0-1.44141-2.17969-1.44141h-1.30078Zm0,3.38671v3.59766h1.62891q2.168,0,2.168-1.82812a1.57235,1.57235,0,0,0-.58007-1.3125,2.67,2.67,0,0,0-1.68165-.457Z" style="fill: #bfbfbf"/>
    <path d="M173.32031,288H160.88672v-3.04688l4.18359-4.23046q1.793-1.875,2.34375-2.56055a5.60874,5.60874,0,0,0,.76758-1.17773,2.53109,2.53109,0,0,0,.2168-1.03126,1.34141,1.34141,0,0,0-.4336-1.05468,1.76882,1.76882,0,0,0-1.21875-.38672,3.32545,3.32545,0,0,0-1.63476.46289,11.72565,11.72565,0,0,0-1.86914,1.36523l-2.543-2.97656a13.71644,13.71644,0,0,1,2.22656-1.69336,7.95178,7.95178,0,0,1,1.96289-.7793,9.6974,9.6974,0,0,1,2.38477-.26953,7.18791,7.18791,0,0,1,2.9707.58594,4.64865,4.64865,0,0,1,2.02734,1.66992,4.29447,4.29447,0,0,1,.72071,2.43164,6.25567,6.25567,0,0,1-1.03125,3.54493,11.62462,11.62462,0,0,1-1.40039,1.74023q-.873.91406-3.72071,3.46875v.11719h6.48047Z" style="fill: #bfbfbf"/>
  </g>
  <g>
    <path d="M588.02344,144H577.85156V126.86719h10.17188V130.582h-5.543v2.69531h5.13281v3.71485h-5.13281v3.23437h5.543Z" style="fill: #bfbfbf"/>
    <path d="M600.21094,144h-4.69922v-9.07031q0-1.65235.07031-3.02344a10.05056,10.05056,0,0,1-1.07812,1.10156l-1.94532,1.60547-2.40234-2.95312,5.88281-4.793h4.17188Z" style="fill: #bfbfbf"/>
  </g>
  <g>
    <path d="M448.39453,279.07031a8.85023,8.85023,0,0,1-2.36133,6.60938A9.06923,9.06923,0,0,1,439.39453,288h-5.543V270.86719h5.92969a8.9456,8.9456,0,0,1,6.36914,2.10937A7.96067,7.96067,0,0,1,448.39453,279.07031Zm-4.80469.16407a5.44524,5.44524,0,0,0-.93164-3.49219,3.44551,3.44551,0,0,0-2.83008-1.13672h-1.34765v9.59765h1.03125a3.73359,3.73359,0,0,0,3.09375-1.2246A5.9162,5.9162,0,0,0,443.58984,279.23438Z" style="fill: #bfbfbf"/>
    <path d="M462.76172,288h-12.4336v-3.04688l4.1836-4.23046q1.793-1.875,2.34375-2.56055a5.60874,5.60874,0,0,0,.76758-1.17773,2.53108,2.53108,0,0,0,.21679-1.03126,1.34144,1.34144,0,0,0-.43359-1.05468,1.76882,1.76882,0,0,0-1.21875-.38672,3.32552,3.32552,0,0,0-1.63477.46289,11.72609,11.72609,0,0,0-1.86914,1.36523l-2.543-2.97656a13.71644,13.71644,0,0,1,2.22657-1.69336,7.95178,7.95178,0,0,1,1.96289-.7793,9.69738,9.69738,0,0,1,2.38476-.26953,7.188,7.188,0,0,1,2.97071.58594,4.64871,4.64871,0,0,1,2.02734,1.66992,4.29446,4.29446,0,0,1,.7207,2.43164,6.25547,6.25547,0,0,1-1.03125,3.54493,11.62462,11.62462,0,0,1-1.40039,1.74023q-.873.91406-3.7207,3.46875v.11719h6.48047Z" style="fill: #bfbfbf"/>
  </g>
  <g>
    <path d="M872.73047,133.96875H880.125v9.23437a20.32727,20.32727,0,0,1-6.62109,1.03126,8.00173,8.00173,0,0,1-6.12305-2.29688,9.19572,9.19572,0,0,1-2.16211-6.55078,8.60429,8.60429,0,0,1,2.36719-6.457,9.10068,9.10068,0,0,1,6.63281-2.3086,14.682,14.682,0,0,1,3.05273.30469,12.89242,12.89242,0,0,1,2.502.77344l-1.46485,3.63281a9.05906,9.05906,0,0,0-4.0664-.91406,3.867,3.867,0,0,0-3.13477,1.31836A5.70365,5.70365,0,0,0,870,135.50391,5.77744,5.77744,0,0,0,871.002,139.166a3.47359,3.47359,0,0,0,2.88867,1.25976,8.47864,8.47864,0,0,0,1.89844-.19922V137.543h-3.05859Z" style="fill: #bfbfbf"/>
    <path d="M892.80469,144h-4.69922v-9.07031q0-1.65235.07031-3.02344a10.05056,10.05056,0,0,1-1.07812,1.10156l-1.94532,1.60547L882.75,131.66016l5.88281-4.793h4.17188Z" style="fill: #bfbfbf"/>
  </g>
  <g>
    <path d="M726.41016,288h-4.5586V270.86719h10.125V274.582h-5.5664v3.26953H731.543v3.71485h-5.13281Z" style="fill: #bfbfbf"/>
    <path d="M746.08594,288h-12.4336v-3.04688l4.1836-4.23046q1.793-1.875,2.34375-2.56055a5.60915,5.60915,0,0,0,.76758-1.17773,2.53108,2.53108,0,0,0,.21679-1.03126,1.34144,1.34144,0,0,0-.43359-1.05468,1.76882,1.76882,0,0,0-1.21875-.38672,3.32549,3.32549,0,0,0-1.63477.46289,11.72565,11.72565,0,0,0-1.86914,1.36523l-2.543-2.97656a13.71644,13.71644,0,0,1,2.22657-1.69336,7.95178,7.95178,0,0,1,1.96289-.7793,9.69738,9.69738,0,0,1,2.38476-.26953,7.188,7.188,0,0,1,2.97071.58594,4.64871,4.64871,0,0,1,2.02734,1.66992,4.29446,4.29446,0,0,1,.7207,2.43164,6.25547,6.25547,0,0,1-1.03125,3.54493,11.62462,11.62462,0,0,1-1.40039,1.74023q-.873.91406-3.7207,3.46875v.11719h6.48047Z" style="fill: #bfbfbf"/>
  </g>
  <g>
    <path d="M12.36328,576l-.84375-3.21094H5.95312L5.08594,576H0l5.58984-17.20312h6.17578L17.42578,576Zm-1.80469-7.00781-.73828-2.8125q-.2578-.9375-.62695-2.42578T8.707,561.62109q-.10546.59766-.416,1.96875t-1.377,5.40235Z" style="fill: #fff"/>
    <path d="M31.125,572.68359H29.23828V576H24.668v-3.31641h-6.832v-3.39843l7.125-10.418h4.27734v10.35937H31.125Zm-6.457-3.457v-1.99218q0-.5625.041-1.51758a9.84735,9.84735,0,0,1,.06446-1.002h-.12891a12.36454,12.36454,0,0,1-.90234,1.6875l-1.89844,2.82422Z" style="fill: #fff"/>
  </g>
  <g>
    <path d="M297.48047,562.418a2.95179,2.95179,0,0,0-2.57813,1.35351,6.53638,6.53638,0,0,0-.92578,3.73243q0,4.94531,3.76172,4.94531a7.70421,7.70421,0,0,0,2.20313-.31641,22.03905,22.03905,0,0,0,2.14453-.76172v3.91407a11.86823,11.86823,0,0,1-4.85156.94922,7.67427,7.67427,0,0,1-5.94727-2.25q-2.06836-2.25-2.06836-6.50391a10.37643,10.37643,0,0,1,1.002-4.67578,7.169,7.169,0,0,1,2.88282-3.09961,8.70593,8.70593,0,0,1,4.42382-1.084,12.18679,12.18679,0,0,1,5.3086,1.207l-1.418,3.64454a15.94077,15.94077,0,0,0-1.89844-.75A6.63449,6.63449,0,0,0,297.48047,562.418Z" style="fill: #fff"/>
    <path d="M317.27344,572.68359h-1.88672V576h-4.57031v-3.31641h-6.832v-3.39843l7.125-10.418h4.27734v10.35937h1.88672Zm-6.457-3.457v-1.99218q0-.5625.041-1.51758a9.84735,9.84735,0,0,1,.06446-1.002H310.793a12.36458,12.36458,0,0,1-.90235,1.6875l-1.89843,2.82422Z" style="fill: #fff"/>
  </g>
  <g>
    <path d="M588.02344,576H577.85156V558.86719h10.17188V562.582h-5.543v2.69531h5.13281v3.71485h-5.13281v3.23437h5.543Z" style="fill: #fff"/>
    <path d="M602.87109,572.68359h-1.88671V576h-4.57032v-3.31641h-6.832v-3.39843l7.125-10.418h4.27735v10.35937h1.88671Zm-6.457-3.457v-1.99218q0-.5625.041-1.51758a9.8495,9.8495,0,0,1,.06445-1.002h-.12891a12.36344,12.36344,0,0,1-.90234,1.6875l-1.89844,2.82422Z" style="fill: #fff"/>
  </g>
  <g>
    <path d="M872.73047,565.96875H880.125v9.23437a20.32727,20.32727,0,0,1-6.62109,1.03126,8.00173,8.00173,0,0,1-6.12305-2.29688,9.19572,9.19572,0,0,1-2.16211-6.55078,8.60429,8.60429,0,0,1,2.36719-6.457,9.10068,9.10068,0,0,1,6.63281-2.3086,14.682,14.682,0,0,1,3.05273.30469,12.89242,12.89242,0,0,1,2.502.77344l-1.46485,3.63281a9.05906,9.05906,0,0,0-4.0664-.91406,3.867,3.867,0,0,0-3.13477,1.31836A5.70365,5.70365,0,0,0,870,567.50391,5.77744,5.77744,0,0,0,871.002,571.166a3.47359,3.47359,0,0,0,2.88867,1.25976,8.47864,8.47864,0,0,0,1.89844-.19922V569.543h-3.05859Z" style="fill: #fff"/>
    <path d="M895.46484,572.68359h-1.88672V576h-4.57031v-3.31641h-6.832v-3.39843l7.125-10.418h4.27734v10.35937h1.88672Zm-6.457-3.457v-1.99218q0-.5625.041-1.51758a9.8495,9.8495,0,0,1,.06445-1.002h-.1289a12.36458,12.36458,0,0,1-.90235,1.6875l-1.89844,2.82422Z" style="fill: #fff"/>
  </g>
  <g>
    <path d="M1024.53516,576h-4.65235v-6.98438h-5.3789V576h-4.65235V558.86719h4.65235v6.35156h5.3789v-6.35156h4.65235Z" style="fill: #bfbfbf"/>
    <path d="M1040.08594,572.68359h-1.88672V576h-4.57031v-3.31641h-6.832v-3.39843l7.125-10.418h4.27734v10.35937h1.88672Zm-6.457-3.457v-1.99218q0-.5625.041-1.51758a9.84735,9.84735,0,0,1,.06446-1.002h-.12891a12.36458,12.36458,0,0,1-.90235,1.6875l-1.89843,2.82422Z" style="fill: #bfbfbf"/>
  </g>
  <g>
    <path d="M145.85156,558.86719h5.97656a10.16468,10.16468,0,0,1,5.18555,1.03711,3.51587,3.51587,0,0,1,1.69336,3.22851,4.08275,4.08275,0,0,1-.73828,2.46094,3.29316,3.29316,0,0,1-1.94531,1.3125v.11719a3.98751,3.98751,0,0,1,2.30859,1.40625,4.24422,4.24422,0,0,1,.71485,2.55469,4.37581,4.37581,0,0,1-1.752,3.67382A7.67192,7.67192,0,0,1,152.51953,576h-6.668Zm4.62891,6.57422H151.875a2.52019,2.52019,0,0,0,1.541-.41016,1.42921,1.42921,0,0,0,.54492-1.21875q0-1.44141-2.17969-1.44141h-1.30078Zm0,3.38671v3.59766h1.62891q2.168,0,2.168-1.82812a1.57235,1.57235,0,0,0-.58007-1.3125,2.67,2.67,0,0,0-1.68165-.457Z" style="fill: #bfbfbf"/>
    <path d="M173.87109,572.68359h-1.88671V576h-4.57032v-3.31641h-6.832v-3.39843l7.125-10.418h4.27735v10.35937h1.88671Zm-6.457-3.457v-1.99218q0-.5625.041-1.51758a9.8495,9.8495,0,0,1,.06445-1.002h-.12891a12.36344,12.36344,0,0,1-.90234,1.6875l-1.89844,2.82422Z" style="fill: #bfbfbf"/>
  </g>
  <g>
    <path d="M448.39453,567.07031a8.85023,8.85023,0,0,1-2.36133,6.60938A9.06923,9.06923,0,0,1,439.39453,576h-5.543V558.86719h5.92969a8.9456,8.9456,0,0,1,6.36914,2.10937A7.96067,7.96067,0,0,1,448.39453,567.07031Zm-4.80469.16407a5.44524,5.44524,0,0,0-.93164-3.49219,3.44551,3.44551,0,0,0-2.83008-1.13672h-1.34765v9.59765h1.03125a3.73359,3.73359,0,0,0,3.09375-1.2246A5.9162,5.9162,0,0,0,443.58984,567.23438Z" style="fill: #bfbfbf"/>
    <path d="M463.3125,572.68359h-1.88672V576h-4.57031v-3.31641h-6.832v-3.39843l7.125-10.418h4.27734v10.35937h1.88672Zm-6.457-3.457v-1.99218q0-.5625.041-1.51758a9.84735,9.84735,0,0,1,.06446-1.002H456.832a12.36454,12.36454,0,0,1-.90234,1.6875l-1.89844,2.82422Z" style="fill: #bfbfbf"/>
  </g>
  <g>
    <path d="M726.41016,576h-4.5586V558.86719h10.125V562.582h-5.5664v3.26953H731.543v3.71485h-5.13281Z" style="fill: #bfbfbf"/>
    <path d="M746.63672,572.68359H744.75V576h-4.57031v-3.31641h-6.832v-3.39843l7.125-10.418H744.75v10.35937h1.88672Zm-6.457-3.457v-1.99218q0-.5625.041-1.51758a9.84735,9.84735,0,0,1,.06446-1.002h-.12891a12.36564,12.36564,0,0,1-.90234,1.6875l-1.89844,2.82422Z" style="fill: #bfbfbf"/>
  </g>
  <g>
    <path d="M12.36328,864l-.84375-3.21094H5.95312L5.08594,864H0l5.58984-17.20312h6.17578L17.42578,864Zm-1.80469-7.00781-.73828-2.8125q-.2578-.9375-.62695-2.42578T8.707,849.62109q-.10546.59766-.416,1.96875t-1.377,5.40235Z" style="fill: #fff"/>
    <path d="M18.24609,856.75781a13.96158,13.96158,0,0,1,1.02539-5.80664,6.78371,6.78371,0,0,1,3.02344-3.27539,10.46039,10.46039,0,0,1,4.92774-1.05469,17.52294,17.52294,0,0,1,2.4375.19922v3.6211a13.63488,13.63488,0,0,0-2.543-.22266,5.04824,5.04824,0,0,0-3.457,1.01953,4.57186,4.57186,0,0,0-1.24219,3.32813h.14062a3.55953,3.55953,0,0,1,3.38672-1.99219,4.41457,4.41457,0,0,1,3.54492,1.4707,7.15178,7.15178,0,0,1-.334,8.55469,5.93276,5.93276,0,0,1-4.45313,1.63477,5.95565,5.95565,0,0,1-4.74609-1.96876A8.12842,8.12842,0,0,1,18.24609,856.75781Zm6.35157,3.8086a1.48912,1.48912,0,0,0,1.20117-.55664,2.7612,2.7612,0,0,0,.46289-1.77539q0-2.08594-1.61719-2.08594a1.68169,1.68169,0,0,0-1.29492.53906,1.86371,1.86371,0,0,0-.498,1.3125,3.26411,3.26411,0,0,0,.48047,1.8457A1.46088,1.46088,0,0,0,24.59766,860.56641Z" style="fill: #fff"/>
  </g>
  <g>
    <path d="M297.48047,850.418a2.95179,2.95179,0,0,0-2.57813,1.35351,6.53638,6.53638,0,0,0-.92578,3.73243q0,4.94531,3.76172,4.94531a7.70421,7.70421,0,0,0,2.20313-.31641,22.03905,22.03905,0,0,0,2.14453-.76172v3.91407a11.86823,11.86823,0,0,1-4.85156.94922,7.67427,7.67427,0,0,1-5.94727-2.25q-2.06836-2.25-2.06836-6.50391a10.37643,10.37643,0,0,1,1.002-4.67578,7.169,7.169,0,0,1,2.88282-3.09961,8.70593,8.70593,0,0,1,4.42382-1.084,12.18679,12.18679,0,0,1,5.3086,1.207l-1.418,3.64454a15.94077,15.94077,0,0,0-1.89844-.75A6.63449,6.63449,0,0,0,297.48047,850.418Z" style="fill: #fff"/>
    <path d="M304.39453,856.75781a13.96158,13.96158,0,0,1,1.02539-5.80664,6.78371,6.78371,0,0,1,3.02344-3.27539,10.46037,10.46037,0,0,1,4.92773-1.05469,17.5227,17.5227,0,0,1,2.4375.19922v3.6211a13.6348,13.6348,0,0,0-2.543-.22266,5.04827,5.04827,0,0,0-3.457,1.01953,4.5719,4.5719,0,0,0-1.24218,3.32813h.14062a3.55953,3.55953,0,0,1,3.38672-1.99219,4.41457,4.41457,0,0,1,3.54492,1.4707,7.15178,7.15178,0,0,1-.334,8.55469,6.7885,6.7885,0,0,1-9.19922-.334A8.12836,8.12836,0,0,1,304.39453,856.75781Zm6.35156,3.8086a1.48912,1.48912,0,0,0,1.20118-.55664,2.7612,2.7612,0,0,0,.46289-1.77539q0-2.08594-1.61719-2.08594a1.68169,1.68169,0,0,0-1.29492.53906A1.86371,1.86371,0,0,0,309,858a3.26411,3.26411,0,0,0,.48047,1.8457A1.46087,1.46087,0,0,0,310.74609,860.56641Z" style="fill: #fff"/>
  </g>
  <g>
    <path d="M588.02344,864H577.85156V846.86719h10.17188V850.582h-5.543v2.69531h5.13281v3.71485h-5.13281v3.23437h5.543Z" style="fill: #fff"/>
    <path d="M589.99219,856.75781a13.96142,13.96142,0,0,1,1.02539-5.80664,6.78362,6.78362,0,0,1,3.02344-3.27539,10.46034,10.46034,0,0,1,4.92773-1.05469,17.52294,17.52294,0,0,1,2.4375.19922v3.6211a13.63488,13.63488,0,0,0-2.543-.22266,5.04825,5.04825,0,0,0-3.457,1.01953,4.57194,4.57194,0,0,0-1.24219,3.32813h.14063a3.55952,3.55952,0,0,1,3.38672-1.99219,4.41459,4.41459,0,0,1,3.54492,1.4707,7.15181,7.15181,0,0,1-.334,8.55469,6.7885,6.7885,0,0,1-9.19922-.334A8.12841,8.12841,0,0,1,589.99219,856.75781Zm6.35156,3.8086a1.48909,1.48909,0,0,0,1.20117-.55664,2.76114,2.76114,0,0,0,.46289-1.77539q0-2.08594-1.61719-2.08594a1.68171,1.68171,0,0,0-1.29492.53906,1.8637,1.8637,0,0,0-.498,1.3125,3.2641,3.2641,0,0,0,.48046,1.8457A1.46089,1.46089,0,0,0,596.34375,860.56641Z" style="fill: #fff"/>
  </g>
  <g>
    <path d="M872.73047,853.96875H880.125v9.23437a20.32727,20.32727,0,0,1-6.62109,1.03126,8.00173,8.00173,0,0,1-6.12305-2.29688,9.19572,9.19572,0,0,1-2.16211-6.55078,8.60429,8.60429,0,0,1,2.36719-6.457,9.10068,9.10068,0,0,1,6.63281-2.3086,14.682,14.682,0,0,1,3.05273.30469,12.89242,12.89242,0,0,1,2.502.77344l-1.46485,3.63281a9.05906,9.05906,0,0,0-4.0664-.91406,3.867,3.867,0,0,0-3.13477,1.31836A5.70365,5.70365,0,0,0,870,855.50391,5.77744,5.77744,0,0,0,871.002,859.166a3.47359,3.47359,0,0,0,2.88867,1.25976,8.47864,8.47864,0,0,0,1.89844-.19922V857.543h-3.05859Z" style="fill: #fff"/>
    <path d="M882.58594,856.75781a13.96142,13.96142,0,0,1,1.02539-5.80664,6.78362,6.78362,0,0,1,3.02344-3.27539,10.46037,10.46037,0,0,1,4.92773-1.05469,17.52294,17.52294,0,0,1,2.4375.19922v3.6211a13.63488,13.63488,0,0,0-2.543-.22266A5.04825,5.04825,0,0,0,888,851.23828a4.5719,4.5719,0,0,0-1.24219,3.32813h.14063a3.55952,3.55952,0,0,1,3.38672-1.99219,4.41459,4.41459,0,0,1,3.54492,1.4707,7.15181,7.15181,0,0,1-.334,8.55469,6.78849,6.78849,0,0,1-9.19921-.334A8.12836,8.12836,0,0,1,882.58594,856.75781Zm6.35156,3.8086a1.48909,1.48909,0,0,0,1.20117-.55664,2.76114,2.76114,0,0,0,.46289-1.77539q0-2.08594-1.61718-2.08594a1.6817,1.6817,0,0,0-1.29493.53906,1.8637,1.8637,0,0,0-.498,1.3125,3.264,3.264,0,0,0,.48047,1.8457A1.46086,1.46086,0,0,0,888.9375,860.56641Z" style="fill: #fff"/>
  </g>
  <g>
    <path d="M1024.53516,864h-4.65235v-6.98438h-5.3789V864h-4.65235V846.86719h4.65235v6.35156h5.3789v-6.35156h4.65235Z" style="fill: #bfbfbf"/>
    <path d="M1027.207,856.75781a13.96158,13.96158,0,0,1,1.02539-5.80664,6.78371,6.78371,0,0,1,3.02344-3.27539,10.46037,10.46037,0,0,1,4.92773-1.05469,17.5227,17.5227,0,0,1,2.4375.19922v3.6211a13.6348,13.6348,0,0,0-2.543-.22266,5.04827,5.04827,0,0,0-3.457,1.01953,4.5719,4.5719,0,0,0-1.24218,3.32813h.14062a3.55953,3.55953,0,0,1,3.38672-1.99219,4.41457,4.41457,0,0,1,3.54492,1.4707,7.15178,7.15178,0,0,1-.334,8.55469,6.7885,6.7885,0,0,1-9.19922-.334A8.12836,8.12836,0,0,1,1027.207,856.75781Zm6.35156,3.8086a1.48912,1.48912,0,0,0,1.20118-.55664,2.7612,2.7612,0,0,0,.46289-1.77539q0-2.08594-1.61719-2.08594a1.68169,1.68169,0,0,0-1.29492.53906,1.86371,1.86371,0,0,0-.498,1.3125,3.26411,3.26411,0,0,0,.48047,1.8457A1.46087,1.46087,0,0,0,1033.55859,860.56641Z" style="fill: #bfbfbf"/>
  </g>
  <g>
    <path d="M145.85156,846.86719h5.97656a10.16468,10.16468,0,0,1,5.18555,1.03711,3.51587,3.51587,0,0,1,1.69336,3.22851,4.08275,4.08275,0,0,1-.73828,2.46094,3.29316,3.29316,0,0,1-1.94531,1.3125v.11719a3.98751,3.98751,0,0,1,2.30859,1.40625,4.24422,4.24422,0,0,1,.71485,2.55469,4.37581,4.37581,0,0,1-1.752,3.67382A7.67192,7.67192,0,0,1,152.51953,864h-6.668Zm4.62891,6.57422H151.875a2.52019,2.52019,0,0,0,1.541-.41016,1.42921,1.42921,0,0,0,.54492-1.21875q0-1.44141-2.17969-1.44141h-1.30078Zm0,3.38671v3.59766h1.62891q2.168,0,2.168-1.82812a1.57235,1.57235,0,0,0-.58007-1.3125,2.67,2.67,0,0,0-1.68165-.457Z" style="fill: #bfbfbf"/>
    <path d="M160.99219,856.75781a13.96142,13.96142,0,0,1,1.02539-5.80664,6.78362,6.78362,0,0,1,3.02344-3.27539,10.46034,10.46034,0,0,1,4.92773-1.05469,17.52294,17.52294,0,0,1,2.4375.19922v3.6211a13.63488,13.63488,0,0,0-2.543-.22266,5.04825,5.04825,0,0,0-3.457,1.01953,4.57194,4.57194,0,0,0-1.24219,3.32813h.14063a3.55952,3.55952,0,0,1,3.38672-1.99219,4.41459,4.41459,0,0,1,3.54492,1.4707,7.15181,7.15181,0,0,1-.334,8.55469,6.7885,6.7885,0,0,1-9.19922-.334A8.12841,8.12841,0,0,1,160.99219,856.75781Zm6.35156,3.8086a1.48909,1.48909,0,0,0,1.20117-.55664,2.76114,2.76114,0,0,0,.46289-1.77539q0-2.08594-1.61719-2.08594a1.68171,1.68171,0,0,0-1.29492.53906,1.8637,1.8637,0,0,0-.498,1.3125,3.2641,3.2641,0,0,0,.48046,1.8457A1.46089,1.46089,0,0,0,167.34375,860.56641Z" style="fill: #bfbfbf"/>
  </g>
  <g>
    <path d="M448.39453,855.07031a8.85023,8.85023,0,0,1-2.36133,6.60938A9.06923,9.06923,0,0,1,439.39453,864h-5.543V846.86719h5.92969a8.9456,8.9456,0,0,1,6.36914,2.10937A7.96067,7.96067,0,0,1,448.39453,855.07031Zm-4.80469.16407a5.44524,5.44524,0,0,0-.93164-3.49219,3.44551,3.44551,0,0,0-2.83008-1.13672h-1.34765v9.59765h1.03125a3.73359,3.73359,0,0,0,3.09375-1.2246A5.9162,5.9162,0,0,0,443.58984,855.23438Z" style="fill: #bfbfbf"/>
    <path d="M450.43359,856.75781a13.96158,13.96158,0,0,1,1.02539-5.80664,6.78371,6.78371,0,0,1,3.02344-3.27539,10.46039,10.46039,0,0,1,4.92774-1.05469,17.52294,17.52294,0,0,1,2.4375.19922v3.6211a13.63488,13.63488,0,0,0-2.543-.22266,5.04824,5.04824,0,0,0-3.457,1.01953,4.57186,4.57186,0,0,0-1.24219,3.32813h.14062a3.55953,3.55953,0,0,1,3.38672-1.99219,4.41457,4.41457,0,0,1,3.54492,1.4707,7.15178,7.15178,0,0,1-.334,8.55469,6.7885,6.7885,0,0,1-9.19922-.334A8.12842,8.12842,0,0,1,450.43359,856.75781Zm6.35157,3.8086a1.48912,1.48912,0,0,0,1.20117-.55664,2.7612,2.7612,0,0,0,.46289-1.77539q0-2.08594-1.61719-2.08594a1.68169,1.68169,0,0,0-1.29492.53906,1.86371,1.86371,0,0,0-.498,1.3125,3.26411,3.26411,0,0,0,.48047,1.8457A1.46088,1.46088,0,0,0,456.78516,860.56641Z" style="fill: #bfbfbf"/>
  </g>
  <g>
    <path d="M726.41016,864h-4.5586V846.86719h10.125V850.582h-5.5664v3.26953H731.543v3.71485h-5.13281Z" style="fill: #bfbfbf"/>
    <path d="M733.75781,856.75781a13.96158,13.96158,0,0,1,1.02539-5.80664,6.78371,6.78371,0,0,1,3.02344-3.27539,10.46039,10.46039,0,0,1,4.92774-1.05469,17.52294,17.52294,0,0,1,2.4375.19922v3.6211a13.635,13.635,0,0,0-2.543-.22266,5.04824,5.04824,0,0,0-3.457,1.01953,4.57186,4.57186,0,0,0-1.24219,3.32813h.14062a3.55953,3.55953,0,0,1,3.38672-1.99219,4.41457,4.41457,0,0,1,3.54492,1.4707,7.15178,7.15178,0,0,1-.334,8.55469,6.7885,6.7885,0,0,1-9.19922-.334A8.12836,8.12836,0,0,1,733.75781,856.75781Zm6.35157,3.8086a1.48912,1.48912,0,0,0,1.20117-.55664,2.7612,2.7612,0,0,0,.46289-1.77539q0-2.08594-1.61719-2.08594a1.68169,1.68169,0,0,0-1.29492.53906,1.86371,1.86371,0,0,0-.498,1.3125,3.26411,3.26411,0,0,0,.48047,1.8457A1.46088,1.46088,0,0,0,740.10938,860.56641Z" style="fill: #bfbfbf"/>
  </g>
  <g>
    <path d="M12.36328,1152l-.84375-3.21094H5.95312L5.08594,1152H0l5.58984-17.20312h6.17578L17.42578,1152Zm-1.80469-7.00781-.73828-2.8125q-.2578-.9375-.62695-2.42578t-.48633-2.13282q-.10546.59766-.416,1.96875t-1.377,5.40235Z" style="fill: #fff"/>
    <path d="M24.50391,1134.62109a7.08269,7.08269,0,0,1,4.21289,1.08985,3.59238,3.59238,0,0,1,1.50586,3.09375,4.08927,4.08927,0,0,1-.709,2.38476,5.75885,5.75885,0,0,1-2.24414,1.78711,8.42294,8.42294,0,0,1,2.67774,2.15039,3.85943,3.85943,0,0,1,.77929,2.31446,4.18356,4.18356,0,0,1-1.65234,3.53906,7.492,7.492,0,0,1-4.61719,1.25391,7.51983,7.51983,0,0,1-4.62891-1.22461,4.1627,4.1627,0,0,1-1.60546-3.52149,4.39671,4.39671,0,0,1,.71484-2.53711,6.24578,6.24578,0,0,1,2.40234-1.90429,6.42505,6.42505,0,0,1-1.98632-1.9629,4.4048,4.4048,0,0,1-.627-2.30273,3.55048,3.55048,0,0,1,1.53516-3.06445A7.19323,7.19323,0,0,1,24.50391,1134.62109Zm-2.03907,12.67969a1.45583,1.45583,0,0,0,.51563,1.166,2.13582,2.13582,0,0,0,1.42969.43945q2.0625,0,2.0625-1.51172a1.78857,1.78857,0,0,0-.45118-1.13086,6.22547,6.22547,0,0,0-1.61132-1.24805,4.811,4.811,0,0,0-1.49414,1.10743A1.84252,1.84252,0,0,0,22.46484,1147.30078Zm2.01563-9.33984a1.51066,1.51066,0,0,0-1.00781.3457,1.11758,1.11758,0,0,0-.41016.89648q0,1.00782,1.37109,1.78126a3.9344,3.9344,0,0,0,1.13672-.87891,1.447,1.447,0,0,0,.30469-.90235,1.11312,1.11312,0,0,0-.41016-.90234A1.49306,1.49306,0,0,0,24.48047,1137.96094Z" style="fill: #fff"/>
  </g>
  <g>
    <path d="M297.48047,1138.418a2.95179,2.95179,0,0,0-2.57813,1.35351,6.53638,6.53638,0,0,0-.92578,3.73243q0,4.94531,3.76172,4.94531a7.70421,7.70421,0,0,0,2.20313-.31641,22.03905,22.03905,0,0,0,2.14453-.76172v3.91407a11.86823,11.86823,0,0,1-4.85156.94922,7.67427,7.67427,0,0,1-5.94727-2.25q-2.06836-2.25-2.06836-6.50391a10.37643,10.37643,0,0,1,1.002-4.67578,7.169,7.169,0,0,1,2.88282-3.09961,8.70593,8.70593,0,0,1,4.42382-1.084,12.18679,12.18679,0,0,1,5.3086,1.207l-1.418,3.64454a15.94077,15.94077,0,0,0-1.89844-.75A6.63449,6.63449,0,0,0,297.48047,1138.418Z" style="fill: #fff"/>
    <path d="M310.65234,1134.62109a7.08265,7.08265,0,0,1,4.21289,1.08985,3.59236,3.59236,0,0,1,1.50586,3.09375,4.08927,4.08927,0,0,1-.709,2.38476,5.75892,5.75892,0,0,1-2.24414,1.78711,8.42288,8.42288,0,0,1,2.67773,2.15039,3.85944,3.85944,0,0,1,.7793,2.31446,4.18356,4.18356,0,0,1-1.65234,3.53906,9.24276,9.24276,0,0,1-9.2461.0293,4.16271,4.16271,0,0,1-1.60547-3.52149,4.39672,4.39672,0,0,1,.71485-2.53711,6.24578,6.24578,0,0,1,2.40234-1.90429,6.42521,6.42521,0,0,1-1.98633-1.9629,4.4048,4.4048,0,0,1-.627-2.30273,3.55048,3.55048,0,0,1,1.53516-3.06445A7.1932,7.1932,0,0,1,310.65234,1134.62109Zm-2.03906,12.67969a1.45583,1.45583,0,0,0,.51563,1.166,2.13581,2.13581,0,0,0,1.42968.43945q2.0625,0,2.0625-1.51172a1.78861,1.78861,0,0,0-.45117-1.13086,6.22537,6.22537,0,0,0-1.61133-1.24805,4.8111,4.8111,0,0,0-1.49414,1.10743A1.84256,1.84256,0,0,0,308.61328,1147.30078Zm2.01563-9.33984a1.51071,1.51071,0,0,0-1.00782.3457,1.1176,1.1176,0,0,0-.41015.89648q0,1.00782,1.37109,1.78126a3.93454,3.93454,0,0,0,1.13672-.87891,1.447,1.447,0,0,0,.30469-.90235,1.11312,1.11312,0,0,0-.41016-.90234A1.49308,1.49308,0,0,0,310.62891,1137.96094Z" style="fill: #fff"/>
  </g>
  <g>
    <path d="M588.02344,1152H577.85156v-17.13281h10.17188v3.71484h-5.543v2.69531h5.13281v3.71485h-5.13281v3.23437h5.543Z" style="fill: #fff"/>
    <path d="M596.25,1134.62109a7.08267,7.08267,0,0,1,4.21289,1.08985,3.59236,3.59236,0,0,1,1.50586,3.09375,4.08934,4.08934,0,0,1-.709,2.38476,5.759,5.759,0,0,1-2.24415,1.78711,8.42282,8.42282,0,0,1,2.67774,2.15039,3.85944,3.85944,0,0,1,.7793,2.31446,4.18354,4.18354,0,0,1-1.65235,3.53906,9.24274,9.24274,0,0,1-9.24609.0293,4.16271,4.16271,0,0,1-1.60547-3.52149,4.39671,4.39671,0,0,1,.71484-2.53711,6.2459,6.2459,0,0,1,2.40235-1.90429,6.42521,6.42521,0,0,1-1.98633-1.9629,4.4048,4.4048,0,0,1-.62695-2.30273,3.5505,3.5505,0,0,1,1.53515-3.06445A7.19323,7.19323,0,0,1,596.25,1134.62109Zm-2.03906,12.67969a1.45583,1.45583,0,0,0,.51562,1.166,2.13584,2.13584,0,0,0,1.42969.43945q2.0625,0,2.0625-1.51172a1.78861,1.78861,0,0,0-.45117-1.13086,6.22537,6.22537,0,0,0-1.61133-1.24805,4.8111,4.8111,0,0,0-1.49414,1.10743A1.84256,1.84256,0,0,0,594.21094,1147.30078Zm2.01562-9.33984a1.51068,1.51068,0,0,0-1.00781.3457,1.11758,1.11758,0,0,0-.41016.89648q0,1.00782,1.3711,1.78126a3.93454,3.93454,0,0,0,1.13672-.87891,1.447,1.447,0,0,0,.30468-.90235,1.11311,1.11311,0,0,0-.41015-.90234A1.49309,1.49309,0,0,0,596.22656,1137.96094Z" style="fill: #fff"/>
  </g>
  <g>
    <path d="M872.73047,1141.96875H880.125v9.23437a20.32727,20.32727,0,0,1-6.62109,1.03126,8.00173,8.00173,0,0,1-6.12305-2.29688,9.19572,9.19572,0,0,1-2.16211-6.55078,8.60429,8.60429,0,0,1,2.36719-6.457,9.10068,9.10068,0,0,1,6.63281-2.3086,14.682,14.682,0,0,1,3.05273.30469,12.89242,12.89242,0,0,1,2.502.77344l-1.46485,3.63281a9.05906,9.05906,0,0,0-4.0664-.91406,3.867,3.867,0,0,0-3.13477,1.31836A5.70365,5.70365,0,0,0,870,1143.50391a5.77744,5.77744,0,0,0,1.00195,3.66211,3.47359,3.47359,0,0,0,2.88867,1.25976,8.47864,8.47864,0,0,0,1.89844-.19922V1145.543h-3.05859Z" style="fill: #fff"/>
    <path d="M888.84375,1134.62109a7.08267,7.08267,0,0,1,4.21289,1.08985,3.59236,3.59236,0,0,1,1.50586,3.09375,4.08934,4.08934,0,0,1-.709,2.38476,5.759,5.759,0,0,1-2.24414,1.78711,8.42288,8.42288,0,0,1,2.67773,2.15039,3.85944,3.85944,0,0,1,.7793,2.31446,4.18357,4.18357,0,0,1-1.65235,3.53906,9.24274,9.24274,0,0,1-9.24609.0293,4.16271,4.16271,0,0,1-1.60547-3.52149,4.39671,4.39671,0,0,1,.71484-2.53711,6.2459,6.2459,0,0,1,2.40235-1.90429,6.42521,6.42521,0,0,1-1.98633-1.9629,4.4048,4.4048,0,0,1-.62695-2.30273,3.55047,3.55047,0,0,1,1.53515-3.06445A7.19323,7.19323,0,0,1,888.84375,1134.62109Zm-2.03906,12.67969a1.45583,1.45583,0,0,0,.51562,1.166,2.13582,2.13582,0,0,0,1.42969.43945q2.0625,0,2.0625-1.51172a1.78861,1.78861,0,0,0-.45117-1.13086,6.22537,6.22537,0,0,0-1.61133-1.24805,4.8111,4.8111,0,0,0-1.49414,1.10743A1.84256,1.84256,0,0,0,886.80469,1147.30078Zm2.01562-9.33984a1.5107,1.5107,0,0,0-1.00781.3457,1.11758,1.11758,0,0,0-.41016.89648q0,1.00782,1.3711,1.78126a3.93468,3.93468,0,0,0,1.13672-.87891,1.447,1.447,0,0,0,.30468-.90235,1.11314,1.11314,0,0,0-.41015-.90234A1.49311,1.49311,0,0,0,888.82031,1137.96094Z" style="fill: #fff"/>
  </g>
  <g>
    <path d="M1024.53516,1152h-4.65235v-6.98438h-5.3789V1152h-4.65235v-17.13281h4.65235v6.35156h5.3789v-6.35156h4.65235Z" style="fill: #bfbfbf"/>
    <path d="M1033.46484,1134.62109a7.08265,7.08265,0,0,1,4.21289,1.08985,3.59236,3.59236,0,0,1,1.50586,3.09375,4.08927,4.08927,0,0,1-.709,2.38476,5.75892,5.75892,0,0,1-2.24414,1.78711,8.42288,8.42288,0,0,1,2.67773,2.15039,3.85944,3.85944,0,0,1,.7793,2.31446,4.18356,4.18356,0,0,1-1.65234,3.53906,9.24276,9.24276,0,0,1-9.2461.0293,4.16271,4.16271,0,0,1-1.60547-3.52149,4.39672,4.39672,0,0,1,.71485-2.53711,6.24578,6.24578,0,0,1,2.40234-1.90429,6.42521,6.42521,0,0,1-1.98633-1.9629,4.4048,4.4048,0,0,1-.627-2.30273,3.55048,3.55048,0,0,1,1.53516-3.06445A7.1932,7.1932,0,0,1,1033.46484,1134.62109Zm-2.03906,12.67969a1.45583,1.45583,0,0,0,.51563,1.166,2.13581,2.13581,0,0,0,1.42968.43945q2.0625,0,2.0625-1.51172a1.78861,1.78861,0,0,0-.45117-1.13086,6.22537,6.22537,0,0,0-1.61133-1.24805,4.8111,4.8111,0,0,0-1.49414,1.10743A1.84256,1.84256,0,0,0,1031.42578,1147.30078Zm2.01563-9.33984a1.51071,1.51071,0,0,0-1.00782.3457,1.1176,1.1176,0,0,0-.41015.89648q0,1.00782,1.37109,1.78126a3.93454,3.93454,0,0,0,1.13672-.87891,1.447,1.447,0,0,0,.30469-.90235,1.11312,1.11312,0,0,0-.41016-.90234A1.49308,1.49308,0,0,0,1033.44141,1137.96094Z" style="fill: #bfbfbf"/>
  </g>
  <g>
    <path d="M145.85156,1134.86719h5.97656a10.16468,10.16468,0,0,1,5.18555,1.03711,3.51587,3.51587,0,0,1,1.69336,3.22851,4.08275,4.08275,0,0,1-.73828,2.46094,3.29316,3.29316,0,0,1-1.94531,1.3125v.11719a3.98751,3.98751,0,0,1,2.30859,1.40625,4.24422,4.24422,0,0,1,.71485,2.55469,4.37581,4.37581,0,0,1-1.752,3.67382A7.67192,7.67192,0,0,1,152.51953,1152h-6.668Zm4.62891,6.57422H151.875a2.52019,2.52019,0,0,0,1.541-.41016,1.42921,1.42921,0,0,0,.54492-1.21875q0-1.44141-2.17969-1.44141h-1.30078Zm0,3.38671v3.59766h1.62891q2.168,0,2.168-1.82812a1.57235,1.57235,0,0,0-.58007-1.3125,2.67,2.67,0,0,0-1.68165-.457Z" style="fill: #bfbfbf"/>
    <path d="M167.25,1134.62109a7.08267,7.08267,0,0,1,4.21289,1.08985,3.59236,3.59236,0,0,1,1.50586,3.09375,4.08934,4.08934,0,0,1-.709,2.38476,5.759,5.759,0,0,1-2.24415,1.78711,8.42282,8.42282,0,0,1,2.67774,2.15039,3.85944,3.85944,0,0,1,.7793,2.31446,4.18354,4.18354,0,0,1-1.65235,3.53906,9.24274,9.24274,0,0,1-9.24609.0293,4.16271,4.16271,0,0,1-1.60547-3.52149,4.39671,4.39671,0,0,1,.71484-2.53711,6.2459,6.2459,0,0,1,2.40235-1.90429,6.42521,6.42521,0,0,1-1.98633-1.9629,4.4048,4.4048,0,0,1-.627-2.30273,3.5505,3.5505,0,0,1,1.53515-3.06445A7.19323,7.19323,0,0,1,167.25,1134.62109Zm-2.03906,12.67969a1.45583,1.45583,0,0,0,.51562,1.166,2.13584,2.13584,0,0,0,1.42969.43945q2.0625,0,2.0625-1.51172a1.78861,1.78861,0,0,0-.45117-1.13086,6.22537,6.22537,0,0,0-1.61133-1.24805,4.8111,4.8111,0,0,0-1.49414,1.10743A1.84256,1.84256,0,0,0,165.21094,1147.30078Zm2.01562-9.33984a1.51068,1.51068,0,0,0-1.00781.3457,1.11758,1.11758,0,0,0-.41016.89648q0,1.00782,1.3711,1.78126a3.93454,3.93454,0,0,0,1.13672-.87891,1.447,1.447,0,0,0,.30468-.90235,1.11311,1.11311,0,0,0-.41015-.90234A1.49309,1.49309,0,0,0,167.22656,1137.96094Z" style="fill: #bfbfbf"/>
  </g>
  <g>
    <path d="M448.39453,1143.07031a8.85023,8.85023,0,0,1-2.36133,6.60938A9.06923,9.06923,0,0,1,439.39453,1152h-5.543v-17.13281h5.92969a8.9456,8.9456,0,0,1,6.36914,2.10937A7.96067,7.96067,0,0,1,448.39453,1143.07031Zm-4.80469.16407a5.44524,5.44524,0,0,0-.93164-3.49219,3.44551,3.44551,0,0,0-2.83008-1.13672h-1.34765v9.59765h1.03125a3.73359,3.73359,0,0,0,3.09375-1.2246A5.9162,5.9162,0,0,0,443.58984,1143.23438Z" style="fill: #bfbfbf"/>
    <path d="M456.69141,1134.62109a7.08269,7.08269,0,0,1,4.21289,1.08985,3.59238,3.59238,0,0,1,1.50586,3.09375,4.08927,4.08927,0,0,1-.709,2.38476,5.75885,5.75885,0,0,1-2.24414,1.78711,8.42294,8.42294,0,0,1,2.67774,2.15039,3.85943,3.85943,0,0,1,.77929,2.31446,4.18356,4.18356,0,0,1-1.65234,3.53906,9.24276,9.24276,0,0,1-9.2461.0293,4.1627,4.1627,0,0,1-1.60546-3.52149,4.39671,4.39671,0,0,1,.71484-2.53711,6.24578,6.24578,0,0,1,2.40234-1.90429,6.42505,6.42505,0,0,1-1.98632-1.9629,4.4048,4.4048,0,0,1-.627-2.30273,3.55048,3.55048,0,0,1,1.53516-3.06445A7.19323,7.19323,0,0,1,456.69141,1134.62109Zm-2.03907,12.67969a1.45583,1.45583,0,0,0,.51563,1.166,2.13582,2.13582,0,0,0,1.42969.43945q2.0625,0,2.0625-1.51172a1.78857,1.78857,0,0,0-.45118-1.13086,6.22547,6.22547,0,0,0-1.61132-1.24805,4.811,4.811,0,0,0-1.49414,1.10743A1.84252,1.84252,0,0,0,454.65234,1147.30078Zm2.01563-9.33984a1.51066,1.51066,0,0,0-1.00781.3457,1.11758,1.11758,0,0,0-.41016.89648q0,1.00782,1.37109,1.78126a3.9344,3.9344,0,0,0,1.13672-.87891,1.447,1.447,0,0,0,.30469-.90235,1.11312,1.11312,0,0,0-.41016-.90234A1.49306,1.49306,0,0,0,456.668,1137.96094Z" style="fill: #bfbfbf"/>
  </g>
  <g>
    <path d="M726.41016,1152h-4.5586v-17.13281h10.125v3.71484h-5.5664v3.26953H731.543v3.71485h-5.13281Z" style="fill: #bfbfbf"/>
    <path d="M740.01562,1134.62109a7.0827,7.0827,0,0,1,4.2129,1.08985,3.59238,3.59238,0,0,1,1.50586,3.09375,4.08927,4.08927,0,0,1-.709,2.38476,5.75892,5.75892,0,0,1-2.24414,1.78711,8.42276,8.42276,0,0,1,2.67773,2.15039,3.85937,3.85937,0,0,1,.7793,2.31446,4.18356,4.18356,0,0,1-1.65234,3.53906,9.24276,9.24276,0,0,1-9.2461.0293,4.1627,4.1627,0,0,1-1.60546-3.52149,4.39671,4.39671,0,0,1,.71484-2.53711,6.24578,6.24578,0,0,1,2.40234-1.90429,6.42521,6.42521,0,0,1-1.98633-1.9629,4.40489,4.40489,0,0,1-.62695-2.30273,3.55048,3.55048,0,0,1,1.53516-3.06445A7.19322,7.19322,0,0,1,740.01562,1134.62109Zm-2.03906,12.67969a1.45583,1.45583,0,0,0,.51563,1.166,2.13582,2.13582,0,0,0,1.42969.43945q2.0625,0,2.0625-1.51172a1.78863,1.78863,0,0,0-.45118-1.13086,6.22547,6.22547,0,0,0-1.61132-1.24805,4.81116,4.81116,0,0,0-1.49415,1.10743A1.84256,1.84256,0,0,0,737.97656,1147.30078Zm2.01563-9.33984a1.51066,1.51066,0,0,0-1.00781.3457,1.11758,1.11758,0,0,0-.41016.89648q0,1.00782,1.37109,1.78126a3.9344,3.9344,0,0,0,1.13672-.87891,1.447,1.447,0,0,0,.30469-.90235,1.11312,1.11312,0,0,0-.41016-.90234A1.49308,1.49308,0,0,0,739.99219,1137.96094Z" style="fill: #bfbfbf"/>
  </g>
</svg>
