<svg xmlns="http://www.w3.org/2000/svg" width="144" height="144" viewBox="0 0 144 144">
  <g>
    <path d="M61.65,19.4a10.35,10.35,0,0,1,.79-4.06,10,10,0,0,1,5.44-5.43,11,11,0,0,1,8.24,0,10,10,0,0,1,5.44,5.43,10.35,10.35,0,0,1,.79,4.06,8.83,8.83,0,0,1-1.52,5.07,83.78,83.78,0,0,1,7.88,6.4,43.68,43.68,0,0,1,6.36,7.25,33.46,33.46,0,0,1,4.25,8.47,30.78,30.78,0,0,1,1.55,10,33.23,33.23,0,0,1-.89,7.94,38.11,38.11,0,0,1-2.27,6.72,33.32,33.32,0,0,1-3.13,5.54q-1.76,2.48-3.46,4.45L96,98.76a28.13,28.13,0,0,1-7.58,3.3A56.19,56.19,0,0,1,79,103.84a25.57,25.57,0,0,0,6,1.71c2.13.35,4.34.62,6.63.79s4.6.33,7,.46,4.65.33,6.89.6l8.11,7.64a21.08,21.08,0,0,1-1.39,6.56,22.28,22.28,0,0,1-3.16,5.64,22.61,22.61,0,0,1-4.65,4.51,24.61,24.61,0,0,1-5.83,3.14l-8.83-9.43c.79-.35,1.68-.77,2.67-1.25a21.05,21.05,0,0,0,2.86-1.72,13.21,13.21,0,0,0,2.48-2.3,7.39,7.39,0,0,0,1.48-3,71.81,71.81,0,0,1-8.51-.92,30.13,30.13,0,0,1-7-2.08,23.44,23.44,0,0,1-6-3.79,35.53,35.53,0,0,1-5.54-6.19h-.26a35.53,35.53,0,0,1-5.54,6.19,23.44,23.44,0,0,1-6,3.79,30.13,30.13,0,0,1-7,2.08,71.81,71.81,0,0,1-8.51.92,7.39,7.39,0,0,0,1.48,3,13.21,13.21,0,0,0,2.48,2.3,21.05,21.05,0,0,0,2.86,1.72c1,.48,1.88.9,2.67,1.25l-8.83,9.43a24.61,24.61,0,0,1-5.83-3.14A22.61,22.61,0,0,1,35,127.24a22.28,22.28,0,0,1-3.16-5.64A21.08,21.08,0,0,1,30.47,115l8.11-7.64c2.24-.27,4.54-.46,6.89-.6s4.67-.28,7-.46,4.5-.44,6.63-.79a25.57,25.57,0,0,0,6-1.71,56.19,56.19,0,0,1-9.42-1.78A28.13,28.13,0,0,1,48,98.76l4.87-17.53q-1.71-2-3.46-4.45a33.32,33.32,0,0,1-3.13-5.54A38.11,38.11,0,0,1,44,64.52a33.23,33.23,0,0,1-.89-7.94,30.78,30.78,0,0,1,1.55-10,33.46,33.46,0,0,1,4.25-8.47,43.68,43.68,0,0,1,6.36-7.25,83.78,83.78,0,0,1,7.88-6.4A8.83,8.83,0,0,1,61.65,19.4Z"/>
    <path d="M65.34,106.67a16.19,16.19,0,0,1-5.53,2,71.41,71.41,0,0,1-7.12,1c-2.46.22-4.84.38-7.12.49s-4.16.28-5.61.5l-3.49,3.23c.62,0,1.25.06,1.91.06h2c2.11,0,4.32-.07,6.62-.23a43.41,43.41,0,0,0,6.83-1,33,33,0,0,0,6.39-2.11,18.76,18.76,0,0,0,5.41-3.65Z" style="fill: #fff"/>
    <path d="M50.31,48.86V47.58a9.17,9.17,0,0,1,.13-1.49h-.32a27.94,27.94,0,0,0-1.36,5.11,33.37,33.37,0,0,0-.42,5.31,30.48,30.48,0,0,0,2.47,12.33,32.74,32.74,0,0,0,6.69,10L64,77.6A33.21,33.21,0,0,1,53.87,65.84Q50.32,58.88,50.31,48.86Z" style="fill: #fff"/>
    <path d="M54.4,95.86c1.14-.22,2.39-.42,3.76-.59s2.68-.31,4-.4l1.45-11.6c-1.14.18-2.28.39-3.43.63a18.57,18.57,0,0,0-3,.89Z" style="fill: #fff"/>
    <polygon points="74.24 43.26 74.24 31.79 69.76 31.79 69.76 43.26 58.95 43.26 58.95 47.54 69.76 47.54 69.76 72.92 74.24 72.92 74.24 47.54 85.05 47.54 85.05 43.26 74.24 43.26" style="fill: #fff"/>
    <path d="M69.43,20.91a6.3,6.3,0,0,1-1.09-2.2A9.67,9.67,0,0,1,68,16.1a6.75,6.75,0,0,1,1-3.76,7.25,7.25,0,0,0-3,2.77A7.36,7.36,0,0,0,64.88,19a6.43,6.43,0,0,0,.33,2.05,5.54,5.54,0,0,0,1.06,1.84Z" style="fill: #fff"/>
    <path d="M78.39,106.94a18.76,18.76,0,0,0,5.41,3.65,33,33,0,0,0,6.39,2.11,43.41,43.41,0,0,0,6.83,1c2.3.16,4.51.23,6.62.23h2c.66,0,1.29,0,1.91-.06L104,110.63q-2.17-.33-5.61-.5c-2.28-.11-4.66-.27-7.12-.49a71.41,71.41,0,0,1-7.12-1,16.19,16.19,0,0,1-5.53-2Z" style="fill: #fff"/>
  </g>
</svg>
