<svg xmlns="http://www.w3.org/2000/svg" width="144" height="144" viewBox="0 0 144 144">
  <g>
    <path d="M61.65088,19.39746a10.33934,10.33934,0,0,1,.791-4.05395,9.99815,9.99815,0,0,1,5.43824-5.43824,11.1244,11.1244,0,0,1,8.23974,0,9.99815,9.99815,0,0,1,5.43824,5.43824,10.33934,10.33934,0,0,1,.791,4.05395A8.84906,8.84906,0,0,1,80.833,24.47314a84.576,84.576,0,0,1,7.8772,6.39405,43.75564,43.75564,0,0,1,6.36108,7.251A33.64722,33.64722,0,0,1,99.323,46.58862a30.99942,30.99942,0,0,1,1.54907,9.98658,33.56354,33.56354,0,0,1-.88989,7.94311A38.30958,38.30958,0,0,1,97.708,71.24194a33.34909,33.34909,0,0,1-3.13111,5.53711q-1.74682,2.47193-3.46069,4.44947L95.99414,98.7627a27.9766,27.9766,0,0,1-7.58057,3.29589,56.00721,56.00721,0,0,1-9.42627,1.77979,25.706,25.706,0,0,0,5.96558,1.71387q3.197.52734,6.62476.791t6.95434.46143q3.52662.19775,6.88843.59326l8.10791,7.64648a21.40365,21.40365,0,0,1-1.38428,6.55884,22.53045,22.53045,0,0,1-7.81128,10.15137,24.41813,24.41813,0,0,1-5.83374,3.1311l-8.833-9.42627q1.18652-.52734,2.66967-1.25244a20.17307,20.17307,0,0,0,2.86743-1.71387,12.94972,12.94972,0,0,0,2.47193-2.30712,7.26038,7.26038,0,0,0,1.48315-3.03223,73.01923,73.01923,0,0,1-8.50341-.92285,30.39529,30.39529,0,0,1-6.98731-2.07642,24.00317,24.00317,0,0,1-5.99853-3.79028,35.70059,35.70059,0,0,1-5.53711-6.19629h-.26368a35.70059,35.70059,0,0,1-5.53711,6.19629,24.00317,24.00317,0,0,1-5.99853,3.79028,30.39529,30.39529,0,0,1-6.98731,2.07642,73.01923,73.01923,0,0,1-8.50341.92285A7.26038,7.26038,0,0,0,46.325,120.186a12.94972,12.94972,0,0,0,2.47193,2.30712,20.17307,20.17307,0,0,0,2.86743,1.71387q1.48316.7251,2.66967,1.25244l-8.833,9.42627a24.41813,24.41813,0,0,1-5.83374-3.1311A22.53045,22.53045,0,0,1,31.856,121.60327a21.40365,21.40365,0,0,1-1.38428-6.55884l8.10791-7.64648q3.36181-.3955,6.88843-.59326t6.95434-.46143q3.42774-.26367,6.62476-.791a25.706,25.706,0,0,0,5.96558-1.71387,56.00721,56.00721,0,0,1-9.42627-1.77979,27.9766,27.9766,0,0,1-7.58057-3.29589l4.87793-17.53418Q51.16992,79.251,49.4231,76.77905A33.34909,33.34909,0,0,1,46.292,71.24194a38.30958,38.30958,0,0,1-2.27417-6.72363,33.56354,33.56354,0,0,1-.88989-7.94311A30.99942,30.99942,0,0,1,44.677,46.58862a33.64722,33.64722,0,0,1,4.25171-8.47046,43.75564,43.75564,0,0,1,6.36108-7.251,84.576,84.576,0,0,1,7.8772-6.394A8.84906,8.84906,0,0,1,61.65088,19.39746Z"/>
    <path d="M65.34229,106.67285a16.25528,16.25528,0,0,1-5.53711,1.97754,71.2416,71.2416,0,0,1-7.11914.98877q-3.69141.32959-7.11915.49438t-5.603.49439l-3.49366,3.23q.92286.06592,1.91163.06592h1.97754q3.16405,0,6.62475-.23071a44.39349,44.39349,0,0,0,6.82251-.98877,34.08144,34.08144,0,0,0,6.394-2.10938,18.49133,18.49133,0,0,0,5.40528-3.65845Z" style="fill: #fff"/>
    <path d="M50.313,48.86279v-1.2854a8.27469,8.27469,0,0,1,.13183-1.48315h-.32959a27.80753,27.80753,0,0,0-1.35131,5.10864,32.62637,32.62637,0,0,0-.42847,5.3064,30.502,30.502,0,0,0,2.47192,12.32666,32.64343,32.64343,0,0,0,6.69068,9.95361L64.02393,77.603A33.13383,33.13383,0,0,1,53.87256,65.83667Q50.313,58.88233,50.313,48.86279Z" style="fill: #fff"/>
    <path d="M54.3999,95.8623q1.71387-.32958,3.75733-.59326t3.95507-.3955L63.5625,83.272q-1.71387.26367-3.42773.62622a18.50919,18.50919,0,0,0-3.03223.8899Z" style="fill: #fff"/>
    <polygon points="74.241 43.26 74.241 31.79 69.759 31.79 69.759 43.26 58.948 43.26 58.948 47.544 69.759 47.544 69.759 72.923 74.241 72.923 74.241 47.544 85.052 47.544 85.052 43.26 74.241 43.26" style="fill: #fff"/>
    <path d="M69.4292,20.91357a6.2949,6.2949,0,0,1-1.08765-2.20825,9.54809,9.54809,0,0,1-.36255-2.60376,6.73771,6.73771,0,0,1,.98877-3.75732,7.1846,7.1846,0,0,0-2.96631,2.76855,7.37836,7.37836,0,0,0-1.1206,3.88916,6.4196,6.4196,0,0,0,.32959,2.04346,5.57618,5.57618,0,0,0,1.05469,1.8457Z" style="fill: #fff"/>
    <path d="M78.394,106.93652a18.49133,18.49133,0,0,0,5.40528,3.65845,34.08144,34.08144,0,0,0,6.394,2.10938,44.39349,44.39349,0,0,0,6.82251.98877q3.46069.2307,6.62475.23071h1.97754q.98877,0,1.91163-.06592l-3.49366-3.23q-2.17529-.3296-5.603-.49439t-7.11915-.49438a71.2416,71.2416,0,0,1-7.11914-.98877,16.25528,16.25528,0,0,1-5.53711-1.97754Z" style="fill: #fff"/>
  </g>
</svg>
