<svg xmlns="http://www.w3.org/2000/svg" width="144" height="144" viewBox="0 0 144 144">
  <path d="M38.41,119.92v-2.37a22,22,0,0,1,.73-5.93,11,11,0,0,1,2.27-4.35,9.81,9.81,0,0,1,4-2.71,17.16,17.16,0,0,1,6-.92h.46a3.51,3.51,0,0,1-.33-1.58A6.32,6.32,0,0,1,52,99.78a5.65,5.65,0,0,1,1.25-1.91,6.28,6.28,0,0,1,2.15-1.35A8.29,8.29,0,0,1,58.45,96h.4a36.36,36.36,0,0,0,2.73-6,44.31,44.31,0,0,0,1.59-5.77,47,47,0,0,0,.76-5.51c.13-1.8.19-3.53.19-5.2V70.09A6.06,6.06,0,0,1,60.5,68a5.9,5.9,0,0,1-1.26-3.73,6.92,6.92,0,0,1,.07-.86,4.4,4.4,0,0,1,.2-.85h-.4q-4.61,0-6.92-2.31a7.86,7.86,0,0,1-2.31-5.8,7.2,7.2,0,0,1,2.51-5.6,11,11,0,0,1,6.92-2.51,14.05,14.05,0,0,1-1.58-3.62,15.45,15.45,0,0,1-.59-4.35,14.38,14.38,0,0,1,1.12-5.77,13.35,13.35,0,0,1,3.09-4.48,14.13,14.13,0,0,1,4.72-2.94,16.48,16.48,0,0,1,6-1.05,16.31,16.31,0,0,1,5.9,1.05,14.13,14.13,0,0,1,4.72,2.94,13.35,13.35,0,0,1,3.09,4.48,14.38,14.38,0,0,1,1.12,5.77,15.45,15.45,0,0,1-.59,4.35,14.05,14.05,0,0,1-1.58,3.62,11,11,0,0,1,6.92,2.51,7.2,7.2,0,0,1,2.51,5.6,7.86,7.86,0,0,1-2.31,5.8q-2.31,2.31-6.92,2.31h-.4a4.4,4.4,0,0,1,.2.85,6.92,6.92,0,0,1,.07.86A5.9,5.9,0,0,1,83.5,68a6.06,6.06,0,0,1-3.62,2.14v3.43c0,1.67.06,3.4.19,5.2a47,47,0,0,0,.76,5.51A44.31,44.31,0,0,0,82.42,90a36.36,36.36,0,0,0,2.73,6h.4a8.29,8.29,0,0,1,3.09.53,6.28,6.28,0,0,1,2.15,1.35A5.65,5.65,0,0,1,92,99.78a6.32,6.32,0,0,1,.43,2.28,3.51,3.51,0,0,1-.33,1.58h.46q7,0,10,3.63t3,10.28v2.37Zm12.92-11.8a9.59,9.59,0,0,0-4.71,1,5.5,5.5,0,0,0-2.47,2.77h55.7a5.53,5.53,0,0,0-2.44-2.77,9.5,9.5,0,0,0-4.74-1ZM89.17,54.4a3.44,3.44,0,0,0-1-2.67,4.59,4.59,0,0,0-3.17-1H59.05a4.59,4.59,0,0,0-3.17,1,3.44,3.44,0,0,0-1.05,2.67ZM58.59,100.48c-1.37,0-2.05.55-2.05,1.64H87.46c0-1.09-.68-1.64-2-1.64ZM67,37.59a8.7,8.7,0,0,1,.6-3.23,9.59,9.59,0,0,1,1.61-2.73,9.15,9.15,0,0,1,2.41-2.05,8.52,8.52,0,0,1,3-1.09,4.47,4.47,0,0,0-1.15-.29,9.18,9.18,0,0,0-1.36-.1q-5.07,0-7.77,2.83a10.23,10.23,0,0,0-2.71,7.39,10.9,10.9,0,0,0,.93,4.51,9.32,9.32,0,0,0,2.57,3.46H73A9.19,9.19,0,0,1,68.7,43,9,9,0,0,1,67,37.59ZM79.75,64.16c0-1.1-.71-1.65-2.11-1.65H66.36c-1.4,0-2.11.55-2.11,1.65Zm-11,9.29a60.71,60.71,0,0,1-1.19,12.1A47.75,47.75,0,0,1,64.25,96h6V70.22H68.74Z"/>
</svg>
