<svg xmlns="http://www.w3.org/2000/svg" width="144" height="144" viewBox="0 0 144 144">
  <g>
    <path d="M50.15,122a31.2,31.2,0,0,1-1.32-4.42,30.23,30.23,0,0,1-.59-6.66,21.43,21.43,0,0,1,1.84-9,32.78,32.78,0,0,1,4.62-7.35,55,55,0,0,1,6-6.19q3.26-2.86,6-5.61a34.76,34.76,0,0,0,4.61-5.5,10.61,10.61,0,0,0,1.85-6,17.87,17.87,0,0,1-5.31,3.53,23.93,23.93,0,0,1-8.6,1.75,25.76,25.76,0,0,1-4,2.43,32.55,32.55,0,0,1-4.35,1.72,20.36,20.36,0,0,1-4.25,3.72,8.23,8.23,0,0,1-4.52,1.42,8.66,8.66,0,0,1-3.56-.73,10.75,10.75,0,0,1-3-2,12.31,12.31,0,0,1-2.3-2.9,13.47,13.47,0,0,1-1.42-3.5,7.3,7.3,0,0,1-1.09-2.6,13.27,13.27,0,0,1-.3-2.74,4.41,4.41,0,0,1,.66-2.2A13.25,13.25,0,0,1,32.75,67a15,15,0,0,1,1.91-1.85,11.87,11.87,0,0,1,1.71-1.18c1.5-2,2.82-3.7,4-5.15s2.31-2.8,3.43-4.05,2.28-2.49,3.49-3.72,2.65-2.62,4.32-4.16a4,4,0,0,1-.13-1,7.47,7.47,0,0,1,.85-3.62,10,10,0,0,1,2.15-2.74,11.62,11.62,0,0,1,2.83-1.88,20.9,20.9,0,0,1,2.93-1.12c0-.92,0-1.79-.06-2.6s-.12-1.62-.23-2.41-.24-1.62-.4-2.5S59.2,27.1,59,26l2-.86a20,20,0,0,1,2.24,1.28,24.35,24.35,0,0,1,2.54,1.95,21.66,21.66,0,0,1,2.47,2.57A22,22,0,0,1,70.32,34l.66-.13q.52-2.5.82-5.28c.2-1.84.36-3.86.5-6.06L75,22a38.2,38.2,0,0,1,2.93,3,33.64,33.64,0,0,1,2.84,3.72,38.44,38.44,0,0,1,2.53,4.52,31,31,0,0,1,2,5.31c.71.88,1.46,1.78,2.28,2.7s1.7,1.91,2.67,3l3.13,3.42Q95,49.49,97,51.8a62.37,62.37,0,0,1,5.57,7.94,79.36,79.36,0,0,1,5.34,10.68,86.18,86.18,0,0,1,4,12.23,51.72,51.72,0,0,1,1.59,12.52q0,4-.14,7.09c-.08,2-.23,4-.42,6s-.46,4-.76,6.17-.68,4.68-1.12,7.58Z"/>
    <path d="M76.71,60.17a33.42,33.42,0,0,1,1.16,4.45,25.43,25.43,0,0,1,.43,4.64,17,17,0,0,1-1.85,8,31.52,31.52,0,0,1-4.61,6.52,73.83,73.83,0,0,1-6,5.84,66.6,66.6,0,0,0-6,5.86,31.34,31.34,0,0,0-4.62,6.63,17.5,17.5,0,0,0-1.84,8.17,27.57,27.57,0,0,0,.26,4q.27,1.73.6,3H106.9c.27-1.71.51-3.36.73-4.94s.42-3.23.59-4.94.31-3.55.4-5.51.13-4.16.13-6.62a57.41,57.41,0,0,0-1-10.15,68.21,68.21,0,0,0-2.86-10.75,74,74,0,0,0-4.75-10.61,61.56,61.56,0,0,0-6.53-9.69q-1.58-1.92-2.93-3.46t-2.7-3c-.9-1-1.86-2-2.87-3.13S83,42.2,81.79,40.79a27.67,27.67,0,0,0-2.64-7.32,25.69,25.69,0,0,0-3.89-5.67h-.39c-.13,1.41-.28,2.91-.43,4.52a26.9,26.9,0,0,1-.76,4.38,23.92,23.92,0,0,1-3.2.69c-1.25.2-2.56.44-3.92.73s-2.72.62-4.09,1a16.6,16.6,0,0,0-3.65,1.52,8.49,8.49,0,0,0-2.64,2.27,5.26,5.26,0,0,0-1,3.26,8,8,0,0,0,.06,1,6.94,6.94,0,0,0,.2,1,91.53,91.53,0,0,0-9.23,9.4q-4.08,4.84-7.12,8.86l-1.58,1.22A16.8,16.8,0,0,0,36,68.87,7.78,7.78,0,0,0,35,70.22a2.59,2.59,0,0,0-.42,1.35,5.47,5.47,0,0,0,.33,1.85,7.88,7.88,0,0,0,.79,1.65q1,3.69,2.8,5.14a6.45,6.45,0,0,0,4.12,1.45,5.92,5.92,0,0,0,3.23-1.09A11.66,11.66,0,0,0,49,77.17l2.57-1q1.19-.47,2.28-1A17.93,17.93,0,0,0,56,74a26.51,26.51,0,0,0,2.34-1.68,17.34,17.34,0,0,0,5.57-1,19.3,19.3,0,0,0,5-2.57A13.83,13.83,0,0,0,72.59,65,8.8,8.8,0,0,0,74,60.17Z" style="fill: #fff"/>
    <path d="M44.41,69.66l.07.4a19.94,19.94,0,0,0-3.16,2.2,10.24,10.24,0,0,1-3.17,1.88,4.87,4.87,0,0,1-1-1.25,4.7,4.7,0,0,1-.59-1.71Z"/>
    <path d="M58.92,49.82a4.2,4.2,0,0,1-.33-1.45A2,2,0,0,1,59.05,47a2.89,2.89,0,0,1,1.12-.79,5.4,5.4,0,0,1,1.45-.33q.8-.06,1.38-.06a21.18,21.18,0,0,1,3.13.23,20.81,20.81,0,0,0,2.8.23,7.88,7.88,0,0,1-2.07,1.58A16.15,16.15,0,0,1,64.25,49a15.36,15.36,0,0,1-2.76.66A18.64,18.64,0,0,1,58.92,49.82Z"/>
    <path d="M66.63,34.92a23.76,23.76,0,0,0-1.52-2.6,9.79,9.79,0,0,0-2.37-2.41l-.2.07a14.49,14.49,0,0,1,.53,2.7c.09.92.15,2,.2,3.1Z" style="fill: #fff"/>
    <path d="M88.58,51.86A64.15,64.15,0,0,1,97.08,64c1.06,2,2.1,4.15,3.13,6.53A63.63,63.63,0,0,1,103,78.23a69.52,69.52,0,0,1,2,8.9,66.73,66.73,0,0,1,.72,10q0,3.69-.39,7.61a71.79,71.79,0,0,1-1.32,8.08H96.36c.61-2.16,1.13-4.22,1.55-6.2s.75-3.92,1-5.83.45-3.82.56-5.71.16-3.84.16-5.86a64.58,64.58,0,0,0-2.77-19A83.75,83.75,0,0,0,88.58,51.86Z"/>
  </g>
</svg>
