<svg xmlns="http://www.w3.org/2000/svg" width="144" height="144" viewBox="0 0 144 144">
  <g>
    <path d="M38.41,119.92v-2.37a22,22,0,0,1,.73-5.93,11,11,0,0,1,2.27-4.35,9.81,9.81,0,0,1,4-2.71,17.16,17.16,0,0,1,6-.92h.46a3.51,3.51,0,0,1-.33-1.58A6.32,6.32,0,0,1,52,99.78a5.65,5.65,0,0,1,1.25-1.91,6.28,6.28,0,0,1,2.15-1.35A8.29,8.29,0,0,1,58.45,96h.4a36.36,36.36,0,0,0,2.73-6,44.31,44.31,0,0,0,1.59-5.77,47,47,0,0,0,.76-5.51c.13-1.8.19-3.53.19-5.2V70.09A6.06,6.06,0,0,1,60.5,68a5.9,5.9,0,0,1-1.26-3.73,6.92,6.92,0,0,1,.07-.86,4.4,4.4,0,0,1,.2-.85h-.4q-4.61,0-6.92-2.31a7.86,7.86,0,0,1-2.31-5.8,7.2,7.2,0,0,1,2.51-5.6,11,11,0,0,1,6.92-2.51,14.05,14.05,0,0,1-1.58-3.62,15.4,15.4,0,0,1-.59-4.35,14.38,14.38,0,0,1,1.12-5.77,13.42,13.42,0,0,1,3.06-4.48,14,14,0,0,1,4.58-2.94,15.2,15.2,0,0,1,5.67-1.05h.86a15.2,15.2,0,0,1,5.67,1.05,14,14,0,0,1,4.58,2.94,13.42,13.42,0,0,1,3.06,4.48,14.38,14.38,0,0,1,1.12,5.77,15.4,15.4,0,0,1-.59,4.35,14.05,14.05,0,0,1-1.58,3.62,11,11,0,0,1,6.92,2.51,7.2,7.2,0,0,1,2.51,5.6,7.86,7.86,0,0,1-2.31,5.8q-2.31,2.31-6.92,2.31h-.4a4.4,4.4,0,0,1,.2.85,6.92,6.92,0,0,1,.07.86A5.9,5.9,0,0,1,83.5,68a6.06,6.06,0,0,1-3.62,2.14v3.43c0,1.67.06,3.4.19,5.2a47,47,0,0,0,.76,5.51A44.31,44.31,0,0,0,82.42,90a36.36,36.36,0,0,0,2.73,6h.4a8.29,8.29,0,0,1,3.09.53,6.28,6.28,0,0,1,2.15,1.35A5.65,5.65,0,0,1,92,99.78a6.32,6.32,0,0,1,.43,2.28,3.51,3.51,0,0,1-.33,1.58h.46q7,0,10,3.63t3,10.28v2.37Z"/>
    <path d="M51.33,108.12q-4.28,0-6,1.95a8.11,8.11,0,0,0-1.85,5.24h57a8.11,8.11,0,0,0-1.85-5.24q-1.71-1.95-6-1.95Z" style="fill: #fff"/>
    <path d="M54.83,54.4a3.53,3.53,0,0,0,1.05,2.7,4.49,4.49,0,0,0,3.17,1H85a4.49,4.49,0,0,0,3.17-1,3.53,3.53,0,0,0,1-2.7,3.44,3.44,0,0,0-1-2.67,4.59,4.59,0,0,0-3.17-1H59.05a4.59,4.59,0,0,0-3.17,1A3.44,3.44,0,0,0,54.83,54.4Z" style="fill: #fff"/>
    <path d="M85.41,103.64c1.37,0,2-.5,2-1.52s-.68-1.64-2-1.64H58.59c-1.37,0-2.05.55-2.05,1.64s.68,1.52,2.05,1.52Z" style="fill: #fff"/>
    <path d="M61.68,38.32a10.9,10.9,0,0,0,.93,4.51,9.32,9.32,0,0,0,2.57,3.46H78.82a9.32,9.32,0,0,0,2.57-3.46,10.9,10.9,0,0,0,.93-4.51,11.15,11.15,0,0,0-.73-4.09,9.66,9.66,0,0,0-2-3.2A8.57,8.57,0,0,0,76.45,29a10.76,10.76,0,0,0-4-.73h-.86a10.76,10.76,0,0,0-4,.73A8.57,8.57,0,0,0,64.42,31a9.66,9.66,0,0,0-2,3.2A11.15,11.15,0,0,0,61.68,38.32Z" style="fill: #fff"/>
    <path d="M64.25,64.16c0,1,.71,1.58,2.11,1.58H77.64c1.4,0,2.11-.53,2.11-1.58s-.71-1.65-2.11-1.65H66.36C65,62.51,64.25,63.06,64.25,64.16Z" style="fill: #fff"/>
    <path d="M68.74,73.45a60.63,60.63,0,0,1-1.19,12.1A47.75,47.75,0,0,1,64.25,96h15.5a47.75,47.75,0,0,1-3.3-10.44,60.63,60.63,0,0,1-1.19-12.1V70.22H68.74Z" style="fill: #fff"/>
  </g>
</svg>
