<?xml version="1.0" encoding="UTF-8"?>
<svg width="1152" height="1152" version="1.1" viewBox="0 0 1152 1152" xmlns="http://www.w3.org/2000/svg" xmlns:cc="http://creativecommons.org/ns#" xmlns:dc="http://purl.org/dc/elements/1.1/" xmlns:rdf="http://www.w3.org/1999/02/22-rdf-syntax-ns#">
 <metadata>
  <rdf:RDF>
   <cc:Work rdf:about="">
    <dc:format>image/svg+xml</dc:format>
    <dc:type rdf:resource="http://purl.org/dc/dcmitype/StillImage"/>
    <dc:title/>
   </cc:Work>
  </rdf:RDF>
 </metadata>
 <g fill="#bfbfbf">
  <rect x="1008" width="144" height="144"/>
  <rect x="1008" y="288" width="144" height="144"/>
  <rect x="1008" y="576" width="144" height="144"/>
  <rect x="1008" y="864" width="144" height="144"/>
  <rect x="864" y="144" width="144" height="144"/>
  <rect x="864" y="432" width="144" height="144"/>
  <rect x="864" y="720" width="144" height="144"/>
  <rect x="864" y="1008" width="144" height="144"/>
  <rect x="720" width="144" height="144"/>
  <rect x="720" y="288" width="144" height="144"/>
  <rect x="720" y="576" width="144" height="144"/>
  <rect x="720" y="864" width="144" height="144"/>
  <rect x="576" y="144" width="144" height="144"/>
  <rect x="576" y="432" width="144" height="144"/>
  <rect x="576" y="720" width="144" height="144"/>
  <rect x="576" y="1008" width="144" height="144"/>
  <rect x="432" width="144" height="144"/>
  <rect x="432" y="288" width="144" height="144"/>
  <rect x="432" y="576" width="144" height="144"/>
  <rect x="432" y="864" width="144" height="144"/>
  <rect x="288" y="144" width="144" height="144"/>
  <rect x="288" y="432" width="144" height="144"/>
  <rect x="288" y="720" width="144" height="144"/>
  <rect x="288" y="1008" width="144" height="144"/>
  <rect x="144" width="144" height="144"/>
  <rect x="144" y="288" width="144" height="144"/>
  <rect x="144" y="576" width="144" height="144"/>
  <rect x="144" y="864" width="144" height="144"/>
  <rect y="144" width="144" height="144"/>
  <rect y="432" width="144" height="144"/>
  <rect y="720" width="144" height="144"/>
  <rect y="1008" width="144" height="144"/>
 </g>
 <g fill="#bfbfbf">
  <g transform="translate(-1.8515 432)">
   <path d="m145.85 414.87h5.9766a10.165 10.165 0 0 1 5.1856 1.0371 3.5159 3.5159 0 0 1 1.6934 3.2285 4.0828 4.0828 0 0 1-0.73828 2.4609 3.2932 3.2932 0 0 1-1.9453 1.3125v0.11719a3.9875 3.9875 0 0 1 2.3086 1.4062 4.2442 4.2442 0 0 1 0.71485 2.5547 4.3758 4.3758 0 0 1-1.752 3.6738 7.6719 7.6719 0 0 1-4.7754 1.3418h-6.668zm4.6289 6.5742h1.3945a2.5202 2.5202 0 0 0 1.541-0.41016 1.4292 1.4292 0 0 0 0.54492-1.2188q0-1.4414-2.1797-1.4414h-1.3008zm0 3.3867v3.5977h1.6289q2.168 0 2.168-1.8281a1.5724 1.5724 0 0 0-0.58007-1.3125 2.67 2.67 0 0 0-1.6816-0.457z"/>
   <path d="m172.75 418.58a4.0822 4.0822 0 0 1-0.97265 2.7363 5.5361 5.5361 0 0 1-2.8125 1.6582v0.0703q4.2891 0.53906 4.2891 4.0547a4.3944 4.3944 0 0 1-1.8926 3.7617 8.8192 8.8192 0 0 1-5.2559 1.3711 15.38 15.38 0 0 1-2.5605-0.19922 13.374 13.374 0 0 1-2.5488-0.72657v-3.8438a10.173 10.173 0 0 0 2.291 0.84961 9.4048 9.4048 0 0 0 2.1504 0.27539 4.3977 4.3977 0 0 0 2.2207-0.42773 1.4601 1.4601 0 0 0 0.69726-1.3418 1.5089 1.5089 0 0 0-0.36328-1.084 2.3496 2.3496 0 0 0-1.1719-0.57422 9.3595 9.3595 0 0 0-2.1094-0.19336h-1.0547v-3.4805h1.0781q3.5273 0 3.5273-1.8047a1.1078 1.1078 0 0 0-0.52148-1.0078 2.6072 2.6072 0 0 0-1.4004-0.32812 6.4096 6.4096 0 0 0-3.3984 1.1016l-1.9219-3.0938a9.3309 9.3309 0 0 1 2.7832-1.3359 12.14 12.14 0 0 1 3.2637-0.39844 7.1962 7.1962 0 0 1 4.1719 1.0547 3.3536 3.3536 0 0 1 1.5117 2.9063z"/>
   <path d="m448.39 423.07a8.8502 8.8502 0 0 1-2.3613 6.6094 9.0692 9.0692 0 0 1-6.6387 2.3203h-5.543v-17.133h5.9297a8.9456 8.9456 0 0 1 6.3691 2.1094 7.9607 7.9607 0 0 1 2.2442 6.0938zm-4.8047 0.16407a5.4452 5.4452 0 0 0-0.93164-3.4922 3.4455 3.4455 0 0 0-2.8301-1.1367h-1.3476v9.5976h1.0312a3.7336 3.7336 0 0 0 3.0938-1.2246 5.9162 5.9162 0 0 0 0.98437-3.7441z"/>
   <path d="m462.19 418.58a4.0822 4.0822 0 0 1-0.97266 2.7363 5.536 5.536 0 0 1-2.8125 1.6582v0.0703q4.2891 0.53906 4.2891 4.0547a4.3944 4.3944 0 0 1-1.8926 3.7617 8.8192 8.8192 0 0 1-5.2559 1.3711 15.38 15.38 0 0 1-2.5606-0.19922 13.375 13.375 0 0 1-2.5488-0.72657v-3.8438a10.173 10.173 0 0 0 2.291 0.84961 9.4047 9.4047 0 0 0 2.1504 0.27539 4.3976 4.3976 0 0 0 2.2207-0.42773 1.4601 1.4601 0 0 0 0.69727-1.3418 1.5089 1.5089 0 0 0-0.36328-1.084 2.3496 2.3496 0 0 0-1.1719-0.57422 9.3594 9.3594 0 0 0-2.1094-0.19336h-1.0547v-3.4805h1.0781q3.5273 0 3.5273-1.8047a1.1078 1.1078 0 0 0-0.52149-1.0078 2.6072 2.6072 0 0 0-1.4004-0.32812 6.4095 6.4095 0 0 0-3.3984 1.1016l-1.9219-3.0938a9.3308 9.3308 0 0 1 2.7832-1.3359 12.141 12.141 0 0 1 3.2637-0.39844 7.1962 7.1962 0 0 1 4.1719 1.0547 3.3536 3.3536 0 0 1 1.5117 2.9063z"/>
  </g>
  <g transform="translate(-1.8516 432)">
   <path d="m726.41 432h-4.5586v-17.133h10.125v3.7148h-5.5664v3.2695h5.1328v3.7148h-5.1328z"/>
   <path d="m745.51 418.58a4.0822 4.0822 0 0 1-0.97266 2.7363 5.5361 5.5361 0 0 1-2.8125 1.6582v0.0703q4.2891 0.53906 4.2891 4.0547a4.3944 4.3944 0 0 1-1.8926 3.7617 8.8192 8.8192 0 0 1-5.2559 1.3711 15.38 15.38 0 0 1-2.5606-0.19922 13.374 13.374 0 0 1-2.5488-0.72657v-3.8438a10.173 10.173 0 0 0 2.291 0.84961 9.4047 9.4047 0 0 0 2.1504 0.27539 4.3976 4.3976 0 0 0 2.2207-0.42773 1.4601 1.4601 0 0 0 0.69727-1.3418 1.5089 1.5089 0 0 0-0.36328-1.084 2.3496 2.3496 0 0 0-1.1719-0.57422 9.3594 9.3594 0 0 0-2.1094-0.19336h-1.0546v-3.4805h1.0781q3.5274 0 3.5274-1.8047a1.1078 1.1078 0 0 0-0.52149-1.0078 2.6072 2.6072 0 0 0-1.4004-0.32812 6.4096 6.4096 0 0 0-3.3984 1.1016l-1.9219-3.0938a9.3307 9.3307 0 0 1 2.7832-1.3359 12.14 12.14 0 0 1 3.2637-0.39844 7.1962 7.1962 0 0 1 4.1718 1.0547 3.3536 3.3536 0 0 1 1.5117 2.9062z"/>
  </g>
  <g transform="translate(-1.8516,432)">
   <path d="m1024.5 432h-4.6524v-6.9844h-5.3789v6.9844h-4.6523v-17.133h4.6523v6.3516h5.3789v-6.3516h4.6524z"/>
   <path d="m1039 418.58a4.0822 4.0822 0 0 1-0.9726 2.7363 5.5361 5.5361 0 0 1-2.8125 1.6582v0.0703q4.2891 0.53906 4.289 4.0547a4.3944 4.3944 0 0 1-1.8925 3.7617 8.8192 8.8192 0 0 1-5.2559 1.3711 15.38 15.38 0 0 1-2.5605-0.19922 13.374 13.374 0 0 1-2.5489-0.72657v-3.8438a10.173 10.173 0 0 0 2.291 0.84961 9.4047 9.4047 0 0 0 2.1504 0.27539 4.3976 4.3976 0 0 0 2.2207-0.42773 1.4601 1.4601 0 0 0 0.6973-1.3418 1.5089 1.5089 0 0 0-0.3633-1.084 2.3496 2.3496 0 0 0-1.1719-0.57422 9.3594 9.3594 0 0 0-2.1093-0.19336h-1.0547v-3.4805h1.0781q3.5274 0 3.5273-1.8047a1.1078 1.1078 0 0 0-0.5214-1.0078 2.6072 2.6072 0 0 0-1.4004-0.32812 6.4096 6.4096 0 0 0-3.3985 1.1016l-1.9218-3.0938a9.3307 9.3307 0 0 1 2.7832-1.3359 12.14 12.14 0 0 1 3.2636-0.39844 7.1962 7.1962 0 0 1 4.1719 1.0547 3.3536 3.3536 0 0 1 1.5117 2.9063z"/>
  </g>
 </g>
 <g fill="#fff">
  <g transform="translate(0,432)">
   <path d="m12.363 432-0.84375-3.2109h-5.5664l-0.86718 3.2109h-5.0859l5.5898-17.203h6.1758l5.6602 17.203zm-1.8047-7.0078-0.73828-2.8125q-0.2578-0.9375-0.62695-2.4258t-0.48636-2.1328q-0.10546 0.59766-0.416 1.9688t-1.377 5.4024z"/>
   <path d="m30 418.58a4.0822 4.0822 0 0 1-0.97266 2.7363 5.536 5.536 0 0 1-2.8125 1.6582v0.0703q4.2891 0.53906 4.2891 4.0547a4.3944 4.3944 0 0 1-1.8926 3.7617 8.8192 8.8192 0 0 1-5.2559 1.3711 15.38 15.38 0 0 1-2.5606-0.19922 13.375 13.375 0 0 1-2.5488-0.72657v-3.8438a10.173 10.173 0 0 0 2.291 0.84961 9.4047 9.4047 0 0 0 2.1504 0.27539 4.3976 4.3976 0 0 0 2.2207-0.42773 1.4601 1.4601 0 0 0 0.69727-1.3418 1.5089 1.5089 0 0 0-0.36328-1.084 2.3496 2.3496 0 0 0-1.1719-0.57422 9.3594 9.3594 0 0 0-2.1094-0.19336h-1.0547v-3.4805h1.0781q3.5273 0 3.5273-1.8047a1.1078 1.1078 0 0 0-0.52149-1.0078 2.6072 2.6072 0 0 0-1.4004-0.32812 6.4095 6.4095 0 0 0-3.3984 1.1016l-1.9219-3.0938a9.3308 9.3308 0 0 1 2.7832-1.3359 12.141 12.141 0 0 1 3.2637-0.39844 7.1962 7.1962 0 0 1 4.1719 1.0547 3.3536 3.3536 0 0 1 1.5117 2.9063z"/>
  </g>
  <g transform="translate(-1.2164 431.75)">
   <path d="m297.48 418.42a2.9518 2.9518 0 0 0-2.5781 1.3535 6.5364 6.5364 0 0 0-0.92578 3.7324q0 4.9453 3.7617 4.9453a7.7042 7.7042 0 0 0 2.2031-0.31641 22.039 22.039 0 0 0 2.1445-0.76172v3.9141a11.868 11.868 0 0 1-4.8516 0.94922 7.6743 7.6743 0 0 1-5.9473-2.25q-2.0684-2.25-2.0684-6.5039a10.376 10.376 0 0 1 1.002-4.6758 7.169 7.169 0 0 1 2.8828-3.0996 8.7059 8.7059 0 0 1 4.4238-1.084 12.187 12.187 0 0 1 5.3086 1.207l-1.418 3.6445a15.941 15.941 0 0 0-1.8984-0.75 6.6345 6.6345 0 0 0-2.0391-0.30465z"/>
   <path d="m316.15 418.58a4.0822 4.0822 0 0 1-0.97266 2.7363 5.5361 5.5361 0 0 1-2.8125 1.6582v0.0703q4.2891 0.53906 4.2891 4.0547a4.3944 4.3944 0 0 1-1.8926 3.7617 8.8192 8.8192 0 0 1-5.2559 1.3711 15.38 15.38 0 0 1-2.5606-0.19922 13.374 13.374 0 0 1-2.5488-0.72657v-3.8438a10.173 10.173 0 0 0 2.291 0.84961 9.4047 9.4047 0 0 0 2.1504 0.27539 4.3976 4.3976 0 0 0 2.2207-0.42773 1.4601 1.4601 0 0 0 0.69727-1.3418 1.5089 1.5089 0 0 0-0.36329-1.084 2.3496 2.3496 0 0 0-1.1719-0.57422 9.3594 9.3594 0 0 0-2.1094-0.19336h-1.0547v-3.4805h1.0781q3.5274 0 3.5274-1.8047a1.1078 1.1078 0 0 0-0.52149-1.0078 2.6072 2.6072 0 0 0-1.4004-0.32812 6.4096 6.4096 0 0 0-3.3984 1.1016l-1.9219-3.0938a9.3307 9.3307 0 0 1 2.7832-1.3359 12.14 12.14 0 0 1 3.2637-0.39844 7.1962 7.1962 0 0 1 4.1719 1.0547 3.3536 3.3536 0 0 1 1.5117 2.9063z"/>
  </g>
  <g transform="translate(-1.8516 432)">
   <path d="m588.02 432h-10.172v-17.133h10.172v3.7148h-5.543v2.6953h5.1328v3.7148h-5.1328v3.2344h5.543z"/>
   <path d="m601.75 418.58a4.0822 4.0822 0 0 1-0.97265 2.7363 5.5361 5.5361 0 0 1-2.8125 1.6582v0.0703q4.289 0.53906 4.2891 4.0547a4.3944 4.3944 0 0 1-1.8926 3.7617 8.8192 8.8192 0 0 1-5.2559 1.3711 15.38 15.38 0 0 1-2.5605-0.19922 13.374 13.374 0 0 1-2.5488-0.72657v-3.8438a10.173 10.173 0 0 0 2.291 0.84961 9.4048 9.4048 0 0 0 2.1504 0.27539 4.3977 4.3977 0 0 0 2.2207-0.42773 1.4601 1.4601 0 0 0 0.69726-1.3418 1.5089 1.5089 0 0 0-0.36328-1.084 2.3496 2.3496 0 0 0-1.1719-0.57422 9.3595 9.3595 0 0 0-2.1094-0.19336h-1.0547v-3.4805h1.0781q3.5273 0 3.5273-1.8047a1.1078 1.1078 0 0 0-0.52148-1.0078 2.6072 2.6072 0 0 0-1.4004-0.32812 6.4096 6.4096 0 0 0-3.3984 1.1016l-1.9219-3.0938a9.3309 9.3309 0 0 1 2.7832-1.3359 12.14 12.14 0 0 1 3.2637-0.39844 7.1962 7.1962 0 0 1 4.1719 1.0547 3.3536 3.3536 0 0 1 1.5117 2.9063z"/>
  </g>
  <g transform="translate(-1.1989 431.75)">
   <path d="m872.73 421.97h7.3945v9.2344a20.327 20.327 0 0 1-6.6211 1.0313 8.0017 8.0017 0 0 1-6.123-2.2969 9.1957 9.1957 0 0 1-2.1621-6.5508 8.6043 8.6043 0 0 1 2.3672-6.457 9.1007 9.1007 0 0 1 6.6328-2.3086 14.682 14.682 0 0 1 3.0527 0.30469 12.892 12.892 0 0 1 2.502 0.77344l-1.4648 3.6328a9.0591 9.0591 0 0 0-4.0664-0.91406 3.867 3.867 0 0 0-3.1348 1.3184 5.7036 5.7036 0 0 0-1.1075 3.7676 5.7774 5.7774 0 0 0 1.002 3.6621 3.4736 3.4736 0 0 0 2.8887 1.2598 8.4786 8.4786 0 0 0 1.8984-0.19922v-2.6835h-3.0586z"/>
   <path d="m894.34 418.58a4.0822 4.0822 0 0 1-0.97265 2.7363 5.5361 5.5361 0 0 1-2.8125 1.6582v0.0703q4.289 0.53906 4.2891 4.0547a4.3944 4.3944 0 0 1-1.8926 3.7617 8.8192 8.8192 0 0 1-5.2559 1.3711 15.38 15.38 0 0 1-2.5605-0.19922 13.374 13.374 0 0 1-2.5488-0.72657v-3.8438a10.173 10.173 0 0 0 2.291 0.84961 9.4048 9.4048 0 0 0 2.1504 0.27539 4.3977 4.3977 0 0 0 2.2207-0.42773 1.4601 1.4601 0 0 0 0.69726-1.3418 1.5089 1.5089 0 0 0-0.36328-1.084 2.3496 2.3496 0 0 0-1.1719-0.57422 9.3595 9.3595 0 0 0-2.1094-0.19336h-1.0547v-3.4805h1.0781q3.5273 0 3.5273-1.8047a1.1078 1.1078 0 0 0-0.52148-1.0078 2.6072 2.6072 0 0 0-1.4004-0.32812 6.4095 6.4095 0 0 0-3.3984 1.1016l-1.9219-3.0938a9.3306 9.3306 0 0 1 2.7832-1.3359 12.14 12.14 0 0 1 3.2637-0.39844 7.1962 7.1962 0 0 1 4.1719 1.0547 3.3536 3.3536 0 0 1 1.5117 2.9063z"/>
  </g>
 </g>
 <g fill="#bfbfbf">
  <g transform="translate(-1.8515 -144)">
   <path d="m145.85 702.87h5.9766a10.165 10.165 0 0 1 5.1856 1.0371 3.5159 3.5159 0 0 1 1.6934 3.2285 4.0828 4.0828 0 0 1-0.73828 2.4609 3.2932 3.2932 0 0 1-1.9453 1.3125v0.11719a3.9875 3.9875 0 0 1 2.3086 1.4062 4.2442 4.2442 0 0 1 0.71485 2.5547 4.3758 4.3758 0 0 1-1.752 3.6738 7.6719 7.6719 0 0 1-4.7754 1.3418h-6.668zm4.6289 6.5742h1.3945a2.5202 2.5202 0 0 0 1.541-0.41016 1.4292 1.4292 0 0 0 0.54492-1.2188q0-1.4414-2.1797-1.4414h-1.3008zm0 3.3867v3.5977h1.6289q2.168 0 2.168-1.8281a1.5724 1.5724 0 0 0-0.58007-1.3125 2.67 2.67 0 0 0-1.6816-0.457z"/>
   <path d="m167.95 708.77a5.2418 5.2418 0 0 1 2.666 0.68554 4.7416 4.7416 0 0 1 1.8516 1.9395 6.1077 6.1077 0 0 1 0.66211 2.8945 5.5835 5.5835 0 0 1-1.7285 4.4062 7.6867 7.6867 0 0 1-5.2324 1.5352 11.2 11.2 0 0 1-4.8984-0.92579v-3.7969a12.33 12.33 0 0 0 2.3027 0.77344 9.7823 9.7823 0 0 0 2.209 0.30468 3.1377 3.1377 0 0 0 1.9805-0.54492 1.9273 1.9273 0 0 0 0.69141-1.6113 1.8399 1.8399 0 0 0-0.70312-1.5352 3.4297 3.4297 0 0 0-2.1328-0.55078 7.6714 7.6714 0 0 0-2.3555 0.41015l-1.6992-0.84375 0.64453-9.0469h9.7734v3.8555h-5.8359l-0.21094 2.2617a10.492 10.492 0 0 1 1.3008-0.19336q0.38673-0.0176 0.71485-0.0176z"/>
   <path d="m448.39 711.07a8.8502 8.8502 0 0 1-2.3613 6.6094 9.0692 9.0692 0 0 1-6.6387 2.3203h-5.543v-17.133h5.9297a8.9456 8.9456 0 0 1 6.3691 2.1094 7.9607 7.9607 0 0 1 2.2442 6.0938zm-4.8047 0.16407a5.4452 5.4452 0 0 0-0.93164-3.4922 3.4455 3.4455 0 0 0-2.8301-1.1367h-1.3476v9.5976h1.0312a3.7336 3.7336 0 0 0 3.0938-1.2246 5.9162 5.9162 0 0 0 0.98437-3.7441z"/>
   <path d="m457.39 708.77a5.2418 5.2418 0 0 1 2.666 0.68554 4.7416 4.7416 0 0 1 1.8516 1.9395 6.1077 6.1077 0 0 1 0.66211 2.8945 5.5835 5.5835 0 0 1-1.7285 4.4062 7.6866 7.6866 0 0 1-5.2324 1.5352 11.2 11.2 0 0 1-4.8984-0.92579v-3.7969a12.33 12.33 0 0 0 2.3027 0.77344 9.7823 9.7823 0 0 0 2.209 0.30468 3.1377 3.1377 0 0 0 1.9805-0.54492 1.9273 1.9273 0 0 0 0.69141-1.6113 1.8399 1.8399 0 0 0-0.70313-1.5352 3.4297 3.4297 0 0 0-2.1328-0.55078 7.6713 7.6713 0 0 0-2.3555 0.41015l-1.6992-0.84375 0.64453-9.0469h9.7734v3.8555h-5.8359l-0.21093 2.2617a10.492 10.492 0 0 1 1.3008-0.19336q0.38672-0.0176 0.71484-0.0176z"/>
  </g>
  <g transform="translate(-1.8516 -144)">
   <path d="m726.41 720h-4.5586v-17.133h10.125v3.7148h-5.5664v3.2695h5.1328v3.7148h-5.1328z"/>
   <path d="m740.72 708.77a5.2418 5.2418 0 0 1 2.666 0.68554 4.7417 4.7417 0 0 1 1.8516 1.9395 6.1079 6.1079 0 0 1 0.66211 2.8945 5.5835 5.5835 0 0 1-1.7285 4.4062 7.6866 7.6866 0 0 1-5.2324 1.5352 11.2 11.2 0 0 1-4.8984-0.92579v-3.7969a12.33 12.33 0 0 0 2.3027 0.77344 9.7822 9.7822 0 0 0 2.209 0.30468 3.1377 3.1377 0 0 0 1.9805-0.54492 1.9273 1.9273 0 0 0 0.69141-1.6113 1.8399 1.8399 0 0 0-0.70313-1.5352 3.4297 3.4297 0 0 0-2.1328-0.55078 7.6713 7.6713 0 0 0-2.3555 0.41015l-1.6992-0.84375 0.64453-9.0469h9.7734v3.8555h-5.8359l-0.21094 2.2617a10.492 10.492 0 0 1 1.3008-0.19336q0.38672-0.0176 0.71484-0.0176z"/>
  </g>
  <g transform="translate(-1.8516,-144)">
   <path d="m1024.5 720h-4.6524v-6.9844h-5.3789v6.9844h-4.6523v-17.133h4.6523v6.3516h5.3789v-6.3516h4.6524z"/>
   <path d="m1034.2 708.77a5.2417 5.2417 0 0 1 2.666 0.68554 4.7416 4.7416 0 0 1 1.8516 1.9395 6.1079 6.1079 0 0 1 0.6621 2.8945 5.5835 5.5835 0 0 1-1.7285 4.4062 7.6866 7.6866 0 0 1-5.2325 1.5352 11.2 11.2 0 0 1-4.8984-0.92579v-3.7969a12.33 12.33 0 0 0 2.3027 0.77344 9.7821 9.7821 0 0 0 2.209 0.30468 3.1377 3.1377 0 0 0 1.9805-0.54492 1.9273 1.9273 0 0 0 0.6914-1.6113 1.8399 1.8399 0 0 0-0.7031-1.5352 3.4297 3.4297 0 0 0-2.1328-0.55078 7.6713 7.6713 0 0 0-2.3555 0.41015l-1.6992-0.84375 0.6445-9.0469h9.7735v3.8555h-5.836l-0.2109 2.2617a10.492 10.492 0 0 1 1.3008-0.19336q0.3867-0.0176 0.7148-0.0176z"/>
  </g>
 </g>
 <g fill="#fff">
  <g transform="translate(0,-144)">
   <path d="m12.363 720-0.84375-3.2109h-5.5664l-0.86718 3.2109h-5.0859l5.5898-17.203h6.1758l5.6602 17.203zm-1.8047-7.0078-0.73828-2.8125q-0.2578-0.9375-0.62695-2.4258t-0.48636-2.1328q-0.10546 0.59766-0.416 1.9688t-1.377 5.4024z"/>
   <path d="m25.207 708.77a5.2418 5.2418 0 0 1 2.666 0.68554 4.7416 4.7416 0 0 1 1.8516 1.9395 6.1077 6.1077 0 0 1 0.66211 2.8945 5.5835 5.5835 0 0 1-1.7285 4.4062 7.6866 7.6866 0 0 1-5.2324 1.5352 11.2 11.2 0 0 1-4.8984-0.92579v-3.7969a12.33 12.33 0 0 0 2.3027 0.77344 9.7823 9.7823 0 0 0 2.209 0.30468 3.1377 3.1377 0 0 0 1.9805-0.54492 1.9273 1.9273 0 0 0 0.69141-1.6113 1.8399 1.8399 0 0 0-0.70313-1.5352 3.4297 3.4297 0 0 0-2.1328-0.55078 7.6713 7.6713 0 0 0-2.3555 0.41015l-1.6992-0.84375 0.64453-9.0469h9.7734v3.8555h-5.8359l-0.21093 2.2617a10.492 10.492 0 0 1 1.3008-0.19336q0.38672-0.0176 0.71481-0.0176z"/>
  </g>
  <g transform="translate(-1.2164 -144.26)">
   <path d="m297.48 706.42a2.9518 2.9518 0 0 0-2.5781 1.3535 6.5364 6.5364 0 0 0-0.92578 3.7324q0 4.9453 3.7617 4.9453a7.7042 7.7042 0 0 0 2.2031-0.31641 22.039 22.039 0 0 0 2.1445-0.76172v3.9141a11.868 11.868 0 0 1-4.8516 0.94922 7.6743 7.6743 0 0 1-5.9473-2.25q-2.0684-2.25-2.0684-6.5039a10.376 10.376 0 0 1 1.002-4.6758 7.169 7.169 0 0 1 2.8828-3.0996 8.7059 8.7059 0 0 1 4.4238-1.084 12.187 12.187 0 0 1 5.3086 1.207l-1.418 3.6445a15.941 15.941 0 0 0-1.8984-0.75 6.6345 6.6345 0 0 0-2.0391-0.30465z"/>
   <path d="m311.36 708.77a5.2417 5.2417 0 0 1 2.666 0.68554 4.7416 4.7416 0 0 1 1.8516 1.9395 6.1079 6.1079 0 0 1 0.66211 2.8945 5.5835 5.5835 0 0 1-1.7285 4.4062 7.6866 7.6866 0 0 1-5.2324 1.5352 11.2 11.2 0 0 1-4.8984-0.92579v-3.7969a12.33 12.33 0 0 0 2.3027 0.77344 9.7821 9.7821 0 0 0 2.209 0.30468 3.1377 3.1377 0 0 0 1.9805-0.54492 1.9273 1.9273 0 0 0 0.69141-1.6113 1.8399 1.8399 0 0 0-0.70313-1.5352 3.4297 3.4297 0 0 0-2.1328-0.55078 7.6713 7.6713 0 0 0-2.3555 0.41015l-1.6992-0.84375 0.64453-9.0469h9.7734v3.8555h-5.8359l-0.21094 2.2617a10.492 10.492 0 0 1 1.3008-0.19336q0.38672-0.0176 0.71484-0.0176z"/>
  </g>
  <g transform="translate(-1.8516 -144)">
   <path d="m588.02 720h-10.172v-17.133h10.172v3.7148h-5.543v2.6953h5.1328v3.7148h-5.1328v3.2344h5.543z"/>
   <path d="m596.95 708.77a5.2418 5.2418 0 0 1 2.666 0.68554 4.7416 4.7416 0 0 1 1.8516 1.9395 6.1077 6.1077 0 0 1 0.66211 2.8945 5.5835 5.5835 0 0 1-1.7285 4.4062 7.6867 7.6867 0 0 1-5.2324 1.5352 11.2 11.2 0 0 1-4.8984-0.92579v-3.7969a12.33 12.33 0 0 0 2.3027 0.77344 9.7823 9.7823 0 0 0 2.209 0.30468 3.1377 3.1377 0 0 0 1.9805-0.54492 1.9273 1.9273 0 0 0 0.69141-1.6113 1.8399 1.8399 0 0 0-0.70312-1.5352 3.4297 3.4297 0 0 0-2.1328-0.55078 7.6714 7.6714 0 0 0-2.3555 0.41015l-1.6992-0.84375 0.64453-9.0469h9.7734v3.8555h-5.8359l-0.21094 2.2617a10.492 10.492 0 0 1 1.3008-0.19336q0.38673-0.0176 0.71485-0.0176z"/>
  </g>
  <g transform="translate(-1.1989 -144.26)">
   <path d="m872.73 709.97h7.3945v9.2344a20.327 20.327 0 0 1-6.6211 1.0313 8.0017 8.0017 0 0 1-6.123-2.2969 9.1957 9.1957 0 0 1-2.1621-6.5508 8.6043 8.6043 0 0 1 2.3672-6.457 9.1007 9.1007 0 0 1 6.6328-2.3086 14.682 14.682 0 0 1 3.0527 0.30469 12.892 12.892 0 0 1 2.502 0.77344l-1.4648 3.6328a9.0591 9.0591 0 0 0-4.0664-0.91406 3.867 3.867 0 0 0-3.1348 1.3184 5.7036 5.7036 0 0 0-1.1075 3.7676 5.7774 5.7774 0 0 0 1.002 3.6621 3.4736 3.4736 0 0 0 2.8887 1.2598 8.4786 8.4786 0 0 0 1.8984-0.19922v-2.6835h-3.0586z"/>
   <path d="m889.55 708.77a5.2417 5.2417 0 0 1 2.666 0.68554 4.7416 4.7416 0 0 1 1.8516 1.9395 6.1077 6.1077 0 0 1 0.66211 2.8945 5.5835 5.5835 0 0 1-1.7285 4.4062 7.6867 7.6867 0 0 1-5.2324 1.5352 11.2 11.2 0 0 1-4.8984-0.92579v-3.7969a12.33 12.33 0 0 0 2.3027 0.77344 9.7823 9.7823 0 0 0 2.209 0.30468 3.1378 3.1378 0 0 0 1.9805-0.54492 1.9273 1.9273 0 0 0 0.6914-1.6113 1.8399 1.8399 0 0 0-0.70312-1.5352 3.4297 3.4297 0 0 0-2.1328-0.55078 7.6712 7.6712 0 0 0-2.3555 0.41015l-1.6992-0.84375 0.64453-9.0469h9.7734v3.8555h-5.8359l-0.21094 2.2617a10.492 10.492 0 0 1 1.3008-0.19336q0.38671-0.0176 0.71485-0.0176z"/>
  </g>
 </g>
 <g fill="#bfbfbf">
  <g transform="translate(-1.8515 -720)">
   <path d="m145.85 990.87h5.9766a10.165 10.165 0 0 1 5.1856 1.0371 3.5159 3.5159 0 0 1 1.6934 3.2285 4.0828 4.0828 0 0 1-0.73828 2.4609 3.2932 3.2932 0 0 1-1.9453 1.3125v0.11719a3.9875 3.9875 0 0 1 2.3086 1.4063 4.2442 4.2442 0 0 1 0.71485 2.5547 4.3758 4.3758 0 0 1-1.752 3.6738 7.6719 7.6719 0 0 1-4.7754 1.3418h-6.668zm4.6289 6.5742h1.3945a2.5202 2.5202 0 0 0 1.541-0.41016 1.4292 1.4292 0 0 0 0.54492-1.2188q0-1.4414-2.1797-1.4414h-1.3008zm0 3.3867v3.5977h1.6289q2.168 0 2.168-1.8281a1.5724 1.5724 0 0 0-0.58007-1.3125 2.67 2.67 0 0 0-1.6816-0.457z"/>
   <path d="m162.62 1008 5.8828-13.277h-7.418v-3.832h12.363v2.7305l-6.0351 14.379z"/>
   <path d="m448.39 999.07a8.8502 8.8502 0 0 1-2.3613 6.6094 9.0692 9.0692 0 0 1-6.6387 2.3203h-5.543v-17.133h5.9297a8.9456 8.9456 0 0 1 6.3691 2.1094 7.9607 7.9607 0 0 1 2.2442 6.0938zm-4.8047 0.16407a5.4452 5.4452 0 0 0-0.93164-3.4922 3.4455 3.4455 0 0 0-2.8301-1.1367h-1.3476v9.5976h1.0312a3.7336 3.7336 0 0 0 3.0938-1.2246 5.9162 5.9162 0 0 0 0.98437-3.7441z"/>
   <path d="m452.06 1008 5.8828-13.277h-7.418v-3.832h12.363v2.7305l-6.0351 14.379z"/>
  </g>
  <g transform="translate(-1.8516 -720)">
   <path d="m726.41 1008h-4.5586v-17.133h10.125v3.7148h-5.5664v3.2695h5.1328v3.7149h-5.1328z"/>
   <path d="m735.39 1008 5.8828-13.277h-7.418v-3.832h12.363v2.7305l-6.0351 14.379z"/>
  </g>
  <g transform="translate(-1.8516,-720)">
   <path d="m1024.5 1008h-4.6524v-6.9844h-5.3789v6.9844h-4.6523v-17.133h4.6523v6.3516h5.3789v-6.3516h4.6524z"/>
   <path d="m1028.8 1008 5.8829-13.277h-7.418v-3.832h12.363v2.7305l-6.0351 14.379z"/>
  </g>
 </g>
 <g fill="#fff">
  <g transform="translate(0,-720)">
   <path d="m12.363 1008-0.84375-3.2109h-5.5664l-0.86718 3.2109h-5.0859l5.5898-17.203h6.1758l5.6602 17.203zm-1.8047-7.0078-0.73828-2.8125q-0.2578-0.9375-0.62695-2.4258t-0.48636-2.1328q-0.10546 0.59766-0.416 1.9688t-1.377 5.4024z"/>
   <path d="m19.875 1008 5.8828-13.277h-7.418v-3.832h12.363v2.7305l-6.0351 14.379z"/>
  </g>
  <g transform="translate(-1.2164 -720.25)">
   <path d="m297.48 994.42a2.9518 2.9518 0 0 0-2.5781 1.3535 6.5364 6.5364 0 0 0-0.92578 3.7324q0 4.9453 3.7617 4.9453a7.7042 7.7042 0 0 0 2.2031-0.3164 22.039 22.039 0 0 0 2.1445-0.7617v3.9141a11.868 11.868 0 0 1-4.8516 0.9492 7.6743 7.6743 0 0 1-5.9473-2.25q-2.0684-2.25-2.0684-6.5039a10.376 10.376 0 0 1 1.002-4.6758 7.169 7.169 0 0 1 2.8828-3.0996 8.7059 8.7059 0 0 1 4.4238-1.084 12.187 12.187 0 0 1 5.3086 1.207l-1.418 3.6445a15.941 15.941 0 0 0-1.8984-0.75 6.6345 6.6345 0 0 0-2.0391-0.30465z"/>
   <path d="m306.02 1008 5.8828-13.277h-7.418v-3.832h12.363v2.7305l-6.0351 14.379z"/>
  </g>
  <g transform="translate(-1.8516 -720)">
   <path d="m588.02 1008h-10.172v-17.133h10.172v3.7148h-5.543v2.6953h5.1328v3.7149h-5.1328v3.2343h5.543z"/>
   <path d="m591.62 1008 5.8828-13.277h-7.418v-3.832h12.363v2.7305l-6.0351 14.379z"/>
  </g>
  <g transform="translate(-1.1989 -720.25)">
   <path d="m872.73 997.97h7.3945v9.2344a20.327 20.327 0 0 1-6.6211 1.0313 8.0017 8.0017 0 0 1-6.123-2.2969 9.1957 9.1957 0 0 1-2.1621-6.5508 8.6043 8.6043 0 0 1 2.3672-6.457 9.1007 9.1007 0 0 1 6.6328-2.3086 14.682 14.682 0 0 1 3.0527 0.30469 12.892 12.892 0 0 1 2.502 0.77344l-1.4648 3.6328a9.0591 9.0591 0 0 0-4.0664-0.91406 3.867 3.867 0 0 0-3.1348 1.3184 5.7036 5.7036 0 0 0-1.1075 3.7676 5.7774 5.7774 0 0 0 1.002 3.6621 3.4736 3.4736 0 0 0 2.8887 1.2598 8.4786 8.4786 0 0 0 1.8984-0.1992v-2.6836h-3.0586z"/>
   <path d="m884.21 1008 5.8828-13.277h-7.418v-3.832h12.363v2.7305l-6.0352 14.379z"/>
  </g>
 </g>
 <g fill="#bfbfbf">
  <g transform="translate(-1.8515 1008)">
   <path d="m145.85 126.87h5.9766a10.165 10.165 0 0 1 5.1856 1.0371 3.5159 3.5159 0 0 1 1.6934 3.2285 4.0828 4.0828 0 0 1-0.73828 2.4609 3.2932 3.2932 0 0 1-1.9453 1.3125v0.11719a3.9875 3.9875 0 0 1 2.3086 1.4062 4.2442 4.2442 0 0 1 0.71485 2.5547 4.3758 4.3758 0 0 1-1.752 3.6738 7.6719 7.6719 0 0 1-4.7754 1.3418h-6.668zm4.6289 6.5742h1.3945a2.5202 2.5202 0 0 0 1.541-0.41016 1.4292 1.4292 0 0 0 0.54492-1.2188q0-1.4414-2.1797-1.4414h-1.3008zm0 3.3867v3.5977h1.6289q2.168 0 2.168-1.8281a1.5724 1.5724 0 0 0-0.58007-1.3125 2.67 2.67 0 0 0-1.6816-0.457z"/>
   <path d="m171.21 144h-4.6992v-9.0703q0-1.6524 0.0703-3.0234a10.051 10.051 0 0 1-1.0781 1.1016l-1.9453 1.6055-2.4023-2.9531 5.8828-4.793h4.1719z"/>
  </g>
  <g transform="translate(0,720)">
   <path d="m12.363 288-0.84375-3.2109h-5.5664l-0.86718 3.2109h-5.0859l5.5898-17.203h6.1758l5.6602 17.203zm-1.8047-7.0078-0.73828-2.8125q-0.2578-0.9375-0.62695-2.4258t-0.48636-2.1328q-0.10546 0.59766-0.416 1.9688t-1.377 5.4024z"/>
   <path d="m30.574 288h-12.434v-3.0469l4.1836-4.2305q1.793-1.875 2.3438-2.5606a5.6087 5.6087 0 0 0 0.76758-1.1777 2.5311 2.5311 0 0 0 0.21679-1.0313 1.3414 1.3414 0 0 0-0.43359-1.0547 1.7688 1.7688 0 0 0-1.2188-0.38672 3.3255 3.3255 0 0 0-1.6348 0.46289 11.726 11.726 0 0 0-1.8691 1.3652l-2.543-2.9766a13.716 13.716 0 0 1 2.2266-1.6934 7.9518 7.9518 0 0 1 1.9629-0.7793 9.6974 9.6974 0 0 1 2.3848-0.26953 7.188 7.188 0 0 1 2.9707 0.58594 4.6487 4.6487 0 0 1 2.0273 1.6699 4.2945 4.2945 0 0 1 0.7207 2.4316 6.2555 6.2555 0 0 1-1.0312 3.5449 11.625 11.625 0 0 1-1.4004 1.7402q-0.873 0.91406-3.7207 3.4688v0.11719h6.4805z"/>
  </g>
  <g transform="translate(-1.8515 1008)">
   <path d="m448.39 135.07a8.8502 8.8502 0 0 1-2.3613 6.6094 9.0692 9.0692 0 0 1-6.6387 2.3203h-5.543v-17.133h5.9297a8.9456 8.9456 0 0 1 6.3691 2.1094 7.9607 7.9607 0 0 1 2.2442 6.0938zm-4.8047 0.16407a5.4452 5.4452 0 0 0-0.93164-3.4922 3.4455 3.4455 0 0 0-2.8301-1.1367h-1.3476v9.5976h1.0312a3.7336 3.7336 0 0 0 3.0938-1.2246 5.9162 5.9162 0 0 0 0.98437-3.7441z"/>
   <path d="m460.65 144h-4.6992v-9.0703q0-1.6524 0.0703-3.0234a10.05 10.05 0 0 1-1.0781 1.1016l-1.9453 1.6055-2.4023-2.9531 5.8828-4.793h4.1719z"/>
  </g>
  <g transform="translate(-1.2164 719.75)">
   <path d="m297.48 274.42a2.9518 2.9518 0 0 0-2.5781 1.3535 6.5364 6.5364 0 0 0-0.92578 3.7324q0 4.9453 3.7617 4.9453a7.7042 7.7042 0 0 0 2.2031-0.31641 22.039 22.039 0 0 0 2.1445-0.76172v3.9141a11.868 11.868 0 0 1-4.8516 0.94922 7.6743 7.6743 0 0 1-5.9473-2.25q-2.0684-2.25-2.0684-6.5039a10.376 10.376 0 0 1 1.002-4.6758 7.169 7.169 0 0 1 2.8828-3.0996 8.7059 8.7059 0 0 1 4.4238-1.084 12.187 12.187 0 0 1 5.3086 1.207l-1.418 3.6445a15.941 15.941 0 0 0-1.8984-0.75 6.6345 6.6345 0 0 0-2.0391-0.30465z"/>
   <path d="m316.72 288h-12.434v-3.0469l4.1836-4.2305q1.793-1.875 2.3438-2.5606a5.609 5.609 0 0 0 0.76757-1.1777 2.5309 2.5309 0 0 0 0.2168-1.0313 1.3414 1.3414 0 0 0-0.43359-1.0547 1.7688 1.7688 0 0 0-1.2188-0.38672 3.3255 3.3255 0 0 0-1.6348 0.46289 11.726 11.726 0 0 0-1.8691 1.3652l-2.543-2.9766a13.717 13.717 0 0 1 2.2266-1.6934 7.9518 7.9518 0 0 1 1.9629-0.7793 9.6974 9.6974 0 0 1 2.3848-0.26953 7.1879 7.1879 0 0 1 2.9707 0.58594 4.6487 4.6487 0 0 1 2.0274 1.6699 4.2945 4.2945 0 0 1 0.7207 2.4316 6.2555 6.2555 0 0 1-1.0312 3.5449 11.625 11.625 0 0 1-1.4004 1.7402q-0.873 0.91406-3.7207 3.4688v0.11719h6.4805z"/>
  </g>
  <g transform="translate(-1.8516 1008)">
   <path d="m726.41 144h-4.5586v-17.133h10.125v3.7148h-5.5664v3.2695h5.1328v3.7148h-5.1328z"/>
   <path d="m743.98 144h-4.6992v-9.0703q0-1.6524 0.0703-3.0234a10.051 10.051 0 0 1-1.0781 1.1016l-1.9453 1.6055-2.4023-2.9531 5.8828-4.793h4.1719z"/>
  </g>
  <g transform="translate(-1.8516 720)">
   <path d="m588.02 288h-10.172v-17.133h10.172v3.7148h-5.543v2.6953h5.1328v3.7148h-5.1328v3.2344h5.543z"/>
   <path d="m602.32 288h-12.434v-3.0469l4.1836-4.2305q1.793-1.875 2.3438-2.5606a5.6087 5.6087 0 0 0 0.76758-1.1777 2.5311 2.5311 0 0 0 0.2168-1.0313 1.3414 1.3414 0 0 0-0.4336-1.0547 1.7688 1.7688 0 0 0-1.2188-0.38672 3.3254 3.3254 0 0 0-1.6348 0.46289 11.726 11.726 0 0 0-1.8691 1.3652l-2.543-2.9766a13.716 13.716 0 0 1 2.2266-1.6934 7.9518 7.9518 0 0 1 1.9629-0.7793 9.6974 9.6974 0 0 1 2.3848-0.26953 7.1879 7.1879 0 0 1 2.9707 0.58594 4.6486 4.6486 0 0 1 2.0273 1.6699 4.2945 4.2945 0 0 1 0.72071 2.4316 6.2557 6.2557 0 0 1-1.0312 3.5449 11.625 11.625 0 0 1-1.4004 1.7402q-0.873 0.91406-3.7207 3.4688v0.11719h6.4805z"/>
  </g>
  <g transform="translate(-1.8516,1008)">
   <path d="m1024.5 144h-4.6524v-6.9844h-5.3789v6.9844h-4.6523v-17.133h4.6523v6.3516h5.3789v-6.3516h4.6524z"/>
   <path d="m1037.4 144h-4.6992v-9.0703q0-1.6524 0.07-3.0234a10.051 10.051 0 0 1-1.0781 1.1016l-1.9454 1.6055-2.4023-2.9531 5.8828-4.793h4.1719z"/>
  </g>
  <g transform="translate(-1.1989 719.75)">
   <path d="m872.73 277.97h7.3945v9.2344a20.327 20.327 0 0 1-6.6211 1.0313 8.0017 8.0017 0 0 1-6.123-2.2969 9.1957 9.1957 0 0 1-2.1621-6.5508 8.6043 8.6043 0 0 1 2.3672-6.457 9.1007 9.1007 0 0 1 6.6328-2.3086 14.682 14.682 0 0 1 3.0527 0.30469 12.892 12.892 0 0 1 2.502 0.77344l-1.4648 3.6328a9.0591 9.0591 0 0 0-4.0664-0.91406 3.867 3.867 0 0 0-3.1348 1.3184 5.7036 5.7036 0 0 0-1.1075 3.7676 5.7774 5.7774 0 0 0 1.002 3.6621 3.4736 3.4736 0 0 0 2.8887 1.2598 8.4786 8.4786 0 0 0 1.8984-0.19922v-2.6835h-3.0586z"/>
   <path d="m894.91 288h-12.434v-3.0469l4.1836-4.2305q1.793-1.875 2.3438-2.5606a5.6087 5.6087 0 0 0 0.76758-1.1777 2.5311 2.5311 0 0 0 0.2168-1.0313 1.3414 1.3414 0 0 0-0.4336-1.0547 1.7688 1.7688 0 0 0-1.2188-0.38672 3.3254 3.3254 0 0 0-1.6348 0.46289 11.726 11.726 0 0 0-1.8691 1.3652l-2.543-2.9766a13.716 13.716 0 0 1 2.2266-1.6934 7.9518 7.9518 0 0 1 1.9629-0.7793 9.6975 9.6975 0 0 1 2.3848-0.26953 7.1879 7.1879 0 0 1 2.9707 0.58594 4.6486 4.6486 0 0 1 2.0273 1.6699 4.2945 4.2945 0 0 1 0.72071 2.4316 6.2557 6.2557 0 0 1-1.0312 3.5449 11.625 11.625 0 0 1-1.4004 1.7402q-0.873 0.91406-3.7207 3.4688v0.11719h6.4805z"/>
  </g>
 </g>
 <g fill="#fff">
  <g transform="translate(0,1008)">
   <path d="m12.363 144-0.84375-3.2109h-5.5664l-0.86718 3.2109h-5.0859l5.5898-17.203h6.1758l5.6602 17.203zm-1.8047-7.0078-0.73828-2.8125q-0.2578-0.9375-0.62695-2.4258t-0.48636-2.1328q-0.10546 0.59766-0.416 1.9688t-1.377 5.4024z"/>
   <path d="m28.465 144h-4.6992v-9.0703q0-1.6524 0.07032-3.0234a10.05 10.05 0 0 1-1.0781 1.1016l-1.9453 1.6055-2.4023-2.9531 5.8828-4.793h4.1719z"/>
  </g>
  <g transform="translate(-1.8516,720)">
   <path d="m1024.5 288h-4.6524v-6.9844h-5.3789v6.9844h-4.6523v-17.133h4.6523v6.3516h5.3789v-6.3516h4.6524z"/>
   <path d="m1039.5 288h-12.434v-3.0469l4.1836-4.2305q1.793-1.875 2.3437-2.5606a5.609 5.609 0 0 0 0.7676-1.1777 2.5309 2.5309 0 0 0 0.2168-1.0313 1.3414 1.3414 0 0 0-0.4336-1.0547 1.7688 1.7688 0 0 0-1.2188-0.38672 3.3255 3.3255 0 0 0-1.6347 0.46289 11.726 11.726 0 0 0-1.8692 1.3652l-2.543-2.9766a13.717 13.717 0 0 1 2.2266-1.6934 7.9518 7.9518 0 0 1 1.9629-0.7793 9.6974 9.6974 0 0 1 2.3847-0.26953 7.1879 7.1879 0 0 1 2.9708 0.58594 4.6487 4.6487 0 0 1 2.0273 1.6699 4.2945 4.2945 0 0 1 0.7207 2.4316 6.2555 6.2555 0 0 1-1.0312 3.5449 11.625 11.625 0 0 1-1.4004 1.7402q-0.873 0.91406-3.7207 3.4688v0.11719h6.4804z"/>
  </g>
  <g transform="translate(-1.2164 1007.7)">
   <path d="m297.48 130.42a2.9518 2.9518 0 0 0-2.5781 1.3535 6.5364 6.5364 0 0 0-0.92578 3.7324q0 4.9453 3.7617 4.9453a7.7042 7.7042 0 0 0 2.2031-0.31641 22.039 22.039 0 0 0 2.1445-0.76172v3.9141a11.868 11.868 0 0 1-4.8516 0.94922 7.6743 7.6743 0 0 1-5.9473-2.25q-2.0684-2.25-2.0684-6.5039a10.376 10.376 0 0 1 1.002-4.6758 7.169 7.169 0 0 1 2.8828-3.0996 8.7059 8.7059 0 0 1 4.4238-1.084 12.187 12.187 0 0 1 5.3086 1.207l-1.418 3.6445a15.941 15.941 0 0 0-1.8984-0.75 6.6345 6.6345 0 0 0-2.0391-0.30465z"/>
   <path d="m314.61 144h-4.6992v-9.0703q0-1.6524 0.0703-3.0234a10.051 10.051 0 0 1-1.0781 1.1016l-1.9453 1.6055-2.4024-2.9531 5.8828-4.793h4.1719z"/>
  </g>
  <g transform="translate(-1.8515 720)">
   <path d="m145.85 270.87h5.9766a10.165 10.165 0 0 1 5.1856 1.0371 3.5159 3.5159 0 0 1 1.6934 3.2285 4.0828 4.0828 0 0 1-0.73828 2.4609 3.2932 3.2932 0 0 1-1.9453 1.3125v0.11719a3.9875 3.9875 0 0 1 2.3086 1.4062 4.2442 4.2442 0 0 1 0.71485 2.5547 4.3758 4.3758 0 0 1-1.752 3.6738 7.6719 7.6719 0 0 1-4.7754 1.3418h-6.668zm4.6289 6.5742h1.3945a2.5202 2.5202 0 0 0 1.541-0.41016 1.4292 1.4292 0 0 0 0.54492-1.2188q0-1.4414-2.1797-1.4414h-1.3008zm0 3.3867v3.5977h1.6289q2.168 0 2.168-1.8281a1.5724 1.5724 0 0 0-0.58007-1.3125 2.67 2.67 0 0 0-1.6816-0.457z"/>
   <path d="m173.32 288h-12.434v-3.0469l4.1836-4.2305q1.793-1.875 2.3438-2.5606a5.6087 5.6087 0 0 0 0.76758-1.1777 2.5311 2.5311 0 0 0 0.2168-1.0313 1.3414 1.3414 0 0 0-0.4336-1.0547 1.7688 1.7688 0 0 0-1.2188-0.38672 3.3254 3.3254 0 0 0-1.6348 0.46289 11.726 11.726 0 0 0-1.8691 1.3652l-2.543-2.9766a13.716 13.716 0 0 1 2.2266-1.6934 7.9518 7.9518 0 0 1 1.9629-0.7793 9.6974 9.6974 0 0 1 2.3848-0.26953 7.1879 7.1879 0 0 1 2.9707 0.58594 4.6486 4.6486 0 0 1 2.0273 1.6699 4.2945 4.2945 0 0 1 0.72071 2.4316 6.2557 6.2557 0 0 1-1.0312 3.5449 11.625 11.625 0 0 1-1.4004 1.7402q-0.873 0.91406-3.7207 3.4688v0.11719h6.4805z"/>
  </g>
  <g transform="translate(-1.8516 1008)">
   <path d="m588.02 144h-10.172v-17.133h10.172v3.7148h-5.543v2.6953h5.1328v3.7148h-5.1328v3.2344h5.543z"/>
   <path d="m600.21 144h-4.6992v-9.0703q0-1.6524 0.0703-3.0234a10.051 10.051 0 0 1-1.0781 1.1016l-1.9453 1.6055-2.4023-2.9531 5.8828-4.793h4.1719z"/>
  </g>
  <g transform="translate(-1.8515 720)">
   <path d="m448.39 279.07a8.8502 8.8502 0 0 1-2.3613 6.6094 9.0692 9.0692 0 0 1-6.6387 2.3203h-5.543v-17.133h5.9297a8.9456 8.9456 0 0 1 6.3691 2.1094 7.9607 7.9607 0 0 1 2.2442 6.0938zm-4.8047 0.16407a5.4452 5.4452 0 0 0-0.93164-3.4922 3.4455 3.4455 0 0 0-2.8301-1.1367h-1.3476v9.5976h1.0312a3.7336 3.7336 0 0 0 3.0938-1.2246 5.9162 5.9162 0 0 0 0.98437-3.7441z"/>
   <path d="m462.76 288h-12.434v-3.0469l4.1836-4.2305q1.793-1.875 2.3438-2.5606a5.6087 5.6087 0 0 0 0.76758-1.1777 2.5311 2.5311 0 0 0 0.21679-1.0313 1.3414 1.3414 0 0 0-0.43359-1.0547 1.7688 1.7688 0 0 0-1.2188-0.38672 3.3255 3.3255 0 0 0-1.6348 0.46289 11.726 11.726 0 0 0-1.8691 1.3652l-2.543-2.9766a13.716 13.716 0 0 1 2.2266-1.6934 7.9518 7.9518 0 0 1 1.9629-0.7793 9.6974 9.6974 0 0 1 2.3848-0.26953 7.188 7.188 0 0 1 2.9707 0.58594 4.6487 4.6487 0 0 1 2.0273 1.6699 4.2945 4.2945 0 0 1 0.7207 2.4316 6.2555 6.2555 0 0 1-1.0312 3.5449 11.625 11.625 0 0 1-1.4004 1.7402q-0.873 0.91406-3.7207 3.4688v0.11719h6.4805z"/>
  </g>
  <g transform="translate(-1.1989 1007.8)">
   <path d="m872.73 133.97h7.3945v9.2344a20.327 20.327 0 0 1-6.6211 1.0313 8.0017 8.0017 0 0 1-6.123-2.2969 9.1957 9.1957 0 0 1-2.1621-6.5508 8.6043 8.6043 0 0 1 2.3672-6.457 9.1007 9.1007 0 0 1 6.6328-2.3086 14.682 14.682 0 0 1 3.0527 0.30469 12.892 12.892 0 0 1 2.502 0.77344l-1.4648 3.6328a9.0591 9.0591 0 0 0-4.0664-0.91406 3.867 3.867 0 0 0-3.1348 1.3184 5.7036 5.7036 0 0 0-1.1075 3.7676 5.7774 5.7774 0 0 0 1.002 3.6621 3.4736 3.4736 0 0 0 2.8887 1.2598 8.4786 8.4786 0 0 0 1.8984-0.19922v-2.6835h-3.0586z"/>
   <path d="m892.8 144h-4.6992v-9.0703q0-1.6524 0.0703-3.0234a10.051 10.051 0 0 1-1.0781 1.1016l-1.9453 1.6055-2.4023-2.9531 5.8828-4.793h4.1719z"/>
  </g>
  <g transform="translate(-1.8516 720)">
   <path d="m726.41 288h-4.5586v-17.133h10.125v3.7148h-5.5664v3.2695h5.1328v3.7148h-5.1328z"/>
   <path d="m746.09 288h-12.434v-3.0469l4.1836-4.2305q1.793-1.875 2.3438-2.5606a5.6092 5.6092 0 0 0 0.76758-1.1777 2.5311 2.5311 0 0 0 0.21679-1.0313 1.3414 1.3414 0 0 0-0.43359-1.0547 1.7688 1.7688 0 0 0-1.2188-0.38672 3.3255 3.3255 0 0 0-1.6348 0.46289 11.726 11.726 0 0 0-1.8691 1.3652l-2.543-2.9766a13.716 13.716 0 0 1 2.2266-1.6934 7.9518 7.9518 0 0 1 1.9629-0.7793 9.6974 9.6974 0 0 1 2.3848-0.26953 7.188 7.188 0 0 1 2.9707 0.58594 4.6487 4.6487 0 0 1 2.0273 1.6699 4.2945 4.2945 0 0 1 0.7207 2.4316 6.2555 6.2555 0 0 1-1.0312 3.5449 11.625 11.625 0 0 1-1.4004 1.7402q-0.873 0.91406-3.7207 3.4688v0.11719h6.4805z"/>
  </g>
 </g>
 <g fill="#bfbfbf">
  <g transform="translate(0,144)">
   <path d="m12.363 576-0.84375-3.2109h-5.5664l-0.86718 3.2109h-5.0859l5.5898-17.203h6.1758l5.6602 17.203zm-1.8047-7.0078-0.73828-2.8125q-0.2578-0.9375-0.62695-2.4258t-0.48636-2.1328q-0.10546 0.59766-0.416 1.9688t-1.377 5.4024z"/>
   <path d="m31.125 572.68h-1.8867v3.3164h-4.5703v-3.3164h-6.832v-3.3984l7.125-10.418h4.2773v10.359h1.8867zm-6.457-3.457v-1.9922q0-0.5625 0.041-1.5176a9.8474 9.8474 0 0 1 0.06446-1.002h-0.12891a12.365 12.365 0 0 1-0.90234 1.6875l-1.8984 2.8242z"/>
  </g>
  <g transform="translate(-1.2164 143.75)">
   <path d="m297.48 562.42a2.9518 2.9518 0 0 0-2.5781 1.3535 6.5364 6.5364 0 0 0-0.92578 3.7324q0 4.9453 3.7617 4.9453a7.7042 7.7042 0 0 0 2.2031-0.31641 22.039 22.039 0 0 0 2.1445-0.76172v3.9141a11.868 11.868 0 0 1-4.8516 0.94922 7.6743 7.6743 0 0 1-5.9473-2.25q-2.0684-2.25-2.0684-6.5039a10.376 10.376 0 0 1 1.002-4.6758 7.169 7.169 0 0 1 2.8828-3.0996 8.7059 8.7059 0 0 1 4.4238-1.084 12.187 12.187 0 0 1 5.3086 1.207l-1.418 3.6445a15.941 15.941 0 0 0-1.8984-0.75 6.6345 6.6345 0 0 0-2.0391-0.30465z"/>
   <path d="m317.27 572.68h-1.8867v3.3164h-4.5703v-3.3164h-6.832v-3.3984l7.125-10.418h4.2773v10.359h1.8867zm-6.457-3.457v-1.9922q0-0.5625 0.041-1.5176a9.8474 9.8474 0 0 1 0.0645-1.002h-0.1289a12.365 12.365 0 0 1-0.90235 1.6875l-1.8984 2.8242z"/>
  </g>
  <g transform="translate(-1.8516 144)">
   <path d="m588.02 576h-10.172v-17.133h10.172v3.7148h-5.543v2.6953h5.1328v3.7148h-5.1328v3.2344h5.543z"/>
   <path d="m602.87 572.68h-1.8867v3.3164h-4.5703v-3.3164h-6.832v-3.3984l7.125-10.418h4.2774v10.359h1.8867zm-6.457-3.457v-1.9922q0-0.5625 0.041-1.5176a9.8495 9.8495 0 0 1 0.0644-1.002h-0.12891a12.363 12.363 0 0 1-0.90234 1.6875l-1.8984 2.8242z"/>
  </g>
  <g transform="translate(-1.1989 143.75)">
   <path d="m872.73 565.97h7.3945v9.2344a20.327 20.327 0 0 1-6.6211 1.0313 8.0017 8.0017 0 0 1-6.123-2.2969 9.1957 9.1957 0 0 1-2.1621-6.5508 8.6043 8.6043 0 0 1 2.3672-6.457 9.1007 9.1007 0 0 1 6.6328-2.3086 14.682 14.682 0 0 1 3.0527 0.30469 12.892 12.892 0 0 1 2.502 0.77344l-1.4648 3.6328a9.0591 9.0591 0 0 0-4.0664-0.91406 3.867 3.867 0 0 0-3.1348 1.3184 5.7036 5.7036 0 0 0-1.1075 3.7676 5.7774 5.7774 0 0 0 1.002 3.6621 3.4736 3.4736 0 0 0 2.8887 1.2598 8.4786 8.4786 0 0 0 1.8984-0.19922v-2.6835h-3.0586z"/>
   <path d="m895.46 572.68h-1.8867v3.3164h-4.5703v-3.3164h-6.832v-3.3984l7.125-10.418h4.2773v10.359h1.8867zm-6.457-3.457v-1.9922q0-0.5625 0.041-1.5176a9.8495 9.8495 0 0 1 0.0644-1.002h-0.1289a12.365 12.365 0 0 1-0.90235 1.6875l-1.8984 2.8242z"/>
  </g>
 </g>
 <g fill="#fff">
  <g transform="translate(-1.8516,144)">
   <path d="m1024.5 576h-4.6524v-6.9844h-5.3789v6.9844h-4.6523v-17.133h4.6523v6.3516h5.3789v-6.3516h4.6524z"/>
   <path d="m1040.1 572.68h-1.8867v3.3164h-4.5703v-3.3164h-6.832v-3.3984l7.125-10.418h4.2773v10.359h1.8868zm-6.457-3.457v-1.9922q0-0.5625 0.041-1.5176a9.8474 9.8474 0 0 1 0.064-1.002h-0.1289a12.365 12.365 0 0 1-0.9024 1.6875l-1.8984 2.8242z"/>
  </g>
  <g transform="translate(-1.8515 144)">
   <path d="m145.85 558.87h5.9766a10.165 10.165 0 0 1 5.1856 1.0371 3.5159 3.5159 0 0 1 1.6934 3.2285 4.0828 4.0828 0 0 1-0.73828 2.4609 3.2932 3.2932 0 0 1-1.9453 1.3125v0.11719a3.9875 3.9875 0 0 1 2.3086 1.4062 4.2442 4.2442 0 0 1 0.71485 2.5547 4.3758 4.3758 0 0 1-1.752 3.6738 7.6719 7.6719 0 0 1-4.7754 1.3418h-6.668zm4.6289 6.5742h1.3945a2.5202 2.5202 0 0 0 1.541-0.41016 1.4292 1.4292 0 0 0 0.54492-1.2188q0-1.4414-2.1797-1.4414h-1.3008zm0 3.3867v3.5977h1.6289q2.168 0 2.168-1.8281a1.5724 1.5724 0 0 0-0.58007-1.3125 2.67 2.67 0 0 0-1.6816-0.457z"/>
   <path d="m173.87 572.68h-1.8867v3.3164h-4.5703v-3.3164h-6.832v-3.3984l7.125-10.418h4.2774v10.359h1.8867zm-6.457-3.457v-1.9922q0-0.5625 0.041-1.5176a9.8495 9.8495 0 0 1 0.0644-1.002h-0.12891a12.363 12.363 0 0 1-0.90234 1.6875l-1.8984 2.8242z"/>
   <path d="m448.39 567.07a8.8502 8.8502 0 0 1-2.3613 6.6094 9.0692 9.0692 0 0 1-6.6387 2.3203h-5.543v-17.133h5.9297a8.9456 8.9456 0 0 1 6.3691 2.1094 7.9607 7.9607 0 0 1 2.2442 6.0938zm-4.8047 0.16407a5.4452 5.4452 0 0 0-0.93164-3.4922 3.4455 3.4455 0 0 0-2.8301-1.1367h-1.3476v9.5976h1.0312a3.7336 3.7336 0 0 0 3.0938-1.2246 5.9162 5.9162 0 0 0 0.98437-3.7441z"/>
   <path d="m463.31 572.68h-1.8867v3.3164h-4.5703v-3.3164h-6.832v-3.3984l7.125-10.418h4.2773v10.359h1.8867zm-6.457-3.457v-1.9922q0-0.5625 0.041-1.5176a9.8474 9.8474 0 0 1 0.0645-1.002h-0.129a12.365 12.365 0 0 1-0.90234 1.6875l-1.8984 2.8242z"/>
  </g>
  <g transform="translate(-1.8516 144)">
   <path d="m726.41 576h-4.5586v-17.133h10.125v3.7148h-5.5664v3.2695h5.1328v3.7148h-5.1328z"/>
   <path d="m746.64 572.68h-1.8867v3.3164h-4.5703v-3.3164h-6.832v-3.3984l7.125-10.418h4.2773v10.359h1.8867zm-6.457-3.457v-1.9922q0-0.5625 0.041-1.5176a9.8474 9.8474 0 0 1 0.0645-1.002h-0.12891a12.366 12.366 0 0 1-0.90234 1.6875l-1.8984 2.8242z"/>
  </g>
 </g>
 <g fill="#bfbfbf">
  <g transform="translate(0,-432)">
   <path d="m12.363 864-0.84375-3.2109h-5.5664l-0.86718 3.2109h-5.0859l5.5898-17.203h6.1758l5.6602 17.203zm-1.8047-7.0078-0.73828-2.8125q-0.2578-0.9375-0.62695-2.4258t-0.48636-2.1328q-0.10546 0.59766-0.416 1.9688t-1.377 5.4024z"/>
   <path d="m18.246 856.76a13.962 13.962 0 0 1 1.0254-5.8066 6.7837 6.7837 0 0 1 3.0234-3.2754 10.46 10.46 0 0 1 4.9277-1.0547 17.523 17.523 0 0 1 2.4375 0.19922v3.6211a13.635 13.635 0 0 0-2.543-0.22266 5.0482 5.0482 0 0 0-3.457 1.0195 4.5719 4.5719 0 0 0-1.2422 3.3281h0.14062a3.5595 3.5595 0 0 1 3.3867-1.9922 4.4146 4.4146 0 0 1 3.5449 1.4707 7.1518 7.1518 0 0 1-0.334 8.5547 5.9328 5.9328 0 0 1-4.4531 1.6348 5.9556 5.9556 0 0 1-4.7461-1.9688 8.1284 8.1284 0 0 1-1.7109-5.5078zm6.3516 3.8086a1.4891 1.4891 0 0 0 1.2012-0.55664 2.7612 2.7612 0 0 0 0.46289-1.7754q0-2.0859-1.6172-2.0859a1.6817 1.6817 0 0 0-1.2949 0.53906 1.8637 1.8637 0 0 0-0.498 1.3125 3.2641 3.2641 0 0 0 0.48047 1.8457 1.4609 1.4609 0 0 0 1.2656 0.72071z"/>
  </g>
  <g transform="translate(-1.2164 -432.25)">
   <path d="m297.48 850.42a2.9518 2.9518 0 0 0-2.5781 1.3535 6.5364 6.5364 0 0 0-0.92578 3.7324q0 4.9453 3.7617 4.9453a7.7042 7.7042 0 0 0 2.2031-0.31641 22.039 22.039 0 0 0 2.1445-0.76172v3.9141a11.868 11.868 0 0 1-4.8516 0.94922 7.6743 7.6743 0 0 1-5.9473-2.25q-2.0684-2.25-2.0684-6.5039a10.376 10.376 0 0 1 1.002-4.6758 7.169 7.169 0 0 1 2.8828-3.0996 8.7059 8.7059 0 0 1 4.4238-1.084 12.187 12.187 0 0 1 5.3086 1.207l-1.418 3.6445a15.941 15.941 0 0 0-1.8984-0.75 6.6345 6.6345 0 0 0-2.0391-0.30465z"/>
   <path d="m304.39 856.76a13.962 13.962 0 0 1 1.0254-5.8066 6.7837 6.7837 0 0 1 3.0234-3.2754 10.46 10.46 0 0 1 4.9277-1.0547 17.523 17.523 0 0 1 2.4375 0.19922v3.6211a13.635 13.635 0 0 0-2.543-0.22266 5.0483 5.0483 0 0 0-3.457 1.0195 4.5719 4.5719 0 0 0-1.2422 3.3281h0.14062a3.5595 3.5595 0 0 1 3.3867-1.9922 4.4146 4.4146 0 0 1 3.5449 1.4707 7.1518 7.1518 0 0 1-0.334 8.5547 6.7885 6.7885 0 0 1-9.1992-0.334 8.1284 8.1284 0 0 1-1.7109-5.5078zm6.3516 3.8086a1.4891 1.4891 0 0 0 1.2012-0.55664 2.7612 2.7612 0 0 0 0.46289-1.7754q0-2.0859-1.6172-2.0859a1.6817 1.6817 0 0 0-1.2949 0.53906 1.8637 1.8637 0 0 0-0.49805 1.3125 3.2641 3.2641 0 0 0 0.48047 1.8457 1.4609 1.4609 0 0 0 1.2656 0.72071z"/>
  </g>
  <g transform="translate(-1.8516 -432)">
   <path d="m588.02 864h-10.172v-17.133h10.172v3.7148h-5.543v2.6953h5.1328v3.7148h-5.1328v3.2344h5.543z"/>
   <path d="m589.99 856.76a13.961 13.961 0 0 1 1.0254-5.8066 6.7836 6.7836 0 0 1 3.0234-3.2754 10.46 10.46 0 0 1 4.9277-1.0547 17.523 17.523 0 0 1 2.4375 0.19922v3.6211a13.635 13.635 0 0 0-2.543-0.22266 5.0482 5.0482 0 0 0-3.457 1.0195 4.5719 4.5719 0 0 0-1.2422 3.3281h0.14063a3.5595 3.5595 0 0 1 3.3867-1.9922 4.4146 4.4146 0 0 1 3.5449 1.4707 7.1518 7.1518 0 0 1-0.334 8.5547 6.7885 6.7885 0 0 1-9.1992-0.334 8.1284 8.1284 0 0 1-1.7109-5.5078zm6.3516 3.8086a1.4891 1.4891 0 0 0 1.2012-0.55664 2.7611 2.7611 0 0 0 0.46289-1.7754q0-2.0859-1.6172-2.0859a1.6817 1.6817 0 0 0-1.2949 0.53906 1.8637 1.8637 0 0 0-0.498 1.3125 3.2641 3.2641 0 0 0 0.48046 1.8457 1.4609 1.4609 0 0 0 1.2656 0.72071z"/>
  </g>
  <g transform="translate(-1.1989 -432.25)">
   <path d="m872.73 853.97h7.3945v9.2344a20.327 20.327 0 0 1-6.6211 1.0313 8.0017 8.0017 0 0 1-6.123-2.2969 9.1957 9.1957 0 0 1-2.1621-6.5508 8.6043 8.6043 0 0 1 2.3672-6.457 9.1007 9.1007 0 0 1 6.6328-2.3086 14.682 14.682 0 0 1 3.0527 0.30469 12.892 12.892 0 0 1 2.502 0.77344l-1.4648 3.6328a9.0591 9.0591 0 0 0-4.0664-0.91406 3.867 3.867 0 0 0-3.1348 1.3184 5.7036 5.7036 0 0 0-1.1075 3.7676 5.7774 5.7774 0 0 0 1.002 3.6621 3.4736 3.4736 0 0 0 2.8887 1.2598 8.4786 8.4786 0 0 0 1.8984-0.19922v-2.6835h-3.0586z"/>
   <path d="m882.59 856.76a13.961 13.961 0 0 1 1.0254-5.8066 6.7836 6.7836 0 0 1 3.0234-3.2754 10.46 10.46 0 0 1 4.9277-1.0547 17.523 17.523 0 0 1 2.4375 0.19922v3.6211a13.635 13.635 0 0 0-2.543-0.22266 5.0482 5.0482 0 0 0-3.457 1.0195 4.5719 4.5719 0 0 0-1.2422 3.3281h0.14063a3.5595 3.5595 0 0 1 3.3867-1.9922 4.4146 4.4146 0 0 1 3.5449 1.4707 7.1518 7.1518 0 0 1-0.334 8.5547 6.7885 6.7885 0 0 1-9.1992-0.334 8.1284 8.1284 0 0 1-1.7109-5.5078zm6.3516 3.8086a1.4891 1.4891 0 0 0 1.2012-0.55664 2.7611 2.7611 0 0 0 0.46289-1.7754q0-2.0859-1.6172-2.0859a1.6817 1.6817 0 0 0-1.2949 0.53906 1.8637 1.8637 0 0 0-0.498 1.3125 3.264 3.264 0 0 0 0.48047 1.8457 1.4609 1.4609 0 0 0 1.2656 0.72071z"/>
  </g>
 </g>
 <g fill="#fff">
  <g transform="translate(-1.8516,-432)">
   <path d="m1024.5 864h-4.6524v-6.9844h-5.3789v6.9844h-4.6523v-17.133h4.6523v6.3516h5.3789v-6.3516h4.6524z"/>
   <path d="m1027.2 856.76a13.962 13.962 0 0 1 1.0254-5.8066 6.7837 6.7837 0 0 1 3.0234-3.2754 10.46 10.46 0 0 1 4.9278-1.0547 17.523 17.523 0 0 1 2.4375 0.19922v3.6211a13.635 13.635 0 0 0-2.543-0.22266 5.0483 5.0483 0 0 0-3.457 1.0195 4.5719 4.5719 0 0 0-1.2422 3.3281h0.1406a3.5595 3.5595 0 0 1 3.3867-1.9922 4.4146 4.4146 0 0 1 3.5449 1.4707 7.1518 7.1518 0 0 1-0.334 8.5547 6.7885 6.7885 0 0 1-9.1992-0.334 8.1284 8.1284 0 0 1-1.7109-5.5078zm6.3516 3.8086a1.4891 1.4891 0 0 0 1.2011-0.55664 2.7612 2.7612 0 0 0 0.4629-1.7754q0-2.0859-1.6172-2.0859a1.6817 1.6817 0 0 0-1.2949 0.53906 1.8637 1.8637 0 0 0-0.498 1.3125 3.2641 3.2641 0 0 0 0.4805 1.8457 1.4609 1.4609 0 0 0 1.2656 0.72071z"/>
  </g>
  <g transform="translate(-1.8515 -432)">
   <path d="m145.85 846.87h5.9766a10.165 10.165 0 0 1 5.1856 1.0371 3.5159 3.5159 0 0 1 1.6934 3.2285 4.0828 4.0828 0 0 1-0.73828 2.4609 3.2932 3.2932 0 0 1-1.9453 1.3125v0.11719a3.9875 3.9875 0 0 1 2.3086 1.4062 4.2442 4.2442 0 0 1 0.71485 2.5547 4.3758 4.3758 0 0 1-1.752 3.6738 7.6719 7.6719 0 0 1-4.7754 1.3418h-6.668zm4.6289 6.5742h1.3945a2.5202 2.5202 0 0 0 1.541-0.41016 1.4292 1.4292 0 0 0 0.54492-1.2188q0-1.4414-2.1797-1.4414h-1.3008zm0 3.3867v3.5977h1.6289q2.168 0 2.168-1.8281a1.5724 1.5724 0 0 0-0.58007-1.3125 2.67 2.67 0 0 0-1.6816-0.457z"/>
   <path d="m160.99 856.76a13.961 13.961 0 0 1 1.0254-5.8066 6.7836 6.7836 0 0 1 3.0234-3.2754 10.46 10.46 0 0 1 4.9277-1.0547 17.523 17.523 0 0 1 2.4375 0.19922v3.6211a13.635 13.635 0 0 0-2.543-0.22266 5.0482 5.0482 0 0 0-3.457 1.0195 4.5719 4.5719 0 0 0-1.2422 3.3281h0.14063a3.5595 3.5595 0 0 1 3.3867-1.9922 4.4146 4.4146 0 0 1 3.5449 1.4707 7.1518 7.1518 0 0 1-0.334 8.5547 6.7885 6.7885 0 0 1-9.1992-0.334 8.1284 8.1284 0 0 1-1.7109-5.5078zm6.3516 3.8086a1.4891 1.4891 0 0 0 1.2012-0.55664 2.7611 2.7611 0 0 0 0.46289-1.7754q0-2.0859-1.6172-2.0859a1.6817 1.6817 0 0 0-1.2949 0.53906 1.8637 1.8637 0 0 0-0.498 1.3125 3.2641 3.2641 0 0 0 0.48046 1.8457 1.4609 1.4609 0 0 0 1.2656 0.72071z"/>
   <path d="m448.39 855.07a8.8502 8.8502 0 0 1-2.3613 6.6094 9.0692 9.0692 0 0 1-6.6387 2.3203h-5.543v-17.133h5.9297a8.9456 8.9456 0 0 1 6.3691 2.1094 7.9607 7.9607 0 0 1 2.2442 6.0938zm-4.8047 0.16407a5.4452 5.4452 0 0 0-0.93164-3.4922 3.4455 3.4455 0 0 0-2.8301-1.1367h-1.3476v9.5976h1.0312a3.7336 3.7336 0 0 0 3.0938-1.2246 5.9162 5.9162 0 0 0 0.98437-3.7441z"/>
   <path d="m450.43 856.76a13.962 13.962 0 0 1 1.0254-5.8066 6.7837 6.7837 0 0 1 3.0234-3.2754 10.46 10.46 0 0 1 4.9277-1.0547 17.523 17.523 0 0 1 2.4375 0.19922v3.6211a13.635 13.635 0 0 0-2.543-0.22266 5.0482 5.0482 0 0 0-3.457 1.0195 4.5719 4.5719 0 0 0-1.2422 3.3281h0.14062a3.5595 3.5595 0 0 1 3.3867-1.9922 4.4146 4.4146 0 0 1 3.5449 1.4707 7.1518 7.1518 0 0 1-0.334 8.5547 6.7885 6.7885 0 0 1-9.1992-0.334 8.1284 8.1284 0 0 1-1.7109-5.5078zm6.3516 3.8086a1.4891 1.4891 0 0 0 1.2012-0.55664 2.7612 2.7612 0 0 0 0.46289-1.7754q0-2.0859-1.6172-2.0859a1.6817 1.6817 0 0 0-1.2949 0.53906 1.8637 1.8637 0 0 0-0.498 1.3125 3.2641 3.2641 0 0 0 0.48047 1.8457 1.4609 1.4609 0 0 0 1.2656 0.72071z"/>
  </g>
  <g transform="translate(-1.8516 -432)">
   <path d="m726.41 864h-4.5586v-17.133h10.125v3.7148h-5.5664v3.2695h5.1328v3.7148h-5.1328z"/>
   <path d="m733.76 856.76a13.962 13.962 0 0 1 1.0254-5.8066 6.7837 6.7837 0 0 1 3.0234-3.2754 10.46 10.46 0 0 1 4.9277-1.0547 17.523 17.523 0 0 1 2.4375 0.19922v3.6211a13.635 13.635 0 0 0-2.543-0.22266 5.0482 5.0482 0 0 0-3.457 1.0195 4.5719 4.5719 0 0 0-1.2422 3.3281h0.14062a3.5595 3.5595 0 0 1 3.3867-1.9922 4.4146 4.4146 0 0 1 3.5449 1.4707 7.1518 7.1518 0 0 1-0.334 8.5547 6.7885 6.7885 0 0 1-9.1992-0.334 8.1284 8.1284 0 0 1-1.7109-5.5078zm6.3516 3.8086a1.4891 1.4891 0 0 0 1.2012-0.55664 2.7612 2.7612 0 0 0 0.46289-1.7754q0-2.0859-1.6172-2.0859a1.6817 1.6817 0 0 0-1.2949 0.53906 1.8637 1.8637 0 0 0-0.498 1.3125 3.2641 3.2641 0 0 0 0.48047 1.8457 1.4609 1.4609 0 0 0 1.2656 0.72071z"/>
  </g>
 </g>
 <g fill="#bfbfbf">
  <g transform="translate(0,-1008)">
   <path d="m12.363 1152-0.84375-3.2109h-5.5664l-0.86718 3.2109h-5.0859l5.5898-17.203h6.1758l5.6602 17.203zm-1.8047-7.0078-0.73828-2.8125q-0.2578-0.9375-0.62695-2.4258t-0.48633-2.1328q-0.10546 0.5976-0.416 1.9687t-1.377 5.4024z"/>
   <path d="m24.504 1134.6a7.0827 7.0827 0 0 1 4.2129 1.0898 3.5924 3.5924 0 0 1 1.5059 3.0938 4.0893 4.0893 0 0 1-0.709 2.3848 5.7588 5.7588 0 0 1-2.2441 1.7871 8.4229 8.4229 0 0 1 2.6777 2.1504 3.8594 3.8594 0 0 1 0.77929 2.3144 4.1836 4.1836 0 0 1-1.6523 3.5391 7.492 7.492 0 0 1-4.6172 1.2539 7.5198 7.5198 0 0 1-4.6289-1.2246 4.1627 4.1627 0 0 1-1.6055-3.5215 4.3967 4.3967 0 0 1 0.71484-2.5371 6.2458 6.2458 0 0 1 2.4023-1.9043 6.425 6.425 0 0 1-1.9863-1.9629 4.4048 4.4048 0 0 1-0.627-2.3027 3.5505 3.5505 0 0 1 1.5352-3.0645 7.1932 7.1932 0 0 1 4.2422-1.0957zm-2.0391 12.68a1.4558 1.4558 0 0 0 0.51563 1.166 2.1358 2.1358 0 0 0 1.4297 0.4394q2.0625 0 2.0625-1.5117a1.7886 1.7886 0 0 0-0.45118-1.1308 6.2255 6.2255 0 0 0-1.6113-1.2481 4.811 4.811 0 0 0-1.4941 1.1074 1.8425 1.8425 0 0 0-0.45118 1.1778zm2.0156-9.3399a1.5107 1.5107 0 0 0-1.0078 0.3457 1.1176 1.1176 0 0 0-0.41016 0.8965q0 1.0078 1.3711 1.7813a3.9344 3.9344 0 0 0 1.1367-0.8789 1.447 1.447 0 0 0 0.30469-0.9024 1.1131 1.1131 0 0 0-0.41016-0.9023 1.4931 1.4931 0 0 0-0.98437-0.3399z"/>
  </g>
  <g transform="translate(-1.2164 -1008.3)">
   <path d="m297.48 1138.4a2.9518 2.9518 0 0 0-2.5781 1.3535 6.5364 6.5364 0 0 0-0.92578 3.7324q0 4.9453 3.7617 4.9453a7.7042 7.7042 0 0 0 2.2031-0.3164 22.039 22.039 0 0 0 2.1445-0.7617v3.9141a11.868 11.868 0 0 1-4.8516 0.9492 7.6743 7.6743 0 0 1-5.9473-2.25q-2.0684-2.25-2.0684-6.5039a10.376 10.376 0 0 1 1.002-4.6758 7.169 7.169 0 0 1 2.8828-3.0996 8.7059 8.7059 0 0 1 4.4238-1.084 12.187 12.187 0 0 1 5.3086 1.207l-1.418 3.6446a15.941 15.941 0 0 0-1.8984-0.75 6.6345 6.6345 0 0 0-2.0391-0.3047z"/>
   <path d="m310.65 1134.6a7.0826 7.0826 0 0 1 4.2129 1.0898 3.5924 3.5924 0 0 1 1.5059 3.0938 4.0893 4.0893 0 0 1-0.709 2.3848 5.7589 5.7589 0 0 1-2.2441 1.7871 8.4229 8.4229 0 0 1 2.6777 2.1504 3.8594 3.8594 0 0 1 0.7793 2.3144 4.1836 4.1836 0 0 1-1.6523 3.5391 9.2428 9.2428 0 0 1-9.2461 0.029 4.1627 4.1627 0 0 1-1.6055-3.5215 4.3967 4.3967 0 0 1 0.71485-2.5371 6.2458 6.2458 0 0 1 2.4023-1.9043 6.4252 6.4252 0 0 1-1.9863-1.9629 4.4048 4.4048 0 0 1-0.627-2.3027 3.5505 3.5505 0 0 1 1.5352-3.0645 7.1932 7.1932 0 0 1 4.2422-1.0957zm-2.0391 12.68a1.4558 1.4558 0 0 0 0.51563 1.166 2.1358 2.1358 0 0 0 1.4297 0.4394q2.0625 0 2.0625-1.5117a1.7886 1.7886 0 0 0-0.45117-1.1308 6.2254 6.2254 0 0 0-1.6113-1.2481 4.8111 4.8111 0 0 0-1.4941 1.1074 1.8426 1.8426 0 0 0-0.45117 1.1778zm2.0156-9.3399a1.5107 1.5107 0 0 0-1.0078 0.3457 1.1176 1.1176 0 0 0-0.41015 0.8965q0 1.0078 1.3711 1.7813a3.9345 3.9345 0 0 0 1.1367-0.8789 1.447 1.447 0 0 0 0.30469-0.9024 1.1131 1.1131 0 0 0-0.41016-0.9023 1.4931 1.4931 0 0 0-0.98437-0.3399z"/>
  </g>
  <g transform="translate(-1.8516 -1008)">
   <path d="m588.02 1152h-10.172v-17.133h10.172v3.7148h-5.543v2.6953h5.1328v3.7149h-5.1328v3.2344h5.543z"/>
   <path d="m596.25 1134.6a7.0827 7.0827 0 0 1 4.2129 1.0898 3.5924 3.5924 0 0 1 1.5059 3.0938 4.0893 4.0893 0 0 1-0.709 2.3848 5.759 5.759 0 0 1-2.2442 1.7871 8.4228 8.4228 0 0 1 2.6777 2.1504 3.8594 3.8594 0 0 1 0.7793 2.3144 4.1835 4.1835 0 0 1-1.6524 3.5391 9.2427 9.2427 0 0 1-9.2461 0.029 4.1627 4.1627 0 0 1-1.6055-3.5215 4.3967 4.3967 0 0 1 0.71484-2.5371 6.2459 6.2459 0 0 1 2.4024-1.9043 6.4252 6.4252 0 0 1-1.9863-1.9629 4.4048 4.4048 0 0 1-0.62695-2.3027 3.5505 3.5505 0 0 1 1.5352-3.0645 7.1932 7.1932 0 0 1 4.2422-1.0957zm-2.0391 12.68a1.4558 1.4558 0 0 0 0.51562 1.166 2.1358 2.1358 0 0 0 1.4297 0.4394q2.0625 0 2.0625-1.5117a1.7886 1.7886 0 0 0-0.45117-1.1308 6.2254 6.2254 0 0 0-1.6113-1.2481 4.8111 4.8111 0 0 0-1.4941 1.1074 1.8426 1.8426 0 0 0-0.45117 1.1778zm2.0156-9.3399a1.5107 1.5107 0 0 0-1.0078 0.3457 1.1176 1.1176 0 0 0-0.41016 0.8965q0 1.0078 1.3711 1.7813a3.9345 3.9345 0 0 0 1.1367-0.8789 1.447 1.447 0 0 0 0.30468-0.9024 1.1131 1.1131 0 0 0-0.41015-0.9023 1.4931 1.4931 0 0 0-0.98438-0.3399z"/>
  </g>
  <g transform="translate(-1.1989 -1008.2)">
   <path d="m872.73 1142h7.3945v9.2343a20.327 20.327 0 0 1-6.6211 1.0313 8.0017 8.0017 0 0 1-6.123-2.2969 9.1957 9.1957 0 0 1-2.1621-6.5508 8.6043 8.6043 0 0 1 2.3672-6.457 9.1007 9.1007 0 0 1 6.6328-2.3086 14.682 14.682 0 0 1 3.0527 0.3047 12.892 12.892 0 0 1 2.502 0.7734l-1.4648 3.6329a9.0591 9.0591 0 0 0-4.0664-0.9141 3.867 3.867 0 0 0-3.1348 1.3184 5.7036 5.7036 0 0 0-1.1075 3.7675 5.7774 5.7774 0 0 0 1.002 3.6621 3.4736 3.4736 0 0 0 2.8887 1.2598 8.4786 8.4786 0 0 0 1.8984-0.1992v-2.6836h-3.0586z"/>
   <path d="m888.84 1134.6a7.0827 7.0827 0 0 1 4.2129 1.0898 3.5924 3.5924 0 0 1 1.5059 3.0938 4.0893 4.0893 0 0 1-0.709 2.3848 5.759 5.759 0 0 1-2.2441 1.7871 8.4229 8.4229 0 0 1 2.6777 2.1504 3.8594 3.8594 0 0 1 0.7793 2.3144 4.1836 4.1836 0 0 1-1.6524 3.5391 9.2427 9.2427 0 0 1-9.2461 0.029 4.1627 4.1627 0 0 1-1.6055-3.5215 4.3967 4.3967 0 0 1 0.71484-2.5371 6.2459 6.2459 0 0 1 2.4024-1.9043 6.4252 6.4252 0 0 1-1.9863-1.9629 4.4048 4.4048 0 0 1-0.62695-2.3027 3.5505 3.5505 0 0 1 1.5352-3.0645 7.1932 7.1932 0 0 1 4.2422-1.0957zm-2.0391 12.68a1.4558 1.4558 0 0 0 0.51562 1.166 2.1358 2.1358 0 0 0 1.4297 0.4394q2.0625 0 2.0625-1.5117a1.7886 1.7886 0 0 0-0.45117-1.1308 6.2254 6.2254 0 0 0-1.6113-1.2481 4.8111 4.8111 0 0 0-1.4941 1.1074 1.8426 1.8426 0 0 0-0.45117 1.1778zm2.0156-9.3399a1.5107 1.5107 0 0 0-1.0078 0.3457 1.1176 1.1176 0 0 0-0.41016 0.8965q0 1.0078 1.3711 1.7813a3.9347 3.9347 0 0 0 1.1367-0.8789 1.447 1.447 0 0 0 0.30468-0.9024 1.1131 1.1131 0 0 0-0.41015-0.9023 1.4931 1.4931 0 0 0-0.98438-0.3399z"/>
  </g>
 </g>
 <g fill="#fff">
  <g transform="translate(-1.8516 -1008.2)">
   <path d="m1024.5 1152h-4.6524v-6.9844h-5.3789v6.9844h-4.6523v-17.133h4.6523v6.3516h5.3789v-6.3516h4.6524z"/>
   <path d="m1033.5 1134.6a7.0826 7.0826 0 0 1 4.2129 1.0898 3.5924 3.5924 0 0 1 1.5059 3.0938 4.0893 4.0893 0 0 1-0.709 2.3848 5.7589 5.7589 0 0 1-2.2441 1.7871 8.4229 8.4229 0 0 1 2.6777 2.1504 3.8594 3.8594 0 0 1 0.7793 2.3144 4.1836 4.1836 0 0 1-1.6524 3.5391 9.2428 9.2428 0 0 1-9.2461 0.029 4.1627 4.1627 0 0 1-1.6054-3.5215 4.3967 4.3967 0 0 1 0.7148-2.5371 6.2458 6.2458 0 0 1 2.4024-1.9043 6.4252 6.4252 0 0 1-1.9864-1.9629 4.4048 4.4048 0 0 1-0.627-2.3027 3.5505 3.5505 0 0 1 1.5352-3.0645 7.1932 7.1932 0 0 1 4.2422-1.0957zm-2.039 12.68a1.4558 1.4558 0 0 0 0.5156 1.166 2.1358 2.1358 0 0 0 1.4297 0.4394q2.0625 0 2.0625-1.5117a1.7886 1.7886 0 0 0-0.4512-1.1308 6.2254 6.2254 0 0 0-1.6113-1.2481 4.8111 4.8111 0 0 0-1.4941 1.1074 1.8426 1.8426 0 0 0-0.4512 1.1778zm2.0156-9.3399a1.5107 1.5107 0 0 0-1.0078 0.3457 1.1176 1.1176 0 0 0-0.4102 0.8965q0 1.0078 1.3711 1.7813a3.9345 3.9345 0 0 0 1.1368-0.8789 1.447 1.447 0 0 0 0.3046-0.9024 1.1131 1.1131 0 0 0-0.4101-0.9023 1.4931 1.4931 0 0 0-0.9844-0.3399z"/>
  </g>
  <g transform="translate(-1.8515 -1008)">
   <path d="m145.85 1134.9h5.9766a10.165 10.165 0 0 1 5.1856 1.0371 3.5159 3.5159 0 0 1 1.6934 3.2285 4.0828 4.0828 0 0 1-0.73828 2.4609 3.2932 3.2932 0 0 1-1.9453 1.3125v0.1172a3.9875 3.9875 0 0 1 2.3086 1.4063 4.2442 4.2442 0 0 1 0.71485 2.5547 4.3758 4.3758 0 0 1-1.752 3.6738 7.6719 7.6719 0 0 1-4.7754 1.3418h-6.668zm4.6289 6.5742h1.3945a2.5202 2.5202 0 0 0 1.541-0.4101 1.4292 1.4292 0 0 0 0.54492-1.2188q0-1.4414-2.1797-1.4414h-1.3008zm0 3.3867v3.5977h1.6289q2.168 0 2.168-1.8281a1.5724 1.5724 0 0 0-0.58007-1.3125 2.67 2.67 0 0 0-1.6816-0.457z"/>
   <path d="m167.25 1134.6a7.0827 7.0827 0 0 1 4.2129 1.0898 3.5924 3.5924 0 0 1 1.5059 3.0938 4.0893 4.0893 0 0 1-0.709 2.3848 5.759 5.759 0 0 1-2.2442 1.7871 8.4228 8.4228 0 0 1 2.6777 2.1504 3.8594 3.8594 0 0 1 0.7793 2.3144 4.1835 4.1835 0 0 1-1.6524 3.5391 9.2427 9.2427 0 0 1-9.2461 0.029 4.1627 4.1627 0 0 1-1.6055-3.5215 4.3967 4.3967 0 0 1 0.71484-2.5371 6.2459 6.2459 0 0 1 2.4024-1.9043 6.4252 6.4252 0 0 1-1.9863-1.9629 4.4048 4.4048 0 0 1-0.627-2.3027 3.5505 3.5505 0 0 1 1.5352-3.0645 7.1932 7.1932 0 0 1 4.2423-1.0957zm-2.0391 12.68a1.4558 1.4558 0 0 0 0.51562 1.166 2.1358 2.1358 0 0 0 1.4297 0.4394q2.0625 0 2.0625-1.5117a1.7886 1.7886 0 0 0-0.45117-1.1308 6.2254 6.2254 0 0 0-1.6113-1.2481 4.8111 4.8111 0 0 0-1.4941 1.1074 1.8426 1.8426 0 0 0-0.45117 1.1778zm2.0156-9.3399a1.5107 1.5107 0 0 0-1.0078 0.3457 1.1176 1.1176 0 0 0-0.41016 0.8965q0 1.0078 1.3711 1.7813a3.9345 3.9345 0 0 0 1.1367-0.8789 1.447 1.447 0 0 0 0.30468-0.9024 1.1131 1.1131 0 0 0-0.41015-0.9023 1.4931 1.4931 0 0 0-0.98438-0.3399z"/>
   <path d="m448.39 1143.1a8.8502 8.8502 0 0 1-2.3613 6.6094 9.0692 9.0692 0 0 1-6.6387 2.3203h-5.543v-17.133h5.9297a8.9456 8.9456 0 0 1 6.3691 2.1094 7.9607 7.9607 0 0 1 2.2442 6.0937zm-4.8047 0.1641a5.4452 5.4452 0 0 0-0.93164-3.4922 3.4455 3.4455 0 0 0-2.8301-1.1367h-1.3476v9.5976h1.0312a3.7336 3.7336 0 0 0 3.0938-1.2246 5.9162 5.9162 0 0 0 0.98437-3.7441z"/>
   <path d="m456.69 1134.6a7.0827 7.0827 0 0 1 4.2129 1.0898 3.5924 3.5924 0 0 1 1.5059 3.0938 4.0893 4.0893 0 0 1-0.709 2.3848 5.7588 5.7588 0 0 1-2.2441 1.7871 8.4229 8.4229 0 0 1 2.6777 2.1504 3.8594 3.8594 0 0 1 0.77929 2.3144 4.1836 4.1836 0 0 1-1.6523 3.5391 9.2428 9.2428 0 0 1-9.2461 0.029 4.1627 4.1627 0 0 1-1.6055-3.5215 4.3967 4.3967 0 0 1 0.71484-2.5371 6.2458 6.2458 0 0 1 2.4023-1.9043 6.425 6.425 0 0 1-1.9863-1.9629 4.4048 4.4048 0 0 1-0.627-2.3027 3.5505 3.5505 0 0 1 1.5352-3.0645 7.1932 7.1932 0 0 1 4.2422-1.0957zm-2.0391 12.68a1.4558 1.4558 0 0 0 0.51563 1.166 2.1358 2.1358 0 0 0 1.4297 0.4394q2.0625 0 2.0625-1.5117a1.7886 1.7886 0 0 0-0.45118-1.1308 6.2255 6.2255 0 0 0-1.6113-1.2481 4.811 4.811 0 0 0-1.4941 1.1074 1.8425 1.8425 0 0 0-0.45118 1.1778zm2.0156-9.3399a1.5107 1.5107 0 0 0-1.0078 0.3457 1.1176 1.1176 0 0 0-0.41016 0.8965q0 1.0078 1.3711 1.7813a3.9344 3.9344 0 0 0 1.1367-0.8789 1.447 1.447 0 0 0 0.30469-0.9024 1.1131 1.1131 0 0 0-0.41016-0.9023 1.4931 1.4931 0 0 0-0.98434-0.3399z"/>
  </g>
  <g transform="translate(-1.8516 -1008)">
   <path d="m726.41 1152h-4.5586v-17.133h10.125v3.7148h-5.5664v3.2696h5.1328v3.7148h-5.1328z"/>
   <path d="m740.02 1134.6a7.0827 7.0827 0 0 1 4.2129 1.0898 3.5924 3.5924 0 0 1 1.5059 3.0938 4.0893 4.0893 0 0 1-0.709 2.3848 5.7589 5.7589 0 0 1-2.2441 1.7871 8.4228 8.4228 0 0 1 2.6777 2.1504 3.8594 3.8594 0 0 1 0.7793 2.3144 4.1836 4.1836 0 0 1-1.6523 3.5391 9.2428 9.2428 0 0 1-9.2461 0.029 4.1627 4.1627 0 0 1-1.6055-3.5215 4.3967 4.3967 0 0 1 0.71484-2.5371 6.2458 6.2458 0 0 1 2.4023-1.9043 6.4252 6.4252 0 0 1-1.9863-1.9629 4.4049 4.4049 0 0 1-0.62695-2.3027 3.5505 3.5505 0 0 1 1.5352-3.0645 7.1932 7.1932 0 0 1 4.2422-1.0957zm-2.0391 12.68a1.4558 1.4558 0 0 0 0.51563 1.166 2.1358 2.1358 0 0 0 1.4297 0.4394q2.0625 0 2.0625-1.5117a1.7886 1.7886 0 0 0-0.45118-1.1308 6.2255 6.2255 0 0 0-1.6113-1.2481 4.8112 4.8112 0 0 0-1.4942 1.1074 1.8426 1.8426 0 0 0-0.45117 1.1778zm2.0156-9.3399a1.5107 1.5107 0 0 0-1.0078 0.3457 1.1176 1.1176 0 0 0-0.41016 0.8965q0 1.0078 1.3711 1.7813a3.9344 3.9344 0 0 0 1.1367-0.8789 1.447 1.447 0 0 0 0.30469-0.9024 1.1131 1.1131 0 0 0-0.41016-0.9023 1.4931 1.4931 0 0 0-0.98437-0.3399z"/>
  </g>
 </g>
</svg>
