<svg xmlns="http://www.w3.org/2000/svg" width="144" height="144" viewBox="0 0 144 144">
  <g>
    <path d="M61.65,19.4a10.35,10.35,0,0,1,.79-4.06,10,10,0,0,1,5.44-5.43,11,11,0,0,1,8.24,0,10,10,0,0,1,5.44,5.43,10.35,10.35,0,0,1,.79,4.06,8.83,8.83,0,0,1-1.52,5.07,83.78,83.78,0,0,1,7.88,6.4,43.68,43.68,0,0,1,6.36,7.25,33.46,33.46,0,0,1,4.25,8.47,30.78,30.78,0,0,1,1.55,10,33.23,33.23,0,0,1-.89,7.94,38.11,38.11,0,0,1-2.27,6.72,33.32,33.32,0,0,1-3.13,5.54q-1.76,2.48-3.46,4.45L96,98.76a28.13,28.13,0,0,1-7.58,3.3A56.19,56.19,0,0,1,79,103.84a25.57,25.57,0,0,0,6,1.71c2.13.35,4.34.62,6.63.79s4.6.33,7,.46,4.65.33,6.89.6l8.11,7.64a21.08,21.08,0,0,1-1.39,6.56,22.28,22.28,0,0,1-3.16,5.64,22.61,22.61,0,0,1-4.65,4.51,24.61,24.61,0,0,1-5.83,3.14l-8.83-9.43c.79-.35,1.68-.77,2.67-1.25a21.05,21.05,0,0,0,2.86-1.72,12.88,12.88,0,0,0,2.48-2.3,7.39,7.39,0,0,0,1.48-3,71.81,71.81,0,0,1-8.51-.92,30.13,30.13,0,0,1-7-2.08,23.44,23.44,0,0,1-6-3.79,35.53,35.53,0,0,1-5.54-6.19h-.26a35.53,35.53,0,0,1-5.54,6.19,23.44,23.44,0,0,1-6,3.79,30.13,30.13,0,0,1-7,2.08,71.81,71.81,0,0,1-8.51.92,7.39,7.39,0,0,0,1.48,3,12.88,12.88,0,0,0,2.48,2.3,21.05,21.05,0,0,0,2.86,1.72c1,.48,1.88.9,2.67,1.25l-8.83,9.43a24.61,24.61,0,0,1-5.83-3.14A22.61,22.61,0,0,1,35,127.24a22.28,22.28,0,0,1-3.16-5.64A21.08,21.08,0,0,1,30.47,115l8.11-7.64c2.24-.27,4.54-.46,6.89-.6s4.67-.28,7-.46,4.5-.44,6.63-.79a25.57,25.57,0,0,0,6-1.71,56.19,56.19,0,0,1-9.42-1.78A28.13,28.13,0,0,1,48,98.76l4.87-17.53q-1.71-2-3.46-4.45a33.32,33.32,0,0,1-3.13-5.54A38.11,38.11,0,0,1,44,64.52a33.23,33.23,0,0,1-.89-7.94,30.78,30.78,0,0,1,1.55-10,33.46,33.46,0,0,1,4.25-8.47,43.68,43.68,0,0,1,6.36-7.25,83.78,83.78,0,0,1,7.88-6.4A8.83,8.83,0,0,1,61.65,19.4Z"/>
    <path d="M41.08,117.35c-2.81,0-5-.06-6.65-.2a18.55,18.55,0,0,0,3.23,7.72,17.63,17.63,0,0,0,7.25,5.53l4-4.08a17.92,17.92,0,0,1-4.35-3.23A14.61,14.61,0,0,1,41.08,117.35Z" style="fill: #fff"/>
    <path d="M65.34,106.67a16.19,16.19,0,0,1-5.53,2,71.41,71.41,0,0,1-7.12,1c-2.46.22-4.84.38-7.12.49s-4.16.28-5.61.5l-3.49,3.23c.62,0,1.25.06,1.91.06h2c2.11,0,4.32-.07,6.62-.23a43.41,43.41,0,0,0,6.83-1,33,33,0,0,0,6.39-2.11,18.36,18.36,0,0,0,5.41-3.65Z" style="fill: #fff"/>
    <path d="M87.56,77.6A35.17,35.17,0,0,0,91.12,73a28.16,28.16,0,0,0,2.53-4.91,26.62,26.62,0,0,0,1.52-5.44,36.19,36.19,0,0,0,.49-6.16,30.84,30.84,0,0,0-1.08-8.17A27.64,27.64,0,0,0,91,40.56,41.26,41.26,0,0,0,84.43,33a68,68,0,0,0-10.06-7.52,13.45,13.45,0,0,0,2.31-2.34,6,6,0,0,0,1-3.72,6.05,6.05,0,0,0-1.58-4.19,5.65,5.65,0,0,0-8.18,0,6.05,6.05,0,0,0-1.58,4.19,6,6,0,0,0,1,3.72,13.45,13.45,0,0,0,2.31,2.34A68,68,0,0,0,59.57,33,41.26,41.26,0,0,0,53,40.56a27.64,27.64,0,0,0-3.6,7.78,30.84,30.84,0,0,0-1.08,8.17,36.19,36.19,0,0,0,.49,6.16,26.62,26.62,0,0,0,1.52,5.44A28.16,28.16,0,0,0,52.88,73a35.17,35.17,0,0,0,3.56,4.58Z" style="fill: #fff"/>
    <path d="M90.52,96.85a53.39,53.39,0,0,0-6.82-1.19A97.34,97.34,0,0,0,72,95.07a97.34,97.34,0,0,0-11.7.59,53.39,53.39,0,0,0-6.82,1.19c0,.31.5.66,1.51,1.06A24.9,24.9,0,0,0,59.08,99q2.56.49,5.9.86a68.33,68.33,0,0,0,14,0q3.36-.36,5.93-.86A24.9,24.9,0,0,0,89,97.91C90,97.51,90.52,97.16,90.52,96.85Z" style="fill: #fff"/>
    <path d="M72,91.12c1.32,0,2.74,0,4.25.1s3.06.15,4.62.26,3.08.25,4.58.43,2.88.39,4.15.66L87,82.09H57L54.4,92.57a40.06,40.06,0,0,1,4.12-.66c1.52-.18,3-.32,4.61-.43s3.1-.2,4.62-.26S70.68,91.12,72,91.12Z" style="fill: #fff"/>
    <polygon points="85.05 43.26 85.05 47.54 74.24 47.54 74.24 72.92 69.76 72.92 69.76 47.54 58.95 47.54 58.95 43.26 69.76 43.26 69.76 31.79 74.24 31.79 74.24 43.26 85.05 43.26"/>
    <path d="M78.39,106.94a18.36,18.36,0,0,0,5.41,3.65,33,33,0,0,0,6.39,2.11,43.41,43.41,0,0,0,6.83,1c2.3.16,4.51.23,6.62.23h2c.66,0,1.29,0,1.91-.06L104,110.63q-2.17-.33-5.61-.5c-2.28-.11-4.66-.27-7.12-.49a71.41,71.41,0,0,1-7.12-1,16.19,16.19,0,0,1-5.53-2Z" style="fill: #fff"/>
    <path d="M102.92,117.35a14.44,14.44,0,0,1-2.15,4.09,18.41,18.41,0,0,1-2.6,2.77,19.32,19.32,0,0,1-3.1,2.11l4,4.08a17.63,17.63,0,0,0,7.25-5.53,18.55,18.55,0,0,0,3.23-7.72C107.9,117.29,105.68,117.35,102.92,117.35Z" style="fill: #fff"/>
  </g>
</svg>
