<svg xmlns="http://www.w3.org/2000/svg" width="144" height="144" viewBox="0 0 144 144">
  <g>
    <path d="M50.14819,121.99878a31.70814,31.70814,0,0,1-1.31836-4.4165,30.51859,30.51859,0,0,1-.59326-6.65772,21.4024,21.4024,0,0,1,1.84571-9.03076A32.89765,32.89765,0,0,1,54.69653,94.544a55.38047,55.38047,0,0,1,6.0315-6.19629q3.26294-2.86743,6.03149-5.603a35.44814,35.44814,0,0,0,4.61426-5.50415,10.60354,10.60354,0,0,0,1.8457-5.99854,17.868,17.868,0,0,1-5.30639,3.52661,23.90967,23.90967,0,0,1-8.6023,1.74683,25.83833,25.83833,0,0,1-4.021,2.439,32.0044,32.0044,0,0,1-4.35058,1.71386,20.59608,20.59608,0,0,1-4.25171,3.72437,8.26763,8.26763,0,0,1-4.51538,1.41723,8.7394,8.7394,0,0,1-3.55957-.72509,10.76729,10.76729,0,0,1-2.99927-1.97754,12.42621,12.42621,0,0,1-2.30713-2.90039,13.41424,13.41424,0,0,1-1.41723-3.49366,7.37138,7.37138,0,0,1-1.08765-2.60375,13.34709,13.34709,0,0,1-.29663-2.7356,4.46049,4.46049,0,0,1,.65918-2.20825,13.59943,13.59943,0,0,1,1.582-2.20825,15.01263,15.01263,0,0,1,1.91162-1.84571,12.29079,12.29079,0,0,1,1.71387-1.18652q2.24121-2.96631,3.988-5.1416t3.42773-4.054q1.6809-1.87866,3.49365-3.72436t4.31763-4.15284a4.08742,4.08742,0,0,1-.13184-.98876,7.49074,7.49074,0,0,1,.85694-3.62549,10.10973,10.10973,0,0,1,2.14233-2.7356,11.56184,11.56184,0,0,1,2.83447-1.87866,19.78891,19.78891,0,0,1,2.93335-1.12061q0-1.38427-.06592-2.60376t-.23071-2.406q-.16479-1.18653-.39551-2.50488t-.5603-3.03223l1.97754-.85693A18.11467,18.11467,0,0,1,63.2,26.38477a23.72793,23.72793,0,0,1,2.53784,1.94458,21.79029,21.79029,0,0,1,4.5813,5.66894l.65918-.13183a53.03355,53.03355,0,0,0,.824-5.27344q.29662-2.76856.49438-6.06446l2.70264-.52734a38.259,38.259,0,0,1,2.93335,2.99927,33.77842,33.77842,0,0,1,2.83447,3.72436,37.95255,37.95255,0,0,1,2.53784,4.51538,32.29945,32.29945,0,0,1,1.97754,5.3064q1.05469,1.31836,2.27417,2.70264t2.66968,2.96631q1.4502,1.582,3.1311,3.42773t3.65845,4.15283a61.59058,61.59058,0,0,1,5.57007,7.94312A78.0468,78.0468,0,0,1,107.92529,70.418a86.52852,86.52852,0,0,1,3.988,12.22778,52.03371,52.03371,0,0,1,1.582,12.52442q0,4.021-.13183,7.08618t-.42847,5.99853q-.29664,2.93335-.75806,6.16333t-1.1206,7.58057Z"/>
    <path d="M36.56909,71.176a4.68258,4.68258,0,0,0,.59326,1.71386,4.98283,4.98283,0,0,0,.98877,1.25244,10.29206,10.29206,0,0,0,3.16407-1.87866,20.01307,20.01307,0,0,1,3.16406-2.20825l-.06592-.39551Z" style="fill: #fff"/>
    <path d="M58.91528,49.8186a18.25478,18.25478,0,0,0,2.5708-.19775,15.81844,15.81844,0,0,0,2.76856-.65918,16.30743,16.30743,0,0,0,2.60376-1.12061,7.98225,7.98225,0,0,0,2.07641-1.582,20.18168,20.18168,0,0,1-2.80151-.23071,22.13865,22.13865,0,0,0-3.1311-.23071q-.59327,0-1.38428.06592a5.0035,5.0035,0,0,0-1.4502.32959,2.89661,2.89661,0,0,0-1.1206.791,2.026,2.026,0,0,0-.46143,1.38428A4.18739,4.18739,0,0,0,58.91528,49.8186Z" style="fill: #fff"/>
    <path d="M88.57837,51.86206A83.84253,83.84253,0,0,1,96.884,70.22021a64.73818,64.73818,0,0,1,2.76856,19.01734q0,3.03222-.1648,5.8667t-.5603,5.7019q-.39551,2.86743-1.02173,5.83374t-1.54907,6.19629h7.58057a69.29677,69.29677,0,0,0,1.31836-8.075,75.90421,75.90421,0,0,0,.3955-7.61352,66.34156,66.34156,0,0,0-.72509-10.01954,68.08212,68.08212,0,0,0-1.94458-8.89892,65.75915,65.75915,0,0,0-2.76856-7.7124q-1.54907-3.55958-3.1311-6.52588A64.043,64.043,0,0,0,88.57837,51.86206Z" style="fill: #fff"/>
  </g>
</svg>
