<svg xmlns="http://www.w3.org/2000/svg" width="144" height="144" viewBox="0 0 144 144">
  <g>
    <polygon points="89.732 32.054 89.732 24.737 104.3 24.737 104.3 49.258 99.29 49.258 92.5 58.882 92.5 85.447 99.29 95.137 104.3 95.137 104.3 104.893 113.265 104.893 113.265 119.263 30.735 119.263 30.735 104.893 39.7 104.893 39.7 95.137 44.446 95.137 51.5 85.447 51.5 58.882 44.512 49.258 39.7 49.258 39.7 24.737 54.004 24.737 54.004 32.054 61.915 32.054 61.915 24.737 81.888 24.737 81.888 32.054 89.732 32.054"/>
    <rect x="44.57813" y="40.22754" width="54.97559" height="2.43896" style="fill: #fff"/>
    <rect x="44.57813" y="99.75146" width="54.97559" height="2.43896" style="fill: #fff"/>
    <polygon points="51.961 49.917 53.741 52.356 90.391 52.356 92.105 49.917 51.961 49.917" style="fill: #fff"/>
    <polygon points="92.105 92.566 90.391 90.127 53.741 90.127 51.961 92.566 92.105 92.566" style="fill: #fff"/>
  </g>
</svg>
