<svg xmlns="http://www.w3.org/2000/svg" width="144" height="144" viewBox="0 0 144 144">
  <path d="M70,16.63H74v3.89H77.8v3.76H74v6.78a45.88,45.88,0,0,1,5.41,10.88,40,40,0,0,1,2,13.05,27,27,0,0,1,3.3-4.48,23.39,23.39,0,0,1,4.28-3.72,20.16,20.16,0,0,1,5.21-2.54,20.39,20.39,0,0,1,13.35.43,17,17,0,0,1,9.56,9.56,19.34,19.34,0,0,1,1.35,7.34,28.06,28.06,0,0,1-1.32,8.57,31.13,31.13,0,0,1-3.63,7.68,29.86,29.86,0,0,1-5.53,6.3,28.39,28.39,0,0,1-7,4.42l2.44.16,2.8.2,2.8.2,2.51.16V124.6q-9.77,1.4-19.81,2.08t-19.94.69q-9.89,0-19.45-.69t-20-2.08V89.27l2.51-.16,2.8-.2,2.77-.2c.9-.07,1.72-.12,2.47-.16a28.21,28.21,0,0,1-7-4.42,29.58,29.58,0,0,1-5.53-6.3,31.13,31.13,0,0,1-3.63-7.68,28.06,28.06,0,0,1-1.32-8.57,19.34,19.34,0,0,1,1.35-7.34,17,17,0,0,1,9.56-9.56,20.39,20.39,0,0,1,13.35-.43,20.16,20.16,0,0,1,5.21,2.54,23.39,23.39,0,0,1,4.28,3.72A27,27,0,0,1,62.51,55a40,40,0,0,1,2-13.05A45.88,45.88,0,0,1,70,31.06V24.28H66.2V20.52H70ZM30.47,61.32a24.77,24.77,0,0,0,2.44,11.14A27.12,27.12,0,0,0,39.3,80.9a28.34,28.34,0,0,0,9,5.37,29.61,29.61,0,0,0,10.34,1.88,40.9,40.9,0,0,0,4.52-.23,22,22,0,0,0,3.59-.69q-.26-4.16-1-8.74a70.48,70.48,0,0,0-2-9,56.11,56.11,0,0,0-3.16-8.34,32.4,32.4,0,0,0-4.38-6.95,20.17,20.17,0,0,0-5.71-4.78,14.26,14.26,0,0,0-7.08-1.78,13.76,13.76,0,0,0-5.61,1.08,11.76,11.76,0,0,0-6.55,7.29A16.47,16.47,0,0,0,30.47,61.32Zm6.66,39.55q8.84-.33,17.27-.49t17.34-.17h.52c5.94,0,11.71.06,17.34.17s11.38.27,17.27.49V93.16q-8.24-.47-17.3-.69t-17.83-.23q-8.64,0-17.6.23t-17,.69Zm35.13,9.76q8.83,0,17.34,0t17.27-.36V104.5q-8.7-.33-17.27-.4T72.26,104h-.52q-8.77,0-17.34.06t-17.27.4v5.73q8.76.33,17.27.36t17.34,0Zm34.61,3.16q-8.7.4-17.27.53t-17.34.13h-.52q-8.77,0-17.34-.13t-17.27-.53v6.53q8,1.13,17,1.68t17.76.56q4.35,0,8.87-.13t9-.43q4.49-.3,8.8-.73t8.27-1ZM67.19,56.38a44.84,44.84,0,0,0,.56,7.41q.56,3.41,1.28,7c.49,2.4,1,5,1.52,7.75s1,6,1.32,9.62h.26a87.86,87.86,0,0,1,1.29-9.62c.55-2.77,1.06-5.35,1.55-7.75s.91-4.72,1.28-7a46,46,0,0,0,.56-7.41c0-1.36,0-2.85-.16-4.45A37.87,37.87,0,0,0,76,47a42.6,42.6,0,0,0-1.46-5.24A28.3,28.3,0,0,0,72,36.4a30.57,30.57,0,0,0-2.54,5.31A35.22,35.22,0,0,0,68,47a41.33,41.33,0,0,0-.66,5C67.24,53.53,67.19,55,67.19,56.38Zm46.34,4.94a16.76,16.76,0,0,0-.83-5.27,11.76,11.76,0,0,0-6.55-7.29,13.76,13.76,0,0,0-5.61-1.08,14.26,14.26,0,0,0-7.08,1.78,20,20,0,0,0-5.71,4.78,32.4,32.4,0,0,0-4.38,6.95,56.11,56.11,0,0,0-3.16,8.34,77.12,77.12,0,0,0-3,17.7,22,22,0,0,0,3.59.69,40.77,40.77,0,0,0,4.52.23,29.61,29.61,0,0,0,10.34-1.88,28.34,28.34,0,0,0,9-5.37,27.27,27.27,0,0,0,6.39-8.44A24.91,24.91,0,0,0,113.53,61.32Z"/>
</svg>
