<svg xmlns="http://www.w3.org/2000/svg" width="144" height="144" viewBox="0 0 144 144">
  <g>
    <path d="M69.95654,16.62891h4.08692v3.88916h3.75732v3.75732H74.04346v6.78955a45.70661,45.70661,0,0,1,5.40527,10.87647,39.85548,39.85548,0,0,1,2.04346,13.05175,26.70721,26.70721,0,0,1,3.2959-4.48242,23.9281,23.9281,0,0,1,4.28466-3.72436,20.45639,20.45639,0,0,1,5.20752-2.53784,19.4729,19.4729,0,0,1,6.06446-.92286,19.18693,19.18693,0,0,1,7.28393,1.35132,17.03254,17.03254,0,0,1,9.55811,9.55811,19.36748,19.36748,0,0,1,1.35132,7.34985,28.15168,28.15168,0,0,1-1.31836,8.56934,31.18906,31.18906,0,0,1-3.62549,7.67944,29.59344,29.59344,0,0,1-5.53711,6.29517,27.94927,27.94927,0,0,1-6.98731,4.4165q1.05469.06592,2.439.1648t2.80151.19775q1.41724.09888,2.80152.19775t2.50488.1648v35.332q-9.75586,1.38428-19.80835,2.07642t-19.94019.69213q-9.88769,0-19.4458-.69213T32.3833,124.60254v-35.332q1.12061-.06592,2.50488-.1648T37.6897,88.908q1.41723-.09888,2.76855-.19775t2.47193-.1648a27.94927,27.94927,0,0,1-6.98731-4.4165,29.59344,29.59344,0,0,1-5.53711-6.29517,31.18906,31.18906,0,0,1-3.62549-7.67944A28.15168,28.15168,0,0,1,25.46191,61.585a19.36748,19.36748,0,0,1,1.35132-7.34985A17.03254,17.03254,0,0,1,36.37134,44.677a19.18693,19.18693,0,0,1,7.28393-1.35132,19.4729,19.4729,0,0,1,6.06446.92286,20.45639,20.45639,0,0,1,5.20752,2.53784,23.9281,23.9281,0,0,1,4.28466,3.72436,26.70721,26.70721,0,0,1,3.2959,4.48242,39.85548,39.85548,0,0,1,2.04346-13.05175,45.70661,45.70661,0,0,1,5.40527-10.87647V24.27539H66.19922V20.51807h3.75732Z"/>
    <path d="M30.47168,61.32129a24.84313,24.84313,0,0,0,2.439,11.14014,27.14386,27.14386,0,0,0,6.39405,8.4375,28.39864,28.39864,0,0,0,9.03076,5.37231A29.59912,29.59912,0,0,0,58.68457,88.1499,39.90006,39.90006,0,0,0,63.2,87.91919a21.73817,21.73817,0,0,0,3.59253-.69214q-.26367-4.15283-.98877-8.73413a71.60632,71.60632,0,0,0-2.0105-8.96484,56.3617,56.3617,0,0,0-3.16406-8.33863,32.61019,32.61019,0,0,0-4.38354-6.95434,20.23309,20.23309,0,0,0-5.70191-4.77906,14.31981,14.31981,0,0,0-7.08618-1.77978,13.6323,13.6323,0,0,0-5.603,1.08765,11.87807,11.87807,0,0,0-4.08691,2.93335,12.14085,12.14085,0,0,0-2.47193,4.35058A16.768,16.768,0,0,0,30.47168,61.32129Z" style="fill: #fff"/>
    <path d="M34.69043,61.32129a11.59431,11.59431,0,0,1,.5603-3.62549,8.55043,8.55043,0,0,1,1.68091-2.99927,8.204,8.204,0,0,1,2.7356-2.04345,8.83927,8.83927,0,0,1,3.79028-.75806,10.64987,10.64987,0,0,1,5.3064,1.35132,16.02484,16.02484,0,0,1,4.38354,3.6914,26.9303,26.9303,0,0,1,3.52661,5.4712,46.659,46.659,0,0,1,2.66968,6.69067,65.97976,65.97976,0,0,1,1.8457,7.31689q.7251,3.75733,1.12061,7.38282a11.2556,11.2556,0,0,1-1.71387.13183H58.68457a25.39646,25.39646,0,0,1-8.8-1.582,24.26358,24.26358,0,0,1-7.67944-4.51538,22.74124,22.74124,0,0,1-5.43823-7.11914A20.84863,20.84863,0,0,1,34.69043,61.32129Z"/>
    <path d="M71.86816,95.40088q-4.021,0-8.8.16479T53.51,96.0271q-4.77906.29662-9.1626.75806T36.7998,97.83984q3.36183.32959,7.97608.59327t9.45923.42846q4.845.16481,9.52514.23072T72,99.1582q3.55958,0,8.042-.06591t9.22852-.23072q4.74609-.16479,9.29443-.36255t8.23975-.52734q-3.03223-.52734-7.34986-.98877t-9.09668-.824q-4.779-.36255-9.624-.56031T71.86816,95.40088Z" style="fill: #fff"/>
    <path d="M71.86816,105.88184q-4.021,0-8.8.16479t-9.55811.46143q-4.77906.29663-9.1626.758T36.7998,108.3208q3.36183.32959,7.97608.59326t9.45923.42847q4.845.16479,9.52514.23071T72,109.63916q3.55958,0,8.042-.06592t9.22852-.23071q4.74609-.16479,9.29443-.36255t8.23975-.52734q-3.03223-.52735-7.34986-.98877t-9.09668-.824q-4.779-.36255-9.624-.5603T71.86816,105.88184Z" style="fill: #fff"/>
    <path d="M71.86816,116.82422q-4.021,0-8.8.16479t-9.55811.46143q-4.77906.29662-9.1626.75806t-7.54761,1.05468q3.36183.32959,7.97608.59327t9.45923.42846q4.845.16481,9.52514.23071T72,120.58154q3.55958,0,8.042-.06592t9.22852-.23071q4.74609-.16479,9.29443-.36255t8.23975-.52734q-3.03223-.52734-7.34986-.98877t-9.09668-.824q-4.779-.36255-9.624-.56031T71.86816,116.82422Z" style="fill: #fff"/>
    <path d="M67.188,56.37744a49.75488,49.75488,0,0,0,.52734,7.48169q.52734,3.46069,1.25244,7.11914t1.48316,7.84424q.75805,4.1858,1.2854,9.657H72V36.4043a29.92981,29.92981,0,0,0-2.53784,5.30639,35.37469,35.37469,0,0,0-1.4502,5.24048,41.32526,41.32526,0,0,0-.65918,4.97681Q67.188,54.334,67.188,56.37744Z" style="fill: #fff"/>
    <path d="M113.52832,61.32129a16.768,16.768,0,0,0-.824-5.27344,12.14085,12.14085,0,0,0-2.47193-4.35058,11.87807,11.87807,0,0,0-4.08691-2.93335,13.6323,13.6323,0,0,0-5.603-1.08765,14.31981,14.31981,0,0,0-7.08618,1.77978,20.23309,20.23309,0,0,0-5.70191,4.77906,32.61019,32.61019,0,0,0-4.38354,6.95434,56.3617,56.3617,0,0,0-3.16406,8.33863,78.14541,78.14541,0,0,0-2.99927,17.699,21.73817,21.73817,0,0,0,3.59253.69214,39.90006,39.90006,0,0,0,4.51538.23071,29.59912,29.59912,0,0,0,10.34912-1.87866,28.39864,28.39864,0,0,0,9.03076-5.37231,27.14386,27.14386,0,0,0,6.394-8.4375A24.84313,24.84313,0,0,0,113.52832,61.32129Z" style="fill: #fff"/>
    <path d="M109.30957,61.32129a20.84863,20.84863,0,0,1-2.07642,9.39331,22.74124,22.74124,0,0,1-5.43823,7.11914,24.26358,24.26358,0,0,1-7.67944,4.51538,25.39646,25.39646,0,0,1-8.8,1.582H83.40381a11.2556,11.2556,0,0,1-1.71387-.13183q.3955-3.6255,1.12061-7.38282a65.97976,65.97976,0,0,1,1.8457-7.31689,46.659,46.659,0,0,1,2.66968-6.69067,26.9303,26.9303,0,0,1,3.52661-5.4712,16.02484,16.02484,0,0,1,4.38354-3.6914,10.64987,10.64987,0,0,1,5.3064-1.35132,8.83927,8.83927,0,0,1,3.79028.75806,8.204,8.204,0,0,1,2.7356,2.04345,8.55043,8.55043,0,0,1,1.68091,2.99927A11.59431,11.59431,0,0,1,109.30957,61.32129Z"/>
  </g>
</svg>
