<svg xmlns="http://www.w3.org/2000/svg" width="144" height="144" viewBox="0 0 144 144">
  <g>
    <path d="M61.65088,19.39746a10.33934,10.33934,0,0,1,.791-4.05395,9.99815,9.99815,0,0,1,5.43824-5.43824,11.1244,11.1244,0,0,1,8.23974,0,9.99815,9.99815,0,0,1,5.43824,5.43824,10.33934,10.33934,0,0,1,.791,4.05395A8.847,8.847,0,0,1,80.833,24.47314a84.576,84.576,0,0,1,7.8772,6.39405,43.75564,43.75564,0,0,1,6.36108,7.251A33.66246,33.66246,0,0,1,99.323,46.58862a31.00746,31.00746,0,0,1,1.54907,9.98658,33.558,33.558,0,0,1-.88989,7.94311A38.30958,38.30958,0,0,1,97.708,71.24194a33.34909,33.34909,0,0,1-3.13111,5.53711q-1.74682,2.47193-3.46069,4.44947L95.99414,98.7627a27.94813,27.94813,0,0,1-7.58057,3.29589,56.00721,56.00721,0,0,1-9.42627,1.77979,25.706,25.706,0,0,0,5.96558,1.71387q3.197.5287,6.62476.791,3.42773.26367,6.95434.46143t6.88843.59326l8.10791,7.64648a21.39794,21.39794,0,0,1-1.38428,6.55884,22.53045,22.53045,0,0,1-7.81128,10.15137,24.41813,24.41813,0,0,1-5.83374,3.1311l-8.833-9.42627q1.18652-.52734,2.66967-1.25244a20.17307,20.17307,0,0,0,2.86743-1.71387,12.92057,12.92057,0,0,0,2.47193-2.30712,7.255,7.255,0,0,0,1.48315-3.03223,72.822,72.822,0,0,1-8.50341-.92285,30.30508,30.30508,0,0,1-6.98731-2.07642,24.00317,24.00317,0,0,1-5.99853-3.79028,35.70059,35.70059,0,0,1-5.53711-6.19629h-.26368a35.70059,35.70059,0,0,1-5.53711,6.19629,24.00317,24.00317,0,0,1-5.99853,3.79028,30.30508,30.30508,0,0,1-6.98731,2.07642,72.822,72.822,0,0,1-8.50341.92285A7.255,7.255,0,0,0,46.325,120.186a12.92057,12.92057,0,0,0,2.47193,2.30712,20.17307,20.17307,0,0,0,2.86743,1.71387q1.48316.7251,2.66967,1.25244l-8.833,9.42627a24.41813,24.41813,0,0,1-5.83374-3.1311A22.53045,22.53045,0,0,1,31.856,121.60327a21.39794,21.39794,0,0,1-1.38428-6.55884l8.10791-7.64648q3.36181-.3955,6.88843-.59326t6.95434-.46143q3.42774-.26229,6.62476-.791a25.706,25.706,0,0,0,5.96558-1.71387,56.00721,56.00721,0,0,1-9.42627-1.77979,27.94813,27.94813,0,0,1-7.58057-3.29589l4.87793-17.53418Q51.16992,79.251,49.4231,76.77905A33.34909,33.34909,0,0,1,46.292,71.24194a38.30958,38.30958,0,0,1-2.27417-6.72363,33.558,33.558,0,0,1-.88989-7.94311A31.00746,31.00746,0,0,1,44.677,46.58862a33.66246,33.66246,0,0,1,4.25171-8.47046,43.75564,43.75564,0,0,1,6.36108-7.251,84.576,84.576,0,0,1,7.8772-6.394A8.847,8.847,0,0,1,61.65088,19.39746Z"/>
    <path d="M41.08447,117.35156q-4.21875,0-6.65771-.19775a18.612,18.612,0,0,0,3.23,7.7124,17.69184,17.69184,0,0,0,7.251,5.53711l4.021-4.08691a17.89041,17.89041,0,0,1-4.35059-3.23A14.57174,14.57174,0,0,1,41.08447,117.35156Z" style="fill: #fff"/>
    <path d="M65.34229,106.67285a16.217,16.217,0,0,1-5.53711,1.97754,71.2416,71.2416,0,0,1-7.11914.98877q-3.69141.331-7.11915.49438-3.42773.16481-5.603.49439l-3.49366,3.23q.92286.06592,1.91163.06592h1.97754q3.16405,0,6.62475-.23071a44.39349,44.39349,0,0,0,6.82251-.98877,34.01492,34.01492,0,0,0,6.394-2.10938,18.45576,18.45576,0,0,0,5.40528-3.65845Z" style="fill: #fff"/>
    <path d="M87.55664,77.603a35.257,35.257,0,0,0,3.55957-4.5813,28.06352,28.06352,0,0,0,2.53784-4.91089,27.18846,27.18846,0,0,0,1.51612-5.43823,36.29076,36.29076,0,0,0,.49438-6.16333,30.69015,30.69015,0,0,0-1.08765-8.17383,27.499,27.499,0,0,0-3.59252-7.77832,41.45333,41.45333,0,0,0-6.55884-7.58057,67.5344,67.5344,0,0,0-10.05249-7.51465,13.62724,13.62724,0,0,0,2.30713-2.34008,6.01778,6.01778,0,0,0,.98877-3.72437,6.02207,6.02207,0,0,0-1.582-4.18579,5.65431,5.65431,0,0,0-8.17382,0,6.02207,6.02207,0,0,0-1.582,4.18579,6.01778,6.01778,0,0,0,.98877,3.72437,13.62724,13.62724,0,0,0,2.30713,2.34008,67.5344,67.5344,0,0,0-10.05249,7.51465,41.45333,41.45333,0,0,0-6.55884,7.58057,27.499,27.499,0,0,0-3.59252,7.77832,30.69015,30.69015,0,0,0-1.08765,8.17383,36.29076,36.29076,0,0,0,.49438,6.16333A27.18846,27.18846,0,0,0,50.346,68.11084a28.06352,28.06352,0,0,0,2.53784,4.91089,35.257,35.257,0,0,0,3.55957,4.5813Z" style="fill: #fff"/>
    <path d="M90.523,96.85107a51.96261,51.96261,0,0,0-6.82251-1.18652A96.17824,96.17824,0,0,0,72,95.07129a96.17824,96.17824,0,0,0-11.70044.59326,51.96261,51.96261,0,0,0-6.82251,1.18652q0,.46143,1.51611,1.05469a24.09193,24.09193,0,0,0,4.08692,1.08765q2.57081.49438,5.89966.85693a67.83079,67.83079,0,0,0,14.00756,0q3.36183-.36117,5.93262-.85693a24.09193,24.09193,0,0,0,4.08692-1.08765Q90.523,97.3125,90.523,96.85107Z" style="fill: #fff"/>
    <path d="M72,91.11621q1.97754,0,4.25171.09888t4.61426.26367q2.34009.16479,4.5813.42847t4.15283.65918l-2.5708-10.481H56.9707l-2.5708,10.481q1.8457-.39552,4.11988-.65918,2.27417-.2623,4.61425-.42847,2.34009-.16342,4.61426-.26367Q70.02245,91.11621,72,91.11621Z" style="fill: #fff"/>
    <polygon points="85.052 43.26 85.052 47.544 74.241 47.544 74.241 72.923 69.759 72.923 69.759 47.544 58.948 47.544 58.948 43.26 69.759 43.26 69.759 31.79 74.241 31.79 74.241 43.26 85.052 43.26"/>
    <path d="M78.394,106.93652a18.45576,18.45576,0,0,0,5.40528,3.65845,34.01492,34.01492,0,0,0,6.394,2.10938,44.39349,44.39349,0,0,0,6.82251.98877q3.46069.23208,6.62475.23071h1.97754q.98877,0,1.91163-.06592l-3.49366-3.23q-2.17529-.3296-5.603-.49439-3.42774-.16341-7.11915-.49438a71.2416,71.2416,0,0,1-7.11914-.98877,16.217,16.217,0,0,1-5.53711-1.97754Z" style="fill: #fff"/>
    <path d="M102.91553,117.35156a14.29641,14.29641,0,0,1-2.14234,4.08692,18.75061,18.75061,0,0,1-2.60376,2.76855,19.33112,19.33112,0,0,1-3.09814,2.10938l4.021,4.08691a17.69184,17.69184,0,0,0,7.251-5.53711,18.612,18.612,0,0,0,3.23-7.7124Q107.06836,117.35156,102.91553,117.35156Z" style="fill: #fff"/>
  </g>
</svg>
