<svg xmlns="http://www.w3.org/2000/svg" width="153" height="144" viewBox="0 0 153 144">
  <g>
    <path d="M68.19388,30.07617a8.39237,8.39237,0,0,1,.7251-3.59253,8.18037,8.18037,0,0,1,1.87866-2.60376,7.78023,7.78023,0,0,1,2.60376-1.582,8.6175,8.6175,0,0,1,2.96631-.52734,9.17916,9.17916,0,0,1,3.03222.52734,8.27462,8.27462,0,0,1,2.70264,1.54907,7.86939,7.86939,0,0,1,1.94458,2.60376,8.29525,8.29525,0,0,1,.75806,3.62549,7.70769,7.70769,0,0,1-1.648,5.20752,8.5118,8.5118,0,0,1-3.95508,2.63672l7.51465,33.22266,10.415-29.00391a7.72725,7.72725,0,0,1-4.021-2.86743,7.9963,7.9963,0,0,1-1.51611-4.845,8.29525,8.29525,0,0,1,.75805-3.62549,8.00477,8.00477,0,0,1,1.97754-2.63672,8.44171,8.44171,0,0,1,2.70264-1.582,8.89554,8.89554,0,0,1,2.99927-.52734,9.17916,9.17916,0,0,1,3.03222.52734,7.996,7.996,0,0,1,2.70264,1.582,7.84448,7.84448,0,0,1,1.91162,2.63672,8.61608,8.61608,0,0,1,.7251,3.62549,8.36813,8.36813,0,0,1-.49439,2.83447,7.88244,7.88244,0,0,1-1.41723,2.47192,8.37619,8.37619,0,0,1-2.24121,1.84571,7.73066,7.73066,0,0,1-2.96631.95581l2.76855,29.86084L117.96194,51.104a7.79172,7.79172,0,0,1-3.03222-2.99926,8.489,8.489,0,0,1-1.12061-4.31763,8.08105,8.08105,0,0,1,.75806-3.59253,8.34878,8.34878,0,0,1,1.94458-2.60376,7.99591,7.99591,0,0,1,2.70264-1.582,9.17916,9.17916,0,0,1,3.03222-.52734,8.89558,8.89558,0,0,1,2.99927.52734,7.70973,7.70973,0,0,1,2.63672,1.582,8.18067,8.18067,0,0,1,1.87866,2.60376,8.39234,8.39234,0,0,1,.7251,3.59253,8.6038,8.6038,0,0,1-.5603,3.06518,8.11566,8.11566,0,0,1-1.615,2.63672,7.45493,7.45493,0,0,1-2.57081,1.81275,8.516,8.516,0,0,1-3.42773.65918h-1.1206l-5.4712,35.99121v31.70654q-9.55811,1.31973-19.74243,1.94458-10.18433.6276-19.61059.62622-9.68994,0-19.70856-.62622-10.01953-.62622-19.51172-1.94458V87.95215L31.80807,51.96094h-1.1206a8.516,8.516,0,0,1-3.42773-.65918A7.45493,7.45493,0,0,1,24.68893,49.489a8.11566,8.11566,0,0,1-1.615-2.63672,8.6038,8.6038,0,0,1-.5603-3.06518,8.39234,8.39234,0,0,1,.7251-3.59253,8.18067,8.18067,0,0,1,1.87866-2.60376,7.70973,7.70973,0,0,1,2.63672-1.582,8.89558,8.89558,0,0,1,2.99927-.52734,9.17916,9.17916,0,0,1,3.03222.52734,7.99591,7.99591,0,0,1,2.70264,1.582,8.34878,8.34878,0,0,1,1.94458,2.60376,8.08105,8.08105,0,0,1,.75806,3.59253,8.489,8.489,0,0,1-1.12061,4.31763A7.79172,7.79172,0,0,1,35.03806,51.104L48.94675,72.39551,51.7153,42.53467a7.73066,7.73066,0,0,1-2.96631-.95581,8.37619,8.37619,0,0,1-2.24121-1.84571,7.88244,7.88244,0,0,1-1.41723-2.47192,8.36813,8.36813,0,0,1-.49439-2.83447,8.61608,8.61608,0,0,1,.7251-3.62549,7.84448,7.84448,0,0,1,1.91162-2.63672,7.996,7.996,0,0,1,2.70264-1.582,9.17916,9.17916,0,0,1,3.03222-.52734,8.99753,8.99753,0,0,1,2.96631.52734,8.36106,8.36106,0,0,1,2.7356,1.582,8.00477,8.00477,0,0,1,1.97754,2.63672,8.29525,8.29525,0,0,1,.758,3.62549,7.9963,7.9963,0,0,1-1.51611,4.845,7.72725,7.72725,0,0,1-4.021,2.86743L66.28226,71.14307l7.51465-33.22266a8.5117,8.5117,0,0,1-3.95508-2.63672A7.70764,7.70764,0,0,1,68.19388,30.07617Z"/>
    <path d="M26.86423,43.78711a3.59278,3.59278,0,0,0,1.21948,2.96631,4.27013,4.27013,0,0,0,5.50415-.033,3.56666,3.56666,0,0,0,1.25244-2.93335,3.473,3.473,0,0,0-1.25244-2.90039,4.38138,4.38138,0,0,0-5.50415-.033A3.49661,3.49661,0,0,0,26.86423,43.78711Z" style="fill: #fff"/>
    <path d="M41.30026,83.99707q.65919-.06454,1.77979-.09888,1.1206-.033,2.373-.09887,1.25245-.06454,2.47193-.09888,1.21948-.033,2.14233-.033L37.4111,62.70557Z" style="fill: #fff"/>
    <path d="M41.69577,95.73047q3.75732-.19776,8.14087-.32959t8.93188-.19776q4.54834-.06453,9.06281-.09887,4.51537-.033,8.53638-.033,3.95508,0,8.50341.033,4.54834.03434,9.1626.09887,4.61425.06592,9.06372.19776,4.44946.13321,8.20679.32959v-7.7124q-4.021-.19776-8.50342-.39551t-9.03076-.29663q-4.54834-.09888-8.9978-.1648-4.44946-.06454-8.40454-.06592-3.88917,0-8.27271.06592-4.38217.06592-8.931.1648-4.54833.09888-8.9978.29663t-8.47046.39551Z" style="fill: #fff"/>
    <path d="M76.36771,106.07959q4.021,0,8.56933-.033t9.12964-.06592q4.5813-.033,9.03076-.13183t8.20679-.23072V100.147q-3.75732-.13184-8.20679-.26367t-9.03076-.19775q-4.5813-.06455-9.12964-.09888-4.54833-.033-8.56933-.033-3.95508,0-8.47046.033-4.514.03433-9.09577.09888-4.5813.06591-8.96484.19775-4.38354.13321-8.14087.26367v5.47119q3.75732.13321,8.14087.23072,4.38354.09887,8.96484.13183,4.5813.03434,9.09577.06592Q72.41262,106.081,76.36771,106.07959Z" style="fill: #fff"/>
    <path d="M76.36771,117.41748q4.021,0,8.63525-.16479,4.61426-.16343,9.26147-.46143,4.64722-.29663,9.06373-.69214t7.97607-.92285v-4.94385q-3.75732.19776-8.20679.32959-4.44947.13321-9.03076.23071-4.5813.09888-9.12964.13184-4.54833.03434-8.56933.033-3.95508,0-8.47046-.033-4.514-.033-9.06281-.13184-4.54833-.09887-8.96484-.23071t-8.17383-.32959v4.94385q3.55958.52872,7.94312.92285,4.38354.39551,9.03076.69214t9.19464.46143Q72.41262,117.41748,76.36771,117.41748Z" style="fill: #fff"/>
    <path d="M49.01266,34.42676a3.51347,3.51347,0,0,0,1.21949,2.90039,4.3223,4.3223,0,0,0,2.80151.98877,4.022,4.022,0,0,0,2.70264-1.02173,3.58034,3.58034,0,0,0,1.18652-2.86743,3.74252,3.74252,0,0,0-1.18652-2.99927,4.02654,4.02654,0,0,0-2.70264-1.02173,4.3223,4.3223,0,0,0-2.80151.98877A3.674,3.674,0,0,0,49.01266,34.42676Z" style="fill: #fff"/>
    <path d="M52.24265,83.46973q3.03222-.13183,6.36108-.23072t6.55884-.23071L55.0112,53.2793Z" style="fill: #fff"/>
    <path d="M76.36771,82.87646q2.10938,0,4.28466.033,2.1753.03434,4.35059.09888L76.49954,45.10547,67.99612,83.0083q2.1753-.06454,4.28467-.09888Q74.39017,82.87647,76.36771,82.87646Z" style="fill: #fff"/>
    <path d="M72.54446,30.07617a3.87314,3.87314,0,0,0,1.12061,2.96631,3.80208,3.80208,0,0,0,2.70264,1.05469,4.28675,4.28675,0,0,0,2.90039-1.02173,3.74125,3.74125,0,0,0,1.18652-2.99927,3.76164,3.76164,0,0,0-1.18652-2.96631,4.21441,4.21441,0,0,0-2.90039-1.05468,3.77493,3.77493,0,0,0-2.7356,1.05468A3.94048,3.94048,0,0,0,72.54446,30.07617Z" style="fill: #fff"/>
    <path d="M97.79105,53.21338,87.83743,83.0083q3.23.13321,6.55884.23071,3.32886.09888,6.36108.23072Z" style="fill: #fff"/>
    <path d="M103.98734,34.42676a3.674,3.674,0,0,0-1.21949-3.03223,4.3223,4.3223,0,0,0-2.80151-.98877,4.02654,4.02654,0,0,0-2.70264,1.02173,3.74252,3.74252,0,0,0-1.18652,2.99927,3.58034,3.58034,0,0,0,1.18652,2.86743,4.022,4.022,0,0,0,2.70264,1.02173,4.3223,4.3223,0,0,0,2.80151-.98877A3.51347,3.51347,0,0,0,103.98734,34.42676Z" style="fill: #fff"/>
    <path d="M115.5889,62.70557,102.93265,83.66748q.85694,0,2.10937.033,1.25244.03434,2.50489.09888,1.25244.06591,2.373.09887,1.1206.03433,1.77979.09888Z" style="fill: #fff"/>
    <path d="M126.13577,43.78711a3.49661,3.49661,0,0,0-1.21948-2.93335,4.38138,4.38138,0,0,0-5.50415.033,3.473,3.473,0,0,0-1.25244,2.90039,3.56666,3.56666,0,0,0,1.25244,2.93335,4.27013,4.27013,0,0,0,5.50415.033A3.59278,3.59278,0,0,0,126.13577,43.78711Z" style="fill: #fff"/>
  </g>
</svg>
