<svg xmlns="http://www.w3.org/2000/svg" width="144" height="144" viewBox="0 0 144 144">
  <g>
    <path d="M38.41479,119.92236v-2.373a21.9243,21.9243,0,0,1,.7251-5.93262,11.11345,11.11345,0,0,1,2.27417-4.35059,9.71785,9.71785,0,0,1,4.021-2.70263,17.103,17.103,0,0,1,5.96557-.92286h.46143a3.50383,3.50383,0,0,1-.32959-1.582,6.14926,6.14926,0,0,1,.42847-2.27417,5.55342,5.55342,0,0,1,1.25244-1.91162,6.28163,6.28163,0,0,1,2.14233-1.35132,8.31493,8.31493,0,0,1,3.09815-.52734h.39551A36.12869,36.12869,0,0,0,61.585,89.99561a44.12056,44.12056,0,0,0,2.34009-11.272q.19775-2.70262.19775-5.20752V70.08838A6.061,6.061,0,0,1,60.49731,67.946a5.90854,5.90854,0,0,1-1.25244-3.72436,6.08587,6.08587,0,0,1,.06592-.85693,4.89847,4.89847,0,0,1,.19775-.85694H59.113q-4.61425,0-6.92139-2.30713a7.866,7.866,0,0,1-2.30713-5.80078,7.20647,7.20647,0,0,1,2.50488-5.603A11.047,11.047,0,0,1,59.31079,46.292a14.354,14.354,0,0,1-1.582-3.62549,15.53337,15.53337,0,0,1-.59326-4.35058,14.442,14.442,0,0,1,1.1206-5.76782,13.42626,13.42626,0,0,1,3.09815-4.48243,14.13968,14.13968,0,0,1,4.71313-2.93335A16.447,16.447,0,0,1,72.033,24.07764a16.25988,16.25988,0,0,1,5.89966,1.05468,14.13968,14.13968,0,0,1,4.71313,2.93335A13.42626,13.42626,0,0,1,85.7439,32.5481a14.442,14.442,0,0,1,1.1206,5.76782,15.53337,15.53337,0,0,1-.59326,4.35058,14.354,14.354,0,0,1-1.582,3.62549,11.047,11.047,0,0,1,6.92139,2.50489,7.20647,7.20647,0,0,1,2.50488,5.603,7.866,7.866,0,0,1-2.30713,5.80078q-2.30714,2.30714-6.92139,2.30713h-.3955a4.89847,4.89847,0,0,1,.19775.85694,6.08587,6.08587,0,0,1,.06592.85693A5.90854,5.90854,0,0,1,83.50269,67.946a6.061,6.061,0,0,1-3.62549,2.14234v3.42773q0,2.5049.19775,5.20752a44.12056,44.12056,0,0,0,2.34009,11.272,36.12869,36.12869,0,0,0,2.73559,5.99853h.39551a8.31493,8.31493,0,0,1,3.09815.52734,6.28163,6.28163,0,0,1,2.14233,1.35132,5.55342,5.55342,0,0,1,1.25244,1.91162,6.14926,6.14926,0,0,1,.42847,2.27417,3.50383,3.50383,0,0,1-.32959,1.582h.46143q6.9873,0,9.98657,3.62549t2.99927,10.28321v2.373Z"/>
    <path d="M51.33472,108.12305a9.57435,9.57435,0,0,0-4.71314.98877,5.5039,5.5039,0,0,0-2.47192,2.76855H99.85034a5.53934,5.53934,0,0,0-2.439-2.76855,9.53968,9.53968,0,0,0-4.7461-.98877Z" style="fill: #fff"/>
    <path d="M89.17163,54.3999a3.41944,3.41944,0,0,0-1.05469-2.66968,4.57863,4.57863,0,0,0-3.16406-.95581H59.04712a4.57863,4.57863,0,0,0-3.16406.95581,3.41944,3.41944,0,0,0-1.05469,2.66968Z" style="fill: #fff"/>
    <path d="M58.58569,100.47656q-2.04345,0-2.04345,1.64795H87.45776q0-1.64795-2.04345-1.64795Z" style="fill: #fff"/>
    <path d="M67.02319,37.59082a8.78408,8.78408,0,0,1,.59327-3.23,9.77221,9.77221,0,0,1,1.615-2.7356,9.35963,9.35963,0,0,1,2.406-2.04345,8.49362,8.49362,0,0,1,3.03223-1.08765,4.61678,4.61678,0,0,0-1.15357-.29663,9.55051,9.55051,0,0,0-1.35132-.09888q-5.07567,0-7.77832,2.83448a10.25681,10.25681,0,0,0-2.70263,7.38281,10.99143,10.99143,0,0,0,.92285,4.51538,9.46365,9.46365,0,0,0,2.5708,3.46069h7.84424a9.19286,9.19286,0,0,1-4.31763-3.32886A8.97377,8.97377,0,0,1,67.02319,37.59082Z" style="fill: #fff"/>
    <path d="M79.74536,64.15576q0-1.64794-2.10937-1.648H66.364q-2.10937,0-2.10937,1.648Z" style="fill: #fff"/>
    <path d="M68.73706,73.4502a60.55137,60.55137,0,0,1-1.18652,12.09594,48.204,48.204,0,0,1-3.2959,10.448h5.99853V70.22021H68.73706Z" style="fill: #fff"/>
  </g>
</svg>
