<svg xmlns="http://www.w3.org/2000/svg" width="144" height="144" viewBox="0 0 144 144">
  <g>
    <path d="M69.95654,16.62891h4.08692v3.88916h3.75732v3.75732H74.04346v6.78955a45.70661,45.70661,0,0,1,5.40527,10.87647,39.90417,39.90417,0,0,1,2.04346,13.05175,26.64352,26.64352,0,0,1,3.2959-4.48242,23.96437,23.96437,0,0,1,4.28466-3.72436,20.48689,20.48689,0,0,1,5.20752-2.53784,19.46456,19.46456,0,0,1,6.06446-.92286,19.20463,19.20463,0,0,1,7.28393,1.35132,17.03254,17.03254,0,0,1,9.55811,9.55811,19.40613,19.40613,0,0,1,1.35132,7.34985,28.15168,28.15168,0,0,1-1.31836,8.56934,31.2396,31.2396,0,0,1-3.62549,7.67944,29.695,29.695,0,0,1-5.53711,6.29517,27.92332,27.92332,0,0,1-6.98731,4.4165c.7013.04395,1.51612.09888,2.439.1648s1.85486.13183,2.80151.19775q1.41724.09888,2.80152.19775c.92285.06592,1.756.12177,2.50488.1648v35.332q-9.75586,1.38428-19.80835,2.07642t-19.94019.69213q-9.88769,0-19.4458-.69213T32.3833,124.60254v-35.332q1.12061-.06455,2.50488-.1648c.92286-.06592,1.85486-.13183,2.80152-.19775q1.41723-.09888,2.76855-.19775,1.34858-.09888,2.47193-.1648a27.89051,27.89051,0,0,1-6.98731-4.4165,29.59344,29.59344,0,0,1-5.53711-6.29517,31.10737,31.10737,0,0,1-3.62549-7.67944A28.09561,28.09561,0,0,1,25.46191,61.585a19.3708,19.3708,0,0,1,1.35132-7.34985A17.03254,17.03254,0,0,1,36.37134,44.677a19.19792,19.19792,0,0,1,7.28393-1.35132,19.48125,19.48125,0,0,1,6.06446.92286,20.51681,20.51681,0,0,1,5.20752,2.53784,24.02806,24.02806,0,0,1,4.28466,3.72436,26.74459,26.74459,0,0,1,3.2959,4.48242,39.85548,39.85548,0,0,1,2.04346-13.05175,45.63806,45.63806,0,0,1,5.40527-10.87647V24.27539H66.19922V20.51807h3.75732Z"/>
    <path d="M30.47168,61.32129a24.84313,24.84313,0,0,0,2.439,11.14014,27.116,27.116,0,0,0,6.39405,8.4375,28.362,28.362,0,0,0,9.03076,5.37231A29.59155,29.59155,0,0,0,58.68457,88.1499,39.71168,39.71168,0,0,0,63.2,87.91919a21.73817,21.73817,0,0,0,3.59253-.69214q-.26367-4.15283-.98877-8.73413a71.96876,71.96876,0,0,0-2.0105-8.96484,56.3617,56.3617,0,0,0-3.16406-8.33863,32.633,32.633,0,0,0-4.38354-6.95434,20.25845,20.25845,0,0,0-5.70191-4.77906,14.32478,14.32478,0,0,0-7.08618-1.77978,13.62624,13.62624,0,0,0-5.603,1.08765,11.87263,11.87263,0,0,0-4.08691,2.93335,12.14085,12.14085,0,0,0-2.47193,4.35058A16.71986,16.71986,0,0,0,30.47168,61.32129Z" style="fill: #fff"/>
    <path d="M37.12939,100.87207q8.833-.32959,17.27051-.49438,8.4375-.16343,17.33643-.1648h.52734q8.89893,0,17.33643.1648t17.27051.49438v-7.7124q-8.2425-.46005-17.30347-.69214-9.06372-.23071-17.83081-.23071-8.638,0-17.6001.23071-8.96484.23208-17.00684.69214Z" style="fill: #fff"/>
    <path d="M72.26367,110.62793q8.833,0,17.33643-.033t17.27051-.36255v-5.73486q-8.70118-.32959-17.27051-.39551-8.56933-.06454-17.33643-.06592h-.52734q-8.76709,0-17.33643.06592t-17.27051.39551v5.73486q8.76435.331,17.27051.36255,8.50342.03433,17.33643.033Z" style="fill: #fff"/>
    <path d="M106.87061,113.792q-8.70118.39551-17.27051.52735-8.56933.1332-17.33643.13183h-.52734q-8.76709,0-17.33643-.13183T37.12939,113.792v6.52588q8.042,1.122,17.0398,1.68091,8.9978.5603,17.76489.5603,4.35058,0,8.866-.13183,4.51263-.13184,8.9978-.42847,4.48242-.29662,8.8-.7251,4.31489-.42846,8.27271-.95581Z" style="fill: #fff"/>
    <path d="M67.188,56.37744a45.64813,45.64813,0,0,0,.5603,7.41577q.55757,3.39615,1.2854,6.98731.7251,3.5939,1.51611,7.74536.791,4.15283,1.31836,9.624h.26368a87.09736,87.09736,0,0,1,1.2854-9.624q.824-4.15284,1.54907-7.74536t1.2854-6.98731a45.85455,45.85455,0,0,0,.5603-7.41577q0-2.04209-.16479-4.44946a37.55376,37.55376,0,0,0-.69214-4.97681,42.00734,42.00734,0,0,0-1.4502-5.24048A28.39321,28.39321,0,0,0,72,36.4043a29.80218,29.80218,0,0,0-2.53784,5.30639,35.37469,35.37469,0,0,0-1.4502,5.24048,40.96054,40.96054,0,0,0-.65918,4.97681Q67.188,54.33536,67.188,56.37744Z" style="fill: #fff"/>
    <path d="M113.52832,61.32129a16.77223,16.77223,0,0,0-.824-5.27344,12.19542,12.19542,0,0,0-2.47193-4.35058,11.90741,11.90741,0,0,0-4.08691-2.93335,13.6323,13.6323,0,0,0-5.603-1.08765,14.31485,14.31485,0,0,0-7.08618,1.77978,20.20779,20.20779,0,0,0-5.70191,4.77906,32.56094,32.56094,0,0,0-4.38354,6.95434,56.3617,56.3617,0,0,0-3.16406,8.33863,78.14541,78.14541,0,0,0-2.99927,17.699,21.70084,21.70084,0,0,0,3.59253.69214,39.66592,39.66592,0,0,0,4.51538.23071,29.60666,29.60666,0,0,0,10.34912-1.87866,28.382,28.382,0,0,0,9.03076-5.37231,27.14386,27.14386,0,0,0,6.394-8.4375A24.86758,24.86758,0,0,0,113.52832,61.32129Z" style="fill: #fff"/>
  </g>
</svg>
