<svg xmlns="http://www.w3.org/2000/svg" width="144" height="144" viewBox="0 0 144 144">
  <g>
    <path d="M38.41479,119.92236v-2.373a21.9243,21.9243,0,0,1,.7251-5.93262,11.11345,11.11345,0,0,1,2.27417-4.35059,9.7266,9.7266,0,0,1,4.021-2.70263,17.103,17.103,0,0,1,5.96557-.92286h.46143a3.49843,3.49843,0,0,1-.32959-1.582,6.14926,6.14926,0,0,1,.42847-2.27417,5.562,5.562,0,0,1,1.25244-1.91162,6.29537,6.29537,0,0,1,2.14233-1.35132,8.31493,8.31493,0,0,1,3.09815-.52734h.39551A36.09507,36.09507,0,0,0,61.585,89.99561a44.12056,44.12056,0,0,0,2.34009-11.272q.19775-2.70262.19775-5.20752V70.08838A6.0566,6.0566,0,0,1,60.49731,67.946a5.9067,5.9067,0,0,1-1.25244-3.72436,6.08587,6.08587,0,0,1,.06592-.85693,4.91769,4.91769,0,0,1,.19775-.85694H59.113q-4.61425,0-6.92139-2.30713a7.86452,7.86452,0,0,1-2.30713-5.80078,7.20647,7.20647,0,0,1,2.50488-5.603A11.05232,11.05232,0,0,1,59.31079,46.292a14.354,14.354,0,0,1-1.582-3.62549,15.524,15.524,0,0,1-.59326-4.35058,14.44511,14.44511,0,0,1,1.1206-5.76782,13.66747,13.66747,0,0,1,3.06519-4.48243,13.99687,13.99687,0,0,1,4.5813-2.93335,15.13993,15.13993,0,0,1,5.66894-1.05468h.85694a15.13993,15.13993,0,0,1,5.66894,1.05468,13.99687,13.99687,0,0,1,4.5813,2.93335A13.66747,13.66747,0,0,1,85.7439,32.5481a14.44511,14.44511,0,0,1,1.1206,5.76782,15.524,15.524,0,0,1-.59326,4.35058,14.354,14.354,0,0,1-1.582,3.62549,11.05232,11.05232,0,0,1,6.92139,2.50489,7.20647,7.20647,0,0,1,2.50488,5.603,7.86452,7.86452,0,0,1-2.30713,5.80078Q89.50121,62.5092,84.887,62.50781h-.3955a4.91769,4.91769,0,0,1,.19775.85694,6.08587,6.08587,0,0,1,.06592.85693A5.9067,5.9067,0,0,1,83.50269,67.946a6.0566,6.0566,0,0,1-3.62549,2.14234v3.42773q0,2.50626.19775,5.20752a44.12056,44.12056,0,0,0,2.34009,11.272,36.09507,36.09507,0,0,0,2.73559,5.99853h.39551a8.31493,8.31493,0,0,1,3.09815.52734,6.29537,6.29537,0,0,1,2.14233,1.35132,5.562,5.562,0,0,1,1.25244,1.91162,6.14926,6.14926,0,0,1,.42847,2.27417,3.49843,3.49843,0,0,1-.32959,1.582h.46143q6.9873,0,9.98657,3.62549t2.99927,10.28321v2.373Z"/>
    <path d="M51.33472,108.12305q-4.28467,0-5.99854,1.94458a8.16013,8.16013,0,0,0-1.8457,5.24048h57.019a8.16013,8.16013,0,0,0-1.8457-5.24048q-1.71387-1.9432-5.99854-1.94458Z" style="fill: #fff"/>
    <path d="M54.82837,54.3999a3.5237,3.5237,0,0,0,1.05469,2.70264,4.47691,4.47691,0,0,0,3.16406.98877H84.95288a4.47691,4.47691,0,0,0,3.16406-.98877,3.5237,3.5237,0,0,0,1.05469-2.70264,3.41944,3.41944,0,0,0-1.05469-2.66968,4.58315,4.58315,0,0,0-3.16406-.95581H59.04712a4.58315,4.58315,0,0,0-3.16406.95581A3.41944,3.41944,0,0,0,54.82837,54.3999Z" style="fill: #fff"/>
    <path d="M85.41431,103.64062q2.04345,0,2.04345-1.51611,0-1.64658-2.04345-1.64795H58.58569q-2.04345,0-2.04345,1.64795,0,1.51749,2.04345,1.51611Z" style="fill: #fff"/>
    <path d="M61.68384,38.31592a10.99143,10.99143,0,0,0,.92285,4.51538,9.46365,9.46365,0,0,0,2.5708,3.46069h13.645a9.46365,9.46365,0,0,0,2.5708-3.46069,11.681,11.681,0,0,0,.19775-8.6023,9.76919,9.76919,0,0,0-2.01049-3.197,8.61222,8.61222,0,0,0-3.13111-2.07641,10.90157,10.90157,0,0,0-4.021-.7251h-.85694a10.90157,10.90157,0,0,0-4.021.7251A8.61222,8.61222,0,0,0,64.41943,31.032a9.76919,9.76919,0,0,0-2.01049,3.197A11.09161,11.09161,0,0,0,61.68384,38.31592Z" style="fill: #fff"/>
    <path d="M64.25464,64.15576q0,1.582,2.10937,1.582H77.636q2.10938,0,2.10937-1.582,0-1.64658-2.10937-1.648H66.364Q64.25463,62.50781,64.25464,64.15576Z" style="fill: #fff"/>
    <path d="M68.73706,73.4502a60.54464,60.54464,0,0,1-1.18652,12.09594,48.188,48.188,0,0,1-3.2959,10.448H79.74536a48.188,48.188,0,0,1-3.2959-10.448A60.54464,60.54464,0,0,1,75.26294,73.4502v-3.23H68.73706Z" style="fill: #fff"/>
  </g>
</svg>
