<svg xmlns="http://www.w3.org/2000/svg" width="144" height="144" viewBox="0 0 144 144">
  <g>
    <polygon points="89.96 31.81 89.96 24.5 104.53 24.5 104.53 49.02 99.52 49.02 92.73 58.64 92.73 85.2 99.52 94.89 104.53 94.89 104.53 104.65 113.49 104.65 113.49 119.02 30.96 119.02 30.96 104.65 39.93 104.65 39.93 94.89 44.67 94.89 51.73 85.2 51.73 58.64 44.74 49.02 39.93 49.02 39.93 24.5 54.23 24.5 54.23 31.81 62.14 31.81 62.14 24.5 82.11 24.5 82.11 31.81 89.96 31.81"/>
    <rect x="35.71" y="109.33" width="73.17" height="5.08" style="fill: #fff"/>
    <polygon points="99.78 44.6 99.78 28.84 94.37 28.84 94.37 36.36 77.76 36.36 77.76 28.84 66.56 28.84 66.56 36.36 49.88 36.36 49.88 28.84 44.47 28.84 44.47 44.6 99.78 44.6" style="fill: #fff"/>
    <rect x="44.47" y="99.44" width="55.31" height="5.21" style="fill: #fff"/>
    <polygon points="50.01 94.89 94.11 94.89 90.62 89.82 53.84 89.82 50.01 94.89" style="fill: #fff"/>
    <polygon points="53.84 54.03 90.62 54.03 94.18 49.02 50.08 49.02 53.84 54.03" style="fill: #fff"/>
    <rect x="56.34" y="58.64" width="31.84" height="26.56" style="fill: #fff"/>
  </g>
</svg>
