<svg xmlns="http://www.w3.org/2000/svg" width="144" height="144" viewBox="0 0 144 144">
  <g>
    <polygon points="89.958 31.812 89.958 24.495 104.526 24.495 104.526 49.016 99.516 49.016 92.726 58.64 92.726 85.205 99.516 94.895 104.526 94.895 104.526 104.651 113.49 104.651 113.49 119.021 30.961 119.021 30.961 104.651 39.926 104.651 39.926 94.895 44.672 94.895 51.725 85.205 51.725 58.64 44.738 49.016 39.926 49.016 39.926 24.495 54.23 24.495 54.23 31.812 62.14 31.812 62.14 24.495 82.114 24.495 82.114 31.812 89.958 31.812"/>
    <rect x="35.70725" y="109.33131" width="73.16895" height="5.07568" style="fill: #fff"/>
    <polygon points="99.78 44.6 99.78 28.845 94.374 28.845 94.374 36.36 77.763 36.36 77.763 28.845 66.557 28.845 66.557 36.36 49.88 36.36 49.88 28.845 44.474 28.845 44.474 44.6 99.78 44.6" style="fill: #fff"/>
    <rect x="44.47434" y="99.44361" width="55.30518" height="5.20752" style="fill: #fff"/>
    <polygon points="50.011 94.895 94.111 94.895 90.617 89.82 53.835 89.82 50.011 94.895" style="fill: #fff"/>
    <polygon points="53.835 54.026 90.617 54.026 94.176 49.016 50.077 49.016 53.835 54.026" style="fill: #fff"/>
    <rect x="56.33958" y="58.64039" width="31.83838" height="26.56494" style="fill: #fff"/>
  </g>
</svg>
