<svg xmlns="http://www.w3.org/2000/svg" width="144" height="144" viewBox="0 0 144 144">
  <g>
    <polygon points="89.73 32.05 89.73 24.74 104.3 24.74 104.3 49.26 99.29 49.26 92.5 58.88 92.5 85.45 99.29 95.14 104.3 95.14 104.3 104.89 113.27 104.89 113.27 119.26 30.73 119.26 30.73 104.89 39.7 104.89 39.7 95.14 44.45 95.14 51.5 85.45 51.5 58.88 44.51 49.26 39.7 49.26 39.7 24.74 54 24.74 54 32.05 61.91 32.05 61.91 24.74 81.89 24.74 81.89 32.05 89.73 32.05"/>
    <rect x="44.58" y="40.23" width="54.98" height="2.44" style="fill: #fff"/>
    <rect x="44.58" y="99.75" width="54.98" height="2.44" style="fill: #fff"/>
    <polygon points="51.96 49.92 53.74 52.36 90.39 52.36 92.11 49.92 51.96 49.92" style="fill: #fff"/>
    <polygon points="92.11 92.57 90.39 90.13 53.74 90.13 51.96 92.57 92.11 92.57" style="fill: #fff"/>
  </g>
</svg>
