<svg xmlns="http://www.w3.org/2000/svg" width="144" height="144" viewBox="0 0 144 144">
  <g>
    <path d="M50.14819,121.99878a31.67013,31.67013,0,0,1-1.31836-4.4165,30.51278,30.51278,0,0,1-.59326-6.65772,21.40535,21.40535,0,0,1,1.84571-9.03076A32.9185,32.9185,0,0,1,54.69653,94.544a55.45832,55.45832,0,0,1,6.0315-6.19629q3.26294-2.86743,6.03149-5.603a35.40593,35.40593,0,0,0,4.61426-5.50415,10.60354,10.60354,0,0,0,1.8457-5.99854,17.868,17.868,0,0,1-5.30639,3.52661,23.89,23.89,0,0,1-8.6023,1.74683,25.83833,25.83833,0,0,1-4.021,2.439,32.0044,32.0044,0,0,1-4.35058,1.71386,20.56906,20.56906,0,0,1-4.25171,3.72437,8.26007,8.26007,0,0,1-4.51538,1.41723,8.72445,8.72445,0,0,1-3.55957-.72509,10.76729,10.76729,0,0,1-2.99927-1.97754,12.40742,12.40742,0,0,1-2.30713-2.90039,13.40132,13.40132,0,0,1-1.41723-3.49366,7.36439,7.36439,0,0,1-1.08765-2.60375,13.34037,13.34037,0,0,1-.29663-2.7356,4.46316,4.46316,0,0,1,.65918-2.20825,13.63947,13.63947,0,0,1,1.582-2.20825,15.07608,15.07608,0,0,1,1.91162-1.84571,12.29079,12.29079,0,0,1,1.71387-1.18652q2.24121-2.96631,3.988-5.1416t3.42773-4.054q1.6809-1.87866,3.49365-3.72436,1.81275-1.84434,4.31763-4.15284a4.08742,4.08742,0,0,1-.13184-.98876,7.49328,7.49328,0,0,1,.85694-3.62549,10.10973,10.10973,0,0,1,2.14233-2.7356,11.61385,11.61385,0,0,1,2.83447-1.87866,19.78891,19.78891,0,0,1,2.93335-1.12061q0-1.38427-.06592-2.60376t-.23071-2.406q-.16479-1.18653-.39551-2.50488t-.5603-3.03223l1.97754-.85693A18.11467,18.11467,0,0,1,63.2,26.38477a23.84913,23.84913,0,0,1,2.53784,1.94458,21.79029,21.79029,0,0,1,4.5813,5.66894l.65918-.13183a53.03355,53.03355,0,0,0,.824-5.27344q.29662-2.76856.49438-6.06446l2.70264-.52734a38.41849,38.41849,0,0,1,2.93335,2.99927,33.86467,33.86467,0,0,1,2.83447,3.72436,37.95255,37.95255,0,0,1,2.53784,4.51538,32.33079,32.33079,0,0,1,1.97754,5.3064q1.05469,1.31973,2.27417,2.70264,1.21949,1.38427,2.66968,2.96631t3.1311,3.42773q1.68091,1.8457,3.65845,4.15283a61.65525,61.65525,0,0,1,5.57007,7.94312A78.0468,78.0468,0,0,1,107.92529,70.418a86.56679,86.56679,0,0,1,3.988,12.22778,52.03371,52.03371,0,0,1,1.582,12.52442q0,4.021-.13183,7.08618t-.42847,5.99853q-.29664,2.93335-.75806,6.16333t-1.1206,7.58057Z"/>
    <path d="M76.71313,60.16772a33.90433,33.90433,0,0,1,1.15357,4.44947,25.04626,25.04626,0,0,1,.42847,4.64721,16.96035,16.96035,0,0,1-1.84571,8.042,31.39219,31.39219,0,0,1-4.61425,6.52588A71.9257,71.9257,0,0,1,65.83667,89.666a69.05963,69.05963,0,0,0-5.99854,5.86669,31.46947,31.46947,0,0,0-4.61425,6.62476,17.50587,17.50587,0,0,0-1.84571,8.17383,26.782,26.782,0,0,0,.26368,4.021q.26367,1.71525.59326,3.03223h52.66845q.39552-2.5708.7251-4.94385t.59326-4.94384q.26369-2.5708.39551-5.50415.13184-2.932.13184-6.62476a57.68821,57.68821,0,0,0-.95581-10.15137A68.31394,68.31394,0,0,0,104.926,74.47192a73.35691,73.35691,0,0,0-4.7461-10.61279,61.38031,61.38031,0,0,0-6.52588-9.68994q-1.582-1.91162-2.93335-3.46069-1.35132-1.5477-2.70263-3.03223-1.35132-1.48316-2.86744-3.1311-1.51611-1.64658-3.36181-3.75733A27.55716,27.55716,0,0,0,79.1521,33.471a25.98466,25.98466,0,0,0-3.88916-5.669h-.39551q-.19774,2.11076-.42847,4.51538a27.06751,27.06751,0,0,1-.758,4.38355,24.72886,24.72886,0,0,1-3.197.69214q-1.87866.29662-3.92212.72509-2.04346.42984-4.08692,1.02173A16.77593,16.77593,0,0,0,58.81641,40.656a8.62348,8.62348,0,0,0-2.63672,2.27417A5.25374,5.25374,0,0,0,55.158,46.19312a7.23285,7.23285,0,0,0,.06592.95581,6.66927,6.66927,0,0,0,.19775.95581,90.37325,90.37325,0,0,0-9.22851,9.39331q-4.08691,4.845-7.11915,8.866-.791.59327-1.582,1.21949a17.06607,17.06607,0,0,0-1.45019,1.2854,7.52411,7.52411,0,0,0-1.08765,1.35131,2.56625,2.56625,0,0,0-.42847,1.35132,5.45269,5.45269,0,0,0,.32959,1.84571,8.16562,8.16562,0,0,0,.791,1.64795q.98877,3.69277,2.80151,5.1416A6.41723,6.41723,0,0,0,42.56763,81.657a5.85829,5.85829,0,0,0,3.23-1.08764,11.624,11.624,0,0,0,3.16406-3.39478q1.38428-.52734,2.5708-.98877,1.18653-.46,2.27417-.95581a17.69809,17.69809,0,0,0,2.17529-1.18652A28.607,28.607,0,0,0,58.322,72.36255a17.1651,17.1651,0,0,0,5.57007-.95581,19.07526,19.07526,0,0,0,5.04272-2.5708,13.85913,13.85913,0,0,0,3.65845-3.8562,8.84036,8.84036,0,0,0,1.41724-4.812Z" style="fill: #fff"/>
    <path d="M44.41333,69.65991l.06592.39551a20.07378,20.07378,0,0,0-3.16406,2.20825,10.29206,10.29206,0,0,1-3.16407,1.87866,4.96641,4.96641,0,0,1-.98877-1.25244,4.67672,4.67672,0,0,1-.59326-1.71386Z"/>
    <path d="M58.91528,49.8186a4.183,4.183,0,0,1-.32959-1.45019,2.02922,2.02922,0,0,1,.46143-1.38428,2.89661,2.89661,0,0,1,1.1206-.791,5.03364,5.03364,0,0,1,1.4502-.32959c.52734-.043.98877-.06592,1.38428-.06592a22.13865,22.13865,0,0,1,3.1311.23071,20.042,20.042,0,0,0,2.80151.23071,7.94254,7.94254,0,0,1-2.07641,1.582,16.22446,16.22446,0,0,1-2.60376,1.12061,15.81844,15.81844,0,0,1-2.76856.65918A18.25478,18.25478,0,0,1,58.91528,49.8186Z"/>
    <path d="M66.62769,34.92114a24.23356,24.23356,0,0,0-1.51612-2.60376,9.82405,9.82405,0,0,0-2.373-2.406l-.19776.06591a14.01654,14.01654,0,0,1,.52735,2.70264q.13184,1.38428.19775,3.09815Z" style="fill: #fff"/>
    <path d="M88.57837,51.86206A64.07219,64.07219,0,0,1,97.08179,63.991q1.582,2.96631,3.1311,6.52588a65.75915,65.75915,0,0,1,2.76856,7.7124,68.08212,68.08212,0,0,1,1.94458,8.89892,66.34156,66.34156,0,0,1,.72509,10.01954,75.87633,75.87633,0,0,1-.3955,7.61352,69.29677,69.29677,0,0,1-1.31836,8.075H96.35669q.92284-3.2286,1.54907-6.19629.62622-2.96631,1.02173-5.83374t.5603-5.7019q.16481-2.83309.1648-5.8667A64.74262,64.74262,0,0,0,96.884,70.22021,83.86187,83.86187,0,0,0,88.57837,51.86206Z"/>
  </g>
</svg>
